<svg xmlns="http://www.w3.org/2000/svg" width="55" height="54" viewBox="0 0 55 54">
    <defs>
        <linearGradient id="linear-gradient" x1="-29.309" x2="-27.295" y1="13.01" y2="13.01" gradientUnits="objectBoundingBox">
            <stop offset="0" stop-color="#aeadad"/>
            <stop offset="1" stop-color="#fff"/>
        </linearGradient>
        <style>
            .cls-2{fill:#1a1718}
        </style>
    </defs>
    <g id="Group_2952" transform="translate(.478 -.231)">
        <g id="Rectangle_70" fill="#fff" stroke="#fff" transform="translate(-.478 .231)">
            <rect width="55" height="54" stroke="none" rx="10"/>
            <rect width="54" height="53" x=".5" y=".5" fill="none" rx="9.5"/>
        </g>
        <g id="Group_227" transform="translate(8.89 14.921)">
            <path id="Path_1085" d="M469.086 407.693c0 4.458-5.9 8.071-13.185 8.071s-13.185-3.613-13.185-8.071c0-4.44 5.907-8.055 13.185-8.055s13.185 3.615 13.185 8.055z" class="cls-2" transform="translate(-436.813 -398.859)"/>
            <g id="Group_226">
                <g id="Group_224" transform="translate(5.902)">
                    <path id="Path_1086" fill="url(#linear-gradient)" d="M469.086 406.658c0 4.443-5.9 8.052-13.185 8.052s-13.185-3.609-13.185-8.052 5.907-8.064 13.185-8.064 13.185 3.606 13.185 8.064z" transform="translate(-442.715 -398.594)"/>
                    <g id="Group_223" transform="translate(4.132 .2)">
                        <path id="Path_1087" fill="#2e9638" d="M462.69 408.514c-2.155-2.495-.712-4.444.263-5.223a16.436 16.436 0 0 1 5.014-2.616c-.261-.12-.513-.234-.786-.34a19.784 19.784 0 0 0-6.226 3c-3.052 1.943-1.838 4.03-1.582 4.461a32.1 32.1 0 0 0 5.734 6.733 15.855 15.855 0 0 0 2.972-1.052 27.312 27.312 0 0 1-5.389-4.963z" transform="translate(-450.962 -399.236)"/>
                        <path id="Path_1088" fill="#c12b24" d="M458.64 402.717a35.03 35.03 0 0 1 6.158-2.982c-.351-.112-.7-.21-1.057-.3a34.943 34.943 0 0 0-8.091 3.789c-2.355 1.606-2.339 3.16-1.722 4.76a28.008 28.008 0 0 0 4.5 6.941h.231a20.18 20.18 0 0 0 3.494-.281 34.928 34.928 0 0 1-5.094-6.755c-1.508-3.358.508-4.342 1.581-5.172z" transform="translate(-449.605 -399.008)"/>
                        <path id="Path_1089" fill="#092d7a" d="M454.356 402.271a41 41 0 0 1 6.763-3.266c-.3-.042-.605-.106-.919-.143a39.5 39.5 0 0 0-7.69 2.937c-.467.243-2.919 1.587-3.83 3.163-.922 1.594-.154 3.483.469 4.857a29.551 29.551 0 0 0 2.518 4.2 19.458 19.458 0 0 0 3.517.648c-.525-.648-3.7-4.755-4.09-7.362-.114-.75-.47-2.672 3.262-5.034z" transform="translate(-448.253 -398.862)"/>
                    </g>
                </g>
                <g id="Group_225" transform="translate(0 20.21)">
                    <path id="Path_1090" d="M436.063 426.51c.846 0 1.46 0 1.46 1.432 0 1.383-.538 1.415-1.189 1.415h-.656v-2.847zm-1.259-.731v4.312h1.628a1.908 1.908 0 0 0 1.438-.488 2.357 2.357 0 0 0 .546-1.623 2.539 2.539 0 0 0-.362-1.47 1.717 1.717 0 0 0-1.659-.731z" class="cls-2" transform="translate(-434.804 -425.707)"/>
                    <path id="Path_1091" d="M442 426.51a2.951 2.951 0 0 1 .844.041.435.435 0 0 1 .322.443c0 .47-.439.5-.733.5h-.933v-.986zm-1.363-.731v4.312h1.451a3.373 3.373 0 0 0 1.443-.138 1.235 1.235 0 0 0 .694-1.118 1.032 1.032 0 0 0-.812-1.04 1 1 0 0 0 .608-.931 1.071 1.071 0 0 0-.454-.861 2.094 2.094 0 0 0-1.226-.223zm1.55 2.434c.614 0 1.147 0 1.147.6a.5.5 0 0 1-.357.5 3.023 3.023 0 0 1-.68.048h-.8v-1.144z" class="cls-2" transform="translate(-436.285 -425.707)"/>
                    <path id="Path_1092" d="M447.8 426.51a3.066 3.066 0 0 1 .854.041.429.429 0 0 1 .317.443c0 .47-.441.5-.728.5h-.943v-.986zm-1.377-.731v4.312h1.477a3.322 3.322 0 0 0 1.43-.138 1.236 1.236 0 0 0 .7-1.118 1.023 1.023 0 0 0-.81-1.04.994.994 0 0 0 .6-.931 1.055 1.055 0 0 0-.452-.861 2.045 2.045 0 0 0-1.212-.223zm1.582 2.434c.593 0 1.137 0 1.137.6a.506.506 0 0 1-.365.5 2.985 2.985 0 0 1-.679.048h-.8v-1.144z" class="cls-2" transform="translate(-437.755 -425.707)"/>
                    <path id="Path_1093" d="M452.251 425.779h.85v3.578h2.169v.733h-3.019z" class="cls-2" transform="translate(-439.234 -425.707)"/>
                    <path id="Path_1094" d="M459.415 425.779h.848l1.755 2.871v-2.871h.8v4.312h-.877l-1.693-2.807h-.027v2.807h-.812z" class="cls-2" transform="translate(-441.053 -425.707)"/>
                    <path id="Path_1095" d="M465.21 425.779h3.19v.731h-2.322v.954h2.158v.73h-2.158v1.163h2.4v.733h-3.268z" class="cls-2" transform="translate(-442.525 -425.707)"/>
                    <path id="Path_1096" d="M471.441 427.837l-1.335-2.058h1.012l.863 1.388.849-1.388h1l-1.321 2.1 1.466 2.214h-1.059l-.946-1.5-.965 1.5h-1.044z" class="cls-2" transform="translate(-443.732 -425.707)"/>
                    <path id="Path_1097" d="M476.812 425.779v2.32a1.923 1.923 0 0 0 .111.932.8.8 0 0 0 .748.384c.842 0 .842-.529.842-1.255v-2.381h.861v2.259a2.609 2.609 0 0 1-.256 1.518 1.535 1.535 0 0 1-1.4.6c-1.775 0-1.775-1.079-1.775-2.085v-2.291z" class="cls-2" transform="translate(-445.25 -425.707)"/>
                    <path id="Path_1098" d="M482.343 428.57a.867.867 0 0 0 .924.833c.619 0 .862-.314.862-.593 0-.354-.3-.436-1.1-.626-.421-.111-1.368-.339-1.368-1.3 0-.458.305-1.2 1.562-1.2.833 0 1.609.327 1.647 1.314l-.877.031c-.034-.224-.1-.63-.784-.63-.255 0-.726.082-.726.428 0 .276.274.4.956.561.665.155 1.544.363 1.544 1.422a1.25 1.25 0 0 1-.7 1.127 2.506 2.506 0 0 1-1.022.194 1.56 1.56 0 0 1-1.773-1.468z" class="cls-2" transform="translate(-446.66 -425.683)"/>
                </g>
            </g>
        </g>
    </g>
</svg>
