<svg xmlns="http://www.w3.org/2000/svg" width="277.9" height="121" viewBox="0 0 277.9 121">
  <g id="Group_347" data-name="Group 347" transform="translate(12445.35 -21771.398)">
    <path id="Path_1107" data-name="Path 1107" d="M1434.3,197l-2.8,16.5-3.6-16.5h-34.6c-8.4-5.5-19.9-5.5-25.7-5.5-12.2,0-29.4,0-35.9,16.2-6.9-6.8-17.3-7.6-28.4-7.6h-.5c-9.3,0-24.8,0-31.7,12.6-4.7-16.3-15.9-22.7-37.2-22.7-33.3,0-39.8,16.8-39.8,46s6.6,45.8,39.8,45.8a70.9,70.9,0,0,0,18.2-1.9,13.6,13.6,0,0,0-3.7,6.5h-13.5v24h24.5V310a31.4,31.4,0,0,0,7.4.7c4.8,0,9-.2,12.5-2.3l1.9-1.3a32.6,32.6,0,0,0,9.2,1.1l5.8-.3v2h40.2V311h24.5v-.7h11.4c5.4,0,9.3-1.5,12-3.7a22.2,22.2,0,0,0,7.2,1.1l3.1-.2h11.8v1.7l8.4.5h2a41.9,41.9,0,0,0,5,.3c23.1,0,30.2-12.3,33.5-30.7L1472,197Z" transform="translate(-13639.449 21581.398)" fill="#fff"/>
    <path id="Path_1108" data-name="Path 1108" d="M1233.9,281.8c5.8,0,12.2-.3,18.1-1.9a14.3,14.3,0,0,0-3.6,6.5h-13.5v24h24.4V310a32.3,32.3,0,0,0,7.5.7c4.7,0,9-.2,12.5-2.3l1.9-1.3a32.2,32.2,0,0,0,9.2,1.1,54.375,54.375,0,0,0,5.7-.3l0,2h40.3V311h24.4v-.7h11.4c5.5,0,9.4-1.5,12.1-3.7a21.8,21.8,0,0,0,7.2,1.1l3.1-.2h11.8v1.7l8.3.5h2.1a40.3,40.3,0,0,0,4.9.3c23.2,0,30.2-12.3,33.6-30.7l6.4-31.6H1194.6C1196.7,269.1,1205.7,281.8,1233.9,281.8Z" transform="translate(-13639.449 21581.398)" fill="#f2f2f2"/>
    <path id="Path_1109" data-name="Path 1109" d="M1265.8,247.9c0,10.9-3.1,17.1-8.6,20.7s-13.1,4.3-22.3,4.3c-24.9,0-31-9.9-31-36.9s5.6-37.1,31-37.1c23.8,0,30.9,7.5,30.9,37.1v3.9h-41.1c0,12.7,1.7,16.5,10.2,16.5,6.4,0,10.5-.9,10.5-8.5Zm-20.8-21c0-10.8-3.4-11.5-10.4-11.5s-9.7,1.9-9.9,11.5Z" transform="translate(-13639.449 21581.398)" fill="#176eff"/>
    <path id="Path_1110" data-name="Path 1110" d="M1313.6,265.6h-.6c-1.5,9-10.2,10.5-16.9,10.5-13.3,0-21.1-3.6-21.1-20.4s7.3-20.6,21.1-20.6c5.5,0,13.9-.1,16,7.4h.9V232.1c0-6.2-.4-10-8.7-10-4.8,0-7.8,1.2-7.8,7.1h-19.2c0-20.4,13.3-20.3,27-20.3,19.6,0,27.8,2.8,27.8,25.4v41.1H1313Zm-19.5-10.5c0,7.2,5.5,7.2,8.4,7.2,8,0,10.5-1.2,10.5-8.1s-4.3-6-10.5-6C1297.8,248.2,1294.1,249.1,1294.1,255.1Z" transform="translate(-13639.449 21581.398)" fill="#176eff"/>
    <path id="Path_1111" data-name="Path 1111" d="M1376.6,220.9c-.3-2.9-1.6-4.3-3.1-5.1a11.7,11.7,0,0,0-4.9-.7c-10.4,0-10.4,1.5-10.4,5.6s.2,5.8,10.4,6.1c20.5.5,29.6,1.9,29.6,21.4s-13.7,23.5-29.6,23.5-29.6.4-29.6-22.6h19.8c0,7.9,4.9,7.9,9.8,7.9,9,0,10.4-.7,10.4-6.1,0-7-3.5-7-10.4-7-25.1,0-29.6-6.5-29.6-20.7,0-22.5,12.8-22.9,29.6-22.9,11,0,26.7.2,26.7,17.3v3.3Z" transform="translate(-13639.449 21581.398)" fill="#176eff"/>
    <path id="Path_1112" data-name="Path 1112" d="M1447.6,277.8c-3.2,17.3-8.8,23.5-24.9,23.5-2.2,0-4.2-.2-6.4-.4v-15a18.4,18.4,0,0,0,3.3.3c7.9,0,9.5-6.7,9.9-14.2h-10.4l-17.2-66.1h19.9l11.4,53.8h.2l9.4-53.8h19.3Z" transform="translate(-13639.449 21581.398)" fill="#176eff"/>
    <path id="Path_1113" data-name="Path 1113" d="M1251.5,301.6h-6.7v-6.3h6.7Z" transform="translate(-13639.449 21581.398)" fill="#ffc106"/>
    <path id="Path_1114" data-name="Path 1114" d="M1278.4,294.6c0,3.3-.7,5.1-2.4,6.1s-4.3,1.2-8.2,1.2c-8.5,0-10.5-2.1-10.5-9s1.5-9,10.5-9c6.3,0,10.6.6,10.6,6.8h-7.2a1.9,1.9,0,0,0-.6-1.9,5.5,5.5,0,0,0-2.8-.5c-2.5,0-3.3.6-3.3,4.6s.6,4.5,3.3,4.5,3.4-.6,3.4-2.8Z" transform="translate(-13639.449 21581.398)" fill="#ffc106"/>
    <path id="Path_1115" data-name="Path 1115" d="M1302.4,290.4c0,7.2-1.9,9-11,9s-11-2-11-9,1.8-9,11-9S1302.4,283,1302.4,290.4Zm-14.8,0c0,3.8.4,4.6,3.9,4.6s3.7-.8,3.7-4.6-.4-4.6-3.7-4.6S1287.6,286.6,1287.6,290.4Z" transform="translate(-13639.449 21581.398)" fill="#ffc106"/>
    <path id="Path_1116" data-name="Path 1116" d="M1313,284.2v2.4h.3c.8-2,3.5-2.6,6-2.6s6.2.4,6.6,3.3h.3c.4-2.4,3.4-3.3,6.1-3.3,5.1,0,7.7,1.6,7.7,5.5V301h-7.2v-9.7c-.1-1.8-.1-3.1-2.9-3.1s-3.3,1.5-3.3,3.3V301h-7.2V290.8c-.1-1.5-.2-2.6-2.7-2.6s-3.5,1.2-3.5,3.3V301H1306V284.2Z" transform="translate(-13639.449 21581.398)" fill="#ffc106"/>
    <path id="Path_1117" data-name="Path 1117" d="M1353,302.1h-6.7v-6.3h6.7Z" transform="translate(-13639.449 21581.398)" fill="#ffc106"/>
    <path id="Path_1118" data-name="Path 1118" d="M1366.9,277.2v9.7h.3c1.2-2.2,3.4-2.6,6.1-2.6,5.9,0,8.2,2,8.2,7.2v3.9c0,4.4-3,6.2-8.2,6.2-3.2,0-5.4-.6-6.3-3.1h-.3l.2,2.9h-7.2V277.2Zm7.5,15.7c0-2.8-.3-4.4-3.6-4.4s-3.9.6-3.9,4.4.1,4.4,3.9,4.4,3.6-.8,3.6-4.4Z" transform="translate(-13639.449 21581.398)" fill="#ffc106"/>
    <path id="Path_1119" data-name="Path 1119" d="M1406,298.7h-7.1v-2.8h-.3c-.8,2.4-3.1,3-6.2,3-5.3,0-8.3-1.7-8.3-6.1V289c0-5,2.3-7,8.3-7,2.6,0,4.9.4,6,2.5h.4v-9.4h7.1Zm-11-3.9c3,0,3.9-.6,3.9-4.3s-.1-4.4-3.9-4.4-3.6,1.1-3.6,4.4.6,4.3,3.6,4.3Z" transform="translate(-13639.449 21581.398)" fill="#ffc106"/>
  </g>
</svg>
