<svg xmlns="http://www.w3.org/2000/svg" width="52" height="52" viewBox="0 0 52 52">
  <g id="Group_150" data-name="Group 150" transform="translate(-161.5 -284.5)">
    <rect id="Rectangle_411" data-name="Rectangle 411" width="52" height="52" transform="translate(161.5 284.5)" fill="#fff" opacity="0"/>
    <path id="Path_1101" data-name="Path 1101" d="M2027.96-17145.5v18.219h33.213v-11.611h3.547l-3.547-6.607Z" transform="translate(-1856.592 17458.842)" fill="#4188ff"/>
    <g id="_1897202" data-name="1897202" transform="translate(166.5 289.5)">
      <path id="Path_1044" data-name="Path 1044" d="M31.844.505V23.236H4.767V.505L6.9,3.284,9.755.433,12.6,3.284,15.456.433,18.3,3.212,21.155.433l2.851,2.851L26.857.433l2.85,2.851Z" transform="translate(3.073 0.281)" fill="#ffd627"/>
      <path id="Path_1045" data-name="Path 1045" d="M42.653,30.274l-4.275-7.125a.712.712,0,0,0-.61-.345H35.63V.713A.712.712,0,0,0,34.347.285L32.7,2.479,30.434.21a.712.712,0,0,0-1.008,0L27.079,2.556,24.732.21a.712.712,0,0,0-1-.007L21.373,2.5,19.026.2a.712.712,0,0,0-1,0L15.678,2.556,13.33.21a.712.712,0,0,0-1.006,0L10.054,2.479,8.41.285A.712.712,0,0,0,7.127.713V22.8H4.989a.7.7,0,0,0-.6.352l-.01-.007L.1,30.274a.712.712,0,0,0,.61,1.08H4.276V42.044a.712.712,0,0,0,.712.712h32.78a.712.712,0,0,0,.712-.712V31.355h3.563a.712.712,0,0,0,.61-1.08ZM8.551,2.85l.855,1.141a.712.712,0,0,0,1.074.076l2.347-2.347,2.347,2.347a.711.711,0,0,0,1.008,0l2.352-2.352L20.873,4a.712.712,0,0,0,1,0l2.352-2.287,2.352,2.352a.714.714,0,0,0,1.008,0l2.348-2.345,2.347,2.347a.707.707,0,0,0,1.074-.076L34.2,2.85V22.8H8.551ZM1.972,29.929l2.3-3.841v3.841ZM17.1,41.33H5.7v-17.1H17.1Zm19.952,0H18.528V26.088l2.952,4.92a.714.714,0,0,0,.61.345H37.054V41.33ZM22.5,29.929l-3.42-5.7H37.362l3.42,5.7Z" transform="translate(0 0.001)" fill="#1f2226"/>
      <path id="Path_1046" data-name="Path 1046" d="M19.953,23.4H25.3v1.426H19.953Zm-3.92,0h1.426v1.426H16.033Z" transform="translate(10.333 15.081)" fill="#fff"/>
      <path id="Path_1047" data-name="Path 1047" d="M11.067,7.236l.25,1.115a.845.845,0,0,1,.306-.059c.544,0,.824.388.824.993,0,1.569-.786,2.83-2.116,2.83a.932.932,0,0,1-1.052-1.006V7.294H10V6.261H9.278V5.455c0-1.274-.557-2.093-1.837-2.093-.127,0-.291.015-.431.028v1.1h.253c.646,0,.849.3.849,1.006v.765H7V7.294H8.112v3.815a2,2,0,0,0,2.22,2.121c2.166,0,3.243-1.908,3.243-3.947a1.916,1.916,0,0,0-1.914-2.146A1.888,1.888,0,0,0,11.067,7.236Z" transform="translate(11.51 5.168)" fill="#1f2226" stroke="#1f2226" stroke-width="0.2" fill-rule="evenodd"/>
    </g>
  </g>
</svg>
