<svg xmlns="http://www.w3.org/2000/svg" width="53" height="54" viewBox="0 0 53 54">
    <defs>
        <clipPath id="clip-path">
            <path id="Path_1131" d="M81.714 490.239a5.353 5.353 0 0 1-5.119 5.558H58.136a5.358 5.358 0 0 1-5.124-5.558v-17.513a5.357 5.357 0 0 1 5.124-5.56h18.459a5.352 5.352 0 0 1 5.119 5.56z" class="cls-1" transform="translate(-53.012 -467.166)"/>
        </clipPath>
        <style>
            .cls-1{fill:none}.cls-8{fill:#fff}.cls-3{fill:#e00e1d}.cls-11{fill:#df0a1e}
        </style>
    </defs>
    <g id="Group_3255" transform="translate(-.331)">
        <g id="Rectangle_49" fill="#fff" stroke="#fff" transform="translate(.331)">
            <rect width="53" height="54" stroke="none" rx="10"/>
            <rect width="52" height="53" x=".5" y=".5" class="cls-1" rx="9.5"/>
        </g>
        <g id="Group_238" transform="translate(13.562 12.582)">
            <path id="Path_1099" d="M81.714 490.239a5.353 5.353 0 0 1-5.119 5.558H58.136a5.358 5.358 0 0 1-5.124-5.558v-17.513a5.357 5.357 0 0 1 5.124-5.56h18.459a5.352 5.352 0 0 1 5.119 5.56z" class="cls-3" transform="translate(-52.743 -466.925)"/>
            <g id="Group_233" transform="translate(2.188 21.587)">
                <g id="Group_231" transform="translate(12.103 .75)">
                    <g id="Group_229">
                        <path id="Path_1100" fill="#adaeb0" d="M75.808 500.178a.784.784 0 0 1-.781.786h-2.256a.781.781 0 0 1-.784-.786v-2.355a.785.785 0 0 1 .784-.787h2.257a.787.787 0 0 1 .781.787z" transform="translate(-71.965 -497.025)"/>
                        <path id="Path_1101" d="M75.808 499.022v-1.2a.787.787 0 0 0-.781-.787h-2.256a.785.785 0 0 0-.784.787v1.2z" transform="translate(-71.965 -497.025)" style="isolation:isolate;mix-blend-mode:overlay" fill="#fff"/>
                        <g id="Group_228">
                            <path id="Path_1102" fill="#3b1112" d="M75.02 500.976h-2.257a.8.8 0 0 1-.806-.8v-2.355a.8.8 0 0 1 .806-.8h2.257a.8.8 0 0 1 .793.8v2.355a.8.8 0 0 1-.793.8zm-2.257-3.926a.776.776 0 0 0-.772.769v2.355a.775.775 0 0 0 .772.773h2.257a.771.771 0 0 0 .765-.773v-2.355a.772.772 0 0 0-.765-.769z" transform="translate(-71.957 -497.021)"/>
                        </g>
                    </g>
                    <g id="Group_230" transform="translate(.388 .394)">
                        <path id="Path_1103" d="M75.028 497.846a1.642 1.642 0 0 0-.976-.293 1.739 1.739 0 0 0-1.013.288 1.39 1.39 0 0 0-.558 1.269 1.448 1.448 0 0 0 .434 1.115 1.742 1.742 0 0 0 2.221-.066 1.486 1.486 0 0 0 .424-1.086 1.358 1.358 0 0 0-.532-1.227zm-.322 1.946a.855.855 0 0 1-.679.341.791.791 0 0 1-.665-.324 1.18 1.18 0 0 1 .084-1.506.85.85 0 0 1 .613-.26.787.787 0 0 1 .669.324 1.155 1.155 0 0 1 .209.722 1.1 1.1 0 0 1-.231.703z" transform="translate(-72.481 -497.553)" style="mix-blend-mode:multiply;isolation:isolate" fill="#3b1112"/>
                        <path id="Path_1104" d="M75.032 497.934a1.835 1.835 0 0 0-1.934-.01 1.361 1.361 0 0 0-.541 1.227 1.491 1.491 0 0 0 .407 1.114 1.513 1.513 0 0 0 1.108.4 1.41 1.41 0 0 0 1.511-1.515 1.373 1.373 0 0 0-.551-1.216zm-.3 1.934a.826.826 0 0 1-1.333-.017 1.1 1.1 0 0 1-.219-.685 1.022 1.022 0 0 1 .309-.8.848.848 0 0 1 1.254.07 1.174 1.174 0 0 1 .215.728 1.1 1.1 0 0 1-.224.704z" class="cls-3" transform="translate(-72.501 -497.579)"/>
                    </g>
                </g>
                <path id="Path_1105" d="M69.831 496.042h-.625v1.172h-.589v.424h.589v1.7a.961.961 0 0 0 .219.67.869.869 0 0 0 .646.236h.659v-.458h-.44a.391.391 0 0 1-.365-.233 1.171 1.171 0 0 1-.095-.486v-1.427h.9v-.424h-.9zm8.965 1.411a1.43 1.43 0 0 0-.546 1.279 1.405 1.405 0 0 0 .486 1.182 1.7 1.7 0 0 0 1.086.328h1.023v-.481h-.882a1.179 1.179 0 0 1-.732-.189 1.026 1.026 0 0 1-.3-.839 1.217 1.217 0 0 1 .186-.729.9.9 0 0 1 .764-.294h.969v-.5h-1.029a1.934 1.934 0 0 0-1.021.243zm-1.479 2.3h-.791a.645.645 0 0 1-.525-.2.671.671 0 0 1-.129-.455v-1.887h-.621v1.953a1.066 1.066 0 0 0 .3.853 1.491 1.491 0 0 0 .9.222h1.485v-3.029h-.624zm6.15-2.351a1.614 1.614 0 0 0-.869-.188h-.83v-1.172h-.614v4.2h.614v-2.516h.78a.571.571 0 0 1 .668.67v1.846h.642V498.3a.983.983 0 0 0-.391-.9z" class="cls-8" transform="translate(-58.985 -496.016)"/>
                <g id="Group_232">
                    <path id="Path_1106" d="M58.187 498.068H57.1c-.662 0-.867.543-.869 1.058s.207 1.062.869 1.062h1.091v.469H56.91a1.372 1.372 0 0 1-1.306-1.531 1.354 1.354 0 0 1 1.306-1.526h1.277z" class="cls-8" transform="translate(-55.604 -496.42)"/>
                    <path id="Path_1107" d="M59.529 496.623v-.616h.581v.616zm.581.562v3.059h-.581v-3.059z" class="cls-8" transform="translate(-56.624 -496.007)"/>
                    <path id="Path_1108" d="M60.687 497.184h.6v-1.177h.58v1.177h.912v.47h-.912v1.825a.3.3 0 0 0 .078.21.276.276 0 0 0 .221.085h.614v.469h-.91a.517.517 0 0 1-.379-.16.609.609 0 0 1-.2-.44v-1.989h-.6z" class="cls-8" transform="translate(-56.925 -496.007)"/>
                    <path id="Path_1109" d="M64.52 500.028a.547.547 0 0 0 .4.161h.98V497.6h.574v3.171a.719.719 0 0 1-.17.533.752.752 0 0 1-.638.288h-1.871v-.464h1.65a.445.445 0 0 0 .362-.11.455.455 0 0 0 .094-.3v-.057h-1.088a.974.974 0 0 1-.693-.2.9.9 0 0 1-.326-.757v-2.1h.584v2.046a.458.458 0 0 0 .142.378z" class="cls-8" transform="translate(-57.733 -496.42)"/>
                </g>
            </g>
            <g id="Group_236" transform="translate(.269 .241)">
                <g id="Group_235" clip-path="url(#clip-path)">
                    <g id="Group_234" transform="translate(-2.668 -6.616)">
                        <path id="Path_1110" d="M63.344 469.245h.01c-1.26-1.864-2.477-3.714-3.745-5.9a20.906 20.906 0 0 0 6.069-5.119 28 28 0 0 0 5.669 10.055 25.7 25.7 0 0 0-8 .963" class="cls-8" transform="translate(-52.058 -458.227)"/>
                        <path id="Path_1111" d="M60.724 471.042c-.111.03-.215.07-.318.1a20.186 20.186 0 0 0-8.5 4.993 15.855 15.855 0 0 0-2.382-7.919 32.094 32.094 0 0 0 7.461-3.072c1.268 2.185 2.485 4.034 3.745 5.9z" class="cls-8" transform="translate(-49.438 -460.024)"/>
                        <path id="Path_1113" d="M83.478 481.068c-5.328-1.827-10.149-2.658-14.634-1.807.009 0 .024-.011.032-.011-1.4-2.336-2.755-4.313-4.187-6.448a25.275 25.275 0 0 1 8.014-.948 46.5 46.5 0 0 0 10.775 9.214" class="cls-8" transform="translate(-53.378 -461.763)"/>
                        <path id="Path_1114" d="M63.226 471.091c-1.179-1.758-2.439-3.664-3.744-5.9l.187-.141c1.3 2.24 2.559 4.143 3.738 5.9z" class="cls-11" transform="translate(-52.025 -460.001)"/>
                        <path id="Path_1115" d="M64.708 472.877l-.06-.229a25.23 25.23 0 0 1 8.052-.948l-.012.241a25.117 25.117 0 0 0-7.982.937" class="cls-11" transform="translate(-53.368 -461.722)"/>
                        <path id="Path_1116" d="M64.668 472.84l-.058-.229a25.686 25.686 0 0 1 8.042-.968l-.008.246a25.29 25.29 0 0 0-7.975.952" class="cls-11" transform="translate(-53.358 -461.709)"/>
                        <path id="Path_1117" d="M64.668 472.84l-.058-.229a25.686 25.686 0 0 1 8.042-.968h.066v.246h-.071a25.3 25.3 0 0 0-7.978.952" class="cls-11" transform="translate(-53.358 -461.709)"/>
                        <path id="Path_1118" d="M64.708 472.877l-.06-.229a25.23 25.23 0 0 1 8.052-.948l.057-.006.113.247h-.179a25.125 25.125 0 0 0-7.985.937" class="cls-11" transform="translate(-53.368 -461.722)"/>
                        <path id="Path_1119" d="M52.8 478.287l-.158-.179a20.138 20.138 0 0 1 8.534-5.018l.065.238a19.87 19.87 0 0 0-8.442 4.96" class="cls-11" transform="translate(-50.248 -462.089)"/>
                        <path id="Path_1120" d="M52.8 478.344l-.155-.176a20.144 20.144 0 0 1 8.552-5.042l.062.231a19.881 19.881 0 0 0-8.459 4.988" class="cls-11" transform="translate(-50.249 -462.098)"/>
                        <path id="Path_1121" d="M52.707 478.349l-.145-.186.064-.058a20.12 20.12 0 0 1 8.53-5.015l.065.238a19.87 19.87 0 0 0-8.442 4.96z" class="cls-11" transform="translate(-50.227 -462.089)"/>
                        <path id="Path_1122" d="M64.24 473.293l-.061-.238a1.456 1.456 0 0 0 .2-.062l.121-.036.064.229-.115.043c-.069.019-.137.041-.2.064" class="cls-11" transform="translate(-53.246 -462.055)"/>
                        <path id="Path_1123" d="M64.265 473.323l-.055-.231c.055-.021.1-.031.158-.054s.09-.025.132-.039l.064.239a.871.871 0 0 0-.134.036c-.049.016-.111.033-.166.049" class="cls-11" transform="translate(-53.254 -462.066)"/>
                        <path id="Path_1124" d="M64.24 473.293l-.061-.238a1.456 1.456 0 0 0 .2-.062l.121-.036.064.229-.115.043c-.069.019-.137.041-.2.064" class="cls-11" transform="translate(-53.246 -462.055)"/>
                        <path id="Path_1125" d="M51.887 478.264a20.026 20.026 0 0 1 8.506-5.02c.1-.026.19-.059.289-.093h.018l.015-.007c1.432 2.135 2.792 4.112 4.187 6.448-.007 0-.023.011-.032.011-.074.016-.151.028-.229.052-5.4 1.156-9.9 4.677-13.713 12.14-.517 1.034-1.028 2.127-1.524 3.3.056-.2.1-.381.158-.58a61.4 61.4 0 0 0 2.322-12.464 30.609 30.609 0 0 0 0-3.789" class="cls-8" transform="translate(-49.407 -462.103)"/>
                        <path id="Path_1126" d="M52.591 478.49l-.145-.183.155-.143a20.118 20.118 0 0 1 8.547-5.04l.062.231a19.881 19.881 0 0 0-8.459 4.988z" class="cls-11" transform="translate(-50.197 -462.098)"/>
                        <path id="Path_1127" d="M64.265 473.315l-.055-.231c.055-.021.1-.031.158-.054s.09-.025.226-.062l.061.23c-.13.037-.178.053-.224.068s-.111.033-.166.049" class="cls-11" transform="translate(-53.254 -462.058)"/>
                        <path id="Path_1128" d="M68.753 479.637c-1.237-2.068-2.43-3.832-3.688-5.7l-.5-.75.184-.142.5.745c1.258 1.873 2.519 3.77 3.755 5.84z" class="cls-11" transform="translate(-53.345 -462.078)"/>
                        <path id="Path_1129" d="M69.994 481.8c.078-.024.155-.036.229-.052 4.484-.851 9.306-.02 14.634 1.807.295.186.6.378.907.567-5.663-1.91-10.773-2.781-15.525-1.851.016 0 .027-.01.045-.016-.095-.152-.2-.3-.289-.454" transform="translate(-54.757 -464.253)"/>
                        <path id="Path_1130" d="M65.179 481.941c.093.151.195.3.289.454-.019.005-.029.016-.045.016-5.446 1.129-10.034 4.521-13.957 11.67 3.809-7.463 8.315-10.984 13.713-12.14" transform="translate(-49.942 -464.389)"/>
                    </g>
                </g>
            </g>
            <g id="Group_237">
                <path id="Path_1132" fill="#b30d1c" d="M76.434 495.887H57.975a5.564 5.564 0 0 1-5.327-5.767v-17.51a5.562 5.562 0 0 1 5.327-5.77h18.459a5.565 5.565 0 0 1 5.322 5.77v17.51a5.566 5.566 0 0 1-5.322 5.767zm-18.459-28.641a5.159 5.159 0 0 0-4.915 5.364v17.51a5.156 5.156 0 0 0 4.915 5.362h18.459a5.155 5.155 0 0 0 4.91-5.362v-17.51a5.158 5.158 0 0 0-4.91-5.364z" transform="translate(-52.648 -466.84)"/>
            </g>
        </g>
    </g>
</svg>
