<svg xmlns="http://www.w3.org/2000/svg" width="20" height="20" viewBox="0 0 20 20">
    <path fill="#176EFF" fill-rule="evenodd" d="M.43 5.953C1.107 2.68 3.19.857 6.436.306c2.4-.407 4.801-.412 7.198.011 3.343.591 5.353 2.52 5.993 5.843a20 20 0 0 1-.008 7.729c-.684 3.25-2.82 5.257-6.055 5.805-2.4.407-4.801.412-7.198-.011-3.343-.591-5.362-2.617-6.002-5.94-.52-2.584-.47-5.196.066-7.79zm9.878 4.69V5.422a.8.8 0 1 0-1.6 0v5.6c0 .067.009.133.024.195a.8.8 0 0 0 .592.819l5.41 1.45a.8.8 0 1 0 .413-1.546l-4.839-1.297z"/>
</svg>
