<svg xmlns="http://www.w3.org/2000/svg" width="274.4" height="119.4" viewBox="0 0 274.4 119.4">
  <g id="Group_329" data-name="Group 329" transform="translate(16310.799 -8197.35)">
    <path id="Path_852" data-name="Path 852" d="M240.3,16.2l-2.8,16.3L234,16.2H199.8c-8.3-5.4-19.7-5.4-25.4-5.4-12.1,0-29,0-35.4,15.9-6.8-6.6-17.1-7.5-28.1-7.5h-.4c-9.3,0-24.5,0-31.4,12.5C74.6,15.6,63.4,9.3,42.5,9.3,9.6,9.3,3.1,25.9,3.1,54.7S9.7,99.9,42.5,99.9A69.1,69.1,0,0,0,60.4,98a15.4,15.4,0,0,0-3.7,6.5H43.4v23.7H67.6v-.5a30.8,30.8,0,0,0,7.3.8c4.7,0,8.9-.2,12.4-2.3l1.9-1.3a30.8,30.8,0,0,0,9,1.1,36.4,36.4,0,0,0,5.7-.4v2.1h39.7v1h24.2V128H176l3,.2c5.4,0,9.3-1.5,11.9-3.7a21.6,21.6,0,0,0,7.1,1.1l3.1-.2h11.6v1.7l8.3.4,2,.2,4.9.2c22.9,0,29.8-12.1,33.1-30.2l16.5-81.5Z" transform="translate(-16313.898 8188.05)" fill="#176eff"/>
    <path id="Path_853" data-name="Path 853" d="M42.4,99.9c5.8,0,12.1-.3,17.9-1.9a14.3,14.3,0,0,0-3.6,6.5H43.4v23.7H67.5v-.5a32.2,32.2,0,0,0,7.4.8c4.7,0,8.9-.2,12.4-2.3a14,14,0,0,0,1.8-1.3,31.9,31.9,0,0,0,9.1,1.1,37.3,37.3,0,0,0,5.7-.4v2.1h39.7v1h24.2V128H176l3,.2c5.4,0,9.2-1.5,11.9-3.7a21.2,21.2,0,0,0,7.1,1.1l3-.2h11.7v1.7l8.3.4,2,.2,4.9.2c22.9,0,29.8-12.1,33.1-30.2l6.3-31.3H3.6C5.7,87.3,14.6,99.9,42.4,99.9Z" transform="translate(-16313.898 8188.05)" fill="#1a5a99"/>
    <path id="Path_854" data-name="Path 854" d="M73.9,66.5c0,10.8-3.1,16.9-8.4,20.4s-13,4.2-22.1,4.2c-24.6,0-30.6-9.8-30.6-36.4S18.3,18,43.4,18c23.5,0,30.5,7.5,30.5,36.7v3.9H33.3c0,12.5,1.7,16.2,10.1,16.2,6.3,0,10.4-.8,10.4-8.3ZM53.4,45.7c0-10.6-3.4-11.3-10.3-11.3s-9.5,1.9-9.8,11.3Z" transform="translate(-16313.898 8188.05)" fill="#fff"/>
    <path id="Path_855" data-name="Path 855" d="M121.2,84h-.7c-1.4,8.9-10,10.3-16.6,10.3C90.7,94.3,83,90.8,83,74.2s7.2-20.4,20.9-20.4c5.4,0,13.6-.1,15.7,7.3h.9V50.8c0-6-.3-9.9-8.6-9.9-4.7,0-7.7,1.3-7.7,7.1H85.3c0-20.2,13.1-20,26.6-20,19.4,0,27.5,2.7,27.5,25.1V93.6H120.5ZM101.9,73.6c0,7,5.4,7,8.3,7,7.9,0,10.3-1.1,10.3-7.9s-4.2-5.9-10.3-5.9S101.9,67.6,101.9,73.6Z" transform="translate(-16313.898 8188.05)" fill="#fff"/>
    <path id="Path_856" data-name="Path 856" d="M183.4,39.8c-.4-2.8-1.6-4.3-3.1-5.1a13.5,13.5,0,0,0-4.9-.6c-10.2,0-10.2,1.4-10.2,5.5s.2,5.8,10.2,6c20.2.5,29.2,1.9,29.2,21.1S191.1,90,175.4,90s-29.2.4-29.2-22.3h19.5c0,7.7,4.9,7.7,9.7,7.7,8.9,0,10.2-.7,10.2-6,0-6.9-3.4-6.9-10.2-6.9-24.8,0-29.2-6.4-29.2-20.4,0-22.2,12.6-22.6,29.2-22.6,10.9,0,26.4.1,26.4,17.1v3.2Z" transform="translate(-16313.898 8188.05)" fill="#fff"/>
    <path id="Path_857" data-name="Path 857" d="M253.4,95.9c-3.1,17.2-8.7,23.3-24.5,23.3-2.2,0-4.3-.3-6.4-.4V104a31.6,31.6,0,0,0,3.2.3c7.8,0,9.5-6.6,9.8-14.1H225.3L208.3,25h19.6l11.3,53.1h.2L248.6,25h19.2Z" transform="translate(-16313.898 8188.05)" fill="#fff"/>
    <path id="Path_858" data-name="Path 858" d="M59.8,119.4H53.2v-6.2h6.6Z" transform="translate(-16313.898 8188.05)" fill="#ffc106"/>
    <path id="Path_859" data-name="Path 859" d="M86.3,112.6c0,3.2-.7,5-2.3,6s-4.3,1.1-8.1,1.1c-8.4,0-10.3-2-10.3-8.8s1.5-8.9,10.3-8.9c6.2,0,10.4.5,10.4,6.7h-7c0-.9-.1-1.5-.6-1.8a5.478,5.478,0,0,0-2.8-.5c-1.5,0-3.3.5-3.3,4.5s.6,4.5,3.3,4.5,3.4-.7,3.4-2.8Z" transform="translate(-16313.898 8188.05)" fill="#ffc106"/>
    <path id="Path_860" data-name="Path 860" d="M110,108.4c0,7.1-1.8,8.9-10.8,8.9s-10.8-2-10.8-8.9,1.7-8.8,10.8-8.8S110,101.1,110,108.4Zm-14.5,0c0,3.8.4,4.5,3.8,4.5s3.6-.7,3.6-4.5-.3-4.5-3.6-4.5S95.5,104.7,95.5,108.4Z" transform="translate(-16313.898 8188.05)" fill="#ffc106"/>
    <path id="Path_861" data-name="Path 861" d="M120.5,102.3v2.3h.3c.9-2,3.5-2.5,5.9-2.5s6.2.4,6.6,3.2h.3c.4-2.3,3.3-3.2,6-3.2,5,0,7.6,1.6,7.6,5.4v11.4h-7.1v-9.6c-.2-1.8-.1-3-2.9-3s-3.3,1.4-3.3,3.2v9.4h-7.1V108.8c0-1.5-.2-2.5-2.6-2.5s-3.5,1.2-3.5,3.2v9.4h-7.1V102.3Z" transform="translate(-16313.898 8188.05)" fill="#ffc106"/>
    <path id="Path_862" data-name="Path 862" d="M160,120h-6.6v-6.2H160Z" transform="translate(-16313.898 8188.05)" fill="#ffc106"/>
    <path id="Path_863" data-name="Path 863" d="M173.7,95.4v9.5h.3c1.2-2.1,3.4-2.5,6-2.5,5.9,0,8.2,2,8.2,7.1v3.8c0,4.4-3,6.1-8.2,6.1-3.1,0-5.3-.5-6.1-3h-.4l.2,2.9h-7V95.4Zm7.4,15.5c0-2.8-.2-4.3-3.5-4.3s-3.9.5-3.9,4.3.2,4.3,3.9,4.3,3.5-.8,3.5-4.3Z" transform="translate(-16313.898 8188.05)" fill="#ffc106"/>
    <path id="Path_864" data-name="Path 864" d="M212.3,116.6h-7l.2-2.8h-.4c-.8,2.5-3,3-6.1,3-5.2,0-8.2-1.7-8.2-6v-3.7c0-5,2.3-7,8.2-7,2.6,0,4.8.4,6,2.5h.3V93.3h7Zm-10.8-3.9c2.9,0,3.8-.5,3.8-4.2s-.1-4.3-3.8-4.3-3.6,1-3.6,4.3S198.5,112.7,201.5,112.7Z" transform="translate(-16313.898 8188.05)" fill="#ffc106"/>
  </g>
</svg>
