<svg xmlns="http://www.w3.org/2000/svg" width="40" height="40" viewBox="0 0 40 40">
  <g id="Group_318" data-name="Group 318" transform="translate(-12775 8163)">
    <rect id="Rectangle_Copy_14" data-name="Rectangle Copy 14" width="40" height="40" rx="4" transform="translate(12775 -8163)" fill="#fff"/>
    <g id="Group_317" data-name="Group 317" transform="translate(72.722 -0.277)">
      <rect id="Rectangle_126" data-name="Rectangle 126" width="37" height="37" rx="3" transform="translate(12703.778 -8161.223)" fill="#2651ac"/>
      <rect id="Rectangle_127" data-name="Rectangle 127" width="27.08" height="27.077" rx="4" transform="translate(12708.738 -8156.262)" fill="#fff"/>
      <g id="facebook-circular-logo" transform="translate(12704.001 -8161.001)">
        <path id="Path_1371" data-name="Path 1371" d="M18.282.349a18.351,18.351,0,0,0-3.05,36.435V22.533H10.823V17.405h4.41v-3.78c0-4.388,2.669-6.773,6.568-6.773a36.252,36.252,0,0,1,3.938.2v4.586h-2.7c-2.12,0-2.528,1.011-2.528,2.5V17.4h5.059l-.66,5.128h-4.4V36.905A18.351,18.351,0,0,0,18.282.349Z" transform="translate(-0.001 -0.349)" fill="#2651ac"/>
      </g>
    </g>
  </g>
</svg>
