<svg xmlns="http://www.w3.org/2000/svg" width="54" height="54" viewBox="0 0 54 54">
    <defs>
        <style>
            .cls-2{fill:#a80b1b}.cls-3{fill:#185426}.cls-5{fill:#1a1718}
        </style>
    </defs>
    <g id="Group_3260" transform="translate(-.144)">
        <g id="Rectangle_73" fill="#fff" stroke="#fff" transform="translate(.144)">
            <rect width="54" height="54" stroke="none" rx="10"/>
            <rect width="53" height="53" x=".5" y=".5" fill="none" rx="9.5"/>
        </g>
        <g id="Group_269" transform="translate(8.373 11.842)">
            <g id="Group_257" transform="translate(3.143)">
                <g id="Group_255" transform="translate(5.898 4.092)">
                    <path id="Path_1190" d="M464.692 474.326l.317-2.2s-5.424-.01-5.585 0a2.7 2.7 0 0 0-2.534 1.739c-.037.16-.495 2.352-.495 2.352h2.444l.342-1.558a.413.413 0 0 1 .388-.343c.321-.002 5.123.01 5.123.01z" class="cls-2" transform="translate(-449.933 -472.126)"/>
                    <path id="Path_1191" d="M457.619 483.967l.484-3.146h-2.442l-.478 3.137z" class="cls-2" transform="translate(-449.691 -473.862)"/>
                    <path id="Path_1192" d="M459.348 479.873h2.707l.428-2.214h-2.769z" class="cls-2" transform="translate(-450.522 -473.23)"/>
                    <path id="Path_1193" d="M457.164 477.658h-5.2a3.159 3.159 0 0 0-2.429 1.069s-.552.411-.935 2.849c-.009.046-.26 1.955-.274 2.056a2.945 2.945 0 0 0 1.5 2.514 3.76 3.76 0 0 0 1.71.455c.055.01 3.595 0 3.595 0h.524l.364-2.272h-4.329c-.061 0-1.093.038-.948-.92 0-.05.507-2.856.531-2.97s.13-.6.867-.565h4.609z" class="cls-3" transform="translate(-448.321 -473.23)"/>
                </g>
                <g id="Group_256">
                    <path id="Path_1194" d="M444.616 473.77c1.8-4.279 7.126-6.354 12.488-5.139l.726-1c-6.842-1.878-13.788.609-16.051 6a8.847 8.847 0 0 0-.331.92h2.886a7.929 7.929 0 0 1 .282-.781z" class="cls-2" transform="translate(-441.052 -467.014)"/>
                    <path id="Path_1195" d="M451.684 488.941c-5.027-1.943-8.094-6.331-7.745-10.54h-2.921c-.622 5.227 3.207 10.786 9.545 13.234a16.752 16.752 0 0 0 10.055.733l-1.809-2.642a13.688 13.688 0 0 1-7.125-.785z" class="cls-3" transform="translate(-440.953 -469.287)"/>
                    <path id="Path_1196" fill="#96989c" d="M464.315 468.666l-.687.945c5.919 2.335 9.084 8.073 7.072 12.859a8.5 8.5 0 0 1-4.07 4.246l1.69 2.469a10.141 10.141 0 0 0 4.548-4.919c2.419-5.754-1.403-12.672-8.553-15.6z" transform="translate(-445.479 -467.344)"/>
                </g>
            </g>
            <g id="Group_266" transform="translate(0 24.456)">
                <g id="Group_258" transform="translate(0 .199)">
                    <path id="Path_1197" d="M440.848 498.774h-.041a2.943 2.943 0 0 0-.318-.075 1.754 1.754 0 0 0-.354-.039 1.013 1.013 0 0 0-1.153.953l-.032.146h1.391l-.13.6h-1.365l-.8 3.681h-.778l.8-3.681h-.523l.13-.6h.523l.031-.142a2.026 2.026 0 0 1 .663-1.174 1.93 1.93 0 0 1 1.269-.409 4.246 4.246 0 0 1 .463.022c.134.016.259.034.371.054z" class="cls-2" transform="translate(-437.074 -497.86)"/>
                    <path id="Path_1198" d="M440.8 498.559h-.041l.041.006c-.084-.026-.192-.051-.331-.078a1.953 1.953 0 0 0-.381-.041 1.374 1.374 0 0 0-.852.235 1.406 1.406 0 0 0-.449.848l-.031.146-.046.211h1.585l-.149-.212-.13.6.148-.13h-1.486l-.028.13-.8 3.682.148-.131h-.778l.149.212.8-3.683.046-.211h-.715l.15.211.13-.6-.15.13h.645l.027-.13.031-.142a1.827 1.827 0 0 1 .6-1.078 1.8 1.8 0 0 1 1.177-.375 4.121 4.121 0 0 1 .447.022c.131.015.252.032.36.053l-.124-.21-.144.664zm.169-.663c-.114-.021-.241-.038-.379-.054a4.068 4.068 0 0 0-.479-.026 2.078 2.078 0 0 0-1.358.443 2.2 2.2 0 0 0-.722 1.273l-.03.141.149-.13h-.644l-.029.13-.13.6-.045.211h.718l-.149-.211-.8 3.682-.046.212h1.093l.03-.131.8-3.683-.149.13h1.486l.029-.13.13-.6.046-.212h-1.59l.151.212.031-.148a1.089 1.089 0 0 1 .324-.644 1.111 1.111 0 0 1 .68-.176 1.812 1.812 0 0 1 .328.036 2.793 2.793 0 0 1 .3.072l.019.006h.182l.028-.131.144-.665.038-.18z" class="cls-2" transform="translate(-437.026 -497.817)"/>
                </g>
                <g id="Group_259" transform="translate(2.899 1.642)">
                    <path id="Path_1199" d="M444.514 504.4h-.779l.1-.47c-.08.045-.186.109-.32.19a2.51 2.51 0 0 1-.381.192 2.847 2.847 0 0 1-.479.154 2.676 2.676 0 0 1-.6.062 1.211 1.211 0 0 1-.969-.4 1.114 1.114 0 0 1-.213-1.017 1.709 1.709 0 0 1 .4-.82 2.019 2.019 0 0 1 .748-.492 4.108 4.108 0 0 1 1.061-.244c.4-.042.831-.073 1.285-.1l.026-.117a.833.833 0 0 0 0-.428.488.488 0 0 0-.208-.267.915.915 0 0 0-.368-.125 3.1 3.1 0 0 0-.475-.034 3.4 3.4 0 0 0-.7.081 6.584 6.584 0 0 0-.825.234h-.041l.167-.767c.16-.039.388-.082.684-.132a5.483 5.483 0 0 1 .862-.072 3.755 3.755 0 0 1 .831.078 1.311 1.311 0 0 1 .569.266.891.891 0 0 1 .293.474 1.608 1.608 0 0 1-.021.722zm-.542-1.09l.268-1.234c-.238.013-.521.033-.845.058a4.843 4.843 0 0 0-.783.116 1.581 1.581 0 0 0-.6.282.89.89 0 0 0-.322.531.583.583 0 0 0 .115.573.964.964 0 0 0 .685.193 2.009 2.009 0 0 0 .778-.153 4.529 4.529 0 0 0 .705-.368z" class="cls-2" transform="translate(-440.686 -499.661)"/>
                    <path id="Path_1200" d="M444.476 504.185h-.776l.15.212.1-.471.078-.363-.3.171c-.082.046-.189.11-.322.19a2.514 2.514 0 0 1-.361.184 2.674 2.674 0 0 1-.459.147 2.535 2.535 0 0 1-.569.058 1.066 1.066 0 0 1-.859-.346.934.934 0 0 1-.173-.858 1.54 1.54 0 0 1 .359-.736 1.87 1.87 0 0 1 .692-.456 4.05 4.05 0 0 1 1.026-.234c.4-.042.826-.074 1.277-.1h.116l.027-.126.025-.117a1 1 0 0 0 0-.527.646.646 0 0 0-.276-.357 1.031 1.031 0 0 0-.424-.147 3.508 3.508 0 0 0-.495-.034 3.614 3.614 0 0 0-.724.083 6.563 6.563 0 0 0-.844.238l.046-.008h-.041l.148.212.166-.767-.114.127c.153-.038.38-.082.673-.13a5.309 5.309 0 0 1 .84-.07 3.764 3.764 0 0 1 .8.074 1.165 1.165 0 0 1 .505.235.7.7 0 0 1 .239.386 1.436 1.436 0 0 1-.022.635l-.656 3.026zm.806-2.814a1.821 1.821 0 0 0 .018-.809 1.064 1.064 0 0 0-.348-.567 1.491 1.491 0 0 0-.63-.3 3.955 3.955 0 0 0-.861-.081 5.589 5.589 0 0 0-.884.073c-.3.05-.531.094-.7.135l-.093.023-.023.1-.166.767-.045.212h.258l.022-.008a6.391 6.391 0 0 1 .807-.228 3.382 3.382 0 0 1 .669-.078 3.175 3.175 0 0 1 .456.03.806.806 0 0 1 .312.1.331.331 0 0 1 .14.178.654.654 0 0 1-.006.329l-.025.118.142-.132c-.456.022-.892.055-1.293.1a4.3 4.3 0 0 0-1.1.252 2.16 2.16 0 0 0-.8.531 1.877 1.877 0 0 0-.446.9 1.294 1.294 0 0 0 .251 1.178 1.357 1.357 0 0 0 1.079.451 2.864 2.864 0 0 0 .632-.066 2.934 2.934 0 0 0 .5-.162 2.743 2.743 0 0 0 .4-.2c.13-.078.236-.143.316-.187l-.219-.193-.1.471-.046.212h1.101l.028-.131z" class="cls-2" transform="translate(-440.648 -499.619)"/>
                    <path id="Path_1201" d="M444.29 503.862l.269-1.236.047-.222-.2.011c-.238.013-.524.032-.848.059a4.9 4.9 0 0 0-.807.118 1.8 1.8 0 0 0-.653.311 1.056 1.056 0 0 0-.382.631.749.749 0 0 0 .163.744 1.079 1.079 0 0 0 .785.235 2.192 2.192 0 0 0 .831-.164 4.762 4.762 0 0 0 .728-.379l.056-.037zm-.905.166a1.911 1.911 0 0 1-.725.142.828.828 0 0 1-.585-.15c-.054-.054-.12-.154-.066-.4a.726.726 0 0 1 .26-.431 1.478 1.478 0 0 1 .547-.256 4.673 4.673 0 0 1 .76-.112c.323-.026.607-.046.843-.061l-.158-.211-.267 1.236.073-.109a4.406 4.406 0 0 1-.683.352z" class="cls-2" transform="translate(-440.854 -500.175)"/>
                </g>
                <g id="Group_260" transform="translate(7.64 1.642)">
                    <path id="Path_1202" d="M450.611 503.109a1.576 1.576 0 0 1-.738 1 2.736 2.736 0 0 1-1.51.39 3.274 3.274 0 0 1-.911-.117 3.52 3.52 0 0 1-.659-.257l.181-.839h.042a2.363 2.363 0 0 0 .721.426 2.27 2.27 0 0 0 .823.159 1.844 1.844 0 0 0 .83-.161.708.708 0 0 0 .4-.506.422.422 0 0 0-.07-.4 1.113 1.113 0 0 0-.547-.23c-.1-.025-.241-.053-.409-.085s-.323-.067-.459-.1a1.219 1.219 0 0 1-.755-.456.965.965 0 0 1-.091-.738 1.394 1.394 0 0 1 .23-.519 1.765 1.765 0 0 1 .451-.435 2.224 2.224 0 0 1 .65-.3 2.939 2.939 0 0 1 .822-.11 3.487 3.487 0 0 1 .812.1 2.618 2.618 0 0 1 .651.239l-.176.805h-.039a2.12 2.12 0 0 0-.639-.365 2.213 2.213 0 0 0-.8-.149 1.678 1.678 0 0 0-.748.159.671.671 0 0 0-.392.472.416.416 0 0 0 .086.415 1.094 1.094 0 0 0 .507.226c.135.032.287.065.455.1s.311.062.421.089a1.265 1.265 0 0 1 .739.41.914.914 0 0 1 .122.777z" class="cls-2" transform="translate(-446.615 -499.661)"/>
                    <path id="Path_1203" d="M450.419 503.025a1.4 1.4 0 0 1-.667.892 2.612 2.612 0 0 1-1.434.367 3.15 3.15 0 0 1-.872-.112 3.189 3.189 0 0 1-.631-.245l.082.194.182-.837-.15.13h.042l-.093-.036a2.515 2.515 0 0 0 .764.454 2.423 2.423 0 0 0 .873.168 2 2 0 0 0 .893-.176.871.871 0 0 0 .483-.623.594.594 0 0 0-.112-.562 1.227 1.227 0 0 0-.623-.276c-.1-.024-.244-.053-.415-.085s-.316-.065-.448-.1a1.088 1.088 0 0 1-.664-.389.774.774 0 0 1-.07-.6 1.293 1.293 0 0 1 .2-.455 1.637 1.637 0 0 1 .411-.393 2.1 2.1 0 0 1 .61-.277 2.815 2.815 0 0 1 .783-.1 3.318 3.318 0 0 1 .779.094 2.513 2.513 0 0 1 .615.225l-.079-.193-.175.8.147-.13h-.039l.093.036a2.225 2.225 0 0 0-.682-.391 2.345 2.345 0 0 0-.845-.159 1.819 1.819 0 0 0-.809.174.834.834 0 0 0-.48.589.588.588 0 0 0 .135.586 1.221 1.221 0 0 0 .575.263c.135.034.291.064.463.1s.3.06.416.086a1.138 1.138 0 0 1 .654.356.739.739 0 0 1 .088.625zm.142-.854a1.414 1.414 0 0 0-.823-.464c-.115-.028-.259-.056-.426-.09s-.321-.063-.451-.094a.958.958 0 0 1-.438-.189c-.022-.021-.076-.072-.038-.246a.507.507 0 0 1 .306-.355 1.539 1.539 0 0 1 .686-.146 2.07 2.07 0 0 1 .746.142 1.961 1.961 0 0 1 .594.336l.042.036h.214l.029-.13.174-.8.029-.134-.11-.06a2.71 2.71 0 0 0-.686-.252 3.468 3.468 0 0 0-.845-.1 3.123 3.123 0 0 0-.86.114 2.371 2.371 0 0 0-.694.317 1.9 1.9 0 0 0-.489.474 1.589 1.589 0 0 0-.258.584 1.151 1.151 0 0 0 .114.877 1.349 1.349 0 0 0 .844.524c.139.038.3.074.47.106s.3.059.4.082a.97.97 0 0 1 .473.187c.014.017.062.069.026.234a.541.541 0 0 1-.311.391 1.736 1.736 0 0 1-.768.146 2.158 2.158 0 0 1-.775-.149 2.213 2.213 0 0 1-.674-.4l-.042-.035h-.215l-.027.131-.182.839-.029.134.111.06a3.566 3.566 0 0 0 .688.269 3.425 3.425 0 0 0 .949.123 2.875 2.875 0 0 0 1.586-.415 1.743 1.743 0 0 0 .811-1.107 1.092 1.092 0 0 0-.151-.94z" class="cls-2" transform="translate(-446.571 -499.619)"/>
                </g>
                <g id="Group_261" transform="translate(12.578 .456)">
                    <path id="Path_1204" d="M455.064 504.076c-.154.037-.32.068-.5.092a3.639 3.639 0 0 1-.467.035 1.189 1.189 0 0 1-.992-.369 1.443 1.443 0 0 1-.11-1.185l.518-2.384h-.524l.136-.628h.524l.278-1.285h.78l-.279 1.285h1.6l-.137.628h-1.6l-.444 2.047c-.05.235-.085.42-.1.552a.811.811 0 0 0 .034.373.4.4 0 0 0 .2.235 1.056 1.056 0 0 0 .467.075 1.675 1.675 0 0 0 .406-.053c.145-.036.25-.067.316-.09h.04z" class="cls-2" transform="translate(-452.779 -498.181)"/>
                    <path id="Path_1205" d="M454.993 503.866a4.6 4.6 0 0 1-.483.09 3.405 3.405 0 0 1-.448.034 1.057 1.057 0 0 1-.877-.311 1.286 1.286 0 0 1-.077-1.032l.517-2.385.047-.211h-.718l.148.211.136-.628-.148.132h.643l.028-.132.279-1.285-.149.131h.78l-.149-.212-.279 1.286-.046.211h1.79l-.15-.211-.137.627.15-.13h-1.715l-.029.13-.443 2.047c-.053.245-.088.432-.107.568a.994.994 0 0 0 .044.461.555.555 0 0 0 .275.328 1.191 1.191 0 0 0 .531.091 1.8 1.8 0 0 0 .439-.058c.15-.038.259-.069.329-.094l-.046.008h.04l-.148-.211-.145.672zm.177-.675h-.07l-.022.009c-.059.021-.162.049-.3.083a1.534 1.534 0 0 1-.374.05.931.931 0 0 1-.4-.058.246.246 0 0 1-.121-.142.6.6 0 0 1-.026-.286c.017-.124.05-.307.1-.538l.444-2.047-.15.132h1.717l.027-.132.137-.628.046-.212h-1.79l.149.212.278-1.285.047-.211h-1.093l-.029.13-.279 1.286.15-.133h-.644l-.029.133-.135.627-.046.213h.719l-.15-.213-.517 2.385a1.6 1.6 0 0 0 .143 1.338 1.32 1.32 0 0 0 1.107.429 3.667 3.667 0 0 0 .484-.038c.182-.024.354-.057.511-.094l.094-.023.022-.106.146-.67.046-.212z" class="cls-2" transform="translate(-452.741 -498.138)"/>
                </g>
                <g id="Group_262" transform="translate(15.719 1.642)">
                    <path id="Path_1206" d="M460.256 504.117a6.176 6.176 0 0 1-.8.281 2.9 2.9 0 0 1-.763.1 2.542 2.542 0 0 1-.884-.142 1.4 1.4 0 0 1-.62-.431 1.458 1.458 0 0 1-.309-.727 2.764 2.764 0 0 1 .058-1.026 2.951 2.951 0 0 1 .993-1.718 2.7 2.7 0 0 1 1.775-.624 2.657 2.657 0 0 1 .754.106 3.32 3.32 0 0 1 .644.263l-.18.829h-.042a2.235 2.235 0 0 0-.645-.4 1.863 1.863 0 0 0-.705-.142 1.63 1.63 0 0 0-1.135.429 2.27 2.27 0 0 0-.655 1.257 1.623 1.623 0 0 0 .1 1.237 1.053 1.053 0 0 0 .957.432 2.112 2.112 0 0 0 .491-.061 2.667 2.667 0 0 0 .471-.157c.126-.055.245-.114.357-.176s.2-.118.271-.163h.041z" class="cls-3" transform="translate(-456.703 -499.661)"/>
                    <path id="Path_1207" d="M460.163 503.915a6.093 6.093 0 0 1-.78.274 2.769 2.769 0 0 1-.727.1 2.464 2.464 0 0 1-.837-.132 1.286 1.286 0 0 1-.556-.383 1.3 1.3 0 0 1-.271-.643 2.65 2.65 0 0 1 .056-.956 2.8 2.8 0 0 1 .936-1.622 2.577 2.577 0 0 1 1.684-.589 2.531 2.531 0 0 1 .715.1 3.214 3.214 0 0 1 .615.251l-.082-.192-.179.828.149-.131h-.042l.1.038a2.375 2.375 0 0 0-.688-.429 2 2 0 0 0-.757-.151 1.784 1.784 0 0 0-1.232.466 2.466 2.466 0 0 0-.706 1.35 1.8 1.8 0 0 0 .129 1.377 1.193 1.193 0 0 0 1.081.5 2.275 2.275 0 0 0 .523-.065 2.846 2.846 0 0 0 .5-.164c.127-.059.252-.119.367-.185s.211-.121.281-.168l-.078.024h.041l-.151-.211-.178.831zm.235-.843h-.084l-.036.023c-.062.042-.15.1-.26.157s-.225.118-.345.172a2.366 2.366 0 0 1-.446.147 1.932 1.932 0 0 1-.46.057.909.909 0 0 1-.833-.362 1.462 1.462 0 0 1-.082-1.1 2.137 2.137 0 0 1 .6-1.164 1.487 1.487 0 0 1 1.04-.391 1.763 1.763 0 0 1 .654.13 2.1 2.1 0 0 1 .6.377l.042.034h.213l.03-.131.18-.828.028-.134-.11-.059a3.577 3.577 0 0 0-.67-.274 2.727 2.727 0 0 0-.795-.113 2.857 2.857 0 0 0-1.867.656 3.135 3.135 0 0 0-1.051 1.816 3.02 3.02 0 0 0-.06 1.1 1.66 1.66 0 0 0 .348.813 1.54 1.54 0 0 0 .684.475 2.663 2.663 0 0 0 .932.152 3.062 3.062 0 0 0 .8-.106 6.114 6.114 0 0 0 .816-.287l.076-.033.018-.087.181-.831.046-.212z" class="cls-3" transform="translate(-456.665 -499.619)"/>
                </g>
                <g id="Group_263" transform="translate(19.966 1.642)">
                    <path id="Path_1208" d="M465.839 504.4h-.779l.1-.47c-.078.045-.184.109-.319.19a2.544 2.544 0 0 1-.381.192 2.86 2.86 0 0 1-.478.154 2.694 2.694 0 0 1-.6.062 1.212 1.212 0 0 1-.969-.4 1.111 1.111 0 0 1-.21-1.017 1.685 1.685 0 0 1 .4-.82 2.02 2.02 0 0 1 .746-.492 4.128 4.128 0 0 1 1.064-.244c.4-.042.829-.073 1.285-.1l.026-.117a.855.855 0 0 0 0-.428.5.5 0 0 0-.208-.267.92.92 0 0 0-.368-.125 3.092 3.092 0 0 0-.475-.034 3.4 3.4 0 0 0-.7.081 6.593 6.593 0 0 0-.825.234h-.041l.166-.767c.161-.039.387-.082.684-.132a5.52 5.52 0 0 1 .864-.072 3.752 3.752 0 0 1 .83.078 1.311 1.311 0 0 1 .569.266.886.886 0 0 1 .293.474 1.643 1.643 0 0 1-.02.722zm-.542-1.09l.267-1.234c-.238.013-.52.033-.845.058a4.815 4.815 0 0 0-.783.116 1.589 1.589 0 0 0-.6.282.887.887 0 0 0-.319.531.581.581 0 0 0 .114.573.965.965 0 0 0 .685.193 2.012 2.012 0 0 0 .778-.153 4.5 4.5 0 0 0 .706-.368z" class="cls-3" transform="translate(-462.01 -499.661)"/>
                    <path id="Path_1209" d="M465.8 504.185h-.779l.148.212.1-.471.078-.363-.3.171c-.08.046-.19.11-.322.19a2.479 2.479 0 0 1-.36.184 2.715 2.715 0 0 1-.458.147 2.567 2.567 0 0 1-.571.058 1.068 1.068 0 0 1-.86-.346.932.932 0 0 1-.171-.858 1.518 1.518 0 0 1 .359-.736 1.87 1.87 0 0 1 .692-.456 4.046 4.046 0 0 1 1.025-.234c.4-.042.826-.074 1.277-.1h.114l.028-.126.025-.117a1.011 1.011 0 0 0 0-.527.649.649 0 0 0-.276-.357 1.04 1.04 0 0 0-.423-.147 3.5 3.5 0 0 0-.495-.034 3.622 3.622 0 0 0-.725.083 6.637 6.637 0 0 0-.844.238l.046-.008h-.041l.15.212.165-.767-.115.127c.155-.038.381-.082.674-.13a5.3 5.3 0 0 1 .84-.07 3.769 3.769 0 0 1 .8.074 1.186 1.186 0 0 1 .506.235.718.718 0 0 1 .238.386 1.436 1.436 0 0 1-.022.635l-.656 3.026zm.8-2.814a1.79 1.79 0 0 0 .019-.809 1.058 1.058 0 0 0-.351-.567 1.485 1.485 0 0 0-.628-.3 3.964 3.964 0 0 0-.861-.081 5.557 5.557 0 0 0-.884.073c-.3.05-.533.094-.7.135l-.092.023-.023.1-.166.767-.046.212h.26l.022-.008a6.245 6.245 0 0 1 .807-.228 3.362 3.362 0 0 1 .669-.078 3.174 3.174 0 0 1 .455.03.785.785 0 0 1 .311.106.319.319 0 0 1 .14.177.654.654 0 0 1-.006.329l-.026.118.142-.132c-.455.022-.891.055-1.293.1a4.29 4.29 0 0 0-1.1.252 2.16 2.16 0 0 0-.8.531 1.877 1.877 0 0 0-.445.9 1.291 1.291 0 0 0 .25 1.178 1.354 1.354 0 0 0 1.078.451 2.872 2.872 0 0 0 .633-.066 2.99 2.99 0 0 0 .5-.162 2.658 2.658 0 0 0 .4-.2c.132-.078.238-.143.317-.187l-.219-.193-.1.471-.046.212h1.093l.029-.131z" class="cls-3" transform="translate(-461.971 -499.619)"/>
                    <path id="Path_1210" d="M465.614 503.862l.268-1.236.049-.222-.207.011c-.239.013-.524.032-.848.059a4.876 4.876 0 0 0-.806.118 1.793 1.793 0 0 0-.654.311 1.053 1.053 0 0 0-.382.631.755.755 0 0 0 .162.744 1.087 1.087 0 0 0 .787.235 2.2 2.2 0 0 0 .832-.164 4.709 4.709 0 0 0 .726-.379l.058-.037zm-.906.166a1.911 1.911 0 0 1-.725.142.822.822 0 0 1-.584-.15c-.055-.054-.121-.154-.066-.4a.713.713 0 0 1 .259-.431 1.475 1.475 0 0 1 .547-.256 4.646 4.646 0 0 1 .76-.112c.323-.026.605-.046.842-.061l-.157-.211-.268 1.236.074-.109a4.333 4.333 0 0 1-.682.352z" class="cls-3" transform="translate(-462.178 -500.175)"/>
                </g>
                <g id="Group_264" transform="translate(24.864 1.642)">
                    <path id="Path_1211" d="M472.132 503.109a1.575 1.575 0 0 1-.739 1 2.736 2.736 0 0 1-1.508.39 3.256 3.256 0 0 1-.912-.117 3.506 3.506 0 0 1-.66-.257l.182-.839h.04a2.377 2.377 0 0 0 .72.426 2.284 2.284 0 0 0 .824.159 1.841 1.841 0 0 0 .829-.161.706.706 0 0 0 .4-.506.428.428 0 0 0-.068-.4 1.127 1.127 0 0 0-.548-.23c-.1-.025-.241-.053-.41-.085s-.323-.067-.459-.1a1.219 1.219 0 0 1-.755-.456.961.961 0 0 1-.091-.738 1.433 1.433 0 0 1 .23-.519 1.76 1.76 0 0 1 .45-.435 2.247 2.247 0 0 1 .651-.3 2.933 2.933 0 0 1 .821-.11 3.489 3.489 0 0 1 .813.1 2.617 2.617 0 0 1 .651.239l-.175.805h-.041a2.088 2.088 0 0 0-.639-.365 2.2 2.2 0 0 0-.795-.149 1.681 1.681 0 0 0-.748.159.673.673 0 0 0-.392.472.417.417 0 0 0 .086.415 1.1 1.1 0 0 0 .508.226c.136.032.286.065.458.1s.309.062.421.089a1.267 1.267 0 0 1 .738.41.913.913 0 0 1 .118.777z" class="cls-3" transform="translate(-468.134 -499.661)"/>
                    <path id="Path_1212" d="M471.938 503.025a1.4 1.4 0 0 1-.666.892 2.611 2.611 0 0 1-1.432.367 3.144 3.144 0 0 1-.873-.112 3.285 3.285 0 0 1-.633-.245l.083.194.182-.837-.149.13h.04l-.094-.036a2.528 2.528 0 0 0 .764.454 2.419 2.419 0 0 0 .873.168 2 2 0 0 0 .892-.176.877.877 0 0 0 .484-.623.59.59 0 0 0-.114-.562 1.218 1.218 0 0 0-.622-.276c-.1-.024-.246-.053-.415-.085s-.315-.065-.448-.1a1.1 1.1 0 0 1-.666-.389.788.788 0 0 1-.069-.6 1.274 1.274 0 0 1 .2-.455 1.578 1.578 0 0 1 .409-.393 2.112 2.112 0 0 1 .61-.277 2.806 2.806 0 0 1 .782-.1 3.343 3.343 0 0 1 .781.094 2.519 2.519 0 0 1 .615.225l-.081-.193-.174.8.148-.13h-.041l.094.036a2.219 2.219 0 0 0-.683-.391 2.344 2.344 0 0 0-.844-.159 1.816 1.816 0 0 0-.809.174.834.834 0 0 0-.48.589.59.59 0 0 0 .135.586 1.225 1.225 0 0 0 .575.263c.136.034.292.066.463.1s.306.06.415.086a1.136 1.136 0 0 1 .656.356.733.733 0 0 1 .092.625zm.142-.854a1.419 1.419 0 0 0-.822-.464c-.115-.027-.259-.056-.427-.09s-.321-.063-.451-.094a.954.954 0 0 1-.438-.189c-.022-.021-.076-.072-.038-.246a.508.508 0 0 1 .3-.355 1.546 1.546 0 0 1 .687-.146 2.059 2.059 0 0 1 .745.142 1.942 1.942 0 0 1 .594.336l.042.036h.214l.028-.13.176-.8.028-.134-.109-.06a2.767 2.767 0 0 0-.687-.252 3.473 3.473 0 0 0-.846-.1 3.128 3.128 0 0 0-.86.114 2.368 2.368 0 0 0-.693.317 1.941 1.941 0 0 0-.491.474 1.612 1.612 0 0 0-.257.584 1.151 1.151 0 0 0 .114.877 1.353 1.353 0 0 0 .846.524c.139.038.3.074.468.106s.3.059.405.082a.948.948 0 0 1 .471.187c.016.017.065.069.028.234a.542.542 0 0 1-.311.391 1.73 1.73 0 0 1-.768.146 2.153 2.153 0 0 1-.774-.149 2.211 2.211 0 0 1-.675-.4l-.042-.035h-.215l-.027.131-.183.839-.029.134.112.06a3.544 3.544 0 0 0 .688.269 3.424 3.424 0 0 0 .951.123 2.867 2.867 0 0 0 1.584-.415 1.735 1.735 0 0 0 .811-1.107 1.091 1.091 0 0 0-.148-.94z" class="cls-3" transform="translate(-468.09 -499.619)"/>
                </g>
                <g id="Group_265" transform="translate(29.5)">
                    <path id="Path_1213" d="M477.993 503.989h-.779l.552-2.547a4.5 4.5 0 0 0 .09-.579.905.905 0 0 0-.045-.421.46.46 0 0 0-.243-.251 1.176 1.176 0 0 0-.487-.083 1.881 1.881 0 0 0-.7.152 4.75 4.75 0 0 0-.751.388l-.724 3.341h-.778l1.346-6.208h.778l-.484 2.232a4.2 4.2 0 0 1 .852-.455 2.318 2.318 0 0 1 .835-.164 1.177 1.177 0 0 1 1.048.435 1.593 1.593 0 0 1 .121 1.257z" class="cls-3" transform="translate(-473.931 -497.61)"/>
                    <path id="Path_1214" d="M477.944 503.776h-.779l.148.212.553-2.549a4.546 4.546 0 0 0 .091-.6 1.058 1.058 0 0 0-.059-.513.605.605 0 0 0-.322-.332 1.277 1.277 0 0 0-.546-.1 2.073 2.073 0 0 0-.751.162 4.71 4.71 0 0 0-.776.4l-.058.036-.014.071-.725 3.342.149-.131h-.778l.148.212 1.346-6.208-.148.13h.778l-.149-.211-.484 2.233-.086.4.313-.214a4.234 4.234 0 0 1 .824-.442 2.208 2.208 0 0 1 .784-.154 1.048 1.048 0 0 1 .925.369 1.427 1.427 0 0 1 .1 1.113l-.63 2.9zm.776-2.691a1.783 1.783 0 0 0-.146-1.4 1.324 1.324 0 0 0-1.17-.5 2.454 2.454 0 0 0-.884.174 4.343 4.343 0 0 0-.882.471l.228.187.485-2.233.045-.212H475.3l-.029.13-1.347 6.209-.046.212h1.093l.028-.131.724-3.341-.071.107a4.6 4.6 0 0 1 .727-.376 1.777 1.777 0 0 1 .647-.141 1.071 1.071 0 0 1 .427.068.3.3 0 0 1 .163.163.728.728 0 0 1 .033.338 4.493 4.493 0 0 1-.086.552l-.552 2.548-.047.212h1.094l.028-.131z" class="cls-3" transform="translate(-473.883 -497.568)"/>
                </g>
            </g>
            <g id="Group_268" transform="translate(33.767 21.328)">
                <g id="Group_267" transform="translate(.551 1.102)">
                    <path id="Path_1215" d="M480.324 495.188h-.424v-.151h1.024v.151h-.424v1.231h-.18z" class="cls-5" transform="translate(-479.903 -495.037)"/>
                    <path id="Path_1216" d="M482.531 495.812c-.01-.193-.022-.427-.022-.6-.05.159-.1.334-.174.524l-.244.671h-.136l-.225-.659c-.066-.2-.119-.374-.158-.537 0 .172-.014.4-.026.61l-.038.594h-.17l.1-1.382h.228l.236.668c.057.17.1.322.138.466.037-.14.086-.291.147-.466l.247-.668h.228l.086 1.382h-.176z" class="cls-5" transform="translate(-480.188 -495.037)"/>
                </g>
                <path id="Path_1217" fill="none" stroke="#1a1718" stroke-miterlimit="10" stroke-width="0.25px" d="M483.006 495.554a1.9 1.9 0 1 1-1.9-1.894 1.9 1.9 0 0 1 1.9 1.894z" transform="translate(-479.214 -493.66)"/>
            </g>
        </g>
    </g>
</svg>
