<svg xmlns="http://www.w3.org/2000/svg" width="54" height="54" viewBox="0 0 54 54">
    <defs>
        <style>
            .cls-2{fill:#00c0af}
        </style>
    </defs>
    <g id="Group_3283" transform="translate(-6608 17)">
        <g id="Rectangle_639" fill="#fff" stroke="#fff" transform="translate(6608 -17)">
            <rect width="54" height="54" stroke="none" rx="10"/>
            <rect width="53" height="53" x=".5" y=".5" fill="none" rx="9.5"/>
        </g>
        <g id="ipay" transform="translate(6396.996 1749.568)">
            <path id="Path_2303" d="M228.712-1749.556a1.907 1.907 0 0 0-1.15.538 1.9 1.9 0 0 0-.238 2.385 2.477 2.477 0 0 0 .483.5 1.881 1.881 0 0 0 2.415-.226 1.821 1.821 0 0 0 .471-.813 2.031 2.031 0 0 0 .031-.881 1.875 1.875 0 0 0-1.321-1.431 2.26 2.26 0 0 0-.287-.061c-.067-.006-.153-.012-.19-.018s-.126.001-.214.007z" class="cls-2" transform="translate(-2.866)"/>
            <path id="Path_2304" d="M222.814-1742.584a3.936 3.936 0 0 0-1.174.293 4.378 4.378 0 0 0-2.348 2.819 8.138 8.138 0 0 0-.275 1.095l-.012.073.624.52c.342.281.63.514.63.514a.283.283 0 0 0 .037-.1 5.6 5.6 0 0 1 .642-1.5 1.729 1.729 0 0 1 1.052-.825 1.718 1.718 0 0 1 1.394.135c.055.037.061.055.055.1s-.538 1.993-1.18 4.366a40.483 40.483 0 0 0-1.174 4.525 2.948 2.948 0 0 0 .349 1.486 2.808 2.808 0 0 0 1.987 1.29c.092.018.2.043.238.055a5.506 5.506 0 0 0 .984.018 5.928 5.928 0 0 0 4.989-3.626c.067-.147.116-.269.116-.275s-.514.153-1.131.349l-1.125.355-.1.1a2.668 2.668 0 0 1-1.357.789 2.577 2.577 0 0 1-.807-.043 1.376 1.376 0 0 1-1.094-.978c-.012-.055.19-.838 1.058-4.17.587-2.256 1.082-4.146 1.094-4.207a3.312 3.312 0 0 0-.006-1.125 2.62 2.62 0 0 0-2.531-2 5.431 5.431 0 0 0-.935-.033z" class="cls-2" transform="translate(0 -2.496)"/>
            <path id="Path_2305" d="M234.333-1740.88a2.348 2.348 0 0 0-2.293 2.342c-.018.226-.031 7.423-.012 7.423s2.006-.618 2.281-.7l.061-.018v-1.92l2.372-.006a18.2 18.2 0 0 0 2.593-.049 2.268 2.268 0 0 0 2.067-1.969 8.131 8.131 0 0 0 .049-1.437c.006-.838 0-1.29-.012-1.412a2.517 2.517 0 0 0-.624-1.51 2.479 2.479 0 0 0-1.431-.7 17.258 17.258 0 0 0-2.562-.043c-1.296-.021-2.415-.013-2.489-.001zm4.476 2.33a.39.39 0 0 1 .263.189c.043.08.043.086.049.954.006.99.006 1.027-.122 1.15s-.006.128-2.446.128h-2.177v-1.064a6.108 6.108 0 0 1 .031-1.131.363.363 0 0 1 .281-.226c.092-.025 4.017-.025 4.121 0z" class="cls-2" transform="translate(-4.659 -3.106)"/>
            <path id="Path_2306" d="M246.9-1740.753a3.214 3.214 0 0 1 .459.709 3.735 3.735 0 0 1 .342 1.217l.031.257h3.18a25.171 25.171 0 0 1 3.265.036.59.59 0 0 1 .269.263c.092.177.1.263.1 1.235v.9l-2.788.006a27.33 27.33 0 0 0-2.959.043 2.256 2.256 0 0 0-.575.19 1.923 1.923 0 0 0-.813 1.718c-.024.336-.024 2.134 0 2.495a3.633 3.633 0 0 0 .471 1.687 2.525 2.525 0 0 0 2.116 1.039c.2.012.984.018 2.379.012a10.034 10.034 0 0 0 2.654-.11 2.276 2.276 0 0 0 1.871-2.128 32.293 32.293 0 0 0 .079-3.522 31.212 31.212 0 0 0-.067-3.7 3.1 3.1 0 0 0-.795-1.84 2.294 2.294 0 0 0-1.235-.63l-.2-.043-3.962-.006-3.962-.006zm7.649 8.071c0 .752-.006 1.082-.018 1.125a.342.342 0 0 1-.2.22l-.1.049h-4.109l-.11-.055a.258.258 0 0 1-.153-.147l-.049-.092v-1.834l.043-.086a.382.382 0 0 1 .257-.208c.067-.018.575-.024 2.262-.024h2.177v1.052z" class="cls-2" transform="translate(-9.935 -3.092)"/>
            <path id="Path_2307" d="M262.642-1740.768a4.079 4.079 0 0 1 .868 1.9 9.46 9.46 0 0 1 .122 2.171 6.9 6.9 0 0 0 .055 1.559 1.667 1.667 0 0 0 1.094 1.223c.4.135.153.122 3.173.128l2.727.006v.88c0 .557-.006.923-.018.991a.676.676 0 0 1-.4.514l-.1.043-3.277.006-3.277.006-.012.061c-.006.031-.018.116-.031.189a3.987 3.987 0 0 1-.9 2.061l-.086.1 3.681-.006c3.687-.006 3.968-.012 4.647-.08a2.529 2.529 0 0 0 1.027-.318 2.4 2.4 0 0 0 1.156-2.024c.012-.141.018-1.761.018-4.885v-4.672h-2.421v4.769h-2.232a17.188 17.188 0 0 1-2.3-.031.354.354 0 0 1-.1-.086c-.037-.049-.037-.08-.049-1.168a9.744 9.744 0 0 0-.11-1.877 3.678 3.678 0 0 0-.544-1.516l-.073-.1h-2.752z" class="cls-2" transform="translate(-15.578 -3.096)"/>
        </g>
    </g>
</svg>
