<svg xmlns="http://www.w3.org/2000/svg" width="54" height="54" viewBox="0 0 54 54">
    <defs>
        <style>
            .cls-2{fill:#1c6937}
        </style>
    </defs>
    <g id="Group_3257" transform="translate(-.29)">
        <g id="Rectangle_52" fill="#fff" stroke="#fff" transform="translate(.29)">
            <rect width="54" height="54" stroke="none" rx="10"/>
            <rect width="53" height="53" x=".5" y=".5" fill="none" rx="9.5"/>
        </g>
        <g id="Group_222" transform="translate(12.176 11.842)">
            <g id="Group_220">
                <g id="Group_217" transform="translate(3.034)">
                    <path id="Path_1026" d="M222.545 465.247a13.572 13.572 0 0 0-9.483 4.008 12.871 12.871 0 0 0-3.79 9.345 13.346 13.346 0 0 0 13.7 12.929 13.147 13.147 0 1 0-.427-26.282zm-12.771 13.348a12.358 12.358 0 0 1 3.651-9 13.01 13.01 0 0 1 9.129-3.856 12.656 12.656 0 1 1 .409 25.3 12.844 12.844 0 0 1-13.189-12.444z" class="cls-2" transform="translate(-209.271 -465.246)"/>
                    <g id="Group_215" transform="translate(1.946 2.143)">
                        <path id="Path_1027" d="M243.167 484.508l-.225-.285c-.468-.238-.626.141-.626.141l-.947.012.007.181.812-.008v.235h.214v-.266z" class="cls-2" transform="translate(-219.559 -472.3)"/>
                        <path id="Path_1028" d="M213.105 481.8v-.148h-.158l.019.167z" class="cls-2" transform="translate(-212.173 -471.653)"/>
                        <path id="Path_1029" d="M213.107 481.335l-.154.013v.131h.165z" class="cls-2" transform="translate(-212.174 -471.57)"/>
                        <path id="Path_1030" d="M217.7 472.035l.231-.005-.025-.235-.205.008z" class="cls-2" transform="translate(-213.408 -469.09)"/>
                        <path id="Path_1031" d="M217.847 471.456l-.254-.031-.006.187.179.046z" class="cls-2" transform="translate(-213.379 -468.995)"/>
                        <path id="Path_1032" d="M218.243 471.518l-.229-.01v.215l.216.009z" class="cls-2" transform="translate(-213.488 -469.016)"/>
                        <path id="Path_1033" d="M213.577 476.4c-.025-.183-.246-.2-.246-.2-.1.234-.625-.073-.625-.073l.2.506a2.512 2.512 0 0 1 1.115.137c.284.582-.417.962-.417.962a1.239 1.239 0 0 1-.207.956c.145.5-.435 1.57-.435 1.57a1.31 1.31 0 0 1-.337.957c.01.642-.723.622-.723.622l.056.263c.081-.13.484-.163.484-.163a1.429 1.429 0 0 1-.037.69c.323.124.312-.913.312-.913a.665.665 0 0 0 .124-.473l.437-.059.078-.164-.271-.046a2.012 2.012 0 0 0 .1-.691 3.569 3.569 0 0 0 .313-.75l.3-.134.1-.37c-.161-.052-.192-.341-.192-.341.133-.083.261-.613.261-.613a1.319 1.319 0 0 0 .234-.593l.124-.579c.175-.328-.748-.501-.748-.501z" class="cls-2" transform="translate(-211.901 -470.216)"/>
                        <path id="Path_1034" d="M218.363 470.585c-.544-.044.007.512.007.512-.044.418-.54.266-.54.266l-.1.479-.381.058-.1.448-.268-.052.057.507-1.623 1.827c-.571.351.093-.9.093-.9.074-.244-.192-.16-.192-.16a1.672 1.672 0 0 0-.306 1.275c.389.58 2.094-1.669 2.094-1.669a1.073 1.073 0 0 0 .258-.725c-.006-.13.642-.7.642-.7 0-.186.484-.138.484-.138-.246-.074-.115-.266-.115-.266.192-.08.332.129.332.129l.049-.181-.215-.1a.677.677 0 0 0-.176-.61z" class="cls-2" transform="translate(-212.702 -468.775)"/>
                        <path id="Path_1035" d="M220.568 469.886s-.573.015-.352.224c0 0 .572-.094.335.173a.315.315 0 0 1-.161.218s-.291.532.059.314c0 .001.691-.854.119-.929z" class="cls-2" transform="translate(-214.049 -468.594)"/>
                        <path id="Path_1036" d="M221.666 469.415c.1-.155.87.1.87.1.333.312.272 0 .272 0-.118-.424-2.073-.446-2.073-.446l.084.208c.656.042.656.257.656.257l.011.322.186-.009z" class="cls-2" transform="translate(-214.197 -468.381)"/>
                        <path id="Path_1037" d="M225.558 468.877v-.212l-.161.055v.187z" class="cls-2" transform="translate(-215.407 -468.277)"/>
                        <path id="Path_1038" d="M227.424 468.351v-.21l-.163.051.005.188z" class="cls-2" transform="translate(-215.892 -468.141)"/>
                        <path id="Path_1039" d="M226.828 468.156a1.156 1.156 0 0 0 .009.451c0 .269-.491.221-.491.221l-.112-.271-.214.009-.05.345c-.055.242-.512.192-.512.192l.019-.291a2.481 2.481 0 0 0-.817.069c-.483.22-.343.322-.343.322l.461.044c-.046.322-.975.335-.975.335-.38.055-.283-.764-.283-.764-.187.158-.221-.449-.221-.449l-.249-.077a.834.834 0 0 0-.068.692c.322-.107.443.575.443.575a.285.285 0 0 1-.509.084 3.643 3.643 0 0 1-.975.574c.252.234.845-.17.845-.17a2.043 2.043 0 0 0 .833-.332c1.357.087 1.517-.442 1.517-.442.957.035 1.028-.313 1.028-.313a.881.881 0 0 0 .541.016v.161l.165.024.106-.315a.5.5 0 0 0-.148-.69z" class="cls-2" transform="translate(-214.51 -468.145)"/>
                        <path id="Path_1040" d="M231.949 469.589l-.033-.423a2.92 2.92 0 0 0-1.114.17l1.588.534c.187-.158-.441-.281-.441-.281z" class="cls-2" transform="translate(-216.813 -468.401)"/>
                        <path id="Path_1041" d="M235.413 470.795l-.029-.239h-.188l.03.208z" class="cls-2" transform="translate(-217.954 -468.768)"/>
                        <path id="Path_1042" d="M234.933 471.175c-.134.315-1.067-.3-1.067-.3l-.032-.319-.133.028c-.16.424-.987-.224-.987-.224-.057-.132.24-.586.24-.586l.132-.189c-.086-.21.178-.771.178-.771l-.652.327.147.531-.32.351c-.13.261-.569-.048-.569-.048l-2.244-.838c.061.37 2.246 1.106 2.246 1.106.11.132.656.172.656.172l.5.419a2.97 2.97 0 0 0 .711.115l.3.267.063.283h.187l.186-.161a3.155 3.155 0 0 0 .579.126 3.851 3.851 0 0 0 .263-.513h-.221z" class="cls-2" transform="translate(-216.507 -468.316)"/>
                        <path id="Path_1043" d="M239.638 474.815l.016.5.428.078.026-.428-.3-.1-.36-.572-.092-.583s-.5-.493-.93-.332l.083.32.424.6s-.053.24-.218.056c0 0-1.28-1.676-1.175-1.947 0 0-.035-.526.849.255 0 0 .269.023.27-.139 0 0-.995-.8-1.334-.238 0 0-.05.393 1.09 2.018 0 0 .464.493.844.145zm-.991-1.155c.131-.26.541.131.541.131l.007.421c-.243.14-.548-.552-.548-.552z" class="cls-2" transform="translate(-218.507 -469.166)"/>
                        <path id="Path_1044" d="M241.492 481.8c.073-.129-.053-.155-.053-.155l-.44-.024-.065-.443.249-.092c.155-.158-.274-.147-.274-.147-.194-.078-.147-.587-.147-.587l.271-.027-.061-.181-.241-.056a2.008 2.008 0 0 1-.243-1.4l.571-.087.192.127.105-.183c.083-.138.651-.2.651-.2l-.526-.359c-.215 0-.372.454-.372.454l-.544.007c-.319.161-.326-.394-.326-.394.571.394.78-.169.78-.169a9.375 9.375 0 0 0 .43-1.757c-.186-.127-.369.729-.369.729h-.459c-.046.215.354.206.354.206a2.28 2.28 0 0 1-.145.821c-.537.594-.8-.833-.8-.833-.007-.477-.25-.261-.25-.261.25 2.194.573 1.843.573 1.843a2.015 2.015 0 0 0 .242 1.673 1.268 1.268 0 0 0 .176.791 1.759 1.759 0 0 0-.044.392c-.104.573.765.312.765.312z" class="cls-2" transform="translate(-219.146 -470.215)"/>
                    </g>
                    <g id="Group_216" transform="translate(2.047 15.535)">
                        <path id="Path_1045" d="M218.144 492.615a1.01 1.01 0 0 0-.493-1.24c-.183-.112-.582-.28-.729-.048-.189.3.344.557.533.7.033.026.111.09.079.138-.006.01-.025.016-.044.024l-1.061-.818v-.059l-.087-.083.087-.207-.027-.116a.6.6 0 0 0-.132.1c-.14.145-.174.36-.318.5l-.008.008c.07-.163.249-.423.078-.582l-.173-.178-1.035-1.284.007-.037-.82-1.5.021-.036-.04-.115c.324-.086.366-.417.27-.7-.045-.127-.114-.237-.155-.362a.627.627 0 0 1 0-.356.3.3 0 0 1 .155.033l.043-.067-.064-.082a.288.288 0 0 0-.184 0c-.256.08-.27.431-.2.641.041.125.1.241.147.363.026.066.094.272-.02.3l-.01.007c-.055.021-.1-.11-.117-.147l-.376-1.11-.145.3c.033.105.2.486.145.578-.076-.124-.278-.306-.433-.254a.2.2 0 0 0-.136.274.345.345 0 0 0 .393.241.135.135 0 0 1 .024.056.2.2 0 0 1-.135.238c-.159.05-.375-.231-.416-.357a1.092 1.092 0 0 1-.022-.593l-.413.416a2.626 2.626 0 0 1-.3 1.477l.219-.081.213-.46a3.044 3.044 0 0 1 .12-.391.6.6 0 0 0 .622.272c.437-.141.3-.571.387-.634l.255.729a.578.578 0 0 0-.032.224c.05.268.268.337-.065.559-.071-.009-.36-.048-.389-.1s.1-.2.148-.232l-.222-.078c-.1.123-.235.364-.147.522.15.278.65.119.746.294s-.239.383-.368.448c-.105.056-.215.1-.325.148l-.1.312 1.467-.768.144.258v.02l.024.037v-.007l.767.958-.234.181.031-.055c.014-.14.065-.134-.043-.275-.05-.064-.187-.085-.255-.106a.4.4 0 0 0-.1-.348.461.461 0 0 0-.619-.028.456.456 0 0 0-.048.679c.053.073.227.188.307.118.108-.078.218-.255.115-.38a.211.211 0 0 0-.286-.052.111.111 0 0 0-.041.058.164.164 0 0 1 .036-.2.273.273 0 0 1 .375.059c.076.094.122.3.009.4-.023.006-.044.018-.068.022l.16.092a.773.773 0 0 1 .086-.083c.058-.05.115-.052.16.007a.217.217 0 0 1-.023.237l-.7.541-.016.313 1.306-1 .207.257.007-.05c.128.147.043.272-.1.413l-.767.752.007.318 1.197-1.178.15.142c.006.087.008.169.019.254.024.175.4.34.186.656-.138-.166-.389-.262-.548-.067a.28.28 0 0 0 .076.411c.068.053.282.128.351.067.181.144-.059.707-.009.865l1.03-1.277.256.2v-.028l.129.075-.762 1.2.077.309.886-1.394.326.2-.081-.32zm-4.11-3.166c.039-.13.15-.224.068-.369-.041-.08-.139-.076-.223-.09.193-.1.223-.122.253-.337l.313.578zm2.63 3.614a.9.9 0 0 0-.033-.32.781.781 0 0 0 .115-.824l.52.4zm1.283-.571l-.31-.19c.191-.289-.093-.462-.312-.654a2.646 2.646 0 0 0-.267-.25h.006a.851.851 0 0 1 .438.137.8.8 0 0 1 .445.957z" class="cls-2" transform="translate(-212.037 -486.235)"/>
                        <path id="Path_1046" d="M224.387 496.384l-.056-.222-.09-.081a.565.565 0 0 0-.047.161c-.028.192.075.389.045.582v.01c-.041-.164-.05-.483-.289-.517l-.181-.027-.011-.015-.8-.192-1.574-.562.133.292 1 .364a4.336 4.336 0 0 0-1.135.155l.123.38c.742.321.457.873.668 1.087l.585-1.544.343.125-.011-.026.356.08a.761.761 0 0 0-.321.422c-.057.214.016.438-.035.652-.085.346-.431.258-.451.342-.008.045.041.1.093.1a.6.6 0 0 0 .631-.382c.07-.287.04-.6.112-.886.041-.17.187-.206.344-.172l.016.015a.423.423 0 0 1 .09.013.015.015 0 0 0 .011.007c.183.05.192.2.158.39l-.167 1.046.194.252.259-1.638.337.053-.2-.249zm-2.227.762a1.325 1.325 0 0 0-.376-.574 2.531 2.531 0 0 1 .617-.059z" class="cls-2" transform="translate(-214.462 -488.648)"/>
                        <path id="Path_1047" d="M225.974 498.323a5.934 5.934 0 0 1 .958.813l.016-.208a6.776 6.776 0 0 0-.936-1.028z" class="cls-2" transform="translate(-215.659 -489.266)"/>
                        <path id="Path_1048" d="M226.3 497.688a.386.386 0 1 0 .038-.77.423.423 0 0 0-.436.356.431.431 0 0 0 .398.414zm.095-.539a.1.1 0 0 1 .09.109.268.268 0 0 1-.263.207c-.056 0-.07-.051-.067-.1a.251.251 0 0 1 .237-.215z" class="cls-2" transform="translate(-215.639 -489.011)"/>
                        <path id="Path_1050" d="M228.923 496.708l-2.077.16.264.214 1.01-.078.01.044a3.377 3.377 0 0 0-.936.554l.284.269a.945.945 0 0 1 .867.582l.127.107-.1-1.268a.542.542 0 0 1 .521.331.252.252 0 0 0-.206-.069.21.21 0 0 0-.2.215c0 .125.155.206.27.192a.3.3 0 0 0 .283-.329.688.688 0 0 0-.682-.607v-.04l.821-.064zm-1.267.916a1.943 1.943 0 0 1 .491-.3l.051.666a1.093 1.093 0 0 0-.542-.367z" class="cls-2" transform="translate(-215.885 -488.957)"/>
                        <path id="Path_1051" d="M233.206 495.468l-.3-.106-.112.056-.172-.149-.124-.024a.537.537 0 0 0 .056.161c.089.177.289.278.375.454v.013c-.13-.118-.329-.371-.54-.264l-.163.072-1.552.529.3.145 1-.338a4.191 4.191 0 0 0-.773.822l.34.212c.784-.206.922.392 1.224.425l-.548-1.55.342-.112-.023-.017c.156-.035.244.076.321.243l.474.957.309.1-.736-1.487zm-.869 1.512a1.388 1.388 0 0 0-.667-.215 3.273 3.273 0 0 1 .442-.424z" class="cls-2" transform="translate(-216.88 -488.577)"/>
                        <path id="Path_1052" d="M234.714 496.154l.212.373a6.325 6.325 0 0 1 1.26.132l-.107-.179a7.3 7.3 0 0 0-1.365-.326z" class="cls-2" transform="translate(-217.93 -488.813)"/>
                        <path id="Path_1054" d="M234.871 495.725a.387.387 0 0 0 .137-.521.425.425 0 0 0-.557-.135.418.418 0 0 0-.147.54.435.435 0 0 0 .567.116zm-.23-.5a.1.1 0 0 1 .134.041h-.007a.246.246 0 0 1-.089.316.085.085 0 0 1-.117-.047.239.239 0 0 1 .079-.305z" class="cls-2" transform="translate(-217.811 -488.517)"/>
                        <path id="Path_1055" d="M239.567 488.166l.9.369.293-.138-1.49-.609.124-.3-.313.123c-.058.116-.3.124-.414.181a4.208 4.208 0 0 0 .889.257c-.214.016-.64-.029-.742.2a.589.589 0 0 0 .1.44.414.414 0 0 0-.387.255l-.118.266-.045.009-.819 1.277h-.047l-.663.784h-.026l-.087.083-.215-.083-.124.016a.629.629 0 0 0 .11.135c.144.138.372.163.514.3l.006.007c-.163-.063-.435-.237-.6-.07l-.179.177-1.418 1.1.356.027 1.014-.8.187.234-.056-.031c-.142-.016-.138-.067-.283.044a.512.512 0 0 0-.108.252.381.381 0 0 0-.346.1.428.428 0 0 0-.024.607.494.494 0 0 0 .7.037c.07-.057.181-.229.112-.3-.08-.106-.264-.212-.392-.114a.2.2 0 0 0-.05.28.117.117 0 0 0 .062.044.183.183 0 0 1-.2-.033.256.256 0 0 1 .051-.366c.1-.08.318-.127.407-.009a.1.1 0 0 1 .032.057l.093-.153a.337.337 0 0 1-.089-.085.1.1 0 0 1 .007-.155.207.207 0 0 1 .247.028l.555.679.329.009-1.041-1.27.261-.2h-.055c.153-.124.278-.047.427.1l.779.735.321-.009-1.21-1.152.156-.161h.038l.3-.349a1.023 1.023 0 0 0 .372.7c.272.217.764.365 1.03.051a.3.3 0 0 0-.015-.432.261.261 0 0 0-.351.037.232.232 0 0 0 .041.315.131.131 0 0 0 .14 0l-.027.035c-.129.151-.436-.018-.555-.11a.777.777 0 0 1-.269-1.01h.013l.1-.145.762.46.363-.1a1.062 1.062 0 0 1-.195-.839 1.473 1.473 0 0 0 .276.216 2.854 2.854 0 0 0 .642.272l.179-.11a2.388 2.388 0 0 1-.459-.2 1.513 1.513 0 0 1-.562-.608l-.372.159a1.273 1.273 0 0 0 .049.864l-.548-.333.646-1.007h.014c.01-.021.01-.033.024-.044l.011-.028c.053-.141.058-.2.247-.266a.459.459 0 0 0 .224.381.247.247 0 0 0 .322-.145.333.333 0 0 0-.055-.3.287.287 0 0 0 .248-.164.244.244 0 0 0-.11-.3.469.469 0 0 0-.41.092l-.033-.055.016-.1a.487.487 0 0 1 .413-.111z" class="cls-2" transform="translate(-217.956 -486.561)"/>
                    </g>
                </g>
                <g id="Group_218" transform="translate(0 14.453)">
                    <path id="Path_1056" d="M237.518 485.421s-1.921-1.072-1.915-.459c0 0-1.021 9.829-11.1 11.863l-.007-.764-.6.007.01.741c-.349-.016-.833-.037-1.354-.054l-.009-.464h-.6v.445a17.528 17.528 0 0 0-2.129.053l-.013-.7-.6.012.009.783a13.636 13.636 0 0 1-11.276-11.379s.218-.36-.266-.266c0 0-2.005-.256-2.24.307a6.276 6.276 0 0 0 .61 4.971s.626-.049.977-.055c0 0 2.819 5.6 8.31 7.805 0 0-1.36.748-1.116.947l1.337 1.8a1.653 1.653 0 0 0 2.494.245s.631-1.181.832-1.662a15.91 15.91 0 0 1 3.168-.4 20.676 20.676 0 0 1 3.471.3s1.477 2.972 3 1.562l1.722-1.935-1.482-.96s6.266-3.249 7.736-8.2c0 0 .515.492.96.047a5.5 5.5 0 0 0 .764-1.785s.574-2.826-.693-2.805zm-31.493 4.379s-.107 0-.355-.359a20.471 20.471 0 0 1-.3-2.458v-.035a2.972 2.972 0 0 1 .354-1.316 3.539 3.539 0 0 1 .3 1.56.774.774 0 0 0-.326.467 1.063 1.063 0 0 0-.034.258 2.213 2.213 0 0 0 .477 1.192v.1c.001.307-.057.569-.116.591zm2.376 1.752l1.2-.749.158.248-1.192.748zm.628.968c-.309-.406-.116-.652.024-.753l.164.221c-.059.05-.155.17 0 .374.083.108.2.213.323.124.09-.061.05-.161-.011-.305l-.064-.138c-.09-.215-.184-.419.066-.6.13-.094.408-.184.679.177a.465.465 0 0 1-.039.705L210 492.1c.045-.047.152-.152 0-.356-.065-.087-.181-.165-.285-.1s-.048.153-.029.206l.141.319c.075.181.115.369-.091.52a.5.5 0 0 1-.708-.174zm.567.655l1.065-.919.2.216-.868.749.469.521-.193.164zm1.535 1.557l.138-.27-.382-.355-.274.141-.228-.2 1.345-.671.25.229-.61 1.344zm1.328 1.054l.723-.916v-.007l-.938.764-.232-.175.523-1.073h-.007l-.724.919-.221-.161.87-1.1.346.258-.486 1.018h.007l.884-.715.34.26-.864 1.1zm.739.5l-.241-.158.787-1.154.247.164zm15.969 2.514l-1.4 1.454a11.756 11.756 0 0 0-5.521-1.408 13.552 13.552 0 0 0-5.9 1.513l-1.207-1.5a13.885 13.885 0 0 1 6.785-2.046 15.48 15.48 0 0 1 7.242 1.98zm.775-2.009l-.433.315-.853-1.108.5-.364a.352.352 0 0 1 .528.05.268.268 0 0 1 .052.318.35.35 0 0 1 .365.153.45.45 0 0 1 .09.294c-.014.097-.042.173-.25.335zm1.261-.99l-.249-.167-.362.293.118.281-.213.171-.565-1.348.242-.193 1.256.782zm.958-.846l-1.072-.379.69.725-.182.169-.967-1.023.206-.179 1.048.36-.678-.706.185-.163.967 1.01zm1.079-1.071l-.151-.1a.43.43 0 0 1-.112.428.65.65 0 0 1-.949-.084.632.632 0 0 1-.115-.948.534.534 0 0 1 .734-.075l-.182.192a.294.294 0 0 0-.36.041c-.133.13-.148.358.117.6.282.263.485.189.61.064a.315.315 0 0 0-.016-.429l-.2.209-.178-.163.369-.38.555.515zm.31-.341l-1.092-.894.172-.2.9.725.4-.474.2.161zm1.2-1.5l-.289-.105-.273.375.182.238-.165.221-.884-1.175.181-.243 1.417.454zm.565-.862l-.286.462-1.219-.714.295-.478a.589.589 0 0 1 .85-.094c.259.154.579.466.359.819zm.381-.648l-1.275-.608.41-.827.229.107-.3.6.271.126.276-.546.222.108-.272.548.332.156.312-.621.224.105zm.75-1.571a.47.47 0 0 1-.635.35l.089-.238c.074.028.23.047.31-.171.038-.115.064-.255-.08-.308-.1-.036-.165.042-.246.154l-.078.117c-.128.172-.242.334-.539.229a.417.417 0 0 1-.235-.6.457.457 0 0 1 .6-.3l-.088.238c-.062-.021-.21-.046-.291.168-.032.09-.039.212.081.261a.151.151 0 0 0 .188-.08l.187-.255a.371.371 0 0 1 .473-.176.444.444 0 0 1 .263.606zm.4-1.483l-.613-.147-.118.476.617.148-.06.257-1.381-.327.06-.254.523.118.113-.477-.518-.118.061-.254 1.385.323zm1.116.876c0 .018-.127 1.22-.74 1.619a.376.376 0 0 1-.076-.215c0-.013.007-.036.007-.05.013-.1.1-.185.257-.251l.046-.016.016-.042a2.739 2.739 0 0 0 .294-1.029.682.682 0 0 0-.047-.266.4.4 0 0 0-.263-.222.4.4 0 0 1-.1-.239 6.941 6.941 0 0 1 .294-1.73l.067-.047a.235.235 0 0 1 .222-.01c.082.05.213.229.213.838a9.278 9.278 0 0 1-.19 1.654z" class="cls-2" transform="translate(-205.172 -484.773)"/>
                    <path id="Path_1057" d="M226.139 502.085a.283.283 0 0 0 .13-.312c-.024-.141-.144-.336-.491-.284l-.69.105.226 1.372.6-.093c.284-.043.355-.1.421-.189a.384.384 0 0 0 .08-.3.334.334 0 0 0-.276-.299zm-.727-.3l.338-.05c.133-.024.223 0 .243.115s-.07.163-.184.179l-.345.053zm.5.84l-.359.057-.06-.365.372-.058c.113-.015.222.016.24.136.031.141-.042.212-.188.233z" class="cls-2" transform="translate(-210.348 -489.115)"/>
                    <path id="Path_1058" d="M227.01 502.746l.317-.005.09-.286.523-.015.1.284h.32l-.523-1.377-.345.009zm.656-1.084l.19.542-.364.007z" class="cls-2" transform="translate(-210.847 -489.079)"/>
                    <path id="Path_1059" d="M229.4 501.785h.007l.462 1.039.3.033.156-1.381-.278-.026-.109.965-.457-1.023-.308-.031-.154 1.377.279.026z" class="cls-2" transform="translate(-211.368 -489.083)"/>
                    <path id="Path_1060" d="M231.321 502.579l.165-.106.3.686.373.082-.42-.929.694-.431-.373-.085-.652.439.118-.554-.29-.068-.3 1.358.287.061z" class="cls-2" transform="translate(-211.866 -489.149)"/>
                    <path id="Path_1061" d="M238.094 500.277l-.266.2.231.3.259-.2a.173.173 0 0 0 .037-.28.181.181 0 0 0-.261-.02z" class="cls-2" transform="translate(-213.659 -488.791)"/>
                    <path id="Path_1062" d="M237.871 499.728c-.064-.094-.153-.076-.247-.007l-.248.181.19.241.246-.184c.088-.059.129-.144.059-.231z" class="cls-2" transform="translate(-213.541 -488.642)"/>
                    <path id="Path_1063" d="M239.546 499.144l-.482-.326.234.526z" class="cls-2" transform="translate(-213.979 -488.423)"/>
                    <path id="Path_1064" d="M244.227 494.27l-.549-.195.36.455z" class="cls-2" transform="translate(-215.178 -487.19)"/>
                    <path id="Path_1065" d="M245 492.6c-.362-.21-.48-.085-.54.007l-.138.217.8.473.132-.216c.121-.181-.054-.363-.254-.481z" class="cls-2" transform="translate(-215.347 -486.778)"/>
                    <path id="Path_1066" d="M213.2 497.122l.266.243.255-.518z" class="cls-2" transform="translate(-207.258 -487.91)"/>
                </g>
                <g id="Group_219" transform="translate(7.434 4.545)">
                    <path id="Path_1067" d="M233.279 480.207a9.034 9.034 0 0 0-18.062-.016 8.758 8.758 0 0 0 4.573 7.67l.007-9.788a1.652 1.652 0 0 1 .7-1.246 2.221 2.221 0 0 1 1.2-2.4c2.3-1.584 2.485-2.62 2.485-2.62a5.324 5.324 0 0 0 2.3 2.555 2.166 2.166 0 0 1 1.341 2.357 1.474 1.474 0 0 1 .946 1.415l-.007 9.691a8.766 8.766 0 0 0 4.517-7.618z" class="cls-2" transform="translate(-215.217 -471.387)"/>
                </g>
            </g>
            <g id="Group_221" transform="translate(12.568 11.843)">
                <path id="Path_1068" d="M223.066 487.9a1.285 1.285 0 0 0 1.135-.366s-1.568.066-1.653.017c-.206-.183-.138-.351.02-.508a1.976 1.976 0 0 1 1.115-.214c.089-.035.155-.105.226-.12s.141.148.326.148a.373.373 0 0 0 .344-.3c0-.1.053-.718.053-.718a.76.76 0 0 1 .207.2c.03.084.03 1.09.03 1.09a.075.075 0 0 0 .121 0c.073-.066.195-.272.331-.286s.273.3.432.321a.844.844 0 0 0 .308-.035.606.606 0 0 1 .047.252c.246-.13.607-.352.623-.705.01-.113-.05-.722-.05-.894s.141.036.141.036l.032 1.261a.578.578 0 0 0 .257-.28 3.035 3.035 0 0 0-.169-1.4.445.445 0 0 0 .1-.357.328.328 0 0 0 .067-.385 5.573 5.573 0 0 0-.531-.743l-.067-1.124s-.293.186-.3.37.154.167.154.167.055.2 0 .238c-.188-.015-.227-.063-.272-.175s-.184-.019-.184-.019l-.029 3.224c-.1.264-.22-.041-.22-.041l-.037-.739a.759.759 0 0 0-.278.384c-.12.3-.308.141-.308.141l-.036-1.7a.754.754 0 0 1 .105-.338.2.2 0 0 0-.1-.284s-.067-1.04-.087-1.2c-.529.506-.344.728-.344.728s.07.015.172.032a.309.309 0 0 1-.121.255s-.018.013-.018.077a1.634 1.634 0 0 0 .243.389l-.036 1.094c-.016.335-.326-.3-.326-.3s.02-.351.02-.518-.295-.236-.309-.087-.039.723-.039.723.261.2.239.272.022.757 0 .941c-.033.286-.461.068-.461.068s-.09-.118-.156-.052c-.239.453-.446-.184-.651-.289a.818.818 0 0 0-.984.256c.276-.036.519.267.38.388-.563.665-.241 1.086.538 1.105zm3.343-3.949c.035.187.051.423.051.423l.256.031v.672h-.1l-.034-.189h-.087v1.536c0 .338-.259.3-.312.133.021-.1-.053-2.588-.053-2.718s.242-.075.279.108zm-3.516 2.407c.121.117.09.194.09.194a1.874 1.874 0 0 0-.209-.077c-.102-.039 0-.239.118-.121z" class="cls-2" transform="translate(-222.153 -481.647)"/>
                <path id="Path_1069" d="M223.009 488.82c.073.184.244-.019.244-.019s-.048-.115-.121-.135-.123.154-.123.154z" class="cls-2" transform="translate(-222.375 -483.174)"/>
                <path id="Path_1070" d="M223.483 488.679l.154.168.188-.116-.155-.159z" class="cls-2" transform="translate(-222.499 -483.151)"/>
                <path id="Path_1071" d="M227.158 481.764l.026-.155-.507-.068-.46-.294-.114.16.481.338z" class="cls-2" transform="translate(-223.179 -481.247)"/>
                <path id="Path_1072" d="M228.859 487.784c-.021.981-1.28.445-1.4.4-.019.627.625.519.9.5a.841.841 0 0 0 .829-.921s.434-.047.807-.069.341-.286.317-.422a1.483 1.483 0 0 1-.6-.245.328.328 0 0 0-.465.175c.369-.021.3.09.484.206-.156.133-.548.152-.617.019s-.227-1.883-.275-2.083-.021-.184-.112-.184-.073.225-.073.225.165 2.103.205 2.399z" class="cls-2" transform="translate(-223.532 -482.262)"/>
                <path id="Path_1073" d="M231.532 487.426c.532-.227-.068-1.844-.068-1.844l-.28.561c.416.337.348 1.283.348 1.283z" class="cls-2" transform="translate(-224.5 -482.373)"/>
                <path id="Path_1074" d="M231.925 487.583c-.11-.07-.312.537-.312.537-.032.117.154.225.312.357-.067.424-1.582.652-1.582.652s-.112.272.325.272a2.855 2.855 0 0 0 1.653-.879.834.834 0 0 0-.396-.939zm.027.537l-.094-.046.067-.112.1.07z" class="cls-2" transform="translate(-224.278 -482.892)"/>
                <path id="Path_1075" d="M231.635 490.064a.545.545 0 0 0-.417.585c.027.318.4.272.551.316 0 .269-1.422.736-1.422.736s0 .247.138.247a2 2 0 0 0 1.515-1.055c.087-.421-.156-.844-.365-.829z" class="cls-2" transform="translate(-224.282 -483.538)"/>
                <path id="Path_1076" d="M222.761 491.09l-.246-.94-.144.022.207.97z" class="cls-2" transform="translate(-222.21 -483.56)"/>
                <path id="Path_1077" d="M223.893 491.1c.851-.408.249-.851.249-.851a3.39 3.39 0 0 1 .025.356c0 .158-.385.087-.385.087l-.372-.337a1.348 1.348 0 0 0-.229.45c0 .2.317.16.369.311s-.985.674-.985.674 0 .133.038.161c1.057-.137 1.197-.674 1.29-.851z" class="cls-2" transform="translate(-222.26 -483.586)"/>
                <path id="Path_1078" d="M224.857 491.59c-.116.27.067.27.067.467s-1.2.7-1.4.739.046.229.115.249a1.735 1.735 0 0 0 1.516-1.058c.6-.377.481-.534.392-.709-.117.266-.69.312-.69.312z" class="cls-2" transform="translate(-222.488 -483.854)"/>
                <path id="Path_1079" d="M225.875 489.525a2.278 2.278 0 0 0 .187.745c.09-.225.318-.288.343-.114a3.423 3.423 0 0 0 .156.515 4.51 4.51 0 0 0-.11-1.639c-.023.118-.528.335-.576.493z" class="cls-2" transform="translate(-223.118 -483.27)"/>
                <path id="Path_1080" d="M228.706 490.177l.066.1.206.014.115-.134z" class="cls-2" transform="translate(-223.856 -483.561)"/>
                <path id="Path_1081" d="M228.329 490.572l-.665-.2a.724.724 0 0 1-.1.323c-.147.186-.409.367-.493.48a10.61 10.61 0 0 0-.025 2.061l.18-.019v-1.749a1.335 1.335 0 0 1 .254-.426c.158-.161.6-.161.757-.161s.092-.309.092-.309z" class="cls-2" transform="translate(-223.413 -483.618)"/>
                <path id="Path_1082" d="M227.952 492.46c-.224.334.025.785.281.744.46.041.434-.432.391-.567-.391.493-.672-.177-.672-.177z" class="cls-2" transform="translate(-223.637 -484.161)"/>
                <path id="Path_1083" d="M230.561 490.761s-.205-.041-.412-.068a3.079 3.079 0 0 0-.737-.113l-.045.2c.209.023.511.021.488.153a1.138 1.138 0 0 0-.715.876 3.542 3.542 0 0 1 1.238-.672c.345-.109.183-.376.183-.376z" class="cls-2" transform="translate(-223.968 -483.672)"/>
            </g>
        </g>
    </g>
</svg>
