<svg xmlns="http://www.w3.org/2000/svg" width="54" height="54" viewBox="0 0 54 54">
    <defs>
        <style>
            .cls-2{fill:#d02053}.cls-3{fill:#e2126e}.cls-4{fill:#9d1638}.cls-5{fill:#231f20}
        </style>
    </defs>
    <g id="Group_3274" transform="translate(-6119 96)">
        <g id="Rectangle_70" fill="#fff" stroke="#fff" transform="translate(6119 -96)">
            <rect width="54" height="54" stroke="none" rx="10"/>
            <rect width="53" height="53" x=".5" y=".5" fill="none" rx="9.5"/>
        </g>
        <g id="bkash" transform="translate(6114.8 -105.3)">
            <g id="Group_2967" transform="translate(8.2 25.3)">
                <g id="Group_2966">
                    <g id="Group_2965">
                        <path id="Path_2213" d="M51.6 39l1.261 6.01 8.681-4.378z" class="cls-2" transform="translate(-19.398 -28.835)"/>
                        <path id="Path_2214" d="M54.049 27.1L51.6 36l9.943 1.558z" class="cls-3" transform="translate(-19.398 -25.764)"/>
                        <path id="Path_2215" d="M40.6 25.3l10.314 1.261-2.449 8.83z" class="cls-2" transform="translate(-16.56 -25.3)"/>
                        <path id="Path_2216" d="M40.5 27.6h1.113l3.265 4.155z" class="cls-4" transform="translate(-16.534 -25.893)"/>
                        <path id="Path_2217" d="M64.342 39.345L61.3 35.19l4.9-.89z" class="cls-2" transform="translate(-21.901 -27.622)"/>
                        <path id="Path_2218" d="M62.171 42.39l.3-.89-7.571 3.858z" class="cls-3" transform="translate(-20.25 -29.48)"/>
                        <path id="Path_2219" d="M50.216 39.4l1.558 7.123-4.674 3.784z" class="cls-4" transform="translate(-18.237 -28.938)"/>
                        <path id="Path_2220" d="M67.2 36.478l2.82-.074-2-2z" class="cls-3" transform="translate(-23.423 -27.648)"/>
                        <path id="Path_2221" d="M8.2 35.5h.89v4.452a2.087 2.087 0 0 1 1.781-1.261c1.484 0 2.078 1.41 2.078 2.745 0 1.558-.816 3.116-2.3 3.116a1.81 1.81 0 0 1-1.484-.816l-.742.742H8.2zm.816 6.455c0 1.261.519 2.226 1.41 2.226 1.187 0 1.558-1.558 1.558-2.671 0-1.261-.445-2.3-1.41-2.3-1.187-.074-1.558 1.336-1.558 2.745" class="cls-3" transform="translate(-8.2 -27.932)"/>
                        <path id="Path_2222" d="M18.745 38.32l-.89 1.113c.816 1.187 1.707 2.374 2.523 3.636l.816 1.336v.074h-1.187a6.408 6.408 0 0 0-.742-1.187l-2.226-3.339a.23.23 0 0 0-.148-.074v4.6H16V35.5c.148 0 .3.074.445.074a.941.941 0 0 0 .445-.074v4.081c0 .074.148 0 .223-.074a5.231 5.231 0 0 0 .519-.668l2.523-3.339c.148 0 .3.074.445.074a.669.669 0 0 0 .371-.074z" class="cls-5" transform="translate(-10.213 -27.932)"/>
                        <path id="Path_2223" d="M27.61 44.523c0 .445 0 .742.594.519v.3c-.074.074-.223.074-.3.148-.519.074-.965 0-1.039-.668l-.074.074a1.864 1.864 0 0 1-1.558.742 1.37 1.37 0 0 1-1.333-1.486c0-1.336.965-1.558 1.929-1.707.816-.148 1.113-.223 1.113-.816 0-.89-.445-1.41-1.187-1.41a1.416 1.416 0 0 0-1.261.816h-.148v-.668a2.858 2.858 0 0 1 1.632-.668c1.113 0 1.707.668 1.707 2v2.82zm-.816-1.929l-.371.074c-.668.148-1.781.3-1.781 1.336 0 .742.371 1.113 1.039 1.113a1.131 1.131 0 0 0 .816-.445c.074-.074.3-.3.3-.371z" class="cls-5" transform="translate(-12.251 -29.016)"/>
                        <path id="Path_2224" d="M31.323 44.374a1.474 1.474 0 0 0 1.187.89 1.079 1.079 0 0 0 1.039-1.113c0-1.632-2.449-.594-2.449-2.671a1.656 1.656 0 0 1 1.707-1.78 2.3 2.3 0 0 1 1.187.3c-.074.3-.148.594-.223.816H33.7c-.148-.371-.519-.816-.89-.816a.935.935 0 0 0-.965.965c0 1.558 2.449.742 2.449 2.6a1.806 1.806 0 0 1-1.929 1.855 2.3 2.3 0 0 1-1.261-.371l.223-.89z" class="cls-5" transform="translate(-14.109 -29.016)"/>
                        <path id="Path_2225" d="M37.174 35.5h.89v4.378a1.89 1.89 0 0 1 1.636-1.187c1.187 0 1.632.816 1.632 2.3v3.487h-.89v-3.191c0-1.336-.3-2-1.113-2-.965 0-1.336.668-1.336 1.929v3.265H37.1V35.5z" class="cls-5" transform="translate(-15.657 -27.932)"/>
                    </g>
                </g>
            </g>
        </g>
    </g>
</svg>
