<svg xmlns="http://www.w3.org/2000/svg" width="54" height="54" viewBox="0 0 54 54">
    <defs>
        <style>
            .cls-3{fill:#fff}.cls-4{fill:#de8227}
        </style>
    </defs>
    <g id="Group_3270" transform="translate(-6607 92)">
        <g id="Rectangle_634" fill="#fff" stroke="#fff" transform="translate(6607 -92)">
            <rect width="54" height="54" stroke="none" rx="10"/>
            <rect width="53" height="53" x=".5" y=".5" fill="none" rx="9.5"/>
        </g>
        <g id="mcash" transform="translate(6598.5 -96.4)">
            <g id="Group_3023" transform="translate(25.5 10.4)">
                <path id="Path_2375" fill="#008661" d="M44.948 17.743v32.324H25.5V17.743h1.61V10.5h2.28v7.31h15.29a.507.507 0 0 1 .268-.067z" transform="translate(-25.5 -10.433)"/>
                <path id="Path_2376" d="M46.859 17.71H31.3V10.4h15.491c.068 2.481.068 4.9.068 7.31z" class="cls-3" transform="translate(-27.41 -10.4)"/>
                <path id="Path_2377" d="M27.11 10.5v7.243H25.5V10.5z" class="cls-3" transform="translate(-25.5 -10.433)"/>
            </g>
            <g id="Group_3090" transform="translate(31.543 18.85)">
                <g id="Group_3089">
                    <g id="Group_3071">
                        <g id="Group_3056" transform="translate(.722)">
                            <g id="Group_3024">
                                <path id="Path_2378" d="M38.48 23a2.75 2.75 0 0 0-2.079.939 2.873 2.873 0 0 0-.8 2.146 3.049 3.049 0 0 0 3.013 3.015 3.007 3.007 0 0 0 2.951-3.085A3.2 3.2 0 0 0 38.48 23zm-2.817 3.085a2.864 2.864 0 0 1 2.817-2.951 2.963 2.963 0 0 1 2.951 2.884 2.864 2.864 0 0 1-2.817 2.951 2.838 2.838 0 0 1-2.951-2.884z" class="cls-3" transform="translate(-35.587 -23)"/>
                            </g>
                            <g id="Group_3043" transform="translate(.478 .537)">
                                <g id="Group_3025" transform="translate(4.694 2.733)">
                                    <path id="Path_2379" d="M43.7 27.959c-.134-.134-.2-.067-.2-.067h-.2v.067h.2v.067h.067v-.067z" class="cls-3" transform="translate(-43.3 -27.875)"/>
                                </g>
                                <g id="Group_3026" transform="translate(.067 2.28)">
                                    <path id="Path_2380" d="M36.4 27.267V27.2z" class="cls-3" transform="translate(-36.4 -27.2)"/>
                                </g>
                                <g id="Group_3027" transform="translate(.067 2.213)">
                                    <path id="Path_2381" d="M36.4 27.1v.067z" class="cls-3" transform="translate(-36.4 -27.1)"/>
                                </g>
                                <g id="Group_3028" transform="translate(.805 .604)">
                                    <path id="Path_2382" d="M37.5 24.767h.067V24.7H37.5z" class="cls-3" transform="translate(-37.5 -24.7)"/>
                                </g>
                                <g id="Group_3029" transform="translate(.805 .537)">
                                    <path id="Path_2383" d="M37.567 24.6H37.5v.067h.067z" class="cls-3" transform="translate(-37.5 -24.6)"/>
                                </g>
                                <g id="Group_3030" transform="translate(.872 .537)">
                                    <path id="Path_2384" d="M37.667 24.6H37.6v.067h.067z" class="cls-3" transform="translate(-37.6 -24.6)"/>
                                </g>
                                <g id="Group_3031" transform="translate(0 1.341)">
                                    <path id="Path_2385" d="M36.568 25.867c0-.067-.067-.067 0 0a.676.676 0 0 1-.2-.067l.067.134h.265a.147.147 0 0 1-.067.2.294.294 0 0 1-.067.2 1.364 1.364 0 0 1-.067.335.294.294 0 0 1-.067.2.131.131 0 0 1-.134.134v.067l.134-.067v.134c.067 0 .067-.2.067-.2a.093.093 0 0 0 0-.134h.134v-.067h-.067V26.6a.676.676 0 0 1 .067-.2h.067v-.067a.066.066 0 0 1-.067-.067l.067-.134a.208.208 0 0 0 .069-.132v-.134c0 .068-.201.001-.201.001z" class="cls-3" transform="translate(-36.3 -25.8)"/>
                                </g>
                                <g id="Group_3032" transform="translate(.319 .402)">
                                    <path id="Path_2386" d="M37.6 24.4c-.134 0 0 .134 0 .134 0 .067-.134.067-.134.067v.134H37.4v.134h-.067V25l-.4.335c-.134.067 0-.2 0-.2a.066.066 0 0 0-.067-.067.237.237 0 0 0-.067.268c.067.134.469-.4.469-.4a.331.331 0 0 0 .067-.2l.134-.134c0-.067.134 0 .134 0-.067 0 0-.067 0-.067h.067v-.067h-.07c.064-.068 0-.068 0-.068z" class="cls-3" transform="translate(-36.775 -24.4)"/>
                                </g>
                                <g id="Group_3033" transform="translate(1.244 .268)">
                                    <path id="Path_2387" d="M38.252 24.2s-.134 0-.067.067c0 0 .134 0 .067.067a.066.066 0 0 1-.067.067s-.067.134 0 .067c0-.068.202-.268.067-.268z" class="cls-3" transform="translate(-38.156 -24.2)"/>
                                </g>
                                <g id="Group_3034" transform="translate(1.341 .067)">
                                    <path id="Path_2388" d="M38.5 24.034c0-.067.2 0 .2 0 .067.067.067 0 .067 0 0-.067-.469-.134-.469-.134v.067c.134.067.134.134.2.067l-.067.067h.069z" class="cls-3" transform="translate(-38.3 -23.9)"/>
                                </g>
                                <g id="Group_3035" transform="translate(2.079 .067)">
                                    <path id="Path_2389" d="M39.467 23.967V23.9H39.4v.067z" class="cls-3" transform="translate(-39.4 -23.9)"/>
                                </g>
                                <g id="Group_3036" transform="translate(2.414)"/>
                                <g id="Group_3037" transform="translate(1.475)">
                                    <path id="Path_2391" d="M39.64 23.8v.134h-.134v-.067h-.067v.067c0 .067-.134.067-.134.067v-.067h-.2c-.134.067-.067.067-.067.067h.062c0 .067-.2.067-.2.067-.067 0-.067-.2-.067-.2v-.067h-.067a.093.093 0 0 0 0 .134c.067 0 .067.134.067.134a.093.093 0 0 1-.134 0 .965.965 0 0 1-.2.134c.067.067.2-.067.2-.067a.675.675 0 0 0 .2-.067c.268 0 .335-.134.335-.134.2 0 .2-.067.2-.067h.134v.067h.067v-.067c.072-.068.005-.068.005-.068z" class="cls-3" transform="translate(-38.5 -23.8)"/>
                                </g>
                                <g id="Group_3038" transform="translate(2.951 .201)">
                                    <path id="Path_2392" d="M40.968 24.167V24.1a1.521 1.521 0 0 0-.268.067l.335.134c.065-.134-.067-.134-.067-.134z" class="cls-3" transform="translate(-40.7 -24.1)"/>
                                </g>
                                <g id="Group_3039" transform="translate(3.688 .402)"/>
                                <g id="Group_3040" transform="translate(2.75)">
                                    <path id="Path_2394" d="M41.607 24.4c0 .067-.268-.067-.268-.067v-.067c-.067.067-.2-.067-.2-.067l.067-.134V24a.675.675 0 0 1 .067-.2l-.2.134v.134l-.073.067c0 .067-.134 0-.134 0l-.469-.2c0 .067.469.268.469.268l.134.067.134.067h.134l.067.067v.067h.134l.067-.067h.134a.234.234 0 0 1 .067-.134l-.134.134z" class="cls-3" transform="translate(-40.4 -23.8)"/>
                                </g>
                                <g id="Group_3041" transform="translate(4.024 .625)">
                                    <path id="Path_2395" d="M42.836 25.381v.134h.064v-.067l-.067-.067-.067-.134v-.134s-.134-.134-.2-.067v.067l.067.134s0 .067-.067 0a2.916 2.916 0 0 1-.268-.469s0-.134.2.067h.067s-.2-.2-.268-.067c0 0 0 .067.268.469 0 0 .134.134.2 0zm-.2-.268c0-.067.134 0 .134 0v.067c-.07.067-.135-.067-.135-.067z" class="cls-3" transform="translate(-42.3 -24.731)"/>
                                </g>
                                <g id="Group_3042" transform="translate(4.359 1.274)">
                                    <path id="Path_2396" d="M43.269 27.108l-.134-.067v-.134h.065a.066.066 0 0 0-.067-.067c-.067 0-.067-.134-.067-.134h.067v-.067h-.067A1.174 1.174 0 0 1 43 26.3h.2v-.067l.134-.067-.134-.066c-.067 0-.067.134-.067.134H43c-.067.067-.067-.067-.067-.067a.147.147 0 0 0 .2-.067 1.437 1.437 0 0 0 .067-.4c-.067 0-.067.2-.067.2H43a.066.066 0 0 0 .067.067v.2c-.134.134-.2-.2-.2-.2 0-.134-.067-.067-.067-.067.067.537.134.4.134.4a.516.516 0 0 0 .067.4.676.676 0 0 0 .067.2v.067c0 .141.201.141.201.141z" class="cls-3" transform="translate(-42.8 -25.7)"/>
                                </g>
                            </g>
                            <g id="Group_3055" transform="translate(.478 3.688)">
                                <g id="Group_3044">
                                    <path id="Path_2397" d="M37.574 29.908c.067-.134 0-.2-.134-.268-.067 0-.134-.067-.134 0-.067.067.067.134.134.134l-.268-.2v-.067a.234.234 0 0 0-.067.134c0-.067.067-.067 0-.134l-.067-.067-.2-.268-.2-.335c.067 0 .067-.067.067-.134a.066.066 0 0 0-.067-.067v-.067c-.067 0-.067.134-.067.134v.134-.067l-.071-.27v.067s.067.134 0 .134l-.067-.067s-.067 0 0 .067a.066.066 0 0 0 .067.067v.067a.066.066 0 0 1-.067-.067v-.134l-.067.067a.6.6 0 0 1-.067.335h.067l.067-.134v-.067c0 .067.067.067.134.067s.067-.134.067-.134l.067.2v.067c0 .067.067.067 0 .134h-.067V29.1h-.067a.234.234 0 0 0-.067.134c.067.067.134 0 .2.067 0 .067-.067.067-.067.134a.066.066 0 0 0-.067.067v.067l.335-.2.067.067.2.2-.268-.134v-.067h-.067v-.067c-.067-.067-.067-.067-.134 0s-.067.134 0 .134c0 0 .067.067.067 0 0 0 .067-.067 0-.067H36.7v-.067h.067v.067h.133v.067l-.134.134v.067l.268-.2.067.067v.067l-.134.2v.067l.268-.268.067.067v.067c0 .067.067.067.067.134 0-.067-.067-.067-.134 0v.067s.067.067.067 0c.067 0 0 .134 0 .2l.2-.268.067.067-.268.2v.067l.268-.335.067.067-.067-.067zm-.939-.738v-.07h-.067c.067 0 .067 0 .067-.067l.067.134zm.6.8v-.067a.126.126 0 0 0 0-.2l.134.067zm.268-.134h-.063c.067-.067 0-.134-.067-.134l-.067-.067h.067c.134.072.201.139.134.206z" class="cls-3" transform="translate(-36.3 -28.5)"/>
                                </g>
                                <g id="Group_3045" transform="translate(1.408 1.475)">
                                    <path id="Path_2398" d="M39.071 30.968c-.067 0 0 .067 0 .067 0-.067 0-.134-.067-.134h-.067l-.134-.067-.335-.134v.067l.2.067a.4.4 0 0 0-.268.067v.067c.134.067.067.2.134.268l.134-.335.067.067h.065l-.067.067v.134a.066.066 0 0 1-.067.067.234.234 0 0 0 .134-.067v-.2a.066.066 0 0 1 .067-.067c.067 0 .067.067 0 .067l-.067.268.067.067.2-.335.067.067-.067-.067zm-.471.132c0-.067-.067-.067-.067-.134h.134z" class="cls-3" transform="translate(-38.4 -30.7)"/>
                                </g>
                                <g id="Group_3046" transform="translate(2.213 1.878)">
                                    <path id="Path_2399" d="M39.6 31.434l.2.2v-.067a.926.926 0 0 1-.2-.268z" class="cls-3" transform="translate(-39.6 -31.3)"/>
                                </g>
                                <g id="Group_3047" transform="translate(2.185 1.811)">
                                    <path id="Path_2400" d="M39.653 31.334a.067.067 0 1 0-.067-.067c-.067 0 0 .067.067.067zm0-.134c0 .067 0 .067-.067.067l.067-.067z" class="cls-3" transform="translate(-39.559 -31.2)"/>
                                </g>
                                <g id="Group_3048" transform="translate(2.28 1.945)"/>
                                <g id="Group_3049" transform="translate(2.347 1.744)">
                                    <path id="Path_2402" d="M40.269 31.1H39.8l.067.067h.2c-.067 0-.134.067-.2.134l.067.067c.067 0 .2.067.2.134v-.268c.067 0 .134 0 .134.067H40.2a.067.067 0 1 0 .067.067.144.144 0 0 0-.134-.134l.134-.134zm-.269.2a.234.234 0 0 1 .134-.067v.134A.208.208 0 0 0 40 31.3z" class="cls-3" transform="translate(-39.8 -31.1)"/>
                                </g>
                                <g id="Group_3050" transform="translate(2.951 1.542)">
                                    <path id="Path_2403" d="M41.237 30.8H41.1v.067c0 .067.067.067.067.134a.234.234 0 0 0-.134-.067h-.268l.2-.067c-.067.067-.067.134-.134.2l.067.067c.2-.067.2.067.268.067l-.134-.335h.068c.067 0 .067 0 .067.067l.134.2h.067l-.134-.335zm-.134.335c-.067 0-.067-.067-.134-.067a.066.066 0 0 1 .066-.068z" class="cls-3" transform="translate(-40.7 -30.8)"/>
                                </g>
                                <g id="Group_3051" transform="translate(3.621 1.61)">
                                    <path id="Path_2404" d="M41.7 30.9l.067.067h.268V30.9c-.135.067-.201 0-.335 0z" class="cls-3" transform="translate(-41.7 -30.9)"/>
                                </g>
                                <g id="Group_3052" transform="translate(3.688 1.61)"/>
                                <g id="Group_3053" transform="translate(3.487 1.408)">
                                    <path id="Path_2406" d="M41.7 30.8c.067 0 .067-.067 0-.134 0-.067-.067-.067-.134-.067s-.067.067-.067.134a.246.246 0 0 0 .201.067zm-.067-.134c.067 0 0 .067 0 .067z" class="cls-3" transform="translate(-41.5 -30.6)"/>
                                </g>
                                <g id="Group_3054" transform="translate(3.621 .067)">
                                    <path id="Path_2407" d="M42.773 28.8l.2.067.067-.067-.335-.134V28.6h-.067a.066.066 0 0 0-.067.067c.067.067.134.134.2.134h-.134v.067c-.067 0-.067 0-.067.067V29l-.2.268-.2.268h-.07c0 .067.067.067.134.067-.067 0-.067-.067-.134 0l-.067.067-.335.268h.067l.2-.2.067.067h-.067v.067H41.9c-.067 0-.067.067 0 .134s.134.067.134 0c0 0 .067-.067 0-.067 0 0-.067-.067-.067 0v.067H41.9v-.067h.067v-.134h.067l.134.134h.067l-.2-.268.067-.067h.067l.2.2h.067l-.268-.268v-.067l.067-.067c0 .067 0 .134.067.134a.126.126 0 0 0 .2 0v-.067h-.067v.067c0 .067-.067 0-.134 0a.246.246 0 0 1-.067-.2l.2.134h.066a.246.246 0 0 0 .067-.2l.067.067c.067 0 .067.067.134.067h.067c-.067 0-.067 0-.067-.067l-.134-.134-.067.067v.2l-.134-.067.134-.2a.066.066 0 0 1 .067-.067.067.067 0 1 0 .134 0v-.067A.066.066 0 0 0 42.84 29a.246.246 0 0 1-.067-.2l-.067.067c0-.067 0-.067.067-.067z" class="cls-3" transform="translate(-41.7 -28.6)"/>
                                </g>
                            </g>
                        </g>
                        <g id="Group_3068" transform="translate(0 3.316)">
                            <g id="Group_3057">
                                <path id="Path_2408" d="M41.679 28.116s-.4-.268-.4-.134a3.176 3.176 0 0 1-2.481 2.75v-.2h-.134v.2h-.268V30.6h-.2v.134h-.469V30.6h-.134v.2a3 3 0 0 1-2.481-2.615s.067-.067-.067-.067c0 0-.469-.067-.469.067a1.471 1.471 0 0 0 .134 1.14h.2a4.123 4.123 0 0 0 1.811 1.811l-.268.2.268.4a.339.339 0 0 0 .537.067l.2-.4a3.921 3.921 0 0 1 .671-.067 4.2 4.2 0 0 1 .738.067s.335.671.671.335l.4-.469-.335-.2a3.548 3.548 0 0 0 1.677-1.878s.134.134.2 0a2.2 2.2 0 0 0 .2-.4s.268-.675-.001-.675zM34.7 29.122l-.067-.067c0-.067-.067-.335-.067-.537a2.9 2.9 0 0 1 .067-.335.814.814 0 0 1 .067.335.234.234 0 0 0-.067.134v.067a.508.508 0 0 0 .134.268.208.208 0 0 0-.067.135zm.536.4l.268-.2.067.067-.335.134zm.134.268c-.067-.067 0-.134 0-.2l.067.067c-.067 0-.067.067-.067.134h.134v-.067c0-.067-.067-.067 0-.134 0 0 .067-.067.134.067a.093.093 0 0 1 0 .134l-.067-.067v-.067s-.067-.067-.067 0v.268zm.067.134l.268-.2.067.067-.2.2.067.134-.067.067zm.4.335l-.067-.134h-.067l-.067-.067.268-.134.067.067-.134.268zm.268.268l.134-.2-.134.2-.067-.067.134-.268-.134.2-.067-.067.2-.268.067.067-.134.268.2-.134.067.067-.268.2zm.134.134l.134-.335.067.067zm3.561.539l-.335.335a2.524 2.524 0 0 0-1.207-.335 2.623 2.623 0 0 0-1.274.335l-.268-.335a2.883 2.883 0 0 1 1.475-.469 3.361 3.361 0 0 1 1.609.469zm.2-.469l-.067.067-.2-.268.134-.067c.067-.067.067 0 .134 0v.067h.067v.07zm.268-.2h-.134v.069l-.067.067-.134-.335.067-.07.268.268zm.2-.2l-.268-.067.134.2-.067.067-.2-.268.067-.067.2.067-.134-.134.067-.067.2.268zm.2-.268a.066.066 0 0 1-.067.067.142.142 0 0 1-.2-.2c.067-.067.134-.067.134 0l-.067.067h-.067v.134c.067.067.134.067.134 0v-.067l-.067.067h-.067l.067-.067zm.067-.067l-.268-.2v-.067l.2.134.067-.134.067.067zm.268-.335l-.134.067.067.067-.067.067-.2-.268.067-.067.268.134zm.134-.2l-.067.134-.268-.134.067-.134a.126.126 0 0 1 .2 0c.074-.004.141.063.074.13zm.067-.134l-.268-.134.067-.2h.067l-.067.134h.067l.067-.134h.067l-.067.134.067.067.067-.134h.067zm.2-.4a.208.208 0 0 1-.134.067v-.074c0 .067.067.067.134 0l-.067-.067a.066.066 0 0 0-.067.067c0 .067-.067.067-.134.067a.234.234 0 0 1-.067-.134c0-.067.067-.067.134-.067v.067a.066.066 0 0 0-.067.067v.067h.067l.067-.067a.234.234 0 0 1 .134-.067l.007.067zm.067-.335h-.134v.134h.134v.067l-.335-.067v-.067h.134v-.134h-.134v-.067l.335.134zm.268.2a.662.662 0 0 1-.134.4v-.067a.066.066 0 0 1 .067-.067c-.067 0 0-.134.067-.268-.067-.067-.067-.134-.134-.134v-.067a2.371 2.371 0 0 1 .067-.4h.067a.294.294 0 0 1 .067.2c.007.129-.06.263-.06.397z" class="cls-3" transform="translate(-34.511 -27.944)"/>
                            </g>
                            <g id="Group_3058" transform="translate(3.279 2.921)">
                                <path id="Path_2409" d="M39.6 32.434a.066.066 0 0 0 .067-.067.234.234 0 0 0-.134-.067H39.4l.067.335h.133c.067 0 .067 0 .067-.067V32.5c.001-.066.001-.066-.067-.066zm-.134-.067h.134a.066.066 0 0 1-.067.067h-.067zm.067.2h-.067V32.5h.067c0-.067.067 0 0 .067.067-.067.067.001.001.001z" class="cls-3" transform="translate(-39.4 -32.3)"/>
                            </g>
                            <g id="Group_3059" transform="translate(3.547 2.854)">
                                <path id="Path_2410" d="M39.8 32.535h.067v-.067H40v.067h.067l-.134-.335h-.067zm.134-.268L40 32.4h-.067z" class="cls-3" transform="translate(-39.8 -32.2)"/>
                            </g>
                            <g id="Group_3060" transform="translate(3.882 2.921)">
                                <path id="Path_2411" d="M40.367 32.367l.134.2.067.067V32.3l-.067.2-.067-.2h-.067l-.067.268h.067z" class="cls-3" transform="translate(-40.3 -32.3)"/>
                            </g>
                            <g id="Group_3061" transform="translate(4.218 2.921)">
                                <path id="Path_2412" d="M40.867 32.5h.067l.067.134.067.067-.134-.2.2-.134H41l-.134.067.067-.134h-.067l-.067.335h.067z" class="cls-3" transform="translate(-40.8 -32.3)"/>
                            </g>
                            <g id="Group_3062" transform="translate(5.358 2.67)">
                                <path id="Path_2413" d="M42.5 31.975v.134l.067-.067c.067-.067.067-.067-.067-.067z" class="cls-3" transform="translate(-42.5 -31.925)"/>
                            </g>
                            <g id="Group_3063" transform="translate(5.224 2.586)">
                                <path id="Path_2414" d="M42.434 31.8l-.134.067.067.067.067-.134z" class="cls-3" transform="translate(-42.3 -31.8)"/>
                            </g>
                            <g id="Group_3064" transform="translate(5.559 2.452)">
                                <path id="Path_2415" d="M42.867 31.667L42.8 31.6v.134z" class="cls-3" transform="translate(-42.8 -31.6)"/>
                            </g>
                            <g id="Group_3065" transform="translate(6.297 1.647)">
                                <path id="Path_2416" d="M44.034 30.467L43.9 30.4l.067.067z" class="cls-3" transform="translate(-43.9 -30.4)"/>
                            </g>
                            <g id="Group_3066" transform="translate(6.431 1.349)">
                                <path id="Path_2417" d="M44.234 29.985a.093.093 0 0 0-.134 0v.067l.2.134v-.067c0-.067-.066-.067-.066-.134z" class="cls-3" transform="translate(-44.1 -29.956)"/>
                            </g>
                            <g id="Group_3067" transform="translate(1.267 2.117)">
                                <path id="Path_2418" d="M36.4 31.167l.067.067.067-.134z" class="cls-3" transform="translate(-36.4 -31.1)"/>
                            </g>
                        </g>
                        <g id="Group_3070" transform="translate(1.602 1.073)">
                            <g id="Group_3069">
                                <path id="Path_2419" d="M40.924 26.612a1.976 1.976 0 0 0-2.012-2.012 2.013 2.013 0 0 0-1.006 3.756v-2.28a.468.468 0 0 1 .134-.268.555.555 0 0 1 .268-.537c.536-.335.536-.6.536-.6.067.335.537.6.537.6a.427.427 0 0 1 .268.537c.2.067.2.335.2.335v2.213a1.863 1.863 0 0 0 1.075-1.744z" class="cls-3" transform="translate(-36.9 -24.6)"/>
                            </g>
                        </g>
                    </g>
                    <g id="Group_3088" transform="translate(2.675 2.75)">
                        <g id="Group_3072" transform="translate(0 .402)">
                            <path id="Path_2420" d="M38.768 28.773a.392.392 0 0 0 .268-.067H38.7c-.067-.067 0-.067 0-.134a.4.4 0 0 1 .268-.067h.067a.067.067 0 1 0 .134 0v-.134a.066.066 0 0 1 .067.067v.268l.067-.067.067.067h.067v.067a.144.144 0 0 0 .134-.134v-.2.268a.066.066 0 0 0 .067-.067.5.5 0 0 0-.067-.335v-.134l-.134-.2V27.7l-.067.067v.133c-.067 0-.067 0-.067-.067h-.067v.738c0 .067-.067 0-.067 0v-.2l-.067.067a.066.066 0 0 1-.067.067v-.8c-.134.134-.067.2-.067.2h.067v.067a.066.066 0 0 0 .067.067v.261c0 .067-.067-.067-.067-.067V28.1c0-.067-.067-.067-.067 0v.134l.067.067v.2c0 .067-.134 0-.134 0h-.067c-.067.134-.067-.067-.134-.067a.147.147 0 0 0-.2.067c.067 0 .134.067.067.067a.214.214 0 0 0 .201.205zm.738-.939v.066h.067v.134-.067.333c0 .067-.067.067-.067 0 0 .134-.067-.469 0-.469-.067-.064 0-.064 0 .003zm-.738.537c-.068.067-.068 0 0 0z" class="cls-3" transform="translate(-38.5 -27.7)"/>
                        </g>
                        <g id="Group_3073" transform="translate(.201 1.291)">
                            <path id="Path_2421" d="M38.8 29.075c.067 0 .067-.067 0 0z" class="cls-3" transform="translate(-38.8 -29.025)"/>
                        </g>
                        <g id="Group_3074" transform="translate(.335 1.274)">
                            <path id="Path_2422" d="M39 29v.067l.067-.067z" class="cls-3" transform="translate(-39 -29)"/>
                        </g>
                        <g id="Group_3075" transform="translate(.738)">
                            <path id="Path_2423" d="M39.8 27.234l.067-.067h-.134L39.6 27.1v.067l.134.067z" class="cls-3" transform="translate(-39.6 -27.1)"/>
                        </g>
                        <g id="Group_3076" transform="translate(.939 .671)">
                            <path id="Path_2424" d="M40.235 28.7c0 .2-.268.134-.335.067 0 .134.134.134.2.134a.2.2 0 0 0 .2-.2h.2c.067 0 .067-.067.067-.134l-.134-.067a.208.208 0 0 0-.134.067c.067 0 .067 0 .134.067 0 0-.134.067-.134 0 0 0-.067-.4-.067-.469l.003.535z" class="cls-3" transform="translate(-39.9 -28.1)"/>
                        </g>
                        <g id="Group_3077" transform="translate(1.542 .805)">
                            <path id="Path_2425" d="M40.867 28.7c.134-.067 0-.4 0-.4l-.067.134c.134 0 .067.266.067.266z" class="cls-3" transform="translate(-40.8 -28.3)"/>
                        </g>
                        <g id="Group_3078" transform="translate(1.475 1.073)">
                            <path id="Path_2426" d="M41.035 28.7l-.067.134.067.067c0 .067-.335.134-.335.134a.066.066 0 0 0 .067.067c.067 0 .335-.134.335-.2a.675.675 0 0 0-.067-.202zm0 .134z" class="cls-3" transform="translate(-40.7 -28.7)"/>
                        </g>
                        <g id="Group_3079" transform="translate(1.475 1.542)">
                            <path id="Path_2427" d="M40.968 29.4c-.067 0-.067.134-.067.134 0 .067.067.067.134.067 0 .067-.335.2-.335.2v.067c.134 0 .335-.134.335-.268a.294.294 0 0 0-.067-.2z" class="cls-3" transform="translate(-40.7 -29.4)"/>
                        </g>
                        <g id="Group_3080" transform="translate(.134 1.542)">
                            <path id="Path_2428" d="M38.767 29.6l-.067-.2z" class="cls-3" transform="translate(-38.7 -29.4)"/>
                        </g>
                        <g id="Group_3081" transform="translate(.134 1.542)">
                            <path id="Path_2429" d="M39.035 29.6c.2-.067.067-.2.067-.2v.067c0 .067-.067 0-.067 0L38.9 29.4l-.067.067a.066.066 0 0 0 .067.067c0 .067-.2.134-.2.134v.067c.268 0 .268-.067.335-.135z" class="cls-3" transform="translate(-38.7 -29.4)"/>
                        </g>
                        <g id="Group_3082" transform="translate(.238 1.744)">
                            <path id="Path_2430" d="M39.221 29.767v.133c0 .067-.268.134-.335.2-.067 0 0 .067 0 .067.268-.067.335-.2.335-.268.134-.067.134-.134.067-.2.067.068-.067.068-.067.068z" class="cls-3" transform="translate(-38.856 -29.7)"/>
                        </g>
                        <g id="Group_3083" transform="translate(.671 1.381)">
                            <path id="Path_2431" d="M39.5 29.253a.676.676 0 0 0 .067.2c0-.067.067-.067.067 0a.234.234 0 0 0 .067.134v-.4c-.067-.068-.134-.001-.201.066z" class="cls-3" transform="translate(-39.5 -29.159)"/>
                        </g>
                        <g id="Group_3084" transform="translate(1.14 1.542)"/>
                        <g id="Group_3085" transform="translate(.872 1.542)">
                            <path id="Path_2433" d="M40.135 29.467l-.2-.067v.067c0 .067-.067.067-.134.134v.469h.067v-.4a.066.066 0 0 1 .067-.067c0-.067.134-.067.134-.067a.066.066 0 0 0 .066-.069z" class="cls-3" transform="translate(-39.8 -29.4)"/>
                        </g>
                        <g id="Group_3086" transform="translate(1.045 1.945)">
                            <path id="Path_2434" d="M40.086 30a.128.128 0 0 0 .067.2c.134 0 .067-.067.067-.134-.134.068-.134-.066-.134-.066z" class="cls-3" transform="translate(-40.059 -30)"/>
                        </g>
                        <g id="Group_3087" transform="translate(1.341 1.61)">
                            <path id="Path_2435" d="M40.7 29.5h-.2v.067c.067 0 .134 0 .134.067a.238.238 0 0 0-.134.2c.134-.067.2-.134.268-.134a.294.294 0 0 0-.068-.2z" class="cls-3" transform="translate(-40.5 -29.5)"/>
                        </g>
                    </g>
                </g>
            </g>
            <g id="Group_3091" transform="translate(29.256 33.403)">
                <path id="Path_2436" d="M35.626 53.383l-2.012-6.3v6.84a1.159 1.159 0 0 1-.335.872 1.237 1.237 0 0 1-.872.268 1.348 1.348 0 0 1-.872-.268 1.159 1.159 0 0 1-.335-.872v-7.85a.922.922 0 0 1 .4-.872 2.672 2.672 0 0 1 1.14-.2h.8a3.267 3.267 0 0 1 1.006.134.855.855 0 0 1 .469.335 3.949 3.949 0 0 1 .335.872l1.811 5.432 1.811-5.432c.134-.4.268-.671.335-.872a.776.776 0 0 1 .469-.335A3.267 3.267 0 0 1 40.79 45h1.01a2.672 2.672 0 0 1 1.14.2.922.922 0 0 1 .4.872v7.846a1.159 1.159 0 0 1-.335.872 1.237 1.237 0 0 1-.872.268 1.069 1.069 0 0 1-.8-.268 1.159 1.159 0 0 1-.335-.872v-6.84l-2.012 6.3a8.218 8.218 0 0 1-.335.872c-.067.2-.268.335-.469.536a1.736 1.736 0 0 1-.939.268 2.411 2.411 0 0 1-.738-.134.9.9 0 0 1-.469-.4 1.348 1.348 0 0 1-.268-.537 1.958 1.958 0 0 0-.134-.6" class="cls-4" transform="translate(-31.133 -44.799)"/>
                <path id="Path_2437" d="M42.165 55.028a1.6 1.6 0 0 1-.939-.335 1.125 1.125 0 0 1-.4-.939v-5.969l-1.744 5.5c-.134.469-.268.738-.335.939a1.452 1.452 0 0 1-.537.6 1.616 1.616 0 0 1-1.006.268 2.5 2.5 0 0 1-.8-.134 3.72 3.72 0 0 1-.536-.4 2.008 2.008 0 0 1-.268-.537 4.621 4.621 0 0 1-.2-.536v-.067l-1.677-5.633v5.969a1.327 1.327 0 0 1-.335.939 1.482 1.482 0 0 1-1.878 0 1.125 1.125 0 0 1-.4-.939v-7.78a1.211 1.211 0 0 1 .469-1.006 3.2 3.2 0 0 1 1.207-.268h.8a3.8 3.8 0 0 1 1.073.134.833.833 0 0 1 .536.4 3.949 3.949 0 0 1 .335.872l1.677 5.03 1.677-5.03c.134-.4.268-.671.335-.872a.833.833 0 0 1 .537-.4 3.8 3.8 0 0 1 1.073-.134h.939a2.016 2.016 0 0 1 1.207.268 1.059 1.059 0 0 1 .469 1.006v7.846a1.327 1.327 0 0 1-.335.939 1.311 1.311 0 0 1-.944.269zm-1.274-8.115l.268.067v6.84a.836.836 0 0 0 .268.738 1.009 1.009 0 0 0 .738.268 1.069 1.069 0 0 0 .8-.268.836.836 0 0 0 .268-.738v-7.846a.785.785 0 0 0-.335-.738 2.554 2.554 0 0 0-1.073-.2h-.8a3.861 3.861 0 0 0-1.006.067c-.2.067-.335.134-.4.335s-.2.469-.335.8l-1.947 5.772-2.012-5.767a5.808 5.808 0 0 0-.335-.8.687.687 0 0 0-.4-.335 3.861 3.861 0 0 0-1.006-.067h-.8a2.351 2.351 0 0 0-1.073.2c-.268.134-.335.4-.335.738v7.846a.836.836 0 0 0 .268.738 1.009 1.009 0 0 0 .738.268.928.928 0 0 0 1.006-1.006V46.98l.335-.067 2.079 6.371c.067.2.134.335.2.536a1.081 1.081 0 0 0 .268.469 1.778 1.778 0 0 0 .4.335 1.984 1.984 0 0 0 .671.134 1.678 1.678 0 0 0 .872-.2.9.9 0 0 0 .4-.469c.067-.2.2-.469.335-.872z" class="cls-4" transform="translate(-31.1 -44.7)"/>
            </g>
            <g id="Group_3096" transform="translate(29.457 44.133)">
                <g id="Group_3092" transform="translate(0 .134)">
                    <path id="Path_2438" d="M34.15 63.18a.6.6 0 0 1-.067.335l-.2.4a1.4 1.4 0 0 1-.4.268 1.263 1.263 0 0 1-.536.134 1.141 1.141 0 0 1-.469-.067c-.134-.067-.268-.067-.335-.134a1.177 1.177 0 0 1-.335-.268c-.067-.134-.134-.2-.2-.335s-.067-.268-.134-.4c0-.134-.067-.335-.067-.469a2.411 2.411 0 0 1 .134-.738 1.46 1.46 0 0 1 .335-.536 1.2 1.2 0 0 1 .469-.335 1.958 1.958 0 0 1 .6-.134 1.984 1.984 0 0 1 .671.134 2.917 2.917 0 0 1 .469.4 1.243 1.243 0 0 1 .134.469.286.286 0 0 1-.469.2c-.067-.067-.067-.134-.134-.2-.067-.2-.2-.268-.268-.4a.953.953 0 0 0-.4-.134.7.7 0 0 0-.6.335 1.776 1.776 0 0 0-.2.939 1.1 1.1 0 0 0 .134.671.616.616 0 0 0 .268.4.953.953 0 0 0 .4.134.969.969 0 0 0 .469-.134 1.4 1.4 0 0 0 .268-.4c0-.067.067-.134.067-.2a.335.335 0 0 1 .4 0c-.067-.067 0 0 0 .067" class="cls-3" transform="translate(-31.4 -60.9)"/>
                </g>
                <g id="Group_3093" transform="translate(3.085 .067)">
                    <path id="Path_2439" d="M36.939 62.879h.939l-.469-1.408zm1.207.939l-.134-.4h-1.274l-.134.4a1.133 1.133 0 0 0-.134.335.269.269 0 0 1-.469-.2v-.134c0-.067.067-.134.067-.2l.8-2.213c0-.067.067-.134.067-.2s.067-.134.067-.2c.067-.067.067-.134.134-.134s.134-.067.2-.067a.246.246 0 0 1 .2.067c.067.067.134.067.134.134s.067.134.067.2.067.134.067.268l.8 2.213a.9.9 0 0 1 .067.335.246.246 0 0 1-.067.2c.067 0 0 .067-.067.067h-.134a.066.066 0 0 1-.067-.067c0-.067-.067-.067-.067-.134-.067-.134-.067-.2-.134-.268" class="cls-3" transform="translate(-36 -60.8)"/>
                </g>
                <g id="Group_3094" transform="translate(6.304 .134)">
                    <path id="Path_2440" d="M43.214 63.247a1.263 1.263 0 0 1-.134.537c-.067.134-.268.268-.4.4a1.984 1.984 0 0 1-.671.134 1.352 1.352 0 0 1-.738-.2.808.808 0 0 1-.335-.335.969.969 0 0 1-.134-.469.237.237 0 0 1 .268-.268c.067 0 .134 0 .134.067.067.067.067.134.134.2.067.134.067.2.134.268l.2.2a.5.5 0 0 0 .335.067.969.969 0 0 0 .469-.134.369.369 0 0 0 .2-.335c0-.134 0-.2-.067-.268a.348.348 0 0 0-.268-.134c-.067-.067-.2-.067-.4-.134a4.621 4.621 0 0 1-.536-.2.808.808 0 0 1-.335-.335.889.889 0 0 1 0-.939.687.687 0 0 1 .4-.335 1.958 1.958 0 0 1 .6-.134.994.994 0 0 1 .469.067 1.466 1.466 0 0 1 .335.2c.067.067.134.2.2.268a.4.4 0 0 1 .067.268.237.237 0 0 1-.268.268c-.067 0-.134 0-.134-.067-.067-.067-.067-.134-.134-.2a.926.926 0 0 0-.2-.268.567.567 0 0 0-.4-.134.953.953 0 0 0-.4.134.268.268 0 0 0-.134.268.246.246 0 0 0 .067.2l.134.134a.246.246 0 0 0 .2.067c.067 0 .134.067.268.067a4.272 4.272 0 0 1 .469.134 1.466 1.466 0 0 1 .335.2c.067.067.2.2.2.268 0 .134.067.268.067.469" class="cls-3" transform="translate(-40.8 -60.9)"/>
                </g>
                <g id="Group_3095" transform="translate(9.389)">
                    <path id="Path_2441" d="M45.869 61.169v.939h1.341v-.939a.5.5 0 0 1 .067-.335c.067-.067.134-.134.2-.134s.134.067.2.067a.493.493 0 0 1 .134.4v2.683a.5.5 0 0 1-.067.335c-.067.067-.134.134-.2.134s-.2 0-.2-.134a.5.5 0 0 1-.067-.335v-1.14h-1.34v1.14a.5.5 0 0 1-.067.335c-.067.067-.134.134-.2.134s-.2 0-.2-.134a.5.5 0 0 1-.067-.335v-2.681a.5.5 0 0 1 .067-.335c.067-.067.134-.134.2-.134s.134.067.2.067v.4" class="cls-3" transform="translate(-45.4 -60.7)"/>
                </g>
            </g>
            <g id="Group_3109" transform="translate(29.323 26.562)">
                <g id="Group_3103">
                    <g id="Group_3097" transform="translate(0 .201)">
                        <path id="Path_2442" d="M32.608 37.55v.067H31.2v-.067h.134a.694.694 0 0 0 .268-.067c.067-.067.067-.134.067-.335V35c0-.067-.067-.067-.134-.067a.246.246 0 0 0-.2-.067H31.2V34.8h1.408v.067h-.134c-.134 0-.2 0-.268.134-.067.067-.067.134-.067.335v2.146c0 .067.067.067.134.067s.134.067.2.067h.134z" class="cls-3" transform="translate(-31.2 -34.8)"/>
                    </g>
                    <g id="Group_3098" transform="translate(1.744 1.006)">
                        <path id="Path_2443" d="M35.141 36v.671h-.067a.616.616 0 0 0-.268-.4.512.512 0 0 0-.335-.134c-.134 0-.2 0-.268.067s-.134.134-.134.2a.246.246 0 0 0 .067.2.717.717 0 0 0 .335.2l.335.134c.335.134.469.335.469.537a.406.406 0 0 1-.2.4.723.723 0 0 1-.537.134 1.309 1.309 0 0 1-.469-.067h-.134v.067h-.067v-.671h.067a1.081 1.081 0 0 0 .268.469.493.493 0 0 0 .4.134c.134 0 .2 0 .268-.067s.134-.134.134-.2a.508.508 0 0 0-.134-.268 2.157 2.157 0 0 0-.469-.268.94.94 0 0 1-.469-.268.512.512 0 0 1-.134-.335.58.58 0 0 1 .2-.4.566.566 0 0 1 .472-.135.729.729 0 0 1 .335.067h.2l.068-.067z" class="cls-3" transform="translate(-33.8 -36)"/>
                    </g>
                    <g id="Group_3099" transform="translate(3.554)">
                        <path id="Path_2444" d="M37.372 34.5v2.817a.066.066 0 0 0 .067.067h.268v.134h-1.14v-.067h.2a.066.066 0 0 0 .067-.067v-2.415c0-.067 0-.067-.067-.134h-.2l-.067-.067.671-.2h.2z" class="cls-3" transform="translate(-36.5 -34.5)"/>
                    </g>
                    <g id="Group_3100" transform="translate(5.03 1.006)">
                        <path id="Path_2445" d="M39.974 37.744a1.837 1.837 0 0 1-.469.268h-.268a.953.953 0 0 1-.4-.134c-.134-.067-.134-.2-.134-.335a.4.4 0 0 1 .067-.268 1.463 1.463 0 0 1 .335-.268c.134-.067.469-.2.8-.335V36.6a.567.567 0 0 0-.134-.4.512.512 0 0 0-.335-.134.4.4 0 0 0-.268.067.208.208 0 0 0-.067.134v.133c0 .067 0 .134-.067.134.067.134 0 .134-.067.134s-.134 0-.134-.067c-.067-.067-.067-.067-.067-.134 0-.134.067-.2.2-.335s.335-.134.6-.134a.994.994 0 0 1 .469.067c.067.067.2.134.2.2a2.371 2.371 0 0 1 .067.4v1.006c0 .067 0 .067.067.067h.134c.067 0 .067-.067.2-.134v.134a.581.581 0 0 1-.469.268.237.237 0 0 1-.268-.268zm0-.2V36.8a1.033 1.033 0 0 0-.469.2.926.926 0 0 0-.268.2.246.246 0 0 0-.067.2.508.508 0 0 0 .134.268.348.348 0 0 0 .268.134 1.151 1.151 0 0 0 .402-.26z" class="cls-3" transform="translate(-38.7 -36)"/>
                    </g>
                    <g id="Group_3101" transform="translate(6.84 .939)">
                        <path id="Path_2446" d="M42.473 36.369c.134-.134.268-.2.268-.268.067-.067.134-.067.2-.134.067 0 .2-.067.268-.067a.512.512 0 0 1 .335.134.57.57 0 0 1 .2.335 4.938 4.938 0 0 1 .4-.335 1.309 1.309 0 0 1 .469-.067.6.6 0 0 1 .335.067.926.926 0 0 1 .2.268c.067.067.067.2.067.4v1.073l.067.067c.067 0 .134.067.2.067v.067h-1.14v-.067h.134c.067 0 .2 0 .2-.067.067 0 .067-.067.067-.134V36.7a.5.5 0 0 0-.067-.335.394.394 0 0 0-.335-.134.4.4 0 0 0-.268.067 1.466 1.466 0 0 1-.335.2v1.274l.067.067c.067 0 .134.067.268.067v.067h-1.14v-.067c.134 0 .2 0 .268-.067.067 0 .067-.067.067-.134V36.7a.5.5 0 0 0-.067-.335.508.508 0 0 0-.268-.134.4.4 0 0 0-.268.067 1.466 1.466 0 0 0-.335.2v1.274a.066.066 0 0 0 .067.067h.268v.134h-1.14v-.067h.2a.066.066 0 0 0 .067-.067v-1.402c0-.067 0-.067-.067-.067h-.268l-.057-.07.671-.2h.4z" class="cls-3" transform="translate(-41.4 -35.9)"/>
                    </g>
                    <g id="Group_3102" transform="translate(10.998)">
                        <path id="Path_2447" d="M48.539 35.506v1.811a.066.066 0 0 0 .067.067h.2v.134h-1.072v-.067h.2a.066.066 0 0 0 .066-.067v-1.409c0-.067 0-.067-.067-.067h-.268l-.067-.067.671-.2h.268zm-.2-1.006a.246.246 0 0 1 .2.067c.067.067.067.067.067.134s0 .134-.067.134a.335.335 0 0 1-.4 0c-.067-.067-.067-.067-.067-.134s0-.134.067-.134a.246.246 0 0 1 .199-.067z" class="cls-3" transform="translate(-47.6 -34.5)"/>
                    </g>
                </g>
                <g id="Group_3108" transform="translate(0 3.353)">
                    <g id="Group_3104" transform="translate(0 .201)">
                        <path id="Path_2448" d="M33.413 41.141a4.62 4.62 0 0 1 .537.2.679.679 0 0 1 .268.469.953.953 0 0 1-.134.4 1.4 1.4 0 0 1-.4.268 2.282 2.282 0 0 1-.939.134H31.2v-.062h.134a.348.348 0 0 0 .268-.134c.067-.067.067-.134.067-.335v-1.812c0-.2 0-.268-.067-.335s-.134-.067-.268-.067H31.2V39.8h1.408a2.067 2.067 0 0 1 .671.067 1.01 1.01 0 0 1 .537.268.609.609 0 0 1 .2.469.953.953 0 0 1-.134.4 1.243 1.243 0 0 0-.469.137zm-1.341-.134h.469a1.153 1.153 0 0 0 .537-.067.926.926 0 0 0 .268-.2.4.4 0 0 0 .067-.268.417.417 0 0 0-.268-.4 1 1 0 0 0-.671-.2 1.141 1.141 0 0 0-.469.067v1.073zm0 1.408a1.667 1.667 0 0 0 .537.067 1 1 0 0 0 .671-.2.58.58 0 0 0 .2-.4c0-.134-.067-.2-.134-.335a.67.67 0 0 0-.335-.268 1.489 1.489 0 0 0-.6-.067h-.469v1.207z" class="cls-3" transform="translate(-31.2 -39.8)"/>
                    </g>
                    <g id="Group_3105" transform="translate(3.957 1.073)">
                        <path id="Path_2449" d="M38.307 42.777l-.4.268a.4.4 0 0 1-.268.067.953.953 0 0 1-.4-.134.512.512 0 0 1-.134-.335.4.4 0 0 1 .067-.268 1.463 1.463 0 0 1 .335-.268c.134-.067.469-.2.8-.335V41.7c0-.2 0-.335-.134-.4a.5.5 0 0 0-.335-.067c-.134 0-.2 0-.268.067a.208.208 0 0 0-.067.134v.134c0 .067 0 .134-.067.134-.067.067-.067.067-.134.067s-.134 0-.134-.067c-.067-.067-.067-.067-.067-.134 0-.134.067-.2.2-.335s.335-.134.6-.134a.994.994 0 0 1 .469.067c.067.067.2.134.2.2a2.371 2.371 0 0 1 .067.4v1.006c0 .067 0 .067.067.067h.134a.83.83 0 0 1 .2-.134v.134c-.2.2-.335.335-.537.335a.246.246 0 0 1-.2-.067c.073-.129.006-.196.006-.33zm0-.134V41.9a1.033 1.033 0 0 0-.469.2.926.926 0 0 0-.268.2.246.246 0 0 0-.067.2c0 .134 0 .2.134.268.067.067.134.067.268.067a1.037 1.037 0 0 0 .402-.193z" class="cls-3" transform="translate(-37.1 -41.1)"/>
                    </g>
                    <g id="Group_3106" transform="translate(6.572 1.006)">
                        <path id="Path_2450" d="M41.738 41.4a1.165 1.165 0 0 1 .738-.4.6.6 0 0 1 .335.067.926.926 0 0 1 .2.268 2.371 2.371 0 0 1 .067.4v1.073a.066.066 0 0 0 .067.067h.2v.134h-1.004v-.067h.067c.134 0 .2 0 .2-.067.067 0 .067-.067.067-.134v-1.003c0-.2 0-.335-.067-.4a.348.348 0 0 0-.268-.134.819.819 0 0 0-.6.268v1.274a.066.066 0 0 0 .067.067h.268v.2H41v-.067h.067c.134 0 .2 0 .2-.067.067-.067.067-.134.067-.268v-1.14a.066.066 0 0 0-.067-.067h-.134c-.067 0-.134 0-.134.067v-.2l.671-.2h.13v.329z" class="cls-3" transform="translate(-41 -41)"/>
                    </g>
                    <g id="Group_3107" transform="translate(9.657)">
                        <path id="Path_2451" d="M46.338 39.5v1.945l.6-.469q.2-.1.2-.2v-.067a.066.066 0 0 0-.067-.067.234.234 0 0 0-.134-.067v-.067h1.006v.067a.5.5 0 0 0-.335.067.359.359 0 0 0-.268.2l-.6.469.6.6a1.511 1.511 0 0 0 .335.335c.067.067.134.067.2.134h.2v.134h-1.067v-.067h.134v-.067a.208.208 0 0 0-.067-.134l-.671-.738v.939a.066.066 0 0 0 .067.067H45.6v-.067c.134 0 .2 0 .268-.067l.067-.067c0-.067.067-.134.067-.268V39.9c0-.067 0-.067-.067-.067H45.8a.208.208 0 0 0-.134.067l-.067-.067.671-.2h.067z" class="cls-3" transform="translate(-45.6 -39.5)"/>
                    </g>
                </g>
            </g>
        </g>
    </g>
</svg>
