<svg xmlns="http://www.w3.org/2000/svg" width="81" height="81" viewBox="0 0 81 81">
  <g id="modhumoti-svg" transform="translate(-1897 -1704)">
    <rect id="Rectangle_88" data-name="Rectangle 88" width="81" height="81" transform="translate(1897 1704)" fill="#fff"/>
    <g id="Group_2856" data-name="Group 2856" transform="translate(1804.001 1579.97)">
      <g id="Group_2853" data-name="Group 2853" transform="translate(117.551 153.046)">
        <path id="Path_1422" data-name="Path 1422" d="M144.2,153.126h1.5l2.226,6.438,2.209-6.438h1.488v7.616h-1v-4.5c0-.154,0-.413.01-.771s.011-.746.011-1.157l-2.209,6.423H147.4l-2.224-6.423v.234c0,.186,0,.469.013.851s.011.664.011.842v4.5h-1Z" transform="translate(-144.195 -153.1)" fill="#1a1818"/>
        <path id="Path_1423" data-name="Path 1423" d="M169.006,160.313a3.566,3.566,0,0,1-.666,2.219,2.421,2.421,0,0,1-2.061.877,2.346,2.346,0,0,1-1.851-.776,3.032,3.032,0,0,1-.686-2.081,3.279,3.279,0,0,1,.722-2.23,2.445,2.445,0,0,1,1.941-.83,2.585,2.585,0,0,1,1.846.716A2.765,2.765,0,0,1,169.006,160.313Zm-.992.026a2.731,2.731,0,0,0-.253-1.264,1.43,1.43,0,0,0-1.382-.768,1.373,1.373,0,0,0-1.267.654,3,3,0,0,0-.4,1.575,2.61,2.61,0,0,0,.4,1.477,1.4,1.4,0,0,0,1.257.592,1.312,1.312,0,0,0,1.294-.7A3.44,3.44,0,0,0,168.014,160.339Z" transform="translate(-155.23 -155.565)" fill="#1a1818"/>
        <path id="Path_1424" data-name="Path 1424" d="M181.019,155.325a2.621,2.621,0,0,1,.574.546v-2.805h.912v7.642h-.853v-.772a2.072,2.072,0,0,1-.787.741,2.3,2.3,0,0,1-1.038.227,2.123,2.123,0,0,1-1.636-.78,3.013,3.013,0,0,1-.69-2.075,3.533,3.533,0,0,1,.632-2.1,2.3,2.3,0,0,1,2.887-.621Zm-.9,4.766a1.3,1.3,0,0,0,1.081-.558,2.6,2.6,0,0,0,.425-1.6,2.34,2.34,0,0,0-.437-1.556,1.37,1.37,0,0,0-1.081-.506,1.441,1.441,0,0,0-1.163.539A2.443,2.443,0,0,0,178.5,158a2.727,2.727,0,0,0,.385,1.494A1.359,1.359,0,0,0,180.123,160.091Z" transform="translate(-162.997 -153.066)" fill="#1a1818"/>
        <path id="Path_1425" data-name="Path 1425" d="M192.216,153.066h.948v2.84a2.8,2.8,0,0,1,.607-.59,2.084,2.084,0,0,1,1.145-.3,1.7,1.7,0,0,1,1.666.846,2.822,2.822,0,0,1,.236,1.279v3.563h-.975v-3.5a1.905,1.905,0,0,0-.159-.9,1.013,1.013,0,0,0-.97-.457,1.632,1.632,0,0,0-1.07.4,1.891,1.891,0,0,0-.481,1.508v2.945h-.948Z" transform="translate(-171.305 -153.066)" fill="#1a1818"/>
        <path id="Path_1426" data-name="Path 1426" d="M206.933,157.866v3.684a1.535,1.535,0,0,0,.136.695.961.961,0,0,0,.945.5,1.336,1.336,0,0,0,1.35-.87,3.413,3.413,0,0,0,.195-1.282v-2.725h.95v5.552h-.9l.01-.82a1.927,1.927,0,0,1-.459.534,2.044,2.044,0,0,1-1.318.435,1.707,1.707,0,0,1-1.646-.793,2.33,2.33,0,0,1-.238-1.135v-3.773Z" transform="translate(-179.065 -155.776)" fill="#1a1818"/>
        <path id="Path_1427" data-name="Path 1427" d="M219.809,157.706h.937v.787a3.1,3.1,0,0,1,.611-.6,1.875,1.875,0,0,1,1.066-.314,1.693,1.693,0,0,1,1.086.325,1.625,1.625,0,0,1,.421.549,2.072,2.072,0,0,1,.744-.661,2.1,2.1,0,0,1,.962-.213,1.577,1.577,0,0,1,1.551.807,2.616,2.616,0,0,1,.22,1.172v3.7h-.986V159.4a.892.892,0,0,0-.28-.762,1.137,1.137,0,0,0-.688-.208,1.375,1.375,0,0,0-.962.369,1.594,1.594,0,0,0-.4,1.228v3.23h-.966v-3.624a1.862,1.862,0,0,0-.137-.824.843.843,0,0,0-.808-.388,1.4,1.4,0,0,0-.978.408,1.983,1.983,0,0,0-.44,1.483v2.945h-.948Z" transform="translate(-186.883 -155.616)" fill="#1a1818"/>
        <path id="Path_1428" data-name="Path 1428" d="M244.848,160.313a3.564,3.564,0,0,1-.666,2.219,2.419,2.419,0,0,1-2.06.877,2.352,2.352,0,0,1-1.853-.776,3.036,3.036,0,0,1-.685-2.081,3.272,3.272,0,0,1,.722-2.23,2.448,2.448,0,0,1,1.942-.83,2.584,2.584,0,0,1,1.845.716A2.768,2.768,0,0,1,244.848,160.313Zm-.992.026a2.747,2.747,0,0,0-.254-1.264,1.425,1.425,0,0,0-1.382-.768,1.369,1.369,0,0,0-1.265.654,2.975,2.975,0,0,0-.4,1.575,2.59,2.59,0,0,0,.4,1.477,1.4,1.4,0,0,0,1.255.592,1.315,1.315,0,0,0,1.3-.7A3.451,3.451,0,0,0,243.856,160.339Z" transform="translate(-198.047 -155.565)" fill="#1a1818"/>
        <path id="Path_1429" data-name="Path 1429" d="M253.706,154.3h.959v1.552h.9v.762h-.9v3.623a.4.4,0,0,0,.2.389.906.906,0,0,0,.371.056c.045,0,.095,0,.148,0s.113-.006.184-.014v.738a2.235,2.235,0,0,1-.341.066,3.1,3.1,0,0,1-.38.022,1.045,1.045,0,0,1-.9-.335,1.477,1.477,0,0,1-.237-.87v-3.674h-.765v-.762h.765Z" transform="translate(-205.587 -153.764)" fill="#1a1818"/>
        <path id="Path_1430" data-name="Path 1430" d="M261.154,153.126h.965v1.058h-.965Zm0,2.089h.965v5.526h-.965Z" transform="translate(-210.224 -153.1)" fill="#1a1818"/>
      </g>
      <g id="Group_2854" data-name="Group 2854" transform="translate(117.452 163.085)">
        <path id="Path_1431" data-name="Path 1431" d="M143.969,176.173h2.919a1.954,1.954,0,0,1,1.7.7,1.6,1.6,0,0,1,.294.953,1.476,1.476,0,0,1-.367,1.037,1.743,1.743,0,0,1-.544.392,2.364,2.364,0,0,1,.782.441,1.594,1.594,0,0,1,.457,1.205,1.847,1.847,0,0,1-.412,1.168,2.346,2.346,0,0,1-1.956.781h-2.872ZM146.545,179a2.1,2.1,0,0,0,.906-.158.917.917,0,0,0,.51-.9.868.868,0,0,0-.543-.882,2.472,2.472,0,0,0-.906-.126H144.87V179Zm.31,3.083a1.409,1.409,0,0,0,1.207-.483,1.185,1.185,0,0,0,.228-.735.981.981,0,0,0-.664-.99,2.543,2.543,0,0,0-.928-.142H144.87v2.351Z" transform="translate(-143.969 -176.151)" fill="#1a1818"/>
        <path id="Path_1432" data-name="Path 1432" d="M160.631,182.092a.447.447,0,0,0,.383-.237.683.683,0,0,0,.056-.313.666.666,0,0,0-.3-.608,1.662,1.662,0,0,0-.867-.187,1.105,1.105,0,0,0-.924.345,1.123,1.123,0,0,0-.2.568H158a1.392,1.392,0,0,1,.594-1.252,2.457,2.457,0,0,1,1.325-.353,2.738,2.738,0,0,1,1.419.328,1.1,1.1,0,0,1,.542,1.019v2.805a.344.344,0,0,0,.054.2c.034.051.109.078.223.078.037,0,.081,0,.126-.007l.148-.019v.6a2.317,2.317,0,0,1-.3.069,2.215,2.215,0,0,1-.277.014.691.691,0,0,1-.625-.3,1.165,1.165,0,0,1-.143-.45,2.092,2.092,0,0,1-.731.568,2.3,2.3,0,0,1-1.05.239,1.581,1.581,0,0,1-1.125-.409,1.358,1.358,0,0,1-.436-1.031,1.311,1.311,0,0,1,.43-1.049,2.053,2.053,0,0,1,1.127-.459Zm-1.13,2.417a1.9,1.9,0,0,0,.85-.2,1.123,1.123,0,0,0,.695-1.085v-.659a1.5,1.5,0,0,1-.393.159,3.6,3.6,0,0,1-.471.092l-.5.063a1.946,1.946,0,0,0-.68.187.719.719,0,0,0-.383.682.667.667,0,0,0,.262.557A.992.992,0,0,0,159.5,184.51Z" transform="translate(-151.747 -178.342)" fill="#1a1818"/>
        <path id="Path_1433" data-name="Path 1433" d="M170.371,180.187h.79v.691a2.2,2.2,0,0,1,.746-.614,2,2,0,0,1,.874-.186,1.444,1.444,0,0,1,1.424.722,2.518,2.518,0,0,1,.2,1.131v3.124h-.849v-3.068a1.622,1.622,0,0,0-.134-.719.813.813,0,0,0-.8-.454,1.652,1.652,0,0,0-.485.059,1.26,1.26,0,0,0-.6.4,1.2,1.2,0,0,0-.269.5,3.265,3.265,0,0,0-.064.736v2.549h-.832Z" transform="translate(-158.874 -178.356)" fill="#1a1818"/>
        <path id="Path_1434" data-name="Path 1434" d="M182.423,176.173h.8v3.879l2.136-2.069h1.064l-1.9,1.822,2,3.046h-1.064l-1.543-2.455-.7.627v1.828h-.8Z" transform="translate(-165.678 -176.151)" fill="#1a1818"/>
        <path id="Path_1435" data-name="Path 1435" d="M196.137,176.173h.92v5.883H200.5v.8h-4.36Z" transform="translate(-173.42 -176.151)" fill="#1a1818"/>
        <path id="Path_1436" data-name="Path 1436" d="M207.977,176.173h.847v.928h-.847Zm0,1.831h.847v4.847h-.847Z" transform="translate(-180.104 -176.151)" fill="#1a1818"/>
        <path id="Path_1437" data-name="Path 1437" d="M212.809,180.187h.823v.691a2.908,2.908,0,0,1,.537-.524,1.646,1.646,0,0,1,.934-.276,1.489,1.489,0,0,1,.953.284,1.546,1.546,0,0,1,.37.484,1.792,1.792,0,0,1,.652-.58,1.845,1.845,0,0,1,.843-.189,1.381,1.381,0,0,1,1.359.708,2.29,2.29,0,0,1,.194,1.027v3.242h-.864v-3.383a.775.775,0,0,0-.249-.667.974.974,0,0,0-.6-.183,1.21,1.21,0,0,0-.844.321,1.4,1.4,0,0,0-.352,1.078v2.833h-.848v-3.177a1.6,1.6,0,0,0-.12-.723.736.736,0,0,0-.708-.341,1.222,1.222,0,0,0-.856.358,1.74,1.74,0,0,0-.387,1.3v2.581h-.834Z" transform="translate(-182.832 -178.356)" fill="#1a1818"/>
        <path id="Path_1438" data-name="Path 1438" d="M230.931,176.173h.845v.928h-.845Zm0,1.831h.845v4.847h-.845Z" transform="translate(-193.063 -176.151)" fill="#1a1818"/>
        <path id="Path_1439" data-name="Path 1439" d="M235.275,177.208h.841v1.359h.792v.668h-.792v3.179a.344.344,0,0,0,.176.341.78.78,0,0,0,.326.05l.129,0c.045,0,.1-.006.162-.011v.645a2.054,2.054,0,0,1-.3.059,2.925,2.925,0,0,1-.335.02.906.906,0,0,1-.79-.3,1.275,1.275,0,0,1-.209-.759v-3.225h-.67v-.668h.67Z" transform="translate(-195.137 -176.735)" fill="#1a1818"/>
        <path id="Path_1440" data-name="Path 1440" d="M245.284,180.953a2.169,2.169,0,0,1,.332.859,5.5,5.5,0,0,1,.075,1.071h-3.632a2.048,2.048,0,0,0,.358,1.189,1.2,1.2,0,0,0,1.029.448,1.341,1.341,0,0,0,1.041-.424,1.405,1.405,0,0,0,.315-.565h.818a1.624,1.624,0,0,1-.216.6,2.089,2.089,0,0,1-.408.54,1.96,1.96,0,0,1-.939.491,2.823,2.823,0,0,1-.679.072,2.108,2.108,0,0,1-1.569-.66,2.547,2.547,0,0,1-.643-1.851,2.768,2.768,0,0,1,.648-1.908,2.155,2.155,0,0,1,1.692-.731,2.3,2.3,0,0,1,1.022.242A1.883,1.883,0,0,1,245.284,180.953Zm-.449,1.282a2.141,2.141,0,0,0-.235-.852,1.22,1.22,0,0,0-1.144-.59,1.269,1.269,0,0,0-.962.407,1.51,1.51,0,0,0-.411,1.034Z" transform="translate(-198.841 -178.356)" fill="#1a1818"/>
        <path id="Path_1441" data-name="Path 1441" d="M256.177,178.1a2.151,2.151,0,0,1,.5.476v-2.459h.8v6.7h-.747v-.677a1.813,1.813,0,0,1-.689.649,2.018,2.018,0,0,1-.913.2,1.859,1.859,0,0,1-1.434-.683,2.655,2.655,0,0,1-.606-1.822,3.117,3.117,0,0,1,.553-1.842,1.819,1.819,0,0,1,1.579-.781A1.769,1.769,0,0,1,256.177,178.1Zm-.786,4.176a1.145,1.145,0,0,0,.95-.489,2.277,2.277,0,0,0,.373-1.4,2.051,2.051,0,0,0-.384-1.366,1.207,1.207,0,0,0-.95-.443,1.263,1.263,0,0,0-1.019.472,2.153,2.153,0,0,0-.39,1.392,2.373,2.373,0,0,0,.338,1.309A1.189,1.189,0,0,0,255.391,182.281Z" transform="translate(-205.573 -176.122)" fill="#1a1818"/>
      </g>
      <g id="Group_2855" data-name="Group 2855" transform="translate(97.244 171.901)">
        <path id="Path_1442" data-name="Path 1442" d="M98.287,199.476a.114.114,0,0,1-.061-.023.141.141,0,0,1-.047-.051l-.081-.126a.259.259,0,0,1-.036-.067.189.189,0,0,1-.012-.07.134.134,0,0,1-.048-.045.1.1,0,0,1-.016-.057.6.6,0,0,1-.078-.141.894.894,0,0,1-.044-.171.364.364,0,0,1-.064-.21.029.029,0,0,1,0-.01l-.016-.061a.382.382,0,0,1-.034-.092.442.442,0,0,1-.013-.1l-.041-.051c-.007-.04-.012-.081-.019-.123s-.019-.113-.036-.205l-.006-.092.006-.07-.01-.069-.04-.049c-.009-.077-.016-.137-.021-.182s-.006-.088-.006-.119v-.047l.091-.139a.369.369,0,0,1,.043-.047.068.068,0,0,1,.038-.015.047.047,0,0,1,.02.007l.017.009.032.017.022-.032.058-.021L98,196.97a.2.2,0,0,1,.092.045.359.359,0,0,1,.08.1c0,.017,0,.044,0,.081s0,.067,0,.093l-.006.119c0,.044,0,.086,0,.128s.005.092.009.151a.2.2,0,0,0-.011.021.066.066,0,0,0,0,.02.084.084,0,0,0,0,.02c0,.008.008.02.011.034l0,.005a.3.3,0,0,1,.021.076.022.022,0,0,1,0,.016.023.023,0,0,1,0,.013l.017.066-.005.061a1.275,1.275,0,0,1,.052.232c.013.1.025.161.034.195a.123.123,0,0,0,0,.016.032.032,0,0,0,0,.015.126.126,0,0,0,.007.028.248.248,0,0,0,.025.047.365.365,0,0,0,.01.1.343.343,0,0,0,.031.081.614.614,0,0,1,.01.083.16.16,0,0,0,.054.121.278.278,0,0,0,.036.084.229.229,0,0,0,.046.063l.022-.056c.017-.031.032-.066.051-.1a1.433,1.433,0,0,0,.06-.158l.043-.058.016-.065.172-.358.047-.056-.005-.07c.032-.059.06-.118.087-.178s.057-.131.09-.211l.047-.036.022-.057.039-.047.01-.064c.034-.059.084-.148.155-.258s.145-.234.23-.367l.053-.085a.079.079,0,0,1,.017-.018l.012-.008a.046.046,0,0,1,.019,0,.148.148,0,0,1,.025.013.222.222,0,0,1,.071.04.059.059,0,0,1,.022.049v.019a.079.079,0,0,1-.006.02l-.006.081,0,.211a.753.753,0,0,1-.022.073.152.152,0,0,1-.016.041l0,.046c-.02.072-.045.148-.069.23s-.055.171-.088.271a.115.115,0,0,0-.037.04.1.1,0,0,0-.016.059v.026a.183.183,0,0,1-.02.081.1.1,0,0,1-.054.039l-.025.1-.144.257a3.838,3.838,0,0,1-.347.556.049.049,0,0,0-.021.012.017.017,0,0,0-.008.013.043.043,0,0,0,0,.019.091.091,0,0,0,.007.02c-.047.121-.1.236-.144.343s-.1.216-.15.318v.031l-.007.027a2.372,2.372,0,0,0-.116.505.3.3,0,0,0,.008.071.078.078,0,0,0,.035.033.075.075,0,0,1,.025.021.047.047,0,0,1,.006.024.064.064,0,0,1-.011.034.138.138,0,0,1-.037.033l-.123.1a.131.131,0,0,1-.047.024.173.173,0,0,1-.052.008.078.078,0,0,1-.081.054h-.017l-.116-.025-.032.011-.087-.026a.135.135,0,0,1-.042-.032.076.076,0,0,1-.011-.044.249.249,0,0,1,0-.039.535.535,0,0,1,.013-.063l.074-.286a.165.165,0,0,1,.024-.058.132.132,0,0,1,.046-.033.066.066,0,0,1,0-.021c0-.007,0-.015,0-.025a.243.243,0,0,0-.005-.03.293.293,0,0,0-.006-.032l.107-.29a.084.084,0,0,1,.017-.034.564.564,0,0,1,.036-.049.782.782,0,0,0,.025-.1A1.122,1.122,0,0,0,98.287,199.476Z" transform="translate(-97.561 -196.623)" fill="#1a1818"/>
        <path id="Path_1443" data-name="Path 1443" d="M101.745,201.728a2.133,2.133,0,0,1-.3.248.72.72,0,0,1-.2.116.053.053,0,0,1-.038-.014.059.059,0,0,1-.016-.04.072.072,0,0,1,.016-.046.2.2,0,0,1,.052-.044V201.9q.11-.128.2-.216c.062-.06.1-.087.11-.087a.291.291,0,0,0,.077-.086l.02-.035.05-.037.032-.038.026-.015.015-.04.122-.127.113-.1.1-.127a1.264,1.264,0,0,1,.1-.1,1.382,1.382,0,0,1,.113-.087l.046-.024.013-.04a.92.92,0,0,1,.187-.16.357.357,0,0,1,.155-.032.254.254,0,0,1,.088.015c.021.011.034.023.034.036a.386.386,0,0,1-.047.074c-.031.046-.059.088-.083.127l.109-.061.068-.026.037-.016a.3.3,0,0,1,.045,0,.124.124,0,0,1,.03,0l.024,0,.052,0a.48.48,0,0,1,.3.143.405.405,0,0,1,.114.292.158.158,0,0,1,0,.026c0,.01,0,.02,0,.028l-.028.116-.011.042-.032.084-.054.12-.037.048-.047.038-.015.05a.369.369,0,0,1-.072.1q-.074.081-.191.2l-.041.063-.046.031-.04.009-.053.048c-.028.025-.06.047-.086.068s-.055.038-.08.052l-.087,0-.042.011-.034.043c-.024.007-.05.017-.085.026s-.05.013-.055.014h-.046a.129.129,0,0,1-.043.019.19.19,0,0,1-.057.008.392.392,0,0,1-.272-.094.306.306,0,0,1-.107-.242v-.026l.01-.034c0-.01-.006-.023-.01-.037a.263.263,0,0,1-.011-.06,2.078,2.078,0,0,1,.055-.258l.013-.052-.035.026-.051.055-.046.029Zm.592-.12v.055l-.01.055-.007.044-.017.057,0,.019c0,.007,0,.019,0,.034a.334.334,0,0,0,0,.057c0,.015.01.031.017.05V202a.154.154,0,0,0,.039.037.113.113,0,0,0,.044.018l.051.008a.291.291,0,0,1,.088-.048.454.454,0,0,0,.1-.045l.078-.042.19-.189.061-.08.035-.014,0-.043.015-.038a1.392,1.392,0,0,0,.077-.2l0-.012,0-.061a.337.337,0,0,0-.088-.136.17.17,0,0,0-.118-.039c-.013,0-.026,0-.038,0a.281.281,0,0,0-.039.012l-.057.019-.031.049a.616.616,0,0,0-.13.141.324.324,0,0,1-.095.1l-.065-.016a.1.1,0,0,0-.026,0l-.007,0a.286.286,0,0,1,0,.054.132.132,0,0,1-.011.036Z" transform="translate(-99.609 -198.73)" fill="#1a1818"/>
        <path id="Path_1444" data-name="Path 1444" d="M106.7,201.7l-.043-.019-.02.013-.017.037-.043.026a.079.079,0,0,1-.027,0,.09.09,0,0,0-.042.01.041.041,0,0,0-.017.034v0l-.049.062-.01.029-.03.009a.159.159,0,0,0-.048.021.125.125,0,0,0-.023.035l-.064.029a.258.258,0,0,1-.041.034.415.415,0,0,1-.076.044.17.17,0,0,1-.04.039.166.166,0,0,1-.047.023.054.054,0,0,1-.022,0l-.021,0a.062.062,0,0,1-.041-.01.038.038,0,0,1-.016-.035.076.076,0,0,1,.008-.031.09.09,0,0,1,.028-.033l.041-.023.006-.052.027-.031a1.106,1.106,0,0,1,.086-.1l.012-.05.058-.01a.263.263,0,0,1,.057-.075.156.156,0,0,1,.071-.034l.029-.046a.049.049,0,0,1,.009-.03.38.38,0,0,1,.037-.036l.066-.066.032-.015.025-.047.022-.043.122-.139.077-.037-.016-.029.067-.111.091-.065v-.04l.168-.221.02-.009h.027l.04-.04.04-.007.083-.027a.129.129,0,0,1,.04-.007.1.1,0,0,1,.071.031.111.111,0,0,1,.032.078.186.186,0,0,1,0,.019s0,.007,0,.012a.664.664,0,0,0-.037.08.364.364,0,0,0-.022.059l-.059.062,0,.042-.055.158-.048.242-.02.058-.005.071c-.011.057-.021.1-.027.138a.589.589,0,0,0-.009.079.193.193,0,0,0,.007.05.263.263,0,0,0,.011.048l0,.035a.248.248,0,0,0,.007.06.262.262,0,0,0,.027.06l.024.017.061-.026.051-.061.049-.01.011-.03.064-.075.07-.034.033-.076.117-.119.032-.027.034-.017.011-.04.062-.1.1-.164.055-.049,0-.035.047-.037c.02,0,.049-.007.082-.009a.667.667,0,0,1,.075-.01l.012,0,.011,0c.051.012.078.073.081.183a1.109,1.109,0,0,0,.039.258.307.307,0,0,0,.077.132.151.151,0,0,0,.112.051l.01,0a.036.036,0,0,1,.015,0l.041-.01.027.01.028-.042.058-.051.061-.048a.184.184,0,0,1,.046-.037.662.662,0,0,1,.112-.037.162.162,0,0,1,.044-.051.178.178,0,0,1,.063-.03.221.221,0,0,1,.054-.054.113.113,0,0,1,.062-.017.042.042,0,0,1,.032.011.071.071,0,0,1,.012.036.061.061,0,0,1,0,.017.212.212,0,0,1-.007.028l0,.023a.116.116,0,0,1-.01.046.129.129,0,0,1-.034.036.778.778,0,0,1-.113.1l-.009.008a.065.065,0,0,1-.017.052.1.1,0,0,1-.06.019.332.332,0,0,1-.085.1.4.4,0,0,0-.081.084l-.1.06-.059.008-.051.073-.061,0a.186.186,0,0,1-.077.06.246.246,0,0,1-.1.021.4.4,0,0,1-.409-.379.054.054,0,0,0-.01-.017l-.014-.006a.044.044,0,0,0-.028.015.331.331,0,0,0-.034.045l-.04.046-.086.078-.01.022-.041.036-.066.094-.048.023a.546.546,0,0,1-.146.183.728.728,0,0,1-.24.13l-.056-.009-.053,0a.311.311,0,0,1-.206-.153.649.649,0,0,1-.084-.324l-.024-.127Z" transform="translate(-102.307 -198.777)" fill="#1a1818"/>
        <path id="Path_1445" data-name="Path 1445" d="M111.98,201.847l-.018.029a.164.164,0,0,0-.09.047.384.384,0,0,1-.074.052l-.048.035a.434.434,0,0,0-.13.083l-.012.013a.051.051,0,0,1-.021,0,.092.092,0,0,1-.019-.01l-.012-.015v-.011a.331.331,0,0,1,.069-.13c.034-.051.059-.093.079-.126l.036-.034a.148.148,0,0,0,.088-.074.42.42,0,0,1,.061-.086.234.234,0,0,1,.031-.053.128.128,0,0,1,.042-.029l.1-.112.005-.045.183-.2.03-.014.012-.021.01-.065.046-.065.02-.013-.006-.043-.024-.049V200.9a.021.021,0,0,1-.005-.01.188.188,0,0,1,.08-.129.467.467,0,0,1,.183-.108l.058-.036.064-.01h.129l0,.01.038,0,.065.027.02.032.048.031.053.016c.03.025.079.062.148.111a.346.346,0,0,1,.124.119l.07.076.01.025-.005.039.028.035.012.042c.007.037.011.066.014.086a.239.239,0,0,1,.006.047,1.353,1.353,0,0,1-.083.4c-.055.165-.09.279-.1.338h.037l.065-.045.038,0,.186-.138.037-.006.027-.057.08-.07.044-.019.027-.027.059-.063.031-.021c.087-.048.155-.084.2-.106a.331.331,0,0,1,.111-.034.052.052,0,0,1,.03.009.031.031,0,0,1,.013.023.273.273,0,0,1-.037.082.2.2,0,0,1-.064.084l-.066.068a.622.622,0,0,0-.07.076.72.72,0,0,1-.062.071l-.028.038-.061.02,0,.016-.034.031-.052.027-.06.067-.026.05-.074.015-.018.031a.772.772,0,0,1-.081.067.781.781,0,0,1-.1.057l-.061.044a.116.116,0,0,0-.051.009.1.1,0,0,0-.034.033l-.081.069-.041-.007-.014.009a.134.134,0,0,0-.041.038l-.186.021-.039-.015-.027.006a.083.083,0,0,1-.056-.032.1.1,0,0,1-.017-.065.487.487,0,0,1,.012-.088.757.757,0,0,1,.044-.122l.011-.039.032-.055,0-.037.087-.276.01-.029V201.7c.005-.045.01-.084.012-.114s0-.058,0-.081a.286.286,0,0,0-.025-.126.255.255,0,0,0-.08-.1l-.012-.043a.257.257,0,0,1-.086-.026.431.431,0,0,1-.09-.066l-.054-.01-.036.06-.123.071-.042.058-.034.033-.058.064-.044.076-.118.119-.027.039-.057.018-.02.027-.062.08a.116.116,0,0,1-.033.042A.075.075,0,0,1,111.98,201.847Z" transform="translate(-105.461 -198.758)" fill="#1a1818"/>
        <path id="Path_1446" data-name="Path 1446" d="M120.267,200.571h-.018l-.032,0a.231.231,0,0,0-.047.008.3.3,0,0,0-.048.018l-.058-.023c-.009-.049-.015-.086-.018-.111s0-.053,0-.074a.31.31,0,0,1,0-.044.068.068,0,0,1,0-.026l.05-.115.066-.273.036-.037,0-.076.094-.351.025-.041,0-.039-.108.005a.247.247,0,0,1-.05-.051.09.09,0,0,1-.017-.052.169.169,0,0,1,.013-.044.194.194,0,0,1,.039-.054l-.037-.059.078-.206.051-.05v-.037l.232-.078.027-.031v-.059l.086-.2.047-.072.007-.1.107-.327.027-.05.037-.088,0-.056.233-.569a.225.225,0,0,1,.081-.084.189.189,0,0,0,.064-.055l-.086-.08.007-.128a.52.52,0,0,0,.1-.064l.006,0,.06-.005a.146.146,0,0,0,.12-.049l.091-.177.074-.034.252-.155a.353.353,0,0,1,.147.017c.019.011.029.037.029.078a.023.023,0,0,1,0,.013l0,0-.053.13-.018.094-.076.127.15.086.153.061a.149.149,0,0,1,.094.061.376.376,0,0,1,.047.143.805.805,0,0,1,.052.177.932.932,0,0,1,.019.2c0,.014,0,.045-.008.094,0,.028,0,.048,0,.063l-.015.109.034.068c0,.016,0,.039,0,.065.007.091.008.153.008.182s0,.078,0,.15-.006.131-.006.175v.071h.064a.416.416,0,0,1,.012.055c0,.013,0,.023,0,.033a.45.45,0,0,1-.014.076c0,.015-.007.027-.009.035a.129.129,0,0,1-.035.032.171.171,0,0,1-.05.029l.019.086-.024.195-.03.34.005.106-.027.084-.037.257v.053a.391.391,0,0,1-.018.116.717.717,0,0,1-.057.127.07.07,0,0,1,.007.028.094.094,0,0,1,0,.018c0,.046-.061.118-.184.206a.255.255,0,0,1-.032.024l-.019-.03v-.262l-.007-.316.007-.169.019-.121-.029-.105.02-.245.016-.033L122,198.88l-.123.007-.079.048-.138.038-.06-.022-.021.022-.047-.017-.071.043-.309.1-.065.046h-.053l-.053.037-.193.048-.041-.012c-.02.012-.043.069-.071.175a1.253,1.253,0,0,1-.108.287l-.043.159-.074.211-.047.051-.016.109c-.025.081-.049.148-.067.2S120.283,200.526,120.267,200.571Zm.673-1.845.159-.012.042.017.037-.035.176-.029.065.015.07-.026.165.016.111-.042.09-.01.134-.033a.241.241,0,0,1-.02-.05.064.064,0,0,1,0-.022.215.215,0,0,1,.007-.048.032.032,0,0,1,0-.016l-.01-.074.01-.082v-.182l-.028-.036a.374.374,0,0,0,.006-.055c0-.015,0-.034,0-.055a1.446,1.446,0,0,0-.015-.172,1.356,1.356,0,0,0-.035-.186l-.05-.1a1.306,1.306,0,0,0-.149-.128.307.307,0,0,0-.111-.044l-.106.1-.049.081-.006.078-.15.323-.065.045v.1l-.173.379-.1.174Z" transform="translate(-110.253 -196.366)" fill="#b8c623"/>
        <path id="Path_1447" data-name="Path 1447" d="M126.849,202.03l.045-.047a.88.88,0,0,0,.138-.073.756.756,0,0,0,.12-.091.09.09,0,0,0,.062-.024.156.156,0,0,0,.043-.075c.025-.021.051-.04.078-.06l.081-.056.039-.005a.158.158,0,0,1,.018-.036.092.092,0,0,1,.029-.021l.044-.04.084-.047.124-.076a.693.693,0,0,1,.062-.039.033.033,0,0,1,.028.009.024.024,0,0,1,.01.021.046.046,0,0,1-.013.023.063.063,0,0,0-.011.031.042.042,0,0,0,.005.023.124.124,0,0,1,0,.023c0,.01-.011.027-.033.049s-.039.044-.055.063l-.051.066a.23.23,0,0,0-.092.088.363.363,0,0,1-.081.086l-.02.018-.014.007c-.009.011-.019.024-.03.037s-.02.021-.025.029l-.041.027a.121.121,0,0,0-.056.034.187.187,0,0,0-.028.068.694.694,0,0,1-.064.05l-.109.072h-.017l-.009.016-.052,0a.188.188,0,0,1-.047.056.131.131,0,0,1-.051.028c-.049.028-.1.051-.138.071s-.084.04-.123.057l-.064.01a.664.664,0,0,1-.078.03.391.391,0,0,1-.078.016l-.068,0h-.057a.45.45,0,0,1-.13-.018.631.631,0,0,1-.132-.051l-.032-.043a.29.29,0,0,1-.184-.164,1.24,1.24,0,0,1-.051-.432.4.4,0,0,1-.089.066.549.549,0,0,1-.126.048l-.036.053-.1.048a.376.376,0,0,1-.06.021l-.039-.026a.126.126,0,0,0,.012-.023.071.071,0,0,0,0-.015s0,0,0-.01a.257.257,0,0,1-.02-.022l.009-.035a.1.1,0,0,0,.02-.023,2.123,2.123,0,0,1,.226-.226l.045-.051.014-.029a.058.058,0,0,1,.017-.02.125.125,0,0,1,.038-.021l.037-.009a.115.115,0,0,0,.042-.018.231.231,0,0,0,.043-.053.587.587,0,0,1,.064-.043.492.492,0,0,1,.067-.037.125.125,0,0,0,.059-.027.126.126,0,0,0,.028-.048,1.312,1.312,0,0,0,.129-.075.532.532,0,0,0,.084-.066l.029-.046c.056-.039.116-.083.184-.128s.134-.092.208-.141l.049-.017a.234.234,0,0,1,.052-.057.345.345,0,0,1,.08-.047.678.678,0,0,0,.126-.063.388.388,0,0,1,.2-.057h.008a.394.394,0,0,1,.039-.013h.021a.051.051,0,0,1,.037.013.108.108,0,0,1,.023.054.206.206,0,0,1,0,.035c0,.013,0,.026,0,.039s0,.028,0,.054,0,.021.007.031a.739.739,0,0,1-.091.135.7.7,0,0,1-.137.11l-.057.025-.055.054h-.061l-.063.076-.121.089c-.037.03-.074.06-.108.092l-.081.035-.041.054a.348.348,0,0,0-.166.128.321.321,0,0,0-.073.175c0,.013,0,.027,0,.042s.007.033.013.053l-.01.054.018.034a.21.21,0,0,0,.088.139.366.366,0,0,0,.192.042.376.376,0,0,0,.061,0c.031,0,.054-.006.066-.006l.051-.043Z" transform="translate(-113.258 -198.711)" fill="#b8c623"/>
        <path id="Path_1448" data-name="Path 1448" d="M131.086,202.03l.044-.047a1,1,0,0,0,.139-.073.841.841,0,0,0,.119-.091.108.108,0,0,0,.065-.024.154.154,0,0,0,.039-.075c.027-.021.053-.04.08-.06l.081-.056.039-.005a.142.142,0,0,1,.019-.036.1.1,0,0,1,.028-.021l.046-.04.082-.047.125-.076a.323.323,0,0,1,.064-.039.031.031,0,0,1,.025.009.023.023,0,0,1,.011.021.048.048,0,0,1-.013.023.048.048,0,0,0-.014.031.081.081,0,0,0,0,.023.087.087,0,0,1,.006.023c0,.01-.011.027-.033.049a.567.567,0,0,0-.052.063l-.054.066a.237.237,0,0,0-.093.088.317.317,0,0,1-.079.086l-.021.018-.013.007c-.009.011-.019.024-.03.037l-.025.029-.041.027a.113.113,0,0,0-.056.034.156.156,0,0,0-.028.068c-.019.016-.038.031-.064.05s-.062.04-.111.072h-.016l-.011.016-.051,0a.15.15,0,0,1-.046.056.129.129,0,0,1-.053.028,1.329,1.329,0,0,1-.137.071c-.042.02-.081.04-.12.057l-.067.01a.467.467,0,0,1-.078.03.353.353,0,0,1-.078.016l-.067,0H130.6a.446.446,0,0,1-.13-.018.618.618,0,0,1-.132-.051l-.033-.043a.289.289,0,0,1-.184-.164,1.216,1.216,0,0,1-.051-.432.329.329,0,0,1-.088.066.537.537,0,0,1-.126.048l-.037.053-.1.048a.345.345,0,0,1-.06.021l-.039-.026c0-.01.01-.016.011-.023a.029.029,0,0,0,.006-.015s0,0-.006-.01-.011-.012-.022-.022l.01-.035.022-.023a1.967,1.967,0,0,1,.222-.226l.046-.051.016-.029a.051.051,0,0,1,.017-.02.115.115,0,0,1,.038-.021l.035-.009a.11.11,0,0,0,.043-.018.231.231,0,0,0,.044-.053.421.421,0,0,1,.063-.043.565.565,0,0,1,.068-.037.132.132,0,0,0,.057-.027.121.121,0,0,0,.029-.048,1.161,1.161,0,0,0,.128-.075.538.538,0,0,0,.085-.066l.028-.046c.055-.039.117-.083.182-.128l.213-.141.047-.017a.188.188,0,0,1,.053-.057.294.294,0,0,1,.081-.047.738.738,0,0,0,.124-.063.394.394,0,0,1,.2-.057h.007c.017-.007.032-.01.039-.013h.021a.055.055,0,0,1,.038.013.154.154,0,0,1,.023.054c0,.013,0,.024,0,.035v.039a.344.344,0,0,0,0,.054.141.141,0,0,1,0,.031.509.509,0,0,1-.091.135.613.613,0,0,1-.138.11l-.054.025-.055.054h-.06l-.064.076-.122.089a1.413,1.413,0,0,0-.108.092l-.081.035-.04.054a.348.348,0,0,0-.167.128.312.312,0,0,0-.072.175.247.247,0,0,0,0,.042.389.389,0,0,0,.012.053l-.012.054.018.034a.227.227,0,0,0,.085.139.386.386,0,0,0,.2.042.412.412,0,0,0,.062,0c.032,0,.055-.006.068-.006l.05-.043Z" transform="translate(-115.649 -198.711)" fill="#b8c623"/>
        <path id="Path_1449" data-name="Path 1449" d="M134.06,201.621l-.005-.051-.066.051-.04.024-.054.04a.765.765,0,0,0-.067.04.183.183,0,0,0-.039.026l-.032.024-.056.027a.067.067,0,0,1-.037.042.142.142,0,0,1-.078.015.076.076,0,0,1-.032-.008.334.334,0,0,1-.01-.038.149.149,0,0,1,.019-.052.164.164,0,0,1,.044-.033v-.054a.414.414,0,0,0,.053-.051.847.847,0,0,0,.059-.07l.04-.054.036-.015a.21.21,0,0,1,.041-.059.3.3,0,0,1,.072-.04l.016-.034.071-.044.059-.049c.007,0,.009-.009.014-.017s.005-.017.009-.029v-.021l.025-.047-.01-.032.016-.044a.988.988,0,0,1,.04-.152.51.51,0,0,1,.057-.11l.037-.02-.01-.031a1.114,1.114,0,0,1,.134-.192,2.375,2.375,0,0,1,.25-.242h.03l.02-.023.025-.006.017-.037a.513.513,0,0,1,.133-.08.4.4,0,0,1,.14-.024.2.2,0,0,1,.047,0h.027l.025.011.105.034.035.045.019,0,.022.074a.182.182,0,0,1,.008.043.237.237,0,0,1,0,.027c0,.006,0,.011,0,.017l.016.036,0,.056-.021.069-.037.052-.01.06c-.014.023-.03.047-.049.071s-.048.051-.078.083l-.02.035a1.431,1.431,0,0,1-.147.152,2.556,2.556,0,0,1-.22.184l-.044.016-.016.03-.093.059-.039.046a.076.076,0,0,0-.016.017.022.022,0,0,0-.006.015.178.178,0,0,0,.01.055c.007.019.017.043.03.074l.026.029.015.051a.541.541,0,0,0,.125.074.325.325,0,0,0,.121.023.27.27,0,0,0,.078-.013,1.139,1.139,0,0,0,.111-.05l.035-.01.091-.059.071.005.014-.04c.006,0,.027-.023.064-.057s.072-.06.1-.086l.044-.021.032-.046a.4.4,0,0,1,.071-.04.539.539,0,0,1,.078-.029.156.156,0,0,1,.052-.054.274.274,0,0,1,.073-.031l.043-.04.039-.014.028,0a.078.078,0,0,1,.045.008.041.041,0,0,1,.01.031.088.088,0,0,1-.008.034.126.126,0,0,1-.019.034l-.013.033a.621.621,0,0,1-.053.068c-.024.024-.057.055-.1.091v.013c0,.023-.006.036-.017.042a.1.1,0,0,1-.058.017.477.477,0,0,1-.149.158c-.024.018-.044.034-.059.046l-.044.035-.028.015a.475.475,0,0,0-.041.034c-.014.015-.034.032-.058.055l-.031.04-.065.043a.834.834,0,0,1-.194.12.461.461,0,0,1-.18.048h-.026l-.061-.011-.025.017h-.076a.553.553,0,0,1-.159-.02.174.174,0,0,1-.1-.06l-.04.007-.061-.057-.031-.059-.029-.028a.408.408,0,0,1-.043-.066.636.636,0,0,1-.03-.073Zm.707-.791.044-.03a.146.146,0,0,1,.02-.063.161.161,0,0,0,.025-.084.207.207,0,0,0-.008-.041.043.043,0,0,0-.017-.007h-.009l-.044.025-.1.089-.1.1-.086.124a.176.176,0,0,0-.025.058.116.116,0,0,0-.012.047s0,.008,0,.008,0,0,.007,0l.015,0c.005,0,.012-.006.023-.013s.017,0,.024,0h.024a.034.034,0,0,0,.014,0,.09.09,0,0,0,.023-.021l.027-.047.045-.044Z" transform="translate(-117.875 -198.504)" fill="#b8c623"/>
        <path id="Path_1450" data-name="Path 1450" d="M137.408,201.725l-.014,0-.023,0a.206.206,0,0,1-.051.054.33.33,0,0,1-.068.025l-.052.042-.052.03c-.007,0-.013.01-.021.015a.246.246,0,0,0-.054.049l-.068.02a.089.089,0,0,1-.041-.026.036.036,0,0,1-.01-.028.074.074,0,0,1,0-.02.18.18,0,0,1,.009-.026l.056-.048v-.047a.437.437,0,0,0,.062-.063.392.392,0,0,0,.045-.061l.039-.054.047-.01a.369.369,0,0,1,.05-.069.351.351,0,0,1,.051-.053l.05-.051.2-.159.071-.04.027-.054.116-.127.04-.01.03-.055.246-.244.032-.01.01-.026.213-.216a.657.657,0,0,1,.13-.117.2.2,0,0,1,.1-.025.331.331,0,0,1,.066.01c.023.007.056.02.1.036l.036.021.047.057a.345.345,0,0,1,.022.044.181.181,0,0,1,.006.039.065.065,0,0,0,0,.014.157.157,0,0,1-.008.03v.026a.45.45,0,0,1-.007.088c-.007.03-.018.069-.03.113l.012.057-.024.112a1.153,1.153,0,0,1-.027.152c-.013.058-.033.13-.057.221l-.034.109-.047.153-.044.1a.562.562,0,0,1-.016.054c-.009.02-.017.035-.026.052l.005.045.218-.154.054-.066a.452.452,0,0,0,.1-.066.374.374,0,0,0,.072-.084l.05-.044a.117.117,0,0,1,.073-.065.327.327,0,0,0,.084-.041l.064-.057a.453.453,0,0,0,.052-.019.227.227,0,0,0,.038-.028l.073-.036h.01a.054.054,0,0,1,.039.011.034.034,0,0,1,.016.03.117.117,0,0,0-.007.02l-.01.026-.009.049-.025.033a1.477,1.477,0,0,1-.128.142.064.064,0,0,1-.026.043.118.118,0,0,1-.054.019.458.458,0,0,1-.137.159.571.571,0,0,0-.045.036l-.039.027-.058.072-.049.021-.036.054a.8.8,0,0,1-.1.073,1.187,1.187,0,0,1-.125.068l-.061.085-.032.047-.057.024a.182.182,0,0,1-.052.065.089.089,0,0,1-.054.02h-.024l-.084.1-.118.046-.05.034-.041-.007a.083.083,0,0,1-.08-.068l0-.025-.02-.031a.858.858,0,0,1-.057-.168,1.125,1.125,0,0,1-.023-.2l.015-.055-.041-.12a.452.452,0,0,1,.107-.136.161.161,0,0,1,.108-.051c.027,0,.05.021.064.061a.438.438,0,0,0,.022.045h.017a.347.347,0,0,0,.026-.061.783.783,0,0,0,.028-.1v-.095a1.274,1.274,0,0,0,.027-.134,1.094,1.094,0,0,0,.008-.121v-.054l.01-.111-.039-.049-.068.01-.05.054-.057.035-.157.148c-.075.075-.141.135-.193.179l-.077.059-.052.023-.008.03a.552.552,0,0,1-.077.084C137.477,201.673,137.444,201.7,137.408,201.725Z" transform="translate(-119.8 -198.599)" fill="#b8c623"/>
        <path id="Path_1451" data-name="Path 1451" d="M141.3,201.725l-.015,0-.02,0a.289.289,0,0,1-.053.054.317.317,0,0,1-.068.025l-.052.042-.053.03a.164.164,0,0,1-.021.015.363.363,0,0,0-.054.049l-.064.02a.105.105,0,0,1-.044-.026.039.039,0,0,1-.01-.028.064.064,0,0,1,0-.02c0-.007.006-.016.007-.026l.059-.048v-.047a.839.839,0,0,0,.062-.063.674.674,0,0,0,.045-.061l.04-.054.046-.01a.5.5,0,0,1,.051-.069.4.4,0,0,1,.051-.053l.05-.051.2-.159.069-.04.025-.054.118-.127.04-.01.031-.055.246-.244.032-.01.01-.026.216-.216a.592.592,0,0,1,.127-.117.206.206,0,0,1,.1-.025.309.309,0,0,1,.066.01c.023.007.055.02.1.036l.037.021.046.057a.162.162,0,0,1,.023.044.106.106,0,0,1,.007.039.061.061,0,0,1,0,.014l-.008.03v.026a.313.313,0,0,1-.01.088.846.846,0,0,1-.029.113l.013.057-.023.112a1.279,1.279,0,0,1-.029.152c-.012.058-.031.13-.055.221l-.036.109-.046.153-.045.1a.137.137,0,0,1-.015.054c-.008.02-.015.035-.024.052l.006.045.218-.154.054-.066a.428.428,0,0,0,.1-.066.374.374,0,0,0,.072-.084l.052-.044a.114.114,0,0,1,.071-.065.347.347,0,0,0,.086-.041l.062-.057a.385.385,0,0,0,.051-.019.266.266,0,0,0,.04-.028l.07-.036h.013a.063.063,0,0,1,.041.011.037.037,0,0,1,.013.03.057.057,0,0,0-.006.02.147.147,0,0,1-.011.026l-.007.049c0,.007-.014.017-.026.033a1.541,1.541,0,0,1-.128.142.062.062,0,0,1-.027.043.12.12,0,0,1-.051.019.452.452,0,0,1-.138.159l-.045.036-.04.027-.057.072-.05.021-.036.054a.824.824,0,0,1-.1.073,1.276,1.276,0,0,1-.127.068l-.062.085-.029.047-.058.024a.2.2,0,0,1-.052.065.088.088,0,0,1-.054.02h-.024l-.083.1-.117.046L142,202.5l-.043-.007a.072.072,0,0,1-.051-.02.076.076,0,0,1-.028-.047l0-.025-.022-.031a.918.918,0,0,1-.056-.168,1.318,1.318,0,0,1-.024-.2l.015-.055-.044-.12a.555.555,0,0,1,.108-.136.167.167,0,0,1,.108-.051c.027,0,.049.021.064.061.009.019.017.034.021.045h.02a.384.384,0,0,0,.027-.061c.008-.024.016-.059.028-.1v-.095a1.174,1.174,0,0,0,.026-.134c0-.042.007-.083.007-.121v-.054l.009-.111-.037-.049-.068.01-.05.054-.06.035c-.027.025-.082.074-.155.148s-.141.135-.2.179l-.076.059-.052.023-.007.03a.806.806,0,0,1-.08.084A.826.826,0,0,1,141.3,201.725Z" transform="translate(-121.995 -198.599)" fill="#b8c623"/>
        <path id="Path_1452" data-name="Path 1452" d="M151.1,197.928c-.015.042-.032.1-.047.155s-.03.117-.045.18a.15.15,0,0,1,.051.005.168.168,0,0,1,.047.016c.01,0,.017,0,.022.005a.022.022,0,0,1,.008.02v.018a1.419,1.419,0,0,0,.012.154l.01.08a.146.146,0,0,1-.027.1.157.157,0,0,1-.111.026c-.064,0-.108,0-.138,0-.015.037-.027.071-.042.1a.906.906,0,0,1-.04.089c0,.007.005.015.01.026a.067.067,0,0,1,.006.02.059.059,0,0,1-.022.039.225.225,0,0,1-.015.018c-.073.283-.127.509-.168.685s-.068.325-.084.456v.017a.254.254,0,0,0-.008.028.04.04,0,0,0,0,.012s0,.01,0,.01a.045.045,0,0,0,0,.01c-.01.057-.018.111-.026.161s-.011.088-.011.113a.058.058,0,0,0,.019.036c.013.014.023.018.029.018a.156.156,0,0,0,.071-.038.306.306,0,0,1,.037-.026.114.114,0,0,0,.026,0,.171.171,0,0,1,.028,0h.016a.171.171,0,0,0-.009-.026.106.106,0,0,1,0-.014.075.075,0,0,1,0-.015s.007-.008.012-.015c.032-.027.064-.055.1-.084l.127-.1a.081.081,0,0,1,.013-.032.065.065,0,0,1,.032-.026.732.732,0,0,0,.069-.053.642.642,0,0,0,.069-.069l.02,0,.017-.031a.769.769,0,0,1,.081-.049.276.276,0,0,1,.061-.024.232.232,0,0,0,.027-.021.622.622,0,0,1,.092-.069l.034-.015.054-.032a.136.136,0,0,1,.048-.008.081.081,0,0,1,.035.007.03.03,0,0,1,.017.025.054.054,0,0,1-.007.027.188.188,0,0,1-.02.04l-.013.039c-.024.027-.047.053-.074.081s-.054.057-.083.083a.056.056,0,0,1-.069.062l-.041.066-.083.085c-.036.037-.065.069-.091.091a.227.227,0,0,1-.059.043.035.035,0,0,0-.024.007.051.051,0,0,0-.014.029,1.041,1.041,0,0,1-.115.14.423.423,0,0,1-.1.077.053.053,0,0,0-.036.013.107.107,0,0,0-.02.044.823.823,0,0,1-.141.148,1.223,1.223,0,0,1-.187.125h-.013a.087.087,0,0,1-.042.028.16.16,0,0,1-.047.008.057.057,0,0,1-.02,0l-.019,0-.007-.006-.006,0a.067.067,0,0,0-.017,0,.211.211,0,0,1-.021.006.1.1,0,0,0-.02-.007c0-.005-.014-.01-.027-.023a.205.205,0,0,1-.134-.075.475.475,0,0,1-.037-.229c0-.011,0-.021,0-.034a.191.191,0,0,1,0-.037v-.02a.116.116,0,0,0-.008-.037.013.013,0,0,1,0-.007v-.088a.555.555,0,0,1,.008-.09.48.48,0,0,1,.024-.086l.017-.034a.05.05,0,0,1-.013-.016.092.092,0,0,1,0-.024v-.02c.02-.094.04-.179.057-.249a1.266,1.266,0,0,1,.058-.179c.023-.022.037-.037.044-.044a.044.044,0,0,0,.009-.024.026.026,0,0,0,0-.014.078.078,0,0,0-.014-.021l.018-.08-.034.054a.156.156,0,0,0-.044.037.526.526,0,0,0-.059.1.393.393,0,0,1-.058.04.113.113,0,0,0-.048.07l-.062.06a.162.162,0,0,1-.034.054.057.057,0,0,1-.037.013.063.063,0,0,0-.042.012.061.061,0,0,0-.015.04l-.016.043-.063.046a.157.157,0,0,0-.044.035.176.176,0,0,0-.024.051l-.028.021a.44.44,0,0,0-.079.044.2.2,0,0,0-.044.035c-.016.007-.032.013-.046.021a.254.254,0,0,0-.047.032.628.628,0,0,0-.065.039.157.157,0,0,0-.041.033l-.05.04a.056.056,0,0,1-.025.008l-.027,0c-.025,0-.042,0-.05-.01a.07.07,0,0,1-.012-.044v-.015a.11.11,0,0,1,.025-.04.083.083,0,0,1,.043-.023v-.068c.026-.024.051-.043.068-.061a.344.344,0,0,0,.049-.051l0-.037.086-.043a.229.229,0,0,1,.037-.053.26.26,0,0,1,.065-.044l.03-.048a.036.036,0,0,1,.012,0,.124.124,0,0,0,.049-.045l.007,0a.248.248,0,0,1,.056-.013v-.04l.048-.059.159-.189a.877.877,0,0,1,.149-.226l.021-.028a.061.061,0,0,0,.037-.01.027.027,0,0,0,.011-.024.025.025,0,0,0,0-.016.063.063,0,0,1,0-.017.935.935,0,0,0,.067-.1.417.417,0,0,0,.053-.1h.006c.027,0,.057-.042.094-.128a1.456,1.456,0,0,1,.109-.214.4.4,0,0,0,.04-.049.361.361,0,0,0,.035-.065l-.07-.01a.507.507,0,0,1-.072.023.209.209,0,0,1-.054.008.481.481,0,0,1-.061-.006c-.028,0-.05-.006-.061-.006a.1.1,0,0,0-.018.005l-.015.007-.013,0h-.021a.043.043,0,0,0-.022,0l-.02.007h-.287a.1.1,0,0,1-.03-.021.2.2,0,0,1-.025-.031c0,.008-.007.014-.013.024a.272.272,0,0,1-.028.029.028.028,0,0,0-.012,0h-.011a.182.182,0,0,1-.051-.009.5.5,0,0,1-.06-.037.1.1,0,0,1-.053-.014c-.009-.008-.011-.03-.011-.064a.8.8,0,0,1,.007-.082.777.777,0,0,0,.008-.118c0-.006,0-.018,0-.035a.373.373,0,0,1,0-.039h.025l.013,0a.1.1,0,0,1,.02-.016c.015,0,.036-.005.064-.011.048-.005.08-.01.1-.01a.526.526,0,0,1,.087.005.575.575,0,0,1,.09.011c.057-.006.1-.009.128-.01h.078a.235.235,0,0,1,.043,0c.025,0,.049.006.069.006l.008,0c.005,0,.008,0,.017,0l.013-.005a.1.1,0,0,0,.027-.01.3.3,0,0,0,.045-.006h.061a.172.172,0,0,1,.045.005.54.54,0,0,1,.074.011l.027.021a.352.352,0,0,0,.067-.011.433.433,0,0,0,.062-.016c.032-.062.057-.12.08-.169a.6.6,0,0,0,.038-.11.346.346,0,0,1,.041-.057.207.207,0,0,1,.056-.037v-.01c0-.022.015-.04.047-.057a.187.187,0,0,1,.1-.026.074.074,0,0,1,.048.013.1.1,0,0,1,.03.047l.023.044A.085.085,0,0,1,151.1,197.928Z" transform="translate(-126.672 -197.17)" fill="#1a1818"/>
        <path id="Path_1453" data-name="Path 1453" d="M153.427,201.728a2.1,2.1,0,0,1-.3.248.675.675,0,0,1-.2.116.047.047,0,0,1-.036-.014.057.057,0,0,1-.016-.04.07.07,0,0,1,.016-.046.188.188,0,0,1,.051-.044V201.9c.074-.085.141-.157.2-.216s.1-.087.111-.087a.29.29,0,0,0,.076-.086c.009-.016.014-.027.02-.035l.052-.037.03-.038.025-.015.019-.04.122-.127.11-.1.1-.127c.03-.033.062-.064.1-.1s.073-.059.112-.087l.048-.024.012-.04a.97.97,0,0,1,.187-.16.359.359,0,0,1,.156-.032.256.256,0,0,1,.088.015c.023.011.034.023.034.036a.4.4,0,0,1-.048.074c-.031.046-.058.088-.08.127l.105-.061.07-.026.037-.016a.267.267,0,0,1,.043,0,.144.144,0,0,1,.034,0l.021,0,.052,0a.471.471,0,0,1,.3.143.4.4,0,0,1,.115.292c0,.007,0,.014,0,.026a.139.139,0,0,0,0,.028l-.029.116-.01.042-.032.084-.053.12-.038.048-.047.038-.016.05a.32.32,0,0,1-.074.1c-.047.054-.113.122-.192.2l-.041.063-.043.031-.043.009-.053.048c-.028.025-.057.047-.084.068a.774.774,0,0,1-.082.052l-.087,0-.041.011-.034.043-.084.026-.054.014H154a.107.107,0,0,1-.04.019.224.224,0,0,1-.059.008.4.4,0,0,1-.272-.094.3.3,0,0,1-.1-.242v-.026l.008-.034a.1.1,0,0,1-.008-.037.191.191,0,0,1-.014-.06,1.873,1.873,0,0,1,.055-.258l.014-.052-.037.026-.051.055-.048.029Zm.593-.12v.055l-.012.055,0,.044-.015.057a.038.038,0,0,0,0,.019v.034a.217.217,0,0,0,0,.057.183.183,0,0,0,.015.05V202a.127.127,0,0,0,.04.037.111.111,0,0,0,.042.018l.051.008a.3.3,0,0,1,.087-.048.45.45,0,0,0,.1-.045l.076-.042.191-.189.058-.08.038-.014-.006-.043.016-.038a1.488,1.488,0,0,0,.076-.2l0-.012.007-.061a.372.372,0,0,0-.091-.136.172.172,0,0,0-.12-.039l-.037,0a.173.173,0,0,0-.037.012l-.057.019-.032.049a.647.647,0,0,0-.131.141.329.329,0,0,1-.094.1l-.064-.016a.115.115,0,0,0-.027,0l-.006,0a.2.2,0,0,1-.005.054.083.083,0,0,1-.01.036Z" transform="translate(-128.786 -198.73)" fill="#1a1818"/>
        <path id="Path_1454" data-name="Path 1454" d="M163.824,199.7l.053-.013s.006,0,.012-.006l.007,0a.041.041,0,0,1,.026.01.05.05,0,0,1,.015.026v.041s0,.011.005.027,0,.027,0,.037a.116.116,0,0,1-.024.06.13.13,0,0,1-.066.04l-.148.074-.024.022c-.043.048-.09.1-.143.148s-.116.11-.19.175l-.04.014-.041.041c-.058.042-.111.078-.162.109s-.1.063-.142.091l-.012-.007a.7.7,0,0,1-.093.06,1.2,1.2,0,0,1-.117.053l-.025.024-.034.011-.023.02a.967.967,0,0,0-.1.014.415.415,0,0,0-.085.026l-.023,0h-.016a.388.388,0,0,1-.126-.027,1.052,1.052,0,0,1-.156-.085l-.027-.054a.135.135,0,0,0,0-.024.079.079,0,0,1,0-.021.194.194,0,0,1,0-.043.2.2,0,0,1,.013-.035l0-.021c0-.024.034-.053.1-.094a1.571,1.571,0,0,1,.233-.117l.033-.027.514-.234.025-.01a.066.066,0,0,1,.023,0,.063.063,0,0,1,.046.024c.02.015.027.028.027.038a.063.063,0,0,1-.015.04.22.22,0,0,1-.048.035l-.032.01-.039.031a.169.169,0,0,0-.064.017.109.109,0,0,0-.032.041l-.02.029.011.013a.047.047,0,0,0,.027.01.365.365,0,0,0,.177-.106c.083-.07.126-.127.126-.171v-.038a.162.162,0,0,1,0-.023.168.168,0,0,1,.013-.025.307.307,0,0,0,.075-.04.565.565,0,0,0,.065-.04c0-.009,0-.022.005-.032v-.045c0-.1-.123-.28-.364-.533-.047-.048-.082-.086-.1-.115l-.019-.034-.041-.021-.071-.08-.031-.008c-.034-.041-.067-.078-.1-.116s-.07-.076-.106-.111l-.064-.119-.038-.017-.046-.059v-.02a.038.038,0,0,0-.007-.02.026.026,0,0,0-.021-.009,1.819,1.819,0,0,1-.075-.206.614.614,0,0,1-.024-.165.191.191,0,0,1,0-.034.2.2,0,0,1,.016-.035l-.005-.06c.005-.014.017-.044.037-.088s.03-.079.04-.1l.057-.06.016-.06a1.637,1.637,0,0,1,.164-.225.561.561,0,0,1,.157-.127.24.24,0,0,1,.044-.045.347.347,0,0,1,.074-.038l.01-.027c.072-.054.168-.119.287-.193l.044-.027.055-.017.026-.036c.161-.072.3-.128.411-.169a1.47,1.47,0,0,1,.267-.075h.02a.023.023,0,0,1,.017,0,.105.105,0,0,1,.088.057.2.2,0,0,1,.034.1v.011l0-.006v.079l-.005.03,0,.008c0,.012,0,.023,0,.033a.217.217,0,0,1,0,.034.107.107,0,0,1-.009.037.257.257,0,0,1-.025.054l-.045.029-.024.024a3.043,3.043,0,0,1-.368.289,2.112,2.112,0,0,1-.364.2.024.024,0,0,1-.013,0,.043.043,0,0,1-.017,0,.1.1,0,0,1-.042-.013.125.125,0,0,1-.044-.034l-.01-.028a.14.14,0,0,1,.008-.042.176.176,0,0,1,.023-.041l.053-.036c.128-.092.191-.172.191-.241a.393.393,0,0,0-.118.06,1.068,1.068,0,0,0-.156.135l-.04.009-.02.038a1.174,1.174,0,0,0-.2.243.453.453,0,0,0-.065.227.28.28,0,0,0,.017.091.582.582,0,0,0,.052.108l.024.056v.037a.085.085,0,0,0,.02.052.1.1,0,0,0,.058.037,3.326,3.326,0,0,0,.236.323c.112.138.253.3.422.489a.173.173,0,0,0,.081.093.536.536,0,0,1,.059.148.579.579,0,0,1,.02.162v.078C163.827,199.657,163.827,199.676,163.824,199.7Z" transform="translate(-134.009 -196.553)" fill="#186435"/>
        <path id="Path_1455" data-name="Path 1455" d="M166.263,201.7l-.043-.019-.02.013-.014.037-.045.026a.078.078,0,0,1-.027,0,.088.088,0,0,0-.041.01.043.043,0,0,0-.02.034v0l-.047.062-.01.029-.03.009a.14.14,0,0,0-.048.021.125.125,0,0,0-.024.035l-.065.029a.229.229,0,0,1-.038.034.518.518,0,0,1-.08.044.11.11,0,0,1-.037.039.26.26,0,0,1-.047.023.06.06,0,0,1-.022,0l-.022,0a.074.074,0,0,1-.043-.01.039.039,0,0,1-.014-.035.106.106,0,0,1,.008-.031.109.109,0,0,1,.027-.033l.043-.023,0-.052c0-.005.014-.016.026-.031.038-.047.069-.081.086-.1l.013-.05.057-.01a.257.257,0,0,1,.058-.075.149.149,0,0,1,.071-.034l.027-.046a.043.043,0,0,1,.012-.03.168.168,0,0,1,.036-.036l.066-.066.03-.015.027-.047.022-.043.122-.139.076-.037-.016-.029.069-.111.09-.065v-.04l.168-.221.02-.009h.027l.04-.04.04-.007c.036-.012.063-.022.082-.027a.126.126,0,0,1,.041-.007.1.1,0,0,1,.071.031.117.117,0,0,1,.031.078c0,.01,0,.015,0,.019a.035.035,0,0,0,0,.012c-.019.035-.03.061-.04.08s-.015.038-.022.059l-.056.062,0,.042-.057.158-.046.242-.019.058-.007.071c-.014.057-.02.1-.026.138a.48.48,0,0,0-.007.079.252.252,0,0,0,0,.05.173.173,0,0,0,.012.048l-.007.035a.281.281,0,0,0,.009.06.333.333,0,0,0,.027.06l.024.017.061-.026.053-.061.046-.01.014-.03.061-.075.071-.034.033-.076.117-.119.031-.027.034-.017.01-.04.063-.1.1-.164.054-.049.007-.035.048-.037c.02,0,.047-.007.081-.009s.06-.01.073-.01a.062.062,0,0,1,.014,0l.015,0c.047.012.074.073.078.183a1.051,1.051,0,0,0,.037.258.3.3,0,0,0,.078.132.147.147,0,0,0,.111.051l.011,0a.037.037,0,0,1,.015,0l.042-.01.025.01.028-.042.06-.051.058-.048a.2.2,0,0,1,.05-.037.59.59,0,0,1,.111-.037.167.167,0,0,1,.042-.051.216.216,0,0,1,.064-.03.239.239,0,0,1,.055-.054.117.117,0,0,1,.063-.017.043.043,0,0,1,.032.011.063.063,0,0,1,.012.036s0,.009,0,.017,0,.016-.009.028v.023a.1.1,0,0,1-.01.046.132.132,0,0,1-.034.036.784.784,0,0,1-.113.1l-.008.008a.067.067,0,0,1-.019.052.1.1,0,0,1-.06.019.332.332,0,0,1-.085.1.483.483,0,0,0-.081.084l-.1.06-.059.008-.052.073-.06,0a.2.2,0,0,1-.078.06.244.244,0,0,1-.1.021.4.4,0,0,1-.284-.107.381.381,0,0,1-.124-.272.093.093,0,0,0-.012-.017l-.015-.006a.051.051,0,0,0-.028.015.228.228,0,0,0-.032.045l-.041.046-.087.078-.01.022-.041.036-.066.094-.047.023a.567.567,0,0,1-.147.183.726.726,0,0,1-.241.13l-.056-.009-.053,0a.311.311,0,0,1-.206-.153.649.649,0,0,1-.084-.324l-.023-.127Z" transform="translate(-135.931 -198.777)" fill="#186435"/>
        <path id="Path_1456" data-name="Path 1456" d="M172.779,202.03l.045-.047a1.054,1.054,0,0,0,.138-.073,1.029,1.029,0,0,0,.121-.091.092.092,0,0,0,.062-.024.146.146,0,0,0,.042-.075c.024-.021.051-.04.078-.06l.08-.056.039-.005a.118.118,0,0,1,.019-.036.09.09,0,0,1,.029-.021l.045-.04.083-.047.125-.076a.46.46,0,0,1,.061-.039.037.037,0,0,1,.029.009.025.025,0,0,1,.01.021.041.041,0,0,1-.013.023.046.046,0,0,0-.013.031.112.112,0,0,0,.006.023.057.057,0,0,1,.005.023c0,.01-.011.027-.032.049s-.039.044-.053.063l-.052.066a.24.24,0,0,0-.094.088.3.3,0,0,1-.079.086l-.022.018-.012.007c-.01.011-.02.024-.03.037s-.02.021-.026.029l-.041.027a.113.113,0,0,0-.055.034.177.177,0,0,0-.03.068.473.473,0,0,1-.064.05c-.026.017-.06.04-.11.072h-.017l-.01.016-.05,0a.169.169,0,0,1-.046.056.138.138,0,0,1-.052.028c-.049.028-.1.051-.139.071s-.082.04-.12.057l-.065.01a.515.515,0,0,1-.078.03.383.383,0,0,1-.078.016l-.068,0h-.058a.448.448,0,0,1-.13-.018.65.65,0,0,1-.131-.051l-.034-.043a.3.3,0,0,1-.185-.164,1.264,1.264,0,0,1-.05-.432.373.373,0,0,1-.088.066.548.548,0,0,1-.125.048l-.037.053c-.049.022-.083.038-.107.048a.288.288,0,0,1-.058.021l-.04-.026a.111.111,0,0,0,.01-.023.021.021,0,0,0,.006-.015s0,0-.006-.01l-.02-.022.01-.035.021-.023a2.016,2.016,0,0,1,.223-.226l.044-.051.018-.029a.039.039,0,0,1,.016-.02.139.139,0,0,1,.038-.021l.035-.009a.108.108,0,0,0,.045-.018.286.286,0,0,0,.044-.053.385.385,0,0,1,.062-.043.733.733,0,0,1,.068-.037.12.12,0,0,0,.057-.027.089.089,0,0,0,.029-.048,1.44,1.44,0,0,0,.129-.075.508.508,0,0,0,.084-.066l.028-.046c.056-.039.116-.083.183-.128s.136-.092.211-.141l.05-.017a.189.189,0,0,1,.051-.057.373.373,0,0,1,.081-.047.7.7,0,0,0,.125-.063.39.39,0,0,1,.2-.057h.007c.018-.007.032-.01.038-.013h.022a.056.056,0,0,1,.038.013.14.14,0,0,1,.023.054c0,.013,0,.024,0,.035a.3.3,0,0,0,0,.039.485.485,0,0,0,.005.054c0,.012,0,.021,0,.031a.55.55,0,0,1-.089.135.726.726,0,0,1-.14.11l-.054.025-.058.054h-.059l-.062.076c-.045.031-.086.062-.122.089s-.074.06-.109.092l-.081.035-.039.054a.344.344,0,0,0-.167.128.313.313,0,0,0-.072.175.131.131,0,0,0,0,.042.311.311,0,0,0,.01.053l-.01.054.017.034a.222.222,0,0,0,.088.139.369.369,0,0,0,.193.042.385.385,0,0,0,.061,0c.032,0,.055-.006.068-.006l.049-.043Z" transform="translate(-139.187 -198.711)" fill="#186435"/>
        <path id="Path_1457" data-name="Path 1457" d="M177.014,202.03l.044-.047a.994.994,0,0,0,.139-.073.843.843,0,0,0,.12-.091.1.1,0,0,0,.064-.024.162.162,0,0,0,.04-.075l.077-.06c.026-.018.054-.038.082-.056l.039-.005a.157.157,0,0,1,.018-.036.087.087,0,0,1,.028-.021l.044-.04.083-.047.125-.076a.271.271,0,0,1,.064-.039.031.031,0,0,1,.026.009.03.03,0,0,1,.01.021.046.046,0,0,1-.013.023.049.049,0,0,0-.014.031.106.106,0,0,0,.005.023.043.043,0,0,1,.006.023c0,.01-.011.027-.033.049s-.04.044-.054.063l-.051.066a.227.227,0,0,0-.093.088.339.339,0,0,1-.078.086l-.021.018-.014.007a.412.412,0,0,1-.03.037.177.177,0,0,0-.023.029l-.043.027a.124.124,0,0,0-.056.034.156.156,0,0,0-.027.068l-.064.05c-.025.017-.062.04-.111.072h-.016l-.01.016-.049,0a.193.193,0,0,1-.046.056.132.132,0,0,1-.054.028c-.048.028-.094.051-.136.071s-.084.04-.122.057l-.066.01a.555.555,0,0,1-.077.03.379.379,0,0,1-.078.016l-.069,0h-.057a.434.434,0,0,1-.131-.018.63.63,0,0,1-.131-.051l-.034-.043a.3.3,0,0,1-.186-.164,1.264,1.264,0,0,1-.05-.432.345.345,0,0,1-.089.066.537.537,0,0,1-.126.048l-.036.053-.1.048a.447.447,0,0,1-.06.021l-.041-.026a.076.076,0,0,0,.013-.023.034.034,0,0,0,0-.015s0,0-.007-.01l-.02-.022.01-.035s.01-.009.021-.023a1.976,1.976,0,0,1,.226-.226l.044-.051.016-.029a.068.068,0,0,1,.017-.02.14.14,0,0,1,.039-.021l.035-.009a.109.109,0,0,0,.044-.018.242.242,0,0,0,.044-.053.473.473,0,0,1,.063-.043.651.651,0,0,1,.066-.037.13.13,0,0,0,.059-.027.093.093,0,0,0,.027-.048,1.277,1.277,0,0,0,.131-.075.753.753,0,0,0,.084-.066l.028-.046c.055-.039.116-.083.182-.128s.135-.092.212-.141l.046-.017a.228.228,0,0,1,.053-.057.368.368,0,0,1,.081-.047.675.675,0,0,0,.127-.063.385.385,0,0,1,.2-.057h.009c.017-.007.032-.01.039-.013h.022a.05.05,0,0,1,.037.013.148.148,0,0,1,.022.054c0,.013,0,.024,0,.035s0,.026,0,.039,0,.028,0,.054a.269.269,0,0,1,.006.031.556.556,0,0,1-.091.135.711.711,0,0,1-.138.11l-.056.025-.057.054h-.061l-.061.076c-.045.031-.085.062-.122.089a1.327,1.327,0,0,0-.108.092l-.081.035-.041.054a.351.351,0,0,0-.167.128.313.313,0,0,0-.072.175.144.144,0,0,0,0,.042c0,.016.006.033.009.053l-.009.054.018.034a.216.216,0,0,0,.085.139.378.378,0,0,0,.2.042.407.407,0,0,0,.062,0c.03,0,.052-.006.067-.006l.05-.043Z" transform="translate(-141.577 -198.711)" fill="#186435"/>
        <path id="Path_1458" data-name="Path 1458" d="M179.991,201.621l0-.051-.07.051-.039.024-.053.04a.72.72,0,0,0-.067.04.2.2,0,0,0-.039.026l-.032.024-.054.027a.076.076,0,0,1-.038.042.152.152,0,0,1-.08.015.058.058,0,0,1-.03-.008.143.143,0,0,1-.01-.038.111.111,0,0,1,.017-.052.135.135,0,0,1,.045-.033v-.054c.017-.014.034-.031.053-.051s.037-.042.06-.07l.038-.054.038-.015a.176.176,0,0,1,.04-.059.251.251,0,0,1,.072-.04l.015-.034.069-.044.06-.049a.033.033,0,0,0,.014-.017.1.1,0,0,0,.007-.029v-.021l.026-.047-.009-.032.015-.044c.014-.061.027-.111.04-.152a.734.734,0,0,1,.054-.11l.041-.02-.012-.031a1,1,0,0,1,.134-.192,2.555,2.555,0,0,1,.249-.242h.03l.02-.023.027-.006.015-.037a.548.548,0,0,1,.134-.08.4.4,0,0,1,.14-.024.168.168,0,0,1,.044,0h.029l.025.011.107.034.035.045.017,0a.754.754,0,0,1,.022.074.14.14,0,0,1,.009.043v.027c0,.006,0,.011-.006.017l.017.036-.006.056-.021.069-.036.052-.01.06a.469.469,0,0,1-.052.071,1.068,1.068,0,0,1-.076.083l-.02.035a1.443,1.443,0,0,1-.148.152,2.336,2.336,0,0,1-.219.184l-.047.016-.015.03-.091.059-.04.046a.089.089,0,0,0-.016.017.032.032,0,0,0-.007.015.225.225,0,0,0,.009.055c.007.019.017.043.031.074l.026.029.017.051a.532.532,0,0,0,.125.074.321.321,0,0,0,.119.023.278.278,0,0,0,.078-.013.8.8,0,0,0,.108-.05l.037-.01.093-.059.071.005.016-.04s.026-.023.063-.057.072-.06.1-.086l.045-.021.031-.046a.428.428,0,0,1,.071-.04.515.515,0,0,1,.078-.029.157.157,0,0,1,.049-.054.3.3,0,0,1,.076-.031l.04-.04.043-.014.027,0a.075.075,0,0,1,.043.008.039.039,0,0,1,.012.031.089.089,0,0,1-.008.034.2.2,0,0,1-.019.034l-.012.033a.6.6,0,0,1-.054.068c-.024.024-.054.055-.1.091v.013c0,.023,0,.036-.015.042a.107.107,0,0,1-.062.017.457.457,0,0,1-.147.158c-.025.018-.044.034-.057.046l-.045.035-.029.015-.039.034c-.014.015-.034.032-.06.055l-.032.04-.064.043a.843.843,0,0,1-.191.12.485.485,0,0,1-.182.048h-.026l-.061-.011-.025.017h-.075a.56.56,0,0,1-.161-.02.16.16,0,0,1-.094-.06l-.04.007-.063-.057-.031-.059-.029-.028a.417.417,0,0,1-.044-.066.728.728,0,0,1-.03-.073Zm.708-.791.041-.03a.134.134,0,0,1,.023-.063.169.169,0,0,0,.021-.084.236.236,0,0,0,0-.041.056.056,0,0,0-.019-.007h-.01l-.041.025-.1.089-.095.1-.088.124a.4.4,0,0,0-.027.058.166.166,0,0,0-.009.047.019.019,0,0,0,0,.008l.006,0a.088.088,0,0,0,.019,0,.108.108,0,0,0,.023-.013c.009,0,.017,0,.023,0h.024l.013,0a.053.053,0,0,0,.02-.021l.029-.047.043-.044Z" transform="translate(-143.805 -198.504)" fill="#186435"/>
        <path id="Path_1459" data-name="Path 1459" d="M183.337,201.725l-.016,0-.02,0a.248.248,0,0,1-.054.054.272.272,0,0,1-.066.025l-.051.042-.054.03c-.006,0-.012.01-.019.015a.286.286,0,0,0-.056.049l-.064.02a.094.094,0,0,1-.043-.026.045.045,0,0,1-.01-.028.05.05,0,0,1,.005-.02.086.086,0,0,1,.005-.026l.058-.048v-.047a.483.483,0,0,0,.061-.063.384.384,0,0,0,.044-.061l.041-.054.046-.01a.713.713,0,0,1,.05-.069.4.4,0,0,1,.053-.053l.049-.051.195-.159.072-.04.024-.054.117-.127.041-.01.03-.055.245-.244.032-.01.009-.026.216-.216a.661.661,0,0,1,.127-.117.207.207,0,0,1,.1-.025.3.3,0,0,1,.066.01c.022.007.057.02.1.036l.038.021.047.057a.173.173,0,0,1,.022.044.143.143,0,0,1,.007.039.057.057,0,0,1,0,.014c0,.01,0,.019-.007.03v.026a.534.534,0,0,1-.01.088.713.713,0,0,1-.03.113l.016.057-.026.112a1.169,1.169,0,0,1-.027.152c-.013.058-.033.13-.057.221l-.033.109-.047.153-.045.1a.384.384,0,0,1-.015.054c-.009.02-.016.035-.026.052l.006.045.217-.154.056-.066a.5.5,0,0,0,.1-.066.478.478,0,0,0,.073-.084l.047-.044a.12.12,0,0,1,.075-.065.351.351,0,0,0,.085-.041l.063-.057c.018-.005.035-.013.051-.019a.32.32,0,0,0,.04-.028l.07-.036h.01a.063.063,0,0,1,.042.011.037.037,0,0,1,.013.03.155.155,0,0,1-.006.02c0,.008-.007.018-.009.026l-.008.049c0,.007-.015.017-.027.033a1.481,1.481,0,0,1-.127.142.075.075,0,0,1-.025.043.136.136,0,0,1-.055.019.426.426,0,0,1-.139.159l-.044.036-.039.027-.057.072-.049.021-.037.054a1.056,1.056,0,0,1-.1.073c-.037.023-.079.044-.127.068l-.061.085-.03.047-.056.024a.237.237,0,0,1-.054.065.089.089,0,0,1-.055.02h-.025l-.081.1-.117.046-.051.034L184,202.5a.078.078,0,0,1-.054-.02.082.082,0,0,1-.027-.047l0-.025-.022-.031a.775.775,0,0,1-.055-.168,1.374,1.374,0,0,1-.024-.2l.014-.055-.041-.12a.48.48,0,0,1,.106-.136.167.167,0,0,1,.108-.051c.028,0,.05.021.065.061.009.019.017.034.022.045h.017a.427.427,0,0,0,.027-.061c.007-.024.017-.059.028-.1v-.095a.75.75,0,0,0,.027-.134.736.736,0,0,0,.008-.121v-.054l.01-.111-.04-.049-.067.01-.049.054-.059.035q-.044.038-.159.148c-.074.075-.141.135-.193.179l-.075.059-.054.023-.007.03a.622.622,0,0,1-.076.084A1.072,1.072,0,0,1,183.337,201.725Z" transform="translate(-145.729 -198.599)" fill="#186435"/>
        <path id="Path_1460" data-name="Path 1460" d="M187.229,201.725l-.017,0-.02,0a.3.3,0,0,1-.054.054.3.3,0,0,1-.067.025l-.053.042-.05.03a.2.2,0,0,1-.023.015.343.343,0,0,0-.056.049l-.064.02a.108.108,0,0,1-.042-.026.04.04,0,0,1-.01-.028s0-.012,0-.02a.173.173,0,0,0,.008-.026l.057-.048v-.047a.506.506,0,0,0,.063-.063.458.458,0,0,0,.045-.061l.04-.054.046-.01a.437.437,0,0,1,.049-.069.428.428,0,0,1,.052-.053l.051-.051.2-.159.069-.04.027-.054.118-.127.037-.01.032-.055.247-.244.031-.01.009-.026.215-.216a.638.638,0,0,1,.126-.117.214.214,0,0,1,.1-.025.3.3,0,0,1,.065.01c.024.007.057.02.1.036l.038.021.048.057a.2.2,0,0,1,.02.044.089.089,0,0,1,.007.039v.014a.223.223,0,0,1-.01.03v.026a.419.419,0,0,1-.008.088c-.006.03-.017.069-.03.113l.014.057-.025.112c0,.045-.014.1-.025.152s-.034.13-.058.221l-.035.109-.045.153-.044.1c0,.018-.011.035-.017.054s-.017.035-.026.052l.005.045.22-.154.054-.066a.483.483,0,0,0,.1-.066.478.478,0,0,0,.074-.084l.046-.044a.122.122,0,0,1,.076-.065.4.4,0,0,0,.086-.041l.061-.057a.416.416,0,0,0,.053-.019.233.233,0,0,0,.039-.028l.07-.036h.01a.059.059,0,0,1,.042.011.035.035,0,0,1,.015.03.117.117,0,0,0-.006.02c0,.008-.008.018-.01.026l-.009.049a.329.329,0,0,1-.024.033,1.236,1.236,0,0,1-.128.142.061.061,0,0,1-.024.043.127.127,0,0,1-.054.019.459.459,0,0,1-.139.159l-.045.036-.038.027-.058.072-.048.021-.038.054a.873.873,0,0,1-.1.073,1.263,1.263,0,0,1-.126.068l-.059.085-.034.047-.055.024a.209.209,0,0,1-.053.065.1.1,0,0,1-.054.02h-.023l-.086.1-.116.046-.05.034-.042-.007a.077.077,0,0,1-.054-.02.083.083,0,0,1-.028-.047l.007-.025-.021-.031a.8.8,0,0,1-.056-.168,1.01,1.01,0,0,1-.025-.2l.016-.055-.042-.12a.447.447,0,0,1,.107-.136.159.159,0,0,1,.108-.051c.027,0,.049.021.066.061.007.019.015.034.02.045h.019c.01-.019.017-.039.026-.061s.017-.059.028-.1v-.095a1.271,1.271,0,0,0,.025-.134.913.913,0,0,0,.008-.121v-.054l.011-.111-.039-.049-.068.01-.049.054-.057.035c-.031.025-.083.074-.158.148s-.141.135-.2.179l-.076.059-.05.023-.01.03a.688.688,0,0,1-.076.084C187.3,201.673,187.264,201.7,187.229,201.725Z" transform="translate(-147.925 -198.599)" fill="#186435"/>
      </g>
      <path id="Path_1461" data-name="Path 1461" d="M107.135,167.2c-.334-1.4-2.326-1.354-5.135-2.241s-3.275-2.9-2.325-4.393,3.516-2.9,3.42-4.717c-.07-1.366-2.648-2.389-3.94-2.818H97v16.778h9.439A3.6,3.6,0,0,0,107.135,167.2Z" fill="#b8c623"/>
      <path id="Path_1462" data-name="Path 1462" d="M119.954,153.03H106.926c3.13.879,3.739,2.347,3.739,3.486,0,1.418-1.514,3.078-1.514,3.977s.46,1.832,3.449,2.109,5.878.864,6.122,3.871a4.416,4.416,0,0,1-1.116,3.334h2.348Z" transform="translate(-5.604)" fill="#186435"/>
      <path id="Path_1463" data-name="Path 1463" d="M115.913,166.473c-.244-3.007-3.131-3.594-6.122-3.871s-3.449-1.211-3.449-2.109,1.514-2.559,1.514-3.977c0-1.139-.609-2.607-3.739-3.486h-2.166c1.292.429,3.87,1.453,3.94,2.818.1,1.818-2.473,3.221-3.42,4.717s-.476,3.506,2.325,4.393,4.8.838,5.135,2.241a3.6,3.6,0,0,1-.7,2.608H114.8A4.416,4.416,0,0,0,115.913,166.473Z" transform="translate(-2.796)" fill="#fff"/>
    </g>
  </g>
</svg>
