<svg xmlns="http://www.w3.org/2000/svg" width="54" height="54" viewBox="0 0 54 54">
    <defs>
        <style>
            .cls-3{fill:#ec1c24}
        </style>
    </defs>
    <g id="Group_3280" transform="translate(-6400 17)">
        <g id="Rectangle_636" fill="#fff" stroke="#fff" transform="translate(6400 -17)">
            <rect width="54" height="54" stroke="none" rx="10"/>
            <rect width="53" height="53" x=".5" y=".5" fill="none" rx="9.5"/>
        </g>
        <g id="mtb" transform="translate(6393 -28.6)">
            <g id="Group_3122" transform="translate(10 32.6)">
                <g id="Group_3121">
                    <g id="Group_3120">
                        <g id="Group_3119">
                            <path id="Rectangle_621" fill="#fff" d="M0 0H11.523V11.443H0z"/>
                            <g id="Group_3118">
                                <g id="Group_3112" transform="translate(.397 2.861)">
                                    <path id="Path_2500" d="M17.414 38.266a2.224 2.224 0 0 1-.079.477l-3.179-1.669-3.179 1.748-.477-.556 3.179-2.066 2.621 1.51" class="cls-3" transform="translate(-10.5 -36.2)"/>
                                </g>
                                <g id="Group_3113" transform="translate(4.371 5.006)">
                                    <path id="Path_2501" d="M17.487 40.013l-1.987-.795.159-.318 1.987.874z" class="cls-3" transform="translate(-15.5 -38.9)"/>
                                </g>
                                <g id="Group_3114" transform="translate(3.973 5.881)">
                                    <path id="Path_2502" d="M16.987 41.113L15 40.238l.159-.238 1.987.874z" class="cls-3" transform="translate(-15 -40)"/>
                                </g>
                                <g id="Group_3115" transform="translate(3.576 6.675)">
                                    <path id="Path_2503" d="M16.487 42.113l-1.987-.875.159-.238 1.987.874z" class="cls-3" transform="translate(-14.5 -41)"/>
                                </g>
                                <g id="Group_3116">
                                    <path id="Path_2504" fill="#231f20" d="M10 32.6v11.761h11.761V32.6zm11.364.318v6.516l-5.483 1.748-5.481-1.668v-6.6zM10.318 44.043v-4.132L15.8 41.58h.159l5.483-1.669v4.132z" transform="translate(-10 -32.6)"/>
                                </g>
                                <g id="Group_3117" transform="translate(5.96 2.781)">
                                    <path id="Path_2505" fill="#00974a" d="M19.646 36.1L17.5 37.213l.159.079 1.271-.636a5.748 5.748 0 0 0 .556.318l2.94 1.669.477-.556z" transform="translate(-17.5 -36.1)"/>
                                </g>
                            </g>
                        </g>
                    </g>
                </g>
            </g>
            <g id="Group_3123" transform="translate(25.258 32.6)">
                <path id="Path_2506" d="M29.2 44.143V32.7h3.417l2.066 7.867 2.066-7.867h3.417v11.443h-2.145v-9.059L35.8 44.143h-2.229l-2.225-9.059v9.059z" class="cls-3" transform="translate(-29.2 -32.621)"/>
                <path id="Path_2507" d="M48.238 44.123v-9.536H44.9V32.6h8.98v1.987h-3.338v9.536z" class="cls-3" transform="translate(-32.424 -32.6)"/>
                <path id="Path_2508" d="M58.1 32.7h4.53a12.977 12.977 0 0 1 1.987.079 3.136 3.136 0 0 1 1.192.477 3.388 3.388 0 0 1 .874.954A2.612 2.612 0 0 1 67 35.561a3.287 3.287 0 0 1-.4 1.51 2.768 2.768 0 0 1-1.109 1.029 3.271 3.271 0 0 1 1.589 1.033 2.568 2.568 0 0 1 .556 1.748 3.287 3.287 0 0 1-.4 1.51 3.519 3.519 0 0 1-.954 1.192 3.147 3.147 0 0 1-1.51.556 21.155 21.155 0 0 1-2.781.079h-3.812V32.7zm2.225 1.907v2.623H63.5a1.744 1.744 0 0 0 .954-.4 1.361 1.361 0 0 0 0-1.748 1.292 1.292 0 0 0-.874-.4h-3.255zm0 4.609v3.02h2.146a7.369 7.369 0 0 0 1.589-.079 1.351 1.351 0 0 0 .795-.477 1.267 1.267 0 0 0 .318-.954 1.6 1.6 0 0 0-.238-.874 1.157 1.157 0 0 0-.715-.477 9.415 9.415 0 0 0-2.066-.159z" class="cls-3" transform="translate(-35.134 -32.621)"/>
            </g>
        </g>
    </g>
</svg>
