<svg xmlns="http://www.w3.org/2000/svg" width="54" height="54" viewBox="0 0 54 54">
    <defs>
        <style>
            .cls-2{fill:#fff}.cls-3{fill:#231f20}.cls-4{fill:#50b748}.cls-6{fill:#007ac0}
        </style>
    </defs>
    <g id="Group_3271" transform="translate(-6676 92)">
        <g id="Rectangle_635" fill="#fff" stroke="#fff" transform="translate(6676 -92)">
            <rect width="54" height="54" stroke="none" rx="10"/>
            <rect width="53" height="53" x=".5" y=".5" fill="none" rx="9.5"/>
        </g>
        <g id="mycash" transform="translate(6673.2 -98.9)">
            <g id="Group_3162" transform="translate(8.8 20.9)">
                <g id="Group_3161">
                    <g id="Group_3160">
                        <g id="Group_3159">
                            <g id="Group_3151">
                                <g id="Group_3127" transform="translate(16.749)">
                                    <g id="Group_3124" transform="translate(.066 .463)">
                                        <path id="Path_2509" d="M54.181 24.217l-5.422-.992a3.077 3.077 0 0 0-2.909.793c-.661.463-10.182 14.811-10.182 14.811s-1.984 2.512.132 3.637c2.446 1.256 6.083 3.24 6.083 3.24s3.041 1.587 5.025-.926 10.777-16.2 10.777-16.2 2.182-2.711-.4-3.174c0 0 .6-.992.992-1.785.264-.463.6-.86-.727-1.19-1.917-.529-1.587-.463-2.38.529z" class="cls-2" transform="translate(-34.433 -21.771)"/>
                                        <path id="Path_2510" d="M43.8 46.394a6.2 6.2 0 0 1-2.314-.529c-.066 0-3.7-2.05-6.083-3.24a2.118 2.118 0 0 1-1.124-1.388 3.869 3.869 0 0 1 .86-2.777c1.587-2.38 9.19-13.885 10.182-14.811a2.845 2.845 0 0 1 2.38-.992 7.185 7.185 0 0 1 .86.066l5.223.926.793-1.058a1.161 1.161 0 0 0 .264-.331 1.157 1.157 0 0 1 .992-.661 11.4 11.4 0 0 1 1.388.264l.132.066c.661.2 1.058.4 1.19.727a.943.943 0 0 1-.132.86c0 .066-.066.066-.066.132a12.968 12.968 0 0 1-.793 1.388 1.5 1.5 0 0 1 .926.86c.4 1.058-.661 2.512-.793 2.711-.4.727-8.794 13.753-10.711 16.2a3.77 3.77 0 0 1-3.174 1.587zm3.967-23.075a2.171 2.171 0 0 0-1.785.727v.066h-.066c-.529.463-6.347 9.058-10.116 14.744s-.992 1.256-.727 2.182a1.18 1.18 0 0 0 .727.86c2.38 1.19 6.017 3.24 6.083 3.24a4.985 4.985 0 0 0 1.984.463 3.258 3.258 0 0 0 2.579-1.256c1.917-2.512 10.645-16.067 10.777-16.2.264-.331.926-1.455.727-2.05a1.069 1.069 0 0 0-.926-.529l-.529-.066.264-.463s.6-.992.992-1.719c0-.066.066-.066.066-.132a.5.5 0 0 0 .132-.264s-.066-.132-.727-.264l-.132-.132a4.843 4.843 0 0 0-1.19-.264c-.132 0-.132 0-.463.4-.066.066-.132.2-.264.331l-1.058 1.388-5.686-.992a2.347 2.347 0 0 0-.664-.07z" class="cls-3" transform="translate(-34.233 -21.6)"/>
                                    </g>
                                    <g id="Group_3125">
                                        <path id="Path_2511" d="M43.7 45.694a6.2 6.2 0 0 1-2.314-.529c-.066 0-3.7-2.05-6.083-3.24a2.118 2.118 0 0 1-1.124-1.388 3.869 3.869 0 0 1 .86-2.777c1.587-2.38 9.257-13.885 10.182-14.811a2.845 2.845 0 0 1 2.38-.992 7.185 7.185 0 0 1 .86.066l5.223.926.793-1.058c.132-.132.2-.264.264-.331a1.157 1.157 0 0 1 .992-.661c.264 0 .661.132 1.388.264h.132c.661.2 1.058.4 1.19.727a.943.943 0 0 1-.132.86c0 .066-.066.066-.066.132a12.968 12.968 0 0 1-.793 1.388 1.835 1.835 0 0 1 .992.86c.4 1.058-.661 2.512-.793 2.711-.463.727-8.86 13.753-10.777 16.265a3.855 3.855 0 0 1-3.174 1.588zm3.9-23.009a2.171 2.171 0 0 0-1.785.727v.066h-.066c-.529.463-6.347 9.058-10.116 14.744s-.993 1.257-.733 2.178a1.18 1.18 0 0 0 .727.86c2.38 1.19 6.017 3.24 6.083 3.24a4.985 4.985 0 0 0 1.984.463 3.075 3.075 0 0 0 2.579-1.256c1.917-2.513 10.645-16.067 10.777-16.2.264-.331.992-1.455.727-2.05a1.069 1.069 0 0 0-.926-.529l-.529-.066.264-.463s.6-.992.992-1.719c0-.066.066-.066.066-.132a.5.5 0 0 0 .132-.264s-.066-.132-.727-.331h-.132a4.843 4.843 0 0 0-1.19-.264c-.132 0-.132 0-.463.4-.066.066-.132.2-.264.331l-1.058 1.388-5.686-.992c.07-.065-.194-.131-.656-.131z" class="cls-4" transform="translate(-34.133 -20.9)"/>
                                    </g>
                                    <g id="Group_3126" transform="translate(8.682 3.504)">
                                        <path id="Path_2512" fill="#4fb74c" d="M53.371 36.184a2.558 2.558 0 0 1-.793-.2l-4.694-1.719a1.129 1.129 0 0 1-.6-.661c-.132-.529.331-1.124.331-1.19 0 0 2.512-3.57 3.438-5.091a1.84 1.84 0 0 1 2.38-.992s3.041.793 5.157 1.256c.661.066 1.058.2 1.19.529.2.463-.264.926-.264.992-.132.2-3.7 5.356-4.694 6.413a1.974 1.974 0 0 1-1.451.663zm-.6-9.786a1.971 1.971 0 0 0-1.587.992c-.926 1.521-3.438 5.091-3.438 5.157a1.632 1.632 0 0 0-.331.992c.066.264.2.4.529.6l4.761 1.719a1.282 1.282 0 0 0 .727.2 1.732 1.732 0 0 0 1.256-.6c.992-1.058 4.628-6.347 4.694-6.413 0 0 .4-.463.264-.793-.132-.264-.463-.4-1.058-.463-2.182-.463-5.157-1.256-5.157-1.256a3.722 3.722 0 0 0-.655-.133z" transform="translate(-47.264 -26.2)"/>
                                    </g>
                                </g>
                                <g id="Group_3128" transform="translate(16.662 8.858)">
                                    <path id="Path_2513" d="M57.736 38.6a4.036 4.036 0 0 1-4.1 4.1l-15.472-.132A4.191 4.191 0 0 1 34 38.4a4.036 4.036 0 0 1 4.1-4.1l15.472.132a4.148 4.148 0 0 1 4.164 4.168z" class="cls-3" transform="translate(-34 -34.297)"/>
                                </g>
                                <g id="Group_3129" transform="translate(16.596 8.594)">
                                    <path id="Path_2514" d="M57.637 38.2a4.036 4.036 0 0 1-4.1 4.1l-15.472-.132A4.235 4.235 0 0 1 33.9 38a4.036 4.036 0 0 1 4.1-4.1l15.472.132a4.191 4.191 0 0 1 4.165 4.168z" class="cls-2" transform="translate(-33.9 -33.897)"/>
                                </g>
                                <g id="Group_3134" transform="translate(17.521 9.521)">
                                    <g id="Group_3130" transform="translate(0 .132)">
                                        <path id="Path_2515" d="M40.391 41.98a4.186 4.186 0 0 1-1.653.264 3.194 3.194 0 0 1-3.438-3.306 3.244 3.244 0 0 1 3.5-3.438 3.806 3.806 0 0 1 1.587.331l-.264 1.19a2.969 2.969 0 0 0-1.256-.264 1.9 1.9 0 0 0-2.05 2.116 1.946 1.946 0 0 0 2.116 2.116 2.973 2.973 0 0 0 1.19-.2z" class="cls-3" transform="translate(-35.3 -35.5)"/>
                                    </g>
                                    <g id="Group_3131" transform="translate(5.686 2.05)">
                                        <path id="Path_2516" d="M48.065 42.037a5.366 5.366 0 0 0 .066 1.124h-1.322l-.066-.463a1.665 1.665 0 0 1-1.322.6 1.482 1.482 0 0 1-1.521-1.46c0-1.256 1.058-1.785 2.711-1.785v-.066c0-.264-.132-.6-.86-.6a2.8 2.8 0 0 0-1.322.331l-.264-.926a3.843 3.843 0 0 1 1.851-.4 1.814 1.814 0 0 1 2.05 2.05zm-1.455-1.124c-.793 0-1.388.2-1.388.727a.555.555 0 0 0 .6.6.732.732 0 0 0 .727-.529v-.264z" class="cls-3" transform="translate(-43.9 -38.4)"/>
                                    </g>
                                    <g id="Group_3132" transform="translate(10.645 2.116)">
                                        <path id="Path_2517" d="M51.731 41.938a3.51 3.51 0 0 0 1.256.4c.463 0 .6-.132.6-.4s-.132-.331-.727-.529c-.992-.331-1.322-.86-1.322-1.388 0-.86.727-1.521 1.917-1.521a3.318 3.318 0 0 1 1.322.264l-.264.992a1.972 1.972 0 0 0-.992-.264c-.331 0-.529.132-.529.4 0 .2.2.331.727.529.926.331 1.256.793 1.256 1.455 0 .86-.661 1.521-2.05 1.521a3.242 3.242 0 0 1-1.521-.331z" class="cls-3" transform="translate(-51.4 -38.5)"/>
                                    </g>
                                    <g id="Group_3133" transform="translate(15.075)">
                                        <path id="Path_2518" d="M58.166 35.3h1.455v2.711a1.055 1.055 0 0 1 .6-.463 1.333 1.333 0 0 1 .727-.2c.926 0 1.653.661 1.653 2.05v2.777h-1.46V39.6c0-.6-.2-1.058-.793-1.058a.8.8 0 0 0-.727.529.5.5 0 0 0-.066.331v2.777H58.1z" class="cls-3" transform="translate(-58.1 -35.3)"/>
                                    </g>
                                </g>
                                <g id="Group_3139" transform="translate(17.455 9.19)">
                                    <g id="Group_3135" transform="translate(0 .132)">
                                        <path id="Path_2519" d="M40.291 41.48a4.186 4.186 0 0 1-1.653.264 3.194 3.194 0 0 1-3.438-3.306A3.276 3.276 0 0 1 38.7 35a2.982 2.982 0 0 1 1.587.331l-.264 1.19a2.969 2.969 0 0 0-1.256-.264 1.9 1.9 0 0 0-2.05 2.116 1.946 1.946 0 0 0 2.116 2.116 2.973 2.973 0 0 0 1.19-.2z" class="cls-6" transform="translate(-35.2 -35)"/>
                                    </g>
                                    <g id="Group_3136" transform="translate(5.686 1.984)">
                                        <path id="Path_2520" d="M47.965 41.437a5.366 5.366 0 0 0 .066 1.124h-1.322l-.066-.463a1.665 1.665 0 0 1-1.322.6 1.482 1.482 0 0 1-1.521-1.46c0-1.256 1.058-1.785 2.711-1.785v-.066c0-.264-.132-.6-.86-.6a2.8 2.8 0 0 0-1.322.331l-.264-.926a3.843 3.843 0 0 1 1.851-.4 1.814 1.814 0 0 1 2.05 2.05zm-1.455-1.058c-.793 0-1.388.2-1.388.727a.555.555 0 0 0 .6.6.8.8 0 0 0 .727-.529v-.264z" class="cls-6" transform="translate(-43.8 -37.8)"/>
                                    </g>
                                    <g id="Group_3137" transform="translate(10.711 2.116)">
                                        <path id="Path_2521" d="M51.664 41.438a3.51 3.51 0 0 0 1.256.4c.463 0 .6-.132.6-.4s-.132-.331-.727-.529c-.992-.331-1.322-.86-1.322-1.388 0-.86.727-1.521 1.917-1.521a3.318 3.318 0 0 1 1.322.264l-.264.992a1.972 1.972 0 0 0-.992-.264c-.331 0-.529.132-.529.4 0 .2.2.331.793.529.86.331 1.256.793 1.256 1.455 0 .86-.661 1.521-2.05 1.521a3.242 3.242 0 0 1-1.521-.331z" class="cls-6" transform="translate(-51.4 -38)"/>
                                    </g>
                                    <g id="Group_3138" transform="translate(15.075)">
                                        <path id="Path_2522" d="M58.066 34.8h1.455v2.711a1.055 1.055 0 0 1 .6-.463 1.333 1.333 0 0 1 .727-.2c.926 0 1.653.661 1.653 2.05v2.777h-1.46V39.1c0-.6-.2-1.058-.793-1.058a.8.8 0 0 0-.727.529.5.5 0 0 0-.066.331v2.777H58z" class="cls-6" transform="translate(-58 -34.8)"/>
                                    </g>
                                </g>
                                <g id="Group_3150" transform="translate(0 6.413)">
                                    <g id="Group_3144">
                                        <g id="Group_3140">
                                            <path id="Path_2523" d="M9 32.651a1.984 1.984 0 0 1 2.05-1.851l.066 9.389H9z" class="cls-2" transform="translate(-8.868 -30.668)"/>
                                            <path id="Path_2524" d="M11.246 40.319h-2.38L8.8 32.584a2.1 2.1 0 0 1 .529-1.322 2.348 2.348 0 0 1 1.653-.661h.132zm-2.116-.331h1.785v-9.057a2.23 2.23 0 0 0-1.322.6 1.548 1.548 0 0 0-.463 1.124z" class="cls-2" transform="translate(-8.8 -30.6)"/>
                                        </g>
                                        <g id="Group_3141" transform="translate(2.446 .066)">
                                            <path id="Path_2525" d="M14.916 39.826v-7.075a1.919 1.919 0 0 0-.793-1.455 2.1 2.1 0 0 0-1.322-.4v.4l.066 7.075a1.919 1.919 0 0 0 .793 1.455 2.1 2.1 0 0 0 1.322.4l-.066-.4z" class="cls-2" transform="translate(-12.602 -30.768)"/>
                                            <path id="Path_2526" d="M15.012 40.353h-.2a2.075 2.075 0 0 1-1.388-.463 1.925 1.925 0 0 1-.86-1.521L12.5 30.7h.132a2.075 2.075 0 0 1 1.388.463 1.925 1.925 0 0 1 .86 1.521zm-2.182-9.389l.07 7.406a1.7 1.7 0 0 0 .727 1.322 1.621 1.621 0 0 0 1.058.4l-.066-7.405a1.608 1.608 0 0 0-.727-1.322 1.5 1.5 0 0 0-1.061-.401z" class="cls-2" transform="translate(-12.5 -30.7)"/>
                                        </g>
                                        <g id="Group_3142" transform="translate(7.537 .132)">
                                            <path id="Path_2527" d="M22.516 32.751A2 2 0 0 0 20.4 30.9l.066 9.389h2.05z" class="cls-2" transform="translate(-20.268 -30.834)"/>
                                            <path id="Path_2528" d="M22.646 40.453h-2.38L20.2 30.8h.132a2.189 2.189 0 0 1 2.248 1.984zm-2.116-.331h1.785l-.066-7.405A1.81 1.81 0 0 0 20.464 31z" class="cls-2" transform="translate(-20.2 -30.8)"/>
                                        </g>
                                        <g id="Group_3143" transform="translate(5.025 .066)">
                                            <path id="Path_2529" d="M16.666 39.86l-.066-7.075a1.7 1.7 0 0 1 .793-1.388 2.1 2.1 0 0 1 1.322-.4v.4l.066 7.075a1.7 1.7 0 0 1-.793 1.388 2.1 2.1 0 0 1-1.322.4v-.4z" class="cls-2" transform="translate(-16.468 -30.802)"/>
                                            <path id="Path_2530" d="M16.6 40.353h-.132l-.066-7.67a1.853 1.853 0 0 1 .793-1.521 2.493 2.493 0 0 1 1.388-.463h.2l.066 7.67a1.853 1.853 0 0 1-.793 1.521 2.906 2.906 0 0 1-1.456.463zm1.917-9.389a1.5 1.5 0 0 0-1.058.4 1.608 1.608 0 0 0-.727 1.322l.066 7.405a1.8 1.8 0 0 0 1.124-.4 1.608 1.608 0 0 0 .727-1.322z" class="cls-2" transform="translate(-16.4 -30.7)"/>
                                        </g>
                                    </g>
                                    <g id="Group_3149" transform="translate(.132 .132)">
                                        <g id="Group_3145">
                                            <path id="Path_2531" d="M9 32.651a1.984 1.984 0 0 1 2.05-1.851l.066 9.389H9z" class="cls-4" transform="translate(-9 -30.8)"/>
                                        </g>
                                        <g id="Group_3146" transform="translate(2.512 .066)">
                                            <path id="Path_2532" d="M14.916 39.826v-7.075a1.919 1.919 0 0 0-.793-1.455 2.1 2.1 0 0 0-1.322-.4v.4l.066 7.075a1.919 1.919 0 0 0 .793 1.455 2.1 2.1 0 0 0 1.322.4l-.066-.4z" class="cls-6" transform="translate(-12.8 -30.9)"/>
                                        </g>
                                        <g id="Group_3147" transform="translate(7.537 .066)">
                                            <path id="Path_2533" d="M22.516 32.751A2 2 0 0 0 20.4 30.9l.066 9.389h2.05z" class="cls-6" transform="translate(-20.4 -30.9)"/>
                                        </g>
                                        <g id="Group_3148" transform="translate(5.025 .132)">
                                            <path id="Path_2534" d="M16.666 39.86l-.066-7.075a1.7 1.7 0 0 1 .793-1.388 2.1 2.1 0 0 1 1.322-.4v.4l.066 7.075a1.7 1.7 0 0 1-.793 1.388 2.1 2.1 0 0 1-1.322.4v-.4z" class="cls-4" transform="translate(-16.6 -31)"/>
                                        </g>
                                    </g>
                                </g>
                            </g>
                            <g id="Group_3152" transform="translate(21.089 19.811)">
                                <path id="Path_2535" d="M44.533 52.871a.342.342 0 0 1-.463.2l-3.17-1.523a.284.284 0 0 1-.132-.463.342.342 0 0 1 .463-.2l3.169 1.523a.409.409 0 0 1 .132.463z" class="cls-6" transform="translate(-40.696 -50.863)"/>
                            </g>
                            <g id="Group_3155" transform="translate(9.719 6.48)">
                                <g id="Group_3153" transform="translate(4.496 .132)">
                                    <path id="Path_2536" d="M34.964 31h-2.513L30.6 34.372l1.124 2.05z" class="cls-2" transform="translate(-30.402 -30.934)"/>
                                    <path id="Path_2537" d="M31.622 36.652L30.3 34.4l1.984-3.5h2.777zm-.992-2.314l1.058 1.785 2.976-5.023h-2.182z" class="cls-2" transform="translate(-30.3 -30.9)"/>
                                </g>
                                <g id="Group_3154">
                                    <path id="Path_2538" d="M23.8 30.9l3.372 5.752v3.769h2.116l-.066-3.7L25.85 30.9z" class="cls-2" transform="translate(-23.602 -30.768)"/>
                                    <path id="Path_2539" d="M29.318 40.486H27v-3.835L23.5 30.7h2.38l3.438 5.885zm-2.118-.265h1.851v-3.5l-3.372-5.686H23.9l3.3 5.55z" class="cls-2" transform="translate(-23.5 -30.7)"/>
                                </g>
                            </g>
                            <g id="Group_3158" transform="translate(9.918 6.612)">
                                <g id="Group_3156" transform="translate(4.496 .066)">
                                    <path id="Path_2540" d="M34.964 31h-2.513L30.6 34.372l1.124 2.05z" class="cls-6" transform="translate(-30.6 -31)"/>
                                </g>
                                <g id="Group_3157">
                                    <path id="Path_2541" d="M23.8 30.9l3.372 5.752v3.769h2.116l-.066-3.7L25.85 30.9z" class="cls-4" transform="translate(-23.8 -30.9)"/>
                                </g>
                            </g>
                        </g>
                    </g>
                </g>
            </g>
            <g id="Group_3181" transform="translate(9.064 37.959)">
                <g id="Group_3180">
                    <g id="Group_3179">
                        <g id="Group_3178">
                            <g id="Group_3163" transform="translate(0 .529)">
                                <path id="Path_2542" d="M9.332 48.492a.331.331 0 0 0 .4 0c.066-.066.066-.132.132-.2v-.066a.243.243 0 0 1-.2.066.175.175 0 0 1-.2-.2.571.571 0 0 1 .2-.4H9.2l.066-.2h1.455l-.066.2h-.529c0 .132.066.132.2.132h.066l.066.132a1.022 1.022 0 0 0-.2.4c0 .132-.066.2-.066.264v.132l-.132.066c0-.066-.066-.132-.066-.2v-.2a.879.879 0 0 1 .2-.463c-.066 0-.2-.066-.2-.132a.344.344 0 0 1-.132-.264L9.6 48.1v.066c0 .066 0 .066.066.066s.132-.066.2-.132h.2v.331a.5.5 0 0 1-.529.463c-.066 0-.132 0-.132-.066l-.132-.132a2.338 2.338 0 0 1-.066-.4l.132-.132a.3.3 0 0 0-.007.328z" class="cls-6" transform="translate(-9.2 -47.5)"/>
                            </g>
                            <g id="Group_3164" transform="translate(.463)">
                                <path id="Path_2543" d="M11.09 47.493l-.264 1.124h-.2l.264-1.124h-.13l.066-.2h.132v-.066c0-.066-.066-.2-.132-.2-.066-.132-.132-.132-.2-.132a.719.719 0 0 0-.331.066c-.066 0-.132.066-.331.2l-.064-.13a1.383 1.383 0 0 1 .4-.264.839.839 0 0 1 .4-.066.505.505 0 0 1 .331.132.364.364 0 0 1 .2.331v.136h.132l-.066.2h-.2z" class="cls-6" transform="translate(-9.9 -46.7)"/>
                            </g>
                            <g id="Group_3165" transform="translate(1.719 .595)">
                                <path id="Path_2544" d="M12.858 47.8l-.264 1.124h-.132a.66.66 0 0 0-.264-.331.94.94 0 0 0-.4-.132v-.2c.066-.066.264-.132.463-.264.066-.066.264-.066.463-.2H11.8l.066-.2h1.256l-.066.2zm-.2.2c-.132.066-.331.132-.6.264a1.186 1.186 0 0 1 .463.331z" class="cls-6" transform="translate(-11.8 -47.6)"/>
                            </g>
                            <g id="Group_3166" transform="translate(2.777 .727)">
                                <path id="Path_2545" d="M14.59 47.866l-.264 1.124h-.2v-.2a.5.5 0 0 0-.126-.263c-.066-.132-.132-.132-.264-.132-.066 0-.066 0-.132.066s-.066.066-.066.132a.142.142 0 0 0 .132.132h.13v.2c-.066 0-.132.066-.2.066s-.132 0-.132-.066a.243.243 0 0 1-.066-.2.364.364 0 0 1 .2-.331.5.5 0 0 1 .264-.132.419.419 0 0 1 .4.331l.132-.6h-.926l.066-.2h1.256l-.066.2h-.138z" class="cls-6" transform="translate(-13.4 -47.8)"/>
                            </g>
                            <g id="Group_3167" transform="translate(3.769 .132)">
                                <path id="Path_2546" d="M15.429 47.561l-.2.926h.071a.6.6 0 0 0 .331-.066.337.337 0 0 0 .264-.331c0-.066-.066-.066-.132-.132a.512.512 0 0 0-.2.066l-.066-.2c.066 0 .066-.066.132-.066h.2c.132 0 .2.066.2.264v.132a.439.439 0 0 1-.264.331l-.4.2H14.9l.264-1.124h-.132l.066-.2h.793V47.3c0-.066 0-.132-.066-.132s-.066-.066-.132-.066a2.7 2.7 0 0 0-.463.132V47.1a1.055 1.055 0 0 1 .529-.2.4.4 0 0 1 .264.066.344.344 0 0 1 .132.264v.07h.132l-.066.2z" class="cls-6" transform="translate(-14.9 -46.9)"/>
                            </g>
                            <g id="Group_3168" transform="translate(4.893 .595)">
                                <path id="Path_2547" d="M17.063 47.8l-.263 1.122h-.2l.264-1.124h-.2l.066-.2h.529l-.066.2z" class="cls-6" transform="translate(-16.6 -47.6)"/>
                            </g>
                            <g id="Group_3169" transform="translate(5.356 .727)">
                                <path id="Path_2548" d="M17.7 49.122a.5.5 0 0 1-.331-.066.4.4 0 0 1-.066-.264v-.2a1.561 1.561 0 0 1 .4-.6h-.4l.066-.2h.661l-.066.2a.66.66 0 0 0-.331.264.571.571 0 0 0-.2.4v.2c0 .132.066.2.264.2a.2.2 0 0 0 .132-.066l-.066.264c0-.198-.063-.132-.063-.132z" class="cls-6" transform="translate(-17.3 -47.8)"/>
                            </g>
                            <g id="Group_3170" transform="translate(5.885 .661)">
                                <path id="Path_2549" d="M18.96 47.832a.5.5 0 0 1 .264.132.344.344 0 0 1 .132.264.364.364 0 0 1-.2.331c-.066.066-.132.066-.264.066h-.066l.066-.2h.066c.066 0 .066 0 .132-.066a.231.231 0 0 0 .066-.132c0-.066-.066-.132-.2-.132l-.264.86h-.2a.505.505 0 0 0-.132-.331.264.264 0 0 0-.264-.132v-.2a1.445 1.445 0 0 1 .331-.2l.331-.2h-.6l.066-.2h1.388l-.066.2zm-.26.268c-.066 0-.2.132-.331.264a.707.707 0 0 1 .2.331z" class="cls-6" transform="translate(-18.1 -47.7)"/>
                            </g>
                            <g id="Group_3171" transform="translate(7.405 .529)">
                                <path id="Path_2550" d="M21.656 47.764l-.264 1.124h-.2l.132-.6v-.066c0-.066 0-.066-.066-.066s-.132.066-.2.132a1.956 1.956 0 0 1-.2.264.5.5 0 0 1-.264.132.243.243 0 0 1-.2-.066l.066-.264.132.132c.066 0 .066-.066.132-.132.066-.132.132-.2.132-.331a.364.364 0 0 0-.2-.331h-.132l.066-.2h1.124l-.066.2zm-.2 0h-.4c.066.066.066.132.066.264a.2.2 0 0 1 .132-.066c.066 0 .066 0 .132.066z" class="cls-6" transform="translate(-20.4 -47.5)"/>
                            </g>
                            <g id="Group_3172" transform="translate(8.662 .595)">
                                <path id="Path_2551" d="M23.027 49.121a1.442 1.442 0 0 0-.331-.264.94.94 0 0 0-.4-.132v-.265h.2a.4.4 0 0 0 .264-.066.913.913 0 0 0 .264-.2v-.066c0-.066 0-.066-.066-.132-.066 0-.066-.066-.132-.066-.132 0-.2 0-.2.132 0 .066 0 .066.132.066l-.132.2c-.066 0-.066 0-.132-.066-.066 0-.066-.066-.066-.132v-.066c0-.132.066-.2.2-.264 0 .066.132.066.2.066a.4.4 0 0 1 .264.066.344.344 0 0 1 .132.264v.066a.791.791 0 0 1-.463.463 1.753 1.753 0 0 1 .4.331zm-.661-1.321l.066-.2h1.058l-.066.264z" class="cls-6" transform="translate(-22.3 -47.6)"/>
                            </g>
                            <g id="Group_3173" transform="translate(9.653 .595)">
                                <path id="Path_2552" d="M24 48.592a.331.331 0 0 0 .4 0c.066-.066.066-.132.132-.2v-.066a.243.243 0 0 1-.2.066.175.175 0 0 1-.2-.2.571.571 0 0 1 .2-.4h-.463l.066-.2h1.455l-.132.264h-.529c0 .132.066.132.2.132h.066l.066.2a1.022 1.022 0 0 0-.2.4c0 .132-.066.2-.066.264v.132l-.132.066c0-.066-.066-.132-.066-.2v-.2a.879.879 0 0 1 .2-.463c-.066 0-.132-.066-.2-.132a.344.344 0 0 1-.132-.264.66.66 0 0 0-.264.331v.078a.065.065 0 0 0 .066.066c.066 0 .132-.066.2-.132h.2v.331a.5.5 0 0 1-.529.463c-.066 0-.132 0-.132-.066a.231.231 0 0 0-.132-.066 2.338 2.338 0 0 1-.066-.4l.132-.132a.719.719 0 0 0 .06.328z" class="cls-6" transform="translate(-23.8 -47.6)"/>
                            </g>
                            <g id="Group_3174" transform="translate(11.637 .793)">
                                <path id="Path_2553" d="M27.527 47.966a.5.5 0 0 1 .264.132.344.344 0 0 1 .132.264.505.505 0 0 1-.132.331c-.066.066-.132.066-.264.066h-.066l.066-.2h.066c.066 0 .066 0 .132-.066 0-.066.066-.066.066-.132s-.066-.132-.2-.132l-.2.926h-.2a.505.505 0 0 0-.132-.331.264.264 0 0 0-.264-.132v-.2a1.445 1.445 0 0 1 .331-.2l.331-.2h-.6l.066-.2h1.388l-.264.066zm-.264.264c-.066 0-.2.132-.331.264a.707.707 0 0 1 .2.331z" class="cls-6" transform="translate(-26.8 -47.9)"/>
                            </g>
                            <g id="Group_3175" transform="translate(12.761 .727)">
                                <path id="Path_2554" d="M29.624 47.932l-.264 1.124h-.2a1.161 1.161 0 0 0-.264-.331.94.94 0 0 0-.4-.132v-.2a6.447 6.447 0 0 1 .926-.4H28.5l.066-.2h1.19v.132zm-.793 1.19c-.066-.066-.066-.132-.2-.2l.132-.2.2.2zm.529-.926a1.329 1.329 0 0 0-.529.264.972.972 0 0 1 .4.331z" class="cls-6" transform="translate(-28.5 -47.8)"/>
                            </g>
                            <g id="Group_3176" transform="translate(13.62 .661)">
                                <path id="Path_2555" d="M30.064 48.56c-.066 0-.066 0-.132-.066-.066 0-.066-.066-.132-.066v-.264l.132.132c.066 0 .066.066.132.066a.231.231 0 0 0 .136-.062.065.065 0 0 0-.066-.066.2.2 0 0 0-.134.066v-.2a.243.243 0 0 1 .2-.066c.132 0 .132.066.132.2v.066c0 .066-.066.132-.132.2 0 .06-.069.06-.136.06zM30 47.9l.066-.2h.6l-.066.2z" class="cls-6" transform="translate(-29.8 -47.7)"/>
                            </g>
                            <g id="Group_3177" transform="translate(14.215 .793)">
                                <path id="Path_2556" d="M31.89 47.966l-.264 1.124h-.2v-.2a.344.344 0 0 0-.132-.264c-.066-.132-.132-.132-.264-.132-.066 0-.066 0-.132.066s-.066.066-.066.132a.142.142 0 0 0 .132.132h.136v.2c-.066 0-.132.066-.2.066s-.132 0-.132-.066a.243.243 0 0 1-.066-.2.364.364 0 0 1 .2-.331.5.5 0 0 1 .264-.132.419.419 0 0 1 .4.331l.132-.6h-.926l.066-.2h1.256l-.066.066z" class="cls-6" transform="translate(-30.7 -47.9)"/>
                            </g>
                        </g>
                    </g>
                </g>
            </g>
        </g>
    </g>
</svg>
