<svg xmlns="http://www.w3.org/2000/svg" width="54" height="54" viewBox="0 0 54 54">
    <defs>
        <style>
            .cls-2{fill:#ec1c24}.cls-3{fill:#231f20}.cls-4{fill:none}.cls-5{fill:#ea2227}.cls-6{fill:#f69220}
        </style>
    </defs>
    <g id="Group_3273" transform="translate(-6184 96)">
        <g id="Rectangle_628" fill="#fff" stroke="#fff" transform="translate(6184 -96)">
            <rect width="54" height="54" stroke="none" rx="10"/>
            <rect width="53" height="53" x=".5" y=".5" class="cls-4" rx="9.5"/>
        </g>
        <g id="Nagad-Vertical-Logo.wine" transform="translate(6198 -88)">
            <path id="path20" d="M8.9 79.2H.268a.267.267 0 0 0-.268.268v.655a.267.267 0 0 0 .268.268h6.4v3.542a4.875 4.875 0 0 0-.625-.744 3.366 3.366 0 0 0-2.411-1.161 2.068 2.068 0 0 0-1.7.952 2.985 2.985 0 0 0-.6 1.637 3.557 3.557 0 0 0 .506 1.935 2.423 2.423 0 0 0 2.113 1.042 1.705 1.705 0 0 0 1.816-1.548 1.382 1.382 0 0 0-.744-1.22l-.476-.268v.714a.872.872 0 0 1-.774.506 1.248 1.248 0 0 1-.833-.327.805.805 0 0 1-.179-.566 1.187 1.187 0 0 1 .268-.714.9.9 0 0 1 .744-.357 2.47 2.47 0 0 1 2.173 1.25 3.769 3.769 0 0 1 .714 2.143l.03 1.786 1.28.774a.223.223 0 0 0 .149.03.267.267 0 0 0 .268-.268V80.42H8.9a.267.267 0 0 0 .268-.268V79.5a.275.275 0 0 0-.268-.3" class="cls-2" transform="translate(0 -55.626)"/>
            <path id="path22" d="M47.6 78.772H36.672a.267.267 0 0 0-.268.268v1.22a4.3 4.3 0 0 0-2.857-1.667 2.975 2.975 0 0 0-2.054.625 2.044 2.044 0 0 0-.893 1.607c0 1.9 2.143 1.9 2.679 1.607a.638.638 0 0 1 .357-.119.567.567 0 0 1 .6.625c0 .446-.625.833-1.4.833a.985.985 0 0 1-.863-.357l-.327-.506-.238.566a1.267 1.267 0 0 0-.119.506 1.7 1.7 0 0 0 .625 1.22 2.1 2.1 0 0 0 1.369.506 2.321 2.321 0 0 0 1.935-.893 2.722 2.722 0 0 0 .536-1.667 1.9 1.9 0 0 0-.417-1.131 1.508 1.508 0 0 0-1.25-.744 2.342 2.342 0 0 0-.6.119 1.51 1.51 0 0 1-.268.06.4.4 0 0 1-.3-.149.606.606 0 0 1-.179-.417 1.089 1.089 0 0 1 1.191-.952h.03a2.241 2.241 0 0 1 1.518.714 4.8 4.8 0 0 1 .923 1.161v6.786l1.28.744a.223.223 0 0 0 .149.03.267.267 0 0 0 .269-.267v-9.108h1.935v5.893l1.548.625c.03 0 .06.03.089.03a.262.262 0 0 0 .268-.238v-.06a4.708 4.708 0 0 1 2.292-3.661v.327c0 .238.03.893.03 1.25 0 .208.03.357.03.476a9.259 9.259 0 0 0 .327 2.47c.417 1.458 1.131 1.786 1.667 1.816h.03a1.086 1.086 0 0 0 .714-.238.776.776 0 0 0 .208-.566 1.231 1.231 0 0 0-.119-.625L47 87.285l-.238.06a1.769 1.769 0 0 1-.387.06h-.06c-.06 0-.089 0-.119-.03-.089-.03-.238-.179-.357-.655a4.9 4.9 0 0 1-.119-1.072c0-1.9.387-3.334 1.012-3.661l.03-.03a.3.3 0 0 0 .149-.238c0-.06 0-.089-.03-.119v-.09a2.665 2.665 0 0 0-1.781-1.25l-.06-.03h-.06a5.962 5.962 0 0 0-2.5 1.429c-.268.208-.506.446-.744.655v-2.351H47.6a.267.267 0 0 0 .268-.268v-.655a.267.267 0 0 0-.268-.268" class="cls-2" transform="translate(-21.492 -55.198)"/>
            <path id="path24" d="M.863 120.019v.536l.446-.179.149.119v.149a.731.731 0 0 1-.149.446.5.5 0 0 1-.417.179.734.734 0 0 1-.506-.238 1.623 1.623 0 0 1-.3-.506l.119-.089c.149.446.387.655.685.655a.29.29 0 0 0 .268-.119.382.382 0 0 0 .119-.3.268.268 0 0 0-.03-.149l-.417.179-.149-.119v-.566H0v-.117h1.578v.149H.863z" class="cls-3" transform="translate(0 -84.212)"/>
            <path id="polygon26" d="M11.008 122.369v-1.25H10.8V121h.566v.119h-.208v1.25z" class="cls-3" transform="translate(-9.282 -85.312)"/>
            <path id="path28" d="M7.793 120.019v.089a.572.572 0 0 1 .357.119.362.362 0 0 1 .179.3.271.271 0 0 1-.119.238.364.364 0 0 1-.268.089h-.03v-.154H8a.158.158 0 0 0 .179-.179c0-.149-.119-.208-.387-.238v.982h-.148a.813.813 0 0 0-.268-.357.576.576 0 0 0-.387-.179l-.06-.179c.089-.06.327-.208.714-.417v-.089H6.9v-.144h1.578v.149h-.685zm-.179.268a.747.747 0 0 0-.238.149l-.208.179c.089.03.149.119.238.179a2.235 2.235 0 0 1 .208.238z" class="cls-3" transform="translate(-4.846 -84.212)"/>
            <path id="path30" d="M15.548 118.187a1.342 1.342 0 0 0-.685-.268.505.505 0 0 0-.387.119.425.425 0 0 0-.149.387h.179v.149h-.179v1.22h-.149v-1.22H14v-.149h.179a.555.555 0 0 1 .208-.476.688.688 0 0 1 .506-.149.917.917 0 0 1 .387.089 2.607 2.607 0 0 1 .357.208z" class="cls-3" transform="translate(-9.833 -82.737)"/>
            <path id="path32" d="M16.58 120.019v1.22h-.149a1.291 1.291 0 0 0-.417-.357 1.13 1.13 0 0 0-.536-.179l-.06-.179a2.274 2.274 0 0 1 .476-.238c.06-.03.238-.089.536-.208v-.06H15.3v-.118h1.429v.149h-.149zm-.149.268a5.725 5.725 0 0 0-.744.327 2.016 2.016 0 0 1 .744.417z" class="cls-3" transform="translate(-10.746 -84.212)"/>
            <path id="path34" d="M20 119.9h1.548v.149H20zm.863 1.339a.671.671 0 0 1-.476-.238 1.51 1.51 0 0 1-.268-.476l.089-.089a1.577 1.577 0 0 0 .238.446.558.558 0 0 0 .417.238.382.382 0 0 0 .3-.119.5.5 0 0 0 .089-.3.5.5 0 0 1-.327.119.48.48 0 0 1-.268-.089.29.29 0 0 1-.119-.268.307.307 0 0 1 .327-.327.319.319 0 0 1 .179.06c.06.03.06.089.06.149a.164.164 0 0 1-.089.149l-.119-.089c.03-.03.06-.06.06-.089a.079.079 0 0 0-.089-.089.155.155 0 0 0-.119.06.179.179 0 0 0 0 .268.319.319 0 0 0 .179.06.478.478 0 0 0 .327-.149l.149.149a.731.731 0 0 1-.149.446.442.442 0 0 1-.387.179" class="cls-3" transform="translate(-14.047 -84.212)"/>
            <path id="polygon36" d="M30.908 122.369v-1.25H30.7V121h.536v.119h-.179v1.25z" class="cls-3" transform="translate(-23.259 -85.312)"/>
            <path id="path38" d="M27.355 121.358a.517.517 0 0 1-.357-.089.844.844 0 0 1-.208-.506.721.721 0 0 1 .119-.387c.06-.089.149-.179.268-.327H26.7v-.149h.774v.149a1.4 1.4 0 0 0-.357.268.6.6 0 0 0-.149.417c0 .327.149.506.417.506a.226.226 0 0 0 .119-.06v.149c-.06 0-.089.03-.149.03" class="cls-3" transform="translate(-18.753 -84.212)"/>
            <path id="path40" d="M30.082 120.019v1.22h-.149v-.8c0-.03-.03-.06-.06-.149a.464.464 0 0 0-.387-.238.257.257 0 0 0-.179.089l-.089.089a.377.377 0 0 1 .179-.03.43.43 0 0 1 .208.06.18.18 0 0 1 .089.179.364.364 0 0 1-.119.268.463.463 0 0 1-.238.179l-.089-.119a.623.623 0 0 0 .179-.119c.06-.06.119-.119.119-.179 0-.03-.03-.06-.119-.089a.378.378 0 0 0-.179-.03h-.06l-.088-.15.179-.179a.338.338 0 0 1 .238-.089.525.525 0 0 1 .446.268v-.3h.327v.149h-.208z" class="cls-3" transform="translate(-20.438 -84.212)"/>
            <path id="path42" d="M34.05 120.019v1.22h-.15a1.291 1.291 0 0 0-.417-.357 1.13 1.13 0 0 0-.536-.179l-.06-.179a5.2 5.2 0 0 1 .982-.446v-.06H32.8v-.118h1.4v.149h-.15zm-.179.268a3.972 3.972 0 0 0-.714.327 2.148 2.148 0 0 1 .714.417zm-.417 1.012a.824.824 0 0 0-.238-.149l.06-.119a.7.7 0 0 1 .268.179z" class="cls-3" transform="translate(-23.037 -84.212)"/>
            <path id="path44" d="M40.878 118.187a1.342 1.342 0 0 0-.685-.268.505.505 0 0 0-.387.119.425.425 0 0 0-.149.387h.179v.149h-.179v1.22h-.149v-1.22H39.3v-.149h.179a.555.555 0 0 1 .208-.476.688.688 0 0 1 .506-.149.917.917 0 0 1 .387.089 2.607 2.607 0 0 1 .357.208z" class="cls-3" transform="translate(-27.602 -82.737)"/>
            <path id="path46" d="M41.593 120.019v.536l.446-.179.149.119v.149a.731.731 0 0 1-.149.446.5.5 0 0 1-.417.179.734.734 0 0 1-.506-.238 1.623 1.623 0 0 1-.3-.506l.119-.089c.149.446.387.655.685.655a.29.29 0 0 0 .268-.119.382.382 0 0 0 .119-.3.268.268 0 0 0-.03-.149l-.417.179-.149-.119v-.566H40.7v-.117h1.578v.149h-.685z" class="cls-3" transform="translate(-28.586 -84.212)"/>
            <path id="path48" d="M47.448 118.187a1.342 1.342 0 0 0-.685-.268.505.505 0 0 0-.387.119.425.425 0 0 0-.149.387h.179v.149h-.179v1.22h-.149v-1.22H45.9v-.149h.179a.555.555 0 0 1 .208-.476.688.688 0 0 1 .506-.149.917.917 0 0 1 .387.089 2.607 2.607 0 0 1 .357.208z" class="cls-3" transform="translate(-32.238 -82.737)"/>
            <path id="path50" d="M48.342 120.019a.359.359 0 0 0 .357.238h.06l.119.149a1.173 1.173 0 0 0-.149.417.659.659 0 0 0 .089.417l-.119.06a.6.6 0 0 1-.119-.387.58.58 0 0 1 .03-.238c0-.03.03-.119.06-.268a.624.624 0 0 1-.327-.119.55.55 0 0 1-.208-.268.519.519 0 0 0-.268.387c0 .089.03.149.119.149a.179.179 0 0 0 .119-.03c.03-.03.089-.06.089-.089h.149a.594.594 0 0 1 .06.268.434.434 0 0 1-.655.417c-.03 0-.089-.06-.179-.089a3.9 3.9 0 0 1-.208-.387l.089-.089a1.134 1.134 0 0 0 .238.387l.119.06a.179.179 0 0 0 .119.03.561.561 0 0 0 .238-.06.27.27 0 0 0 .089-.208c0-.06 0-.089-.03-.119a.307.307 0 0 1-.238.119.18.18 0 0 1-.179-.089.251.251 0 0 1-.06-.208.64.64 0 0 1 .179-.387H47.3v-.182H49v.149h-.655z" class="cls-3" transform="translate(-33.221 -84.212)"/>
            <path id="path52" d="M53.1 118.825v1.075h.089a.814.814 0 0 0 .417-.119c.149-.089.238-.179.238-.327s-.06-.208-.208-.208a.518.518 0 0 0-.208.089l-.06-.149a.6.6 0 0 1 .327-.089.271.271 0 0 1 .238.119.321.321 0 0 1 .06.238.389.389 0 0 1-.208.357.923.923 0 0 1-.387.179 1.983 1.983 0 0 1-.476.03v-1.22H52.8v-.089h.952v-.03a.271.271 0 0 0-.119-.238.338.338 0 0 0-.238-.089 1.388 1.388 0 0 0-.476.149l-.06-.119a.96.96 0 0 1 .536-.179.493.493 0 0 1 .357.149.478.478 0 0 1 .149.327h.238v.149z" class="cls-3" transform="translate(-37.084 -83.018)"/>
            <path id="polygon54" d="M63.008 122.369v-1.25H62.8V121h.536v.119h-.179v1.25z" class="cls-3" transform="translate(-45.804 -85.312)"/>
            <path id="path56" d="M60.258 120.019v1.22h-.148V121c0-.3-.06-.446-.208-.446-.06 0-.089.03-.149.089-.03.06-.06.089-.06.149h-.179a.423.423 0 0 0-.06-.179.169.169 0 0 0-.3 0 .423.423 0 0 0-.06.179c0 .149.089.238.268.238h.06l-.06.149h-.06a.382.382 0 0 1-.3-.119.529.529 0 0 1-.119-.3.382.382 0 0 1 .119-.3.345.345 0 0 1 .3-.119c.119 0 .208.06.3.208.089-.149.179-.208.3-.208.089 0 .149.06.208.208v-.566H58.8v-.083h1.637v.149h-.179z" class="cls-3" transform="translate(-41.298 -84.212)"/>
            <path id="path58" d="M66.689 120.7a.869.869 0 0 0 .06.268c.06.089.119.149.208.149a.179.179 0 0 0 .119-.03l.06.149a.324.324 0 0 1-.149.03c-.268 0-.387-.208-.387-.625a1.068 1.068 0 0 1 .446-.744h.238v.149a.608.608 0 0 0-.387.238.52.52 0 0 0-.208.417" class="cls-3" transform="translate(-46.777 -84.212)"/>
            <path id="path60" d="M69.858 120.019v1.22h-.148V121c0-.3-.06-.446-.208-.446-.06 0-.089.03-.149.089-.03.06-.06.089-.06.149h-.179a.423.423 0 0 0-.06-.179.169.169 0 0 0-.3 0 .423.423 0 0 0-.06.179c0 .149.089.238.268.238h.06l-.06.149h-.06a.382.382 0 0 1-.3-.119.529.529 0 0 1-.119-.3.382.382 0 0 1 .119-.3.345.345 0 0 1 .3-.119c.119 0 .208.06.3.208.089-.149.179-.208.3-.208.089 0 .149.06.208.208v-.566H68.4v-.083h1.637v.149h-.179z" class="cls-3" transform="translate(-48.041 -84.212)"/>
            <path id="path62" d="M75.02 120.019v1.22h-.149v-.089a.559.559 0 0 0-.208-.387.713.713 0 0 0-.387-.208.209.209 0 1 0 .119.387l.06.149a.441.441 0 0 1-.208.03.271.271 0 0 1-.238-.119.338.338 0 0 1-.089-.238.48.48 0 0 1 .089-.268.377.377 0 0 1 .268-.119.777.777 0 0 1 .625.417v-.8H73.8v-.094h1.4v.149h-.18z" class="cls-3" transform="translate(-51.834 -84.212)"/>
            <path id="path64" d="M78.855 121.358a.517.517 0 0 1-.357-.089.844.844 0 0 1-.208-.506.721.721 0 0 1 .119-.387c.06-.089.149-.179.268-.327H78.2v-.149h.774v.149a1.4 1.4 0 0 0-.357.268.6.6 0 0 0-.149.417c0 .327.149.506.417.506a.226.226 0 0 0 .119-.06v.149c-.06 0-.089.03-.149.03" class="cls-3" transform="translate(-54.924 -84.212)"/>
            <path id="path66" d="M80.3 120.019v.536a3.2 3.2 0 0 1 .625-.327l.149.208a1.227 1.227 0 0 0-.119.446 2.2 2.2 0 0 0 .06.357l-.119.06a1.081 1.081 0 0 1-.089-.327 2.934 2.934 0 0 1 .06-.506 2.053 2.053 0 0 0-.625.417l-.119-.119v-.714H80v-.15h1.191v.149H80.3z" class="cls-3" transform="translate(-56.188 -84.212)"/>
            <path id="path68" d="M85.22 120.019v1.22h-.149v-.089a.559.559 0 0 0-.208-.387.713.713 0 0 0-.387-.208.208.208 0 1 0 0 .417.225.225 0 0 0 .119-.03l.06.149a.441.441 0 0 1-.208.03.271.271 0 0 1-.238-.119.338.338 0 0 1-.089-.238.48.48 0 0 1 .089-.268.377.377 0 0 1 .268-.119.777.777 0 0 1 .625.417v-.8H84v-.094h1.4v.149h-.18z" class="cls-3" transform="translate(-58.998 -84.212)"/>
            <path id="rect70" d="M0 0h26.372v37.117H0z" class="cls-4"/>
            <g id="g134" transform="translate(2.173 .03)">
                <path id="path72" d="M33.061 18.489a7.8 7.8 0 0 1-.03.833 9.673 9.673 0 0 1-.863 3.334 9.267 9.267 0 0 1-.655 1.191 9.989 9.989 0 0 1-8.483 4.673 10.376 10.376 0 0 1-4.286-.952A10.043 10.043 0 0 1 18.566 9.5a8.382 8.382 0 0 0-.714 1.072c-.03.03-.03.06-.06.089-.119.119-.268.208-.387.327l-.446.446-.089.089a.411.411 0 0 0-.089.119.789.789 0 0 0-.149.179 4.376 4.376 0 0 0-.3.387 8.243 8.243 0 0 0-1.042 1.786l-.089.179c-.03.089-.06.149-.089.238 0 .03-.03.089-.03.119-.03.119-.089.238-.119.357a.7.7 0 0 0-.06.238c0 .03-.03.089-.03.119-.03.089-.03.149-.06.238a5.944 5.944 0 0 0-.149.774c0 .06-.03.119-.03.208a.268.268 0 0 1-.03.149.655.655 0 0 1-.03.238v.655a8.737 8.737 0 0 0 13.87 7.114 9.146 9.146 0 0 0 2.56-2.887c.089-.149.149-.3.238-.446a8.423 8.423 0 0 0 .833-3.453v-.3a7.526 7.526 0 0 0-.03-.833.029.029 0 0 1 .03.03 4.578 4.578 0 0 1 .387.357 4.088 4.088 0 0 1 .387-.6 7.825 7.825 0 0 1 .179 1.161 7.26 7.26 0 0 1 .03.833" class="cls-5" transform="translate(-13 -7.03)"/>
                <path id="path74" d="M35.8 20.076v.3a8.211 8.211 0 0 1-.833 3.453 3.253 3.253 0 0 1-.238.446 8.836 8.836 0 0 1-2.56 2.887 8.7 8.7 0 0 1-5.12 1.667 8.573 8.573 0 0 1-5.536-1.994 8.74 8.74 0 0 1-3.213-6.789v-.655a.655.655 0 0 1 .03-.238.268.268 0 0 1 .03-.153c0-.06.03-.119.03-.208a7.086 7.086 0 0 1 .149-.774c.03-.089.03-.149.06-.238 0-.03.03-.089.03-.119.03-.089.03-.149.06-.238.03-.119.089-.238.119-.357 0-.03.03-.089.03-.119.03-.089.06-.149.089-.238l.089-.179a8.243 8.243 0 0 1 1.042-1.786 4.374 4.374 0 0 0 .3-.387c.06-.06.089-.119.149-.179a.411.411 0 0 0 .089-.119l.089-.089.446-.446a3.771 3.771 0 0 1 .387-.327c-.03.03-.03.06-.06.089s-.03.06-.06.119a10.19 10.19 0 0 0-.952 3.542c-.03.357-.06.714-.06 1.072 0 4.584 2.679 8.3 6.012 8.3h.327a5.463 5.463 0 0 0 1.4-.179 5.3 5.3 0 0 0 3.9-5.12v-.149a5.252 5.252 0 0 0-1.637-3.691 11.088 11.088 0 0 1 1.994.268 8.887 8.887 0 0 1 3.3 1.667c.03 0 .03.03.06.03.03.357.06.625.06.923" class="cls-6" transform="translate(-16.722 -9.628)"/>
                <path id="path76" d="M35.691 20.076v.3a8.474 8.474 0 0 1-.833 3.482 3.253 3.253 0 0 1-.238.446 8.988 8.988 0 0 1-2.59 2.917 8.775 8.775 0 0 1-10.715-.327 8.808 8.808 0 0 1 .03-13.632l.089-.06c-.03.03-.03.06-.06.089s-.03.06-.06.089A8.716 8.716 0 0 0 31.97 27.16a8.836 8.836 0 0 0 2.56-2.887c.089-.149.149-.3.238-.446a8.605 8.605 0 0 0 .833-3.453v-.3a7.8 7.8 0 0 0-.03-.833v-.03c.03 0 .03.03.06.03l.03.03a7.252 7.252 0 0 1 .03.8" class="cls-6" transform="translate(-16.582 -9.628)"/>
                <path id="path78" d="M44.407 6.858S37.263 5.519 33.9 11.739a8.524 8.524 0 0 1 5.715-6.251L38.6 3.584a7.327 7.327 0 0 1 5.655-1.369z" class="cls-5" transform="translate(-27.679 -1.858)"/>
                <path id="path80" d="M39.4 17.439s2.857-3.721 9.376-2.768l-.089-2.171a7.888 7.888 0 0 1 4.941 1.816l-2.709 4.108a7.942 7.942 0 0 0-5.745-2.232 12.506 12.506 0 0 0-5.774 1.25" class="cls-6" transform="translate(-31.542 -9.135)"/>
                <path id="path82" d="M28.243 12.9s-3.274-7.116 4.316-11.7l1.816 3.334a8.555 8.555 0 0 0-2.53 1.548 11.186 11.186 0 0 0-3.6 6.816" class="cls-6" transform="translate(-23.212 -1.2)"/>
                <g id="g132" transform="translate(5.626 8.715)">
                    <path id="path84" d="M42.993 31.528s-.625.149-.6-.179c0-.119.06-.149.119-.119 0-.06-.119-.208.149-.3a2.922 2.922 0 0 0 .208-.3c.03-.089.089-.179.327-.149a1.171 1.171 0 0 1 .536.357c.149 0 .3.03.238.06s-.089.089-.06.089c0 0 .089.06-.149.06 0 .06.06.06.089.089a.041.041 0 0 1 0 .06s.03.119-.089.089c-.119-.06-.119-.089-.179-.089-.03 0-.119.03-.119.06s.149.119-.03.149c-.03.03.06.06 0 .089a2.94 2.94 0 0 1-.446.268c-.119 0-.149-.03-.149-.089s.06-.089.149-.089c.03-.03.03-.06 0-.06" class="cls-2" transform="translate(-39.272 -30.48)"/>
                    <path id="path86" d="M43.791 34.925c-.06 0-.238-.119-.149-.179a6.3 6.3 0 0 1 .6-.357c.089-.03.208.089.089.179a5.467 5.467 0 0 1-.536.357" class="cls-2" transform="translate(-40.13 -33.222)"/>
                    <path id="path88" d="M46.4 34.206c0-.06.06-.327.06-.387s.208-.06.149.149c-.03.238-.208.3-.208.238" class="cls-2" transform="translate(-42.084 -32.801)"/>
                    <path id="path90" d="M46.387 33.538a8.325 8.325 0 0 1 1.22 0 1.62 1.62 0 0 1 .387 1.191c-.089.536-.268.685-.982.744a1.954 1.954 0 0 0-.119-.744c-.06-.119-.327-.387-.446-.387 0 .119-.03.506-.03.506s-.357.03-.417-.06v-.566a4.008 4.008 0 0 0 .357-.357c.06.03.06.208.476.179.03-.06-.446 0-.446-.506" class="cls-2" transform="translate(-41.803 -32.609)"/>
                    <path id="path92" d="M44.8 35.3s-.357.3-.446.357c-.03.089-.089.417.387.417.03-.208.06-.774.06-.774" class="cls-2" transform="translate(-40.633 -33.865)"/>
                    <path id="path94" d="M42.565 36.154c-.119 0-.208-.03-.179-.119 0-.089.179-.179.268-.149s.268.06.268.446a.907.907 0 0 0 .566.268c.268.03.446-.03.446.06v.54s-.327 0-1.161-.6a.455.455 0 0 1-.119-.3c0-.06-.06-.149-.089-.149" class="cls-2" transform="translate(-39.261 -34.273)"/>
                    <path id="path96" d="M41.28 37c-.149 0-.536.327-.238.476a.608.608 0 0 0 .149-.149s-.06.179.089.238.089-.089.179-.089c.06.089.06.119.149.119s.089-.238 0-.357A.44.44 0 0 0 41.28 37" class="cls-2" transform="translate(-38.244 -35.059)"/>
                    <path id="path98" d="M47.8 37.2v1.042s.357-.119.387-.208c0-.179-.06-.833-.387-.833" class="cls-2" transform="translate(-43.067 -35.2)"/>
                    <path id="path100" d="M45 39.5s.417.268.655.387c-.03.06-.208.268-.268.268A1.647 1.647 0 0 1 45 39.5" class="cls-2" transform="translate(-41.101 -36.815)"/>
                    <path id="polygon102" d="M38.3 40.8h.536v.208h-.506z" class="cls-2" transform="translate(-36.395 -37.728)"/>
                    <path id="polygon104" d="M53.251 40.5H50.9l.387.3h1.964z" class="cls-2" transform="translate(-45.245 -37.518)"/>
                    <path id="path106" d="M47.827 40.393c.03-.03.3.179.238.208a6.3 6.3 0 0 1-.863.327c-.06-.03-.06-.208.03-.238a1.837 1.837 0 0 0 .6-.3" class="cls-2" transform="translate(-42.618 -37.441)"/>
                    <path id="path108" d="M45.734 41.468c-.089-.06-.566.417-.357.446a5.048 5.048 0 0 1 .833.179c.119-.06.238-.149.208-.208.089 0 .208.119.327.089a4.953 4.953 0 0 0 .714-.536 1.2 1.2 0 0 0-.476-.238c-.089 0-.863.446-1.25.268" class="cls-2" transform="translate(-41.329 -38.009)"/>
                    <path id="path110" d="M42.739 43.227a4.473 4.473 0 0 0 .8.208c.149-.03.179-.179.268-.179s.119.089.268 0a3.31 3.31 0 0 0 .446-.357c0 .089 0 .357-.536.6s-1.816.6-1.845.774c.06.03.208-.03.327-.089a.59.59 0 0 1 .149.506c-.03.268-.238.744-.238.863v.774c0 .06.119.387-.06.357A1.6 1.6 0 0 0 42 46.65c-.06 0-.179.119-.3.089s-.3-.06-.3-.119.119-.06.238-.089.179-.149.387-.238c0-.149-.06-1.161-.06-1.369a2.582 2.582 0 0 1 .03-.833c.03-.179.506-.863.744-.863" class="cls-2" transform="translate(-38.572 -39.203)"/>
                    <path id="path112" d="M48.5 45.187c0 .06.357.982.536 1.012A17.333 17.333 0 0 1 51 45.991c.089.119.268.327.268.476a1.2 1.2 0 0 1 0 .327c.06 0 .179-.03.208-.119s0-.476.03-.566c0-.06.179-.446-.06-.417a7.979 7.979 0 0 1-1.191-.06 2.354 2.354 0 0 0-.863-.089.654.654 0 0 0-.268.327c-.06 0-.06-.03-.03-.208a2.452 2.452 0 0 0 .206-.862 3.375 3.375 0 0 0-.8.387" class="cls-2" transform="translate(-43.559 -40.538)"/>
                    <path id="path114" d="M42.687 41.06c.03.03.03.119.089.149l-1.22-.089s-.149-.089-.089-.119z" class="cls-2" transform="translate(-38.609 -37.869)"/>
                    <path id="path116" d="M40.738 40.238h1.22a1.655 1.655 0 0 1-.119-.238c-.208 0-1.131.03-1.131.03s-.119 0-.119.238c-.03.06.089.149.149-.03" class="cls-2" transform="translate(-37.999 -37.167)"/>
                    <path id="path118" d="M33.478 40.409h.238s.089-.03 0-.119-.238-.149-.119-.327c-.119-.03-.3-.06-.268.327h-.119s-.03-.208-.327-.208a4.377 4.377 0 0 0-.982.3 7.6 7.6 0 0 0 .982.208.426.426 0 0 0 .327-.179h.09a.518.518 0 0 0 .089.208v.238a.139.139 0 0 0-.089.179c.03.119.119.119.119.119a.606.606 0 0 1 .149-.03c.06-.06.03-.208-.089-.268v-.179s.089-.06.089-.119-.089-.06-.089-.149" class="cls-2" transform="translate(-31.9 -37.129)"/>
                    <path id="path120" d="M39.664 42.691a.337.337 0 0 0 .119-.179V41.8c0-.179-.3-.3-.327-.3h-.03a.34.34 0 0 1-.179.089.222.222 0 0 1-.208-.089c-.238 0-.357.3-.387.3a4.8 4.8 0 0 0 0 .655.458.458 0 0 0 .119.179c-.06.179-.3 1.131.03 1.25v.149h.833v-.179c.3-.119.089-.923.03-1.161m-.923-.893c.03-.03.119-.268.3-.268a.272.272 0 0 0 .238.089.444.444 0 0 0 .208-.089c.089.03.268.119.268.238v.714a.159.159 0 0 1-.089.119h-.149v-.3h-.567v.3h-.119a.253.253 0 0 1-.089-.149 2.312 2.312 0 0 1 0-.655m.566 1.964h-.149a.06.06 0 0 1 0-.119h.149a.06.06 0 1 1 0 .119m.3.06l-.387-.446-.357.446c-.238-.089-.089-.833 0-1.161h.774c.06.327.208 1.042-.03 1.161" class="cls-2" transform="translate(-36.628 -38.22)"/>
                    <path id="path122" d="M40.068 46.008a.146.146 0 0 0-.03-.208h-.476c-.149 0-.089.208-.089.208l.3.268a.961.961 0 0 0 .3-.268" class="cls-2" transform="translate(-37.21 -41.24)"/>
                    <path id="path124" d="M40.9 47.079l.3.357s-.03-.417-.03-.536c-.089 0-.268.179-.268.179" class="cls-2" transform="translate(-38.221 -42.013)"/>
                    <path id="path126" d="M39.33 46.9c0 .149-.03.536-.03.536l.3-.357s-.179-.179-.268-.179" class="cls-2" transform="translate(-37.097 -42.013)"/>
                    <path id="path128" d="M40.106 43.619h.06v-.06a.064.064 0 0 0-.06-.06h-.446a.064.064 0 0 0-.06.06v.06h.506z" class="cls-2" transform="translate(-37.308 -39.625)"/>
                    <path id="path130" d="M38.96 50.2h-.06v.06a.064.064 0 0 0 .06.06h.863a.064.064 0 0 0 .06-.06v-.06h-.923z" class="cls-2" transform="translate(-36.816 -44.331)"/>
                </g>
            </g>
        </g>
    </g>
</svg>
