<svg id="_1946430_copy" data-name="1946430 copy" xmlns="http://www.w3.org/2000/svg" width="8.286" height="11.86" viewBox="0 0 8.286 11.86">
  <path id="Path" d="M6.72,3.08a.357.357,0,0,0-.4-.155.349.349,0,0,0-.259.335.783.783,0,0,1-1.566,0V.347A.347.347,0,0,0,4.279.027.358.358,0,0,0,3.893.1,17.058,17.058,0,0,0,1.954,2.481,13.418,13.418,0,0,0,.617,4.929,7.639,7.639,0,0,0,0,7.791,4.111,4.111,0,0,0,4.143,11.86,4.111,4.111,0,0,0,8.286,7.791,9.169,9.169,0,0,0,6.72,3.08Z" transform="translate(0 0)" fill="#fff"/>
  <path id="Path-2" data-name="Path" d="M4.6,0H3.079a.351.351,0,0,0-.354.347.351.351,0,0,0,.354.347h.662L2.23,2.179l-.822-.807a.358.358,0,0,0-.5,0l-.8.789a.343.343,0,0,0,0,.491.358.358,0,0,0,.5,0l.554-.544.822.807a.358.358,0,0,0,.5,0l1.762-1.73v.65a.354.354,0,0,0,.708,0V.347A.351.351,0,0,0,4.6,0Z" transform="translate(1.555 5.865)" fill="#f80"/>
</svg>
