<svg xmlns="http://www.w3.org/2000/svg" width="54" height="54" viewBox="0 0 54 54">
    <defs>
        <style>
            .cls-2{fill:#231f20}.cls-3{fill:#ec1c24}.cls-5{fill:#808184}.cls-6{fill:#121b21}.cls-7{fill:#ffe600}
        </style>
    </defs>
    <g id="Group_3266" transform="translate(-6319 92)">
        <g id="Rectangle_630" fill="#fff" stroke="#fff" transform="translate(6319 -92)">
            <rect width="54" height="54" stroke="none" rx="10"/>
            <rect width="53" height="53" x=".5" y=".5" fill="none" rx="9.5"/>
        </g>
        <g id="okwallet" transform="translate(6310.7 -99.802)">
            <g id="Group_3186" transform="translate(20.3 36.326)">
                <path id="Path_2573" d="M21.54 51.954L20.3 45.6H22l.775 5.036.93-5.036h2.169l1.007 4.959.7-4.959h1.7l-1.472 6.354h-2.163l-.93-4.959-1.007 4.881H21.54z" class="cls-2" transform="translate(-20.3 -42.811)"/>
                <path id="Path_2574" d="M34.05 52.031a1.577 1.577 0 0 1-1.162-.465 1.6 1.6 0 0 1-.387-1.24v-.387c0-.775.155-1.317.542-1.55a3.085 3.085 0 0 1 1.937-.465h.542v-.774a1.12 1.12 0 0 0-.155-.542c-.077-.155-.232-.155-.387-.155a.655.655 0 0 0-.465.155 1.12 1.12 0 0 0-.155.542v.31h-1.7v-.16a1.418 1.418 0 0 1 .542-1.317 2.654 2.654 0 0 1 1.7-.387 2.633 2.633 0 0 1 1.7.465 1.725 1.725 0 0 1 .542 1.472v4.494h-1.622v-.542l-.077.077a1.894 1.894 0 0 1-1.395.469zm1.472-3.1h-.232a.89.89 0 0 0-1.09 1.085v.384a.655.655 0 0 0 .155.465.592.592 0 0 0 .387.155.585.585 0 0 0 .542-.31 1.678 1.678 0 0 0 .155-.93v-.852z" class="cls-2" transform="translate(-23.047 -42.811)"/>
                <path id="Path_2575" d="M40.4 42h1.7v9.065h-1.7z" class="cls-2" transform="translate(-24.826 -42)"/>
                <path id="Path_2576" d="M44.5 42h1.7v9.065h-1.7z" class="cls-2" transform="translate(-25.749 -42)"/>
                <path id="Path_2577" d="M50.347 52.008a2.261 2.261 0 0 1-1.7-.542 2.951 2.951 0 0 1-.542-1.86v-1.24a3.421 3.421 0 0 1 .542-2.247 2.093 2.093 0 0 1 1.782-.62 2.321 2.321 0 0 1 1.86.542 3.467 3.467 0 0 1 .465 2.092v.93h-3.027v.155a5.528 5.528 0 0 0 .155 1.472.516.516 0 0 0 .542.387.6.6 0 0 0 .542-.232 2.073 2.073 0 0 0 .155-.852v-.232h1.627v.155a1.711 1.711 0 0 1-.62 1.55 2.234 2.234 0 0 1-1.781.542zm.852-3.952v-.387a2.692 2.692 0 0 0-.155-1.007.6.6 0 0 0-.542-.232.519.519 0 0 0-.542.31 3.98 3.98 0 0 0-.155 1.24v.077z" class="cls-2" transform="translate(-26.56 -42.788)"/>
                <path id="Path_2578" d="M58.787 51.458a4.765 4.765 0 0 1-1.085.077 1.36 1.36 0 0 1-1.162-.465 2.3 2.3 0 0 1-.387-1.395v-3.486H55.3V45.1h.852v-1l1.7-.7v1.7h1.007v1.085h-1.002v3.487c0 .31 0 .542.077.62a.592.592 0 0 0 .387.155 1.319 1.319 0 0 0 .542-.077v1.085z" class="cls-2" transform="translate(-28.181 -42.315)"/>
            </g>
            <g id="Group_3195" transform="translate(20.92 48.181)">
                <g id="Group_3192" transform="translate(5.966)">
                    <g id="Group_3187">
                        <path id="Path_2579" d="M33.294 59.547a2.247 2.247 0 1 1-2.247-2.247 2.249 2.249 0 0 1 2.247 2.247z" class="cls-3" transform="translate(-28.8 -57.3)"/>
                        <path id="Path_2580" fill="#fff" d="M30.666 58.555l.465-.155a6.673 6.673 0 0 0-.465 3.564 3.233 3.233 0 0 1-.775-.387 4.4 4.4 0 0 1 .232-2.015.781.781 0 0 0-.232.077l.31-.62z" transform="translate(-29.039 -57.548)"/>
                    </g>
                    <g id="Group_3188" transform="translate(6.276 3.254)">
                        <path id="Rectangle_622" d="M0 0H17.278V0.077H0z" class="cls-3"/>
                    </g>
                    <g id="Group_3191" transform="translate(6.303 .155)">
                        <g id="Group_3189" transform="translate(13.3 3.409)">
                            <path id="Path_2581" d="M54.1 62.72a.076.076 0 0 0 .077-.077V62.1h.077v.62h.232a.271.271 0 0 0 .077-.155l-.077.155z" class="cls-5" transform="translate(-54.1 -61.945)"/>
                            <path id="Path_2582" d="M54.8 62.72a.076.076 0 0 0 .077-.077V62.1h.155v.62H54.8z" class="cls-5" transform="translate(-54.258 -61.945)"/>
                            <path id="Path_2583" d="M55.3 62.7c.077-.077.077-.077.077-.155V62h.077l.232.542.234-.542H56v.62h-.08v-.542l-.232.62-.232-.542v.465h.077l-.233.079z" class="cls-5" transform="translate(-54.37 -61.923)"/>
                            <path id="Path_2584" d="M56.4 62.72a.076.076 0 0 0 .077-.077V62.1h.155v.62H56.4z" class="cls-5" transform="translate(-54.618 -61.945)"/>
                            <path id="Path_2585" d="M56.9 62h.542v.155c0-.077 0-.077-.077-.077h-.155v.62h-.155v-.62h-.077L56.9 62a.107.107 0 0 1 0 .155z" class="cls-5" transform="translate(-54.731 -61.923)"/>
                            <path id="Path_2586" d="M57.7 62.72a.076.076 0 0 0 .077-.077V62.1h.465v.155-.077h-.232v.232h.232v-.077.232-.077h-.232v.232h.232l.077-.077-.077.155-.542-.078z" class="cls-5" transform="translate(-54.911 -61.945)"/>
                            <path id="Path_2587" d="M58.632 62.6v-.542h.077a.274.274 0 0 1 .31.31c0 .155 0 .232-.077.232-.155.077-.155.077-.31 0zm-.155.077h.387a.076.076 0 0 0 .077-.077c.077 0 .077-.077.077-.155v-.155a.4.4 0 0 0-.155-.31c-.077 0-.155-.077-.232-.077h-.155v.542q.116.232 0 .232z" class="cls-5" transform="translate(-55.068 -61.9)"/>
                        </g>
                        <g id="Group_3190">
                            <path id="Path_2588" d="M50.875 58.132h.542c.077 0 .077 0 .155.077a.271.271 0 0 1 .077.155c0 .077 0 .155-.077.155 0 .077-.077.077-.155.077H50.8zm.155 1.937c.232 0 .387 0 .465-.077a1.07 1.07 0 0 0 .31-.232.7.7 0 0 0 .077-.387.466.466 0 0 0-.077-.31c-.077-.077-.155-.155-.232-.155a1.07 1.07 0 0 0 .31-.232.466.466 0 0 0 .077-.31.285.285 0 0 0-.077-.232.167.167 0 0 0-.155-.155.285.285 0 0 0-.232-.077h-1.009l-.387 2.322h.93zm-.31-1.007h.465a.285.285 0 0 1 .232.077c.077.077.077.077.077.155s0 .155-.077.155c0 .077-.077.077-.155.155h-.7z" class="cls-5" transform="translate(-39.899 -57.59)"/>
                            <path id="Path_2589" d="M53.83 59.43a.78.78 0 0 1-.077.232c0 .077-.077.077-.155.155-.077 0-.077.077-.155.077s-.077 0-.155-.077a.271.271 0 0 1-.077-.155c0-.077 0-.155.077-.155.077-.077.155-.077.387-.155.077.077.077.077.155.077zm-.31-.62c.077 0 .077-.077.155-.077s.155 0 .155.077a.271.271 0 0 1 .077.155v.155a1.576 1.576 0 0 1-.387.077.655.655 0 0 0-.465.155.592.592 0 0 0-.155.387c0 .155.077.232.155.387a.4.4 0 0 0 .31.155.285.285 0 0 0 .235-.081c.077-.077.155-.077.232-.155v.155h.387v-.232a.842.842 0 0 1 .077-.387 1.363 1.363 0 0 0 .077-.465v-.155a.4.4 0 0 0-.155-.31.592.592 0 0 0-.387-.155 1.1 1.1 0 0 0-.465.155c-.077.077-.155.232-.232.31h.387c-.079-.074-.079-.074-.001-.151z" class="cls-5" transform="translate(-40.529 -57.725)"/>
                            <path id="Path_2590" d="M55.187 58.477h.387v.232l.232-.232a.285.285 0 0 1 .232-.077.4.4 0 0 1 .31.155c.077.077.077.155.077.31a.586.586 0 0 1-.077.31l-.155.93h-.387l.155-.93a.339.339 0 0 1 .077-.232c0-.077 0-.077-.077-.155a.271.271 0 0 0-.155-.077.285.285 0 0 0-.232.077c-.077.077-.155.155-.155.232a3.356 3.356 0 0 0-.077.387l-.155.7H54.8z" class="cls-5" transform="translate(-40.957 -57.703)"/>
                            <path id="Path_2591" d="M57.4 60.024l.387-2.324h.387l-.31 1.24.465-.542h.465l-.542.62.31 1.085h-.387l-.155-.775-.232.155-.077.465H57.4z" class="cls-5" transform="translate(-41.543 -57.545)"/>
                            <path id="Path_2592" d="M37.992 58.275a.562.562 0 0 1 .775 0c.077.077.077.31.077.542a2.623 2.623 0 0 1-.232.62.562.562 0 0 1-.775 0c-.077-.077-.077-.31-.077-.542a.935.935 0 0 1 .232-.62zm-1.007 1.317c.077.232.232.31.387.465a1.547 1.547 0 0 0 .7.155 2.292 2.292 0 0 0 .775-.155 1.042 1.042 0 0 0 .542-.465 1.8 1.8 0 0 0 .31-.775 1.4 1.4 0 0 0-.155-1.007c-.155-.232-.465-.31-.93-.31a1.473 1.473 0 0 0-1.007.387 1.44 1.44 0 0 0-.542 1.007.753.753 0 0 0-.08.698z" class="cls-5" transform="translate(-36.934 -57.5)"/>
                            <path id="Path_2593" d="M41.387 57.5h.7l.7 1.395.232-1.395h.7l-.387 2.557h-.7l-.7-1.395-.232 1.395H41z" class="cls-5" transform="translate(-37.85 -57.5)"/>
                            <path id="Path_2594" d="M45.41 57.5h1.782l-.077.542H46.03l-.077.387h1.007l-.077.542h-1.008l-.077.542h1.162l-.077.62H45.1z" class="cls-5" transform="translate(-38.773 -57.5)"/>
                        </g>
                    </g>
                </g>
                <g id="Group_3194" transform="translate(0 .232)">
                    <g id="Group_3193">
                        <path id="Path_2595" d="M21.487 60.312v.31H21.1V57.6h.387v1.007a.659.659 0 0 1 .387-.232 1.434 1.434 0 0 1 .93 0c.155.077.232.155.387.232a1.693 1.693 0 0 1 .232.387.983.983 0 0 1 .077.465 1.072 1.072 0 0 1-1.162 1.162.581.581 0 0 1-.387-.077 2.58 2.58 0 0 1-.464-.232zm0-.852a.794.794 0 1 0 .232-.542.7.7 0 0 0-.232.542z" class="cls-2" transform="translate(-21.1 -57.6)"/>
                        <path id="Path_2596" d="M24.3 58.5h.465l.62 1.7.7-1.7h.465l-1.24 3.022h-.465l.31-.775z" class="cls-2" transform="translate(-21.821 -57.803)"/>
                    </g>
                </g>
            </g>
            <g id="Group_3198" transform="translate(21.075 16.802)">
                <path id="Path_2597" d="M52.564 26.486s-.387-1.472-1.7-1.395c0 0-.852-.077-1.085.387l-.779.388v8.6h2.324a1.939 1.939 0 0 0 1.24-1.395l1.162 1.085a1.911 1.911 0 0 0 2.324-.31 1.8 1.8 0 0 0 .31-1.937 2.229 2.229 0 0 0-.31-.465l-1.7-1.7 1.782-1.782a2.009 2.009 0 0 0 .077-2.247 1.471 1.471 0 0 0-1.162-.62 1.325 1.325 0 0 0-1.162.232c-.236.229-1.321 1.159-1.321 1.159z" class="cls-6" transform="translate(-27.537 -18.662)"/>
                <path id="Path_2598" d="M52.015 28.631v-1.7a1.042 1.042 0 0 0-1.007-.852A1.094 1.094 0 0 0 50 27v6.9h1.162s.852-.155.852-.775v-1.783l2.479 2.479a1.112 1.112 0 0 0 1.162-.155 1.131 1.131 0 0 0 .232-1.162c-.155-.232-2.479-2.557-2.479-2.557l2.4-2.479a1.01 1.01 0 0 0-1.55-1.24z" class="cls-7" transform="translate(-27.763 -18.869)"/>
                <circle id="Ellipse_3078" cx="7.748" cy="7.748" r="7.748" class="cls-6" transform="translate(0 3.64)"/>
                <path id="Path_2599" d="M36.247 29.473a6.973 6.973 0 1 1-6.974-6.973 7.1 7.1 0 0 1 6.974 6.973z" class="cls-7" transform="translate(-21.525 -18.085)"/>
                <path id="Path_2600" d="M29 28.952a.852.852 0 1 1-.852-.852.86.86 0 0 1 .852.852z" class="cls-6" transform="translate(-22.651 -19.346)"/>
                <path id="Path_2601" d="M34.8 28.952a.852.852 0 1 1-.852-.852.86.86 0 0 1 .852.852z" class="cls-6" transform="translate(-23.957 -19.346)"/>
                <path id="Path_2602" d="M33.91 31.5a3.955 3.955 0 0 1-7.9 0H25a4.882 4.882 0 0 0 9.763 0z" class="cls-6" transform="translate(-22.133 -20.112)"/>
                <g id="Group_3197" transform="translate(12.829)">
                    <g id="Group_3196">
                        <path id="Path_2603" d="M47.343 26.563v-6.818a1.109 1.109 0 0 0-1.162-1.007 2.424 2.424 0 0 0-1.86.852l-1.395-2.324a1.131 1.131 0 0 0-1.7-.155 2.313 2.313 0 0 0-1.007 1.627 1.244 1.244 0 0 0-1.395-.155 2.411 2.411 0 0 0-.775 2.867c.077.31.387.542.62.852S40.06 23.7 40.06 23.7l-.542.62-1.162 1.162a1.711 1.711 0 0 0-.465 1.085v4.103l.775-.077 1.317 1.317s.62.7 1.162.7h2.789a5.451 5.451 0 0 0 2.557-1.7v1.7h.775v-3.257a3.661 3.661 0 0 0 .077-2.79zm-3.951 2.247c-.155.077-.387.31-.465.31h-.852a.737.737 0 0 0-.7-.31 1.528 1.528 0 0 0 .155-.542v-.852l.7-.62s1.085-.387 1.472.465c-.078 0 .465.929-.31 1.549z" class="cls-6" transform="translate(-37.858 -16.802)"/>
                    </g>
                </g>
                <path id="Path_2604" d="M45.154 22.626L42.519 17.9a1.294 1.294 0 0 0-.7.232 1.439 1.439 0 0 0-.465 1.627 19.712 19.712 0 0 0 1.55 2.712h-.155l-2.944-2.944s-.31-.155-.465.077a1.57 1.57 0 0 0-.465 1.085 1.53 1.53 0 0 0 .31.93c.31.31 2.4 2.479 2.4 2.479s-.62.155-.7.31c-.155.155-1.782 1.7-1.782 1.7s-.31.31-.31.542v3.26s1.627-.155 2.015-1.317V27.12a8.347 8.347 0 0 1 .852-.852 2.031 2.031 0 0 1 2.015-.155 2.189 2.189 0 0 1 1.085 2.324c-.077.232-.62 1.317-1.55 1.395h-1.24a1.867 1.867 0 0 0-1.085-.387 2.5 2.5 0 0 0-1.472.62l1.627 1.627a.613.613 0 0 0 .542.155h2.557a4.034 4.034 0 0 0 2.557-2.4 3.629 3.629 0 0 0 .077-2.789v-6.821a.387.387 0 0 0-.387-.232 1.571 1.571 0 0 0-1.55 1.24v.62a3.737 3.737 0 0 0 .31 1.162z" class="cls-7" transform="translate(-25.241 -17.049)"/>
            </g>
        </g>
    </g>
</svg>
