<svg xmlns="http://www.w3.org/2000/svg" id="Group_3259" width="54" height="54" viewBox="0 0 54 54">
    <defs>
        <style>
            .cls-5{fill:#fff}.cls-3{fill:#e0091d}.cls-4{fill:#1a1718}
        </style>
    </defs>
    <g id="Rectangle_72" fill="#fff" stroke="#fff">
        <rect width="54" height="54" stroke="none" rx="10"/>
        <rect width="53" height="53" x=".5" y=".5" fill="none" rx="9.5"/>
    </g>
    <g id="Group_254" transform="translate(12.269 10.944)">
        <path id="Path_1159" fill="#e0091d" fill-rule="evenodd" d="M394.919 482.665a16 16 0 1 1-15.992-15.465 15.74 15.74 0 0 1 15.992 15.465z" transform="translate(-362.934 -467.2)"/>
        <path id="Path_1160" d="M362.97 485.123h31.93c-.016-.231-.032-.451-.055-.682h-31.817c-.028.23-.045.45-.058.682z" class="cls-3" transform="translate(-362.941 -470.599)"/>
        <path id="Path_1161" d="M363.065 484.051h31.768c-.026-.228-.056-.45-.094-.678h-31.575c-.036.227-.069.45-.099.678z" class="cls-3" transform="translate(-362.96 -470.388)"/>
        <path id="Path_1162" d="M362.934 486.194h31.985c0-.23 0-.457-.018-.682h-31.947c-.014.226-.02.452-.02.682z" class="cls-3" transform="translate(-362.934 -470.81)"/>
        <path id="Path_1163" d="M363.227 482.983h31.511c-.039-.232-.089-.455-.137-.677h-31.237c-.05.222-.089.445-.137.677z" class="cls-3" transform="translate(-362.992 -470.178)"/>
        <path id="Path_1164" d="M364.1 479.77h30.113c-.089-.227-.184-.455-.278-.679h-29.558c-.098.224-.19.452-.277.679z" class="cls-3" transform="translate(-363.164 -469.544)"/>
        <path id="Path_1165" d="M362.954 487.26H394.9c.016-.226.018-.452.018-.678h-31.984q0 .339.02.678z" class="cls-3" transform="translate(-362.934 -471.021)"/>
        <path id="Path_1166" d="M363.454 481.913H394.6c-.047-.23-.112-.454-.171-.681h-30.794c-.068.226-.13.45-.181.681z" class="cls-3" transform="translate(-363.036 -469.966)"/>
        <path id="Path_1167" d="M363.74 480.837h30.689c-.072-.217-.146-.448-.229-.673h-30.229c-.083.225-.158.456-.231.673z" class="cls-3" transform="translate(-363.093 -469.756)"/>
        <path id="Path_1168" d="M364.383 493.684h29.547c.1-.226.189-.452.278-.679h-30.1c.092.227.177.454.275.679z" class="cls-3" transform="translate(-363.165 -472.287)"/>
        <path id="Path_1169" d="M379.246 503.431a16.024 16.024 0 0 0 14.694-9.352h-29.389a16.022 16.022 0 0 0 14.695 9.352z" class="cls-3" transform="translate(-363.253 -472.499)"/>
        <path id="Path_1170" d="M363.978 492.612H394.2c.083-.224.154-.45.23-.685h-30.68c.072.235.15.461.228.685z" class="cls-3" transform="translate(-363.094 -472.075)"/>
        <path id="Path_1171" d="M363.029 488.33h31.814c.02-.229.036-.446.054-.674h-31.92c.007.228.023.444.052.674z" class="cls-3" transform="translate(-362.942 -471.233)"/>
        <path id="Path_1172" d="M363.167 489.4h31.57c.035-.219.071-.45.092-.678h-31.761c.032.23.062.46.099.678z" class="cls-3" transform="translate(-362.96 -471.443)"/>
        <path id="Path_1173" d="M363.638 491.55h30.781c.066-.232.128-.459.181-.682h-31.143c.051.223.116.45.181.682z" class="cls-3" transform="translate(-363.037 -471.866)"/>
        <path id="Path_1174" d="M363.37 490.478h31.23c.05-.23.1-.454.139-.681H363.23c.046.226.084.45.14.681z" class="cls-3" transform="translate(-362.992 -471.655)"/>
        <path id="Path_1175" d="M379.762 467.2a16.161 16.161 0 0 0-12.594 5.935h25.182a16.163 16.163 0 0 0-12.588-5.935z" class="cls-3" transform="translate(-363.769 -467.2)"/>
        <path id="Path_1176" d="M364.539 478.7h29.4c-.1-.23-.207-.459-.321-.684h-28.76c-.11.229-.22.458-.319.684z" class="cls-3" transform="translate(-363.25 -469.333)"/>
        <path id="Path_1177" d="M366.869 474.814c-.18.22-.346.449-.515.677h26.49c-.17-.228-.332-.457-.513-.677z" class="cls-3" transform="translate(-363.608 -468.701)"/>
        <path id="Path_1178" d="M365.058 477.634h28.572c-.114-.23-.245-.454-.375-.679h-27.82c-.135.225-.261.445-.377.679z" class="cls-3" transform="translate(-363.353 -469.123)"/>
        <path id="Path_1179" d="M365.658 476.559h27.609c-.145-.23-.287-.455-.442-.674H366.1c-.156.215-.3.444-.442.674z" class="cls-3" transform="translate(-363.471 -468.912)"/>
        <path id="Path_1180" d="M385.013 488.779l7.285-10.1s1.11-2.348-2.843-2.214h-12.927a4.882 4.882 0 0 0-4.049 1.669l-6.456 8.748c-1.6 2.373 1.5 2.572 1.5 2.572h9.428l.7 1.344h2.54l-.751-1.4h3.153a3.768 3.768 0 0 0 2.42-.619zm-6.424-1.128l-.861-1.74h-2.564l.891 1.74h-5.239s-1.142.087-.313-.912l5.753-7.657c.56-.472.8-.822 2.538-.822h7.013c1.024 0 2.287-.083 1.547 1.186l-5.475 7.581a1.958 1.958 0 0 1-1.449.625z" class="cls-4" transform="translate(-363.452 -469.024)"/>
        <path id="Path_1181" d="M384.467 487.709l7.283-10.1s1.11-2.348-2.841-2.215h-12.928a4.894 4.894 0 0 0-4.054 1.671l-6.449 8.745c-1.6 2.38 1.493 2.568 1.493 2.568h9.429l.7 1.349h2.543l-.752-1.4h3.152a3.813 3.813 0 0 0 2.424-.618zm-6.42-1.126l-.869-1.742h-2.56l.887 1.742h-5.236s-1.146.08-.313-.911l5.753-7.666c.558-.468.8-.814 2.542-.814h7.011c1.015 0 2.287-.093 1.548 1.184l-5.475 7.585a2 2 0 0 1-1.452.621z" class="cls-5" transform="translate(-363.344 -468.812)"/>
        <g id="Group_252" transform="translate(6.404 23.003)">
            <path id="Path_1182" d="M372.37 498.651c-.218 0-.327-.051-.334-.137l.78-1.049a.8.8 0 0 1 .506-.139h2.662l.277-.414h-3.214c-.6-.007-.965.119-1.109.377l-.978 1.324a.237.237 0 0 0-.049.134c0 .215.335.319.991.319h2.871l.3-.415h-2.703z" class="cls-4" transform="translate(-370.911 -496.06)"/>
            <path id="Path_1183" d="M380.529 496.912h-2.579l-.305.414h2.723c.161 0 .245.047.258.139l-.229.309h-2.679a.616.616 0 0 0-.514.185l-.487.654a.287.287 0 0 0-.046.134c0 .215.342.319 1 .319h1.7c.775 0 1.253-.151 1.444-.435l.926-1.3c-.004-.288-.417-.419-1.212-.419zm-.669 1.6a.61.61 0 0 1-.348.137h-1.387c-.208 0-.322-.051-.331-.137l.247-.315h2.078z" class="cls-4" transform="translate(-372.047 -496.06)"/>
            <path id="Path_1184" d="M386.476 497.774h-2.448l.235-.309a.794.794 0 0 1 .507-.139h2.665l.268-.414h-3.226c-.587-.007-.947.119-1.094.377l-.323.448c-.224.3-.172.462.169.462h2.55a2.131 2.131 0 0 1-.261.315.484.484 0 0 1-.319.137h-2.759l-.378.41h2.993c.774 0 1.261-.151 1.445-.435l.28-.432c.19-.288.092-.42-.304-.42z" class="cls-4" transform="translate(-373.109 -496.06)"/>
            <path id="Path_1185" d="M391.972 496.7h-1.538l.612-.852h-.985l-.914 1.229-.979 1.324-.349.448h1.02l1.188-1.6a.781.781 0 0 1 .5-.139h1.273c.169 0 .256.047.271.139l-.791 1.049-.365.547h1.042l.3-.43.937-1.3c-.014-.281-.426-.415-1.222-.415z" class="cls-4" transform="translate(-374.244 -495.851)"/>
        </g>
        <g id="Group_253" transform="translate(6.442 23.242)">
            <path id="Path_1186" d="M372.414 498.947c-.215 0-.328-.047-.336-.134l.784-1.054a.8.8 0 0 1 .507-.141h2.665l.277-.407h-3.223c-.594-.007-.958.117-1.106.375l-.982 1.326a.277.277 0 0 0-.04.137c0 .208.332.318.994.318h2.867l.3-.419h-2.709z" class="cls-5" transform="translate(-370.958 -496.358)"/>
            <path id="Path_1187" d="M380.573 497.211h-2.578l-.292.407h2.708c.162 0 .249.052.257.141l-.227.3h-2.681a.6.6 0 0 0-.505.189l-.495.659a.251.251 0 0 0-.046.136c0 .208.34.318 1 .318h1.713c.768 0 1.244-.149 1.435-.434l.931-1.314c-.018-.267-.425-.402-1.22-.402zm-.666 1.6a.658.658 0 0 1-.348.134h-1.387c-.2 0-.321-.047-.329-.134l.253-.316h2.064z" class="cls-5" transform="translate(-372.093 -496.358)"/>
            <path id="Path_1188" d="M386.519 498.063h-2.446l.238-.3a.789.789 0 0 1 .507-.141h2.661l.265-.407h-3.219c-.579-.007-.951.117-1.1.375l-.323.446c-.229.309-.169.466.165.466h2.551a1.739 1.739 0 0 1-.263.316.514.514 0 0 1-.319.134h-2.759l-.373.408 1.283.011h1.7c.78 0 1.266-.149 1.449-.434l.279-.434c.199-.295.104-.44-.296-.44z" class="cls-5" transform="translate(-373.156 -496.358)"/>
            <path id="Path_1189" d="M392.015 497h-1.541l.621-.853h-.99l-.912 1.228-.987 1.326-.334.443h1.008l1.2-1.6a.774.774 0 0 1 .5-.141h1.274c.166 0 .258.052.275.141l-.8 1.054-.367.542h1.052l.293-.423.932-1.314q-.022-.403-1.224-.403z" class="cls-5" transform="translate(-374.293 -496.149)"/>
        </g>
    </g>
</svg>
