<svg xmlns="http://www.w3.org/2000/svg" width="52" height="52" viewBox="0 0 52 52">
  <g id="Group_2285" data-name="Group 2285" transform="translate(-64.5 -365)">
    <rect id="Rectangle_407" data-name="Rectangle 407" width="52" height="52" transform="translate(64.5 365)" fill="#fff" opacity="0"/>
    <g id="request" transform="translate(74.163 367.831)">
      <path id="Path_1004" data-name="Path 1004" d="M18.839,6.643a10.4,10.4,0,0,1,3.853-4.491A9.919,9.919,0,0,1,35.116,3.539,10.7,10.7,0,0,1,36.81,16.3a10.018,10.018,0,0,1-11.6,4.778l-1.017.619-5.611,3.422,2.705-6.289A10.69,10.69,0,0,1,18.839,6.643Z" transform="translate(2.781 0.08)" fill="#dcdee2"/>
      <path id="Path_1005" data-name="Path 1005" d="M27.9,9.224l.246,1.1a.823.823,0,0,1,.3-.06c.534,0,.808.385.808.982,0,1.551-.771,2.8-2.076,2.8a.916.916,0,0,1-1.031-.994V9.28h.708V8.26h-.708v-.8c0-1.26-.547-2.069-1.8-2.069-.124,0-.285.014-.422.027V6.508h.248c.633,0,.832.294.832,1V8.26H23.911V9.28H25v3.772a1.969,1.969,0,0,0,2.174,2.1c2.125,0,3.182-1.884,3.182-3.9a1.889,1.889,0,0,0-1.877-2.123,1.843,1.843,0,0,0-.582.1Z" transform="translate(3.717 0.83)" fill="#7e8082" stroke="#7e8082" stroke-width="0.3" fill-rule="evenodd"/>
      <path id="Path_1006" data-name="Path 1006" d="M5.2,30.835H26.921V35.8a4.889,4.889,0,0,1-4.813,4.961H5.352a4.743,4.743,0,0,1-3.4-1.453A5.04,5.04,0,0,1,.539,35.8V30.835H5.2Z" transform="translate(0.078 4.791)" fill="#dcdee2"/>
      <path id="Path_1007" data-name="Path 1007" d="M26.921,21.71v13.8H21.1a7.485,7.485,0,0,0-7.375-7.354,7.485,7.485,0,0,0-7.375,7.354H.538V6.612h21A10.69,10.69,0,0,0,23.988,18.8l-2.7,6.289,5.611-3.421.027.045ZM22.108.781A4.718,4.718,0,0,1,25.4,2.122a10.4,10.4,0,0,0-3.853,4.49h-21V5.742a5.05,5.05,0,0,1,1.41-3.509A4.743,4.743,0,0,1,5.354.781H22.109Z" transform="translate(0.077 0.111)" fill="#dcdee2"/>
      <ellipse id="Ellipse_17" data-name="Ellipse 17" cx="4.1" cy="4.225" rx="4.1" ry="4.225" transform="translate(9.824 17.084)" fill="#fff"/>
      <path id="Path_1008" data-name="Path 1008" d="M14.558,34.616H10.1a.593.593,0,0,0,0,1.186h4.453a.593.593,0,0,0,0-1.186Z" transform="translate(1.477 5.38)" fill="#7e8082"/>
      <path id="Path_1009" data-name="Path 1009" d="M30.83.065a10.455,10.455,0,0,0-5.294,1.44A5.264,5.264,0,0,0,22.185.3H5.43A5.48,5.48,0,0,0,.041,5.854V40.59A5.481,5.481,0,0,0,5.43,46.144H22.185a5.478,5.478,0,0,0,5.388-5.554V22.1l.5-.3a10.532,10.532,0,0,0,10.979-3.583,11.323,11.323,0,0,0,1.5-11.77A10.7,10.7,0,0,0,30.83.065ZM5.43,1.485H22.185A4.136,4.136,0,0,1,24.5,2.2a10.956,10.956,0,0,0-3.239,3.935H1.191V5.854A4.309,4.309,0,0,1,5.43,1.485ZM20.979,25.639a.562.562,0,0,0,.675.067l4.77-2.908V35.033H21.717a8.046,8.046,0,0,0-7.91-7.354A8.047,8.047,0,0,0,5.9,35.033H1.191V7.317H20.76a11.3,11.3,0,0,0,2.614,11.738l-2.54,5.9a.606.606,0,0,0,.144.682ZM7.054,35.034a6.879,6.879,0,0,1,6.754-6.168,6.879,6.879,0,0,1,6.754,6.168ZM5.43,44.958A4.31,4.31,0,0,1,1.191,40.59V36.219H26.423v4.37a4.309,4.309,0,0,1-4.238,4.369H5.43ZM28.15,20.587a.561.561,0,0,0-.454.058l-1.017.619-.025.017-4.039,2.462,1.976-4.6a.606.606,0,0,0-.141-.682A10.1,10.1,0,0,1,22.141,6.973a9.775,9.775,0,0,1,3.636-4.237,9.343,9.343,0,0,1,11.044.686,10.052,10.052,0,0,1,3.037,10.965A9.593,9.593,0,0,1,30.83,20.98a9.292,9.292,0,0,1-2.68-.393Z" fill="#7e8082" stroke="#7e8082" stroke-width="0.2"/>
      <path id="Path_1010" data-name="Path 1010" d="M12.684,14.278a4.821,4.821,0,0,0,0,9.637,4.821,4.821,0,0,0,0-9.639h0Zm0,8.452A3.635,3.635,0,1,1,16.209,19.1a3.581,3.581,0,0,1-3.525,3.634Z" transform="translate(1.241 2.213)" fill="#7e8082" stroke="#7e8082" stroke-width="0.2"/>
    </g>
  </g>
</svg>
