<svg xmlns="http://www.w3.org/2000/svg" width="54" height="54" viewBox="0 0 54 54">
    <defs>
        <style>
            .cls-2{fill:#872a8c}
        </style>
    </defs>
    <g id="Group_3272" transform="translate(-6246 96)">
        <g id="Rectangle_629" fill="#fff" stroke="#fff" transform="translate(6246 -96)">
            <rect width="54" height="54" stroke="none" rx="10"/>
            <rect width="53" height="53" x=".5" y=".5" fill="none" rx="9.5"/>
        </g>
        <g id="rocket" transform="translate(6241.75 -102.856)">
            <path id="Path_2661" d="M52.075 21.886s-.272.884-.544 1.837c-.34.952-.816 2.449-1.088 3.265s-.68 2.177-.952 2.925c-.272.816-.544 1.7-.68 2.109s-.408 1.293-.68 2.109-.476 1.5-.544 1.633c0 .136-.068.2-.136.2 0 0-.748-.816-1.565-1.837s-1.565-1.973-1.633-2.109l-.136-.2-.544 1.088c-.408.816-.544 1.088-.544.952 0-.068-.136-.68-.2-1.429a9.618 9.618 0 0 0-.2-1.5c0-.2.2-.408 2.789-2.993l2.857-2.857c.068-.068-.544.34-4.9 3.47l-2.593 1.841-1.565-.816c-.884-.476-1.769-.952-2.041-1.088a4.921 4.921 0 0 1-.476-.272 3.244 3.244 0 0 1 .544-.272c.272-.136 1.02-.408 1.633-.68s2.381-1.02 3.946-1.633c1.565-.68 4.218-1.769 5.919-2.517 1.837-.68 3.265-1.293 3.333-1.225z" class="cls-2" transform="translate(-8.136)"/>
            <path id="Path_2662" d="M28.521 36.04v.408h-.68c-.816 0-1.02.068-1.157.34a.544.544 0 0 0 .136.748c.2.2.2.2.952.2h.816v.816H27.7c-.884 0-.952 0-1.225-.2a1.426 1.426 0 0 1 .34-2.585 3.639 3.639 0 0 1 1.02-.068h.748v.34z" class="cls-2" transform="translate(-4.651 -4.426)"/>
            <path id="Path_2663" d="M30.884 36.008v.408l.408-.408.408-.408h1.088l-.68.68c-.408.408-.68.748-.68.748s.272.34.612.68l.68.68a1.883 1.883 0 0 1-.544.068h-.544l-.408-.408-.408-.408v.816H30v-2.788a1.483 1.483 0 0 1 .408-.068h.34v.408z" class="cls-2" transform="translate(-5.994 -4.394)"/>
            <path id="Path_2664" d="M36.327 36.008v.408h-.68c-.68 0-1.088.068-1.088.2a4.6 4.6 0 0 0 .816.068h.816v.816h-1.633l.136.136c.068.068.34.068.884.068h.748v.816h-.816c-.816 0-.816 0-1.157-.2a1.38 1.38 0 0 1-.272-2.245 1.871 1.871 0 0 1 1.565-.476h.748v.408z" class="cls-2" transform="translate(-7.151 -4.394)"/>
            <path id="Path_2665" d="M40.657 35.944v.408H39.7v2.041h-.816v-2.177H37.8v-.34c0-.2 0-.408.068-.408 0 0 .68-.068 1.361-.068h1.361v.544z" class="cls-2" transform="translate(-8.488 -4.33)"/>
            <path id="Path_2666" d="M60.078 35.823A4.334 4.334 0 0 1 62.664 38a6.1 6.1 0 0 1 .476 1.633h1.088v2.313h-7.483v3.81h5.034l.136-.136a.36.36 0 0 0-.068-.544c-.136-.136-.272-.136-1.633-.136a5.256 5.256 0 0 1-1.429-.068s.2-.544.476-1.157l.34-1.02h2.721l.408.2a2.515 2.515 0 0 1 1.225 1.293 1.968 1.968 0 0 1 .2 1.157 1.64 1.64 0 0 1-.2 1.088 2.966 2.966 0 0 1-1.293 1.293l-.408.2H54.5v-8.3h3.2c3.674 0 3.4.068 2.993-.68a1.676 1.676 0 0 0-1.02-.884 1.867 1.867 0 0 0-.884-.136 1.933 1.933 0 0 0-1.293.612l-.272.272-.612-.544c-.34-.272-.68-.68-.816-.748l-.272-.2.34-.34a4.213 4.213 0 0 1 2.109-1.225 4.366 4.366 0 0 1 2.105.07z" class="cls-2" transform="translate(-13.827 -4.413)"/>
            <path id="Path_2667" d="M31.142 41.908a5.557 5.557 0 0 0-.544 6.871 4.92 4.92 0 0 0 .272.476c0 .068-1.633 1.429-1.633 1.429a6.569 6.569 0 0 1-.952-1.361 6.933 6.933 0 0 1-.884-3.742 4.342 4.342 0 0 1 .2-1.769 7.988 7.988 0 0 1 .816-2.041l.136-.272h2.997z" class="cls-2" transform="translate(-5.163 -6.28)"/>
            <path id="Path_2668" d="M19.3 52.669a1.84 1.84 0 0 1 .816 3.061 1.814 1.814 0 0 1-2.993-.544 1.857 1.857 0 0 1 2.177-2.517z" class="cls-2" transform="translate(-1.829 -9.83)"/>
            <path id="Path_2669" d="M37.026 56.416c0 .68 0 .68-.136.68s-.136-.068-.136-.544 0-.612-.068-.612-.068.136-.068.544c0 .544 0 .544-.136.612-.136 0-.136 0-.136-.34s0-.408-.136-.408c-.068 0-.136.068-.2.136a.136.136 0 0 1-.272 0c0-.136-.272-.136-.34 0v.2c0 .136.068.136.272.136.136 0 .2 0 .2.136s-.068.136-.272.136c-.408 0-.476-.136-.408-.612v-.34h1.088a.146.146 0 0 0 .136-.136c0-.068-.136-.136-.612-.136-.544 0-.612 0-.612-.136s.068-.136.952-.136h.952v.816z" class="cls-2" transform="translate(-7.646 -10.788)"/>
            <path id="Path_2670" d="M29.912 56.736c0 .136-.068.136-.34.136s-.272 0-.272-.136.068-.136.272-.136c.272 0 .34 0 .34.136z" class="cls-2" transform="translate(-5.771 -11.108)"/>
            <path id="Path_2671" d="M43.612 57.123c.2.068.272.136.272.272s0 .136-.476 0c-.34-.136-.408-.2-.408-.34s.068-.136.612.068z" class="cls-2" transform="translate(-10.15 -11.223)"/>
            <path id="Path_2672" d="M63.508 57.171c.34.272.544.544.476.612s-.884-.612-.884-.748c0-.205 0-.205.408.136z" class="cls-2" transform="translate(-16.576 -11.202)"/>
            <path id="Path_2673" d="M67.608 57.171c.34.272.544.544.476.612s-.884-.612-.884-.748c0-.205 0-.205.408.136z" class="cls-2" transform="translate(-17.887 -11.202)"/>
            <path id="Path_2674" d="M34.044 57.133c.34.136.408.272.272.34s-.816-.272-.816-.408.136-.065.544.068z" class="cls-2" transform="translate(-7.113 -11.233)"/>
            <path id="Path_2675" d="M29.132 57.855c.068.068-.068.136-.34.136q-.306-.1-.2-.2a.723.723 0 0 1 .54.064z" class="cls-2" transform="translate(-5.535 -11.478)"/>
            <path id="Path_2676" d="M19.281 38.049l-.408-.408.272-.136a1.062 1.062 0 0 0 .476-.884 1.242 1.242 0 0 0-.544-.884c-.272-.136-.408-.136-1.225-.136H16.9v2.925h.748v-.408c0-.272 0-.408.068-.408a5.228 5.228 0 0 1 .476.408l.408.408h.544c.272 0 .544 0 .544-.068zm-.481-1.361c-.068.068-.2.136-.612.136h-.544v-.408h.476c.617 0 .753.068.68.272z" class="cls-2" transform="translate(-1.806 -4.394)"/>
            <path id="Path_2677" d="M23 35.672a1.478 1.478 0 0 0-1.9 1.428 1.453 1.453 0 0 0 1.5 1.429 1.484 1.484 0 0 0 1.425-1.429A1.535 1.535 0 0 0 23 35.672zm-.884 1.9a.485.485 0 0 1-.2-.408.638.638 0 0 1 .34-.612.687.687 0 0 1 .952.612.656.656 0 0 1-1.088.413z" class="cls-2" transform="translate(-3.149 -4.398)"/>
            <path id="Path_2678" d="M18.019 41.468c-2.789 0-3.129 0-3.538.136a4.138 4.138 0 0 0-3.129 3.47 2.1 2.1 0 0 0 0 1.293 4.306 4.306 0 0 0 3.2 3.47l.408.068.2-.34a3.74 3.74 0 0 1 1.157-.884 2.924 2.924 0 0 1 1.7.068 4.347 4.347 0 0 1 1.02.884l.136.2h2.041V41.4zm.748 4.218v1.9h-1.9c-1.837 0-1.9 0-2.245-.136a1.937 1.937 0 0 1-1.088-1.7 1.984 1.984 0 0 1 1.293-1.9 11.754 11.754 0 0 1 2.109-.068h1.9v1.9z" class="cls-2" transform="translate(0 -6.248)"/>
            <path id="Path_2679" d="M45.734 43.829a4.766 4.766 0 0 0-1.834-1.837 8.251 8.251 0 0 0-.952-.34 64.955 64.955 0 0 0-7.279 0 4.115 4.115 0 0 0-2.993 2.585A3.7 3.7 0 0 0 32.4 45.6a5.893 5.893 0 0 0 .068 1.225 4.16 4.16 0 0 0 2.177 2.721c.816.408.748.408 4.286.408H42.2v-6.125h.2a1.928 1.928 0 0 1 1.429 1.02 1.765 1.765 0 0 1-.34 2.177l-.34.34.748.816c.408.408.748.816.748.816a4.578 4.578 0 0 0 1.02-1.157 4.2 4.2 0 0 0 .069-4.012zm-5.851 1.9v1.9H37.91c-1.769 0-2.041 0-2.245-.136a2.149 2.149 0 0 1-.952-.952 1.734 1.734 0 0 1-.136-.884 1.222 1.222 0 0 1 .2-.748 2.679 2.679 0 0 1 1.02-.952 13.912 13.912 0 0 1 2.177-.068h1.9v1.837z" class="cls-2" transform="translate(-6.762 -6.296)"/>
            <path id="Path_2680" d="M66.241 55.461c0-.068-.136-.136-.816-.136s-.816 0-.816-.068c0-.136.272-.34.476-.34a1.261 1.261 0 0 1 .476.136c.2.136.272.136.34.068s0-.136-.2-.2a.928.928 0 0 0-.816-.136c-.272.068-.544.34-.544.476 0 .068 0 .068-.068.068s-.068.068-.068.136 0 .136.068.136.068.272.068.612c0 .612 0 .612.136.612s.136 0 .136-.34v-.34a.067.067 0 0 1 .068.068c0 .068.136.136.2.136a1.484 1.484 0 0 1 .34.272c.068.068.136.2.272.2s.136-.068.136-.476 0-.476.136-.476a.146.146 0 0 1 .068.272l-.136.136c0 .136.272.068.34-.068a.368.368 0 0 0-.136-.544l-.2-.068h.272c.2.003.268.003.268-.136zm-1.7.544v-.2c0-.2.068-.2.34-.2h.34c.067.06-.613.468-.681.4zm.816.408l-.136-.136c-.136-.136-.136-.136-.068-.272.136-.136.2-.136.2.136z" class="cls-2" transform="translate(-16.928 -10.513)"/>
            <path id="Path_2681" d="M54.259 55.476c-.748 0-.884 0-.884-.068s-.068-.136-.136-.272a.516.516 0 0 0-.273-.136c-.272 0-.544.136-.544.272s.068.136.272 0c.2-.068.476 0 .476.136a13.331 13.331 0 0 1-2.381.068h-2.381l-.2.272a.95.95 0 0 0-.2.612c0 .408.2.612.544.612.136 0 .068-.2-.068-.2-.272 0-.34-.476-.136-.748.136-.2.136-.2.408-.136.2.068.272.136.272.2a.067.067 0 0 1-.068.068.441.441 0 0 0-.34.408c0 .272.272.408.544.34.136-.068.068-.2-.136-.2a.238.238 0 0 1-.136-.068c0-.272.612-.068.748.2q.1.2.2.2c.068 0 .068-.136.068-.612s0-.612.136-.612.136.136.136.612c0 .544 0 .612.136.612s.136-.068.136-.612v-.744h.544c.544 0 .544 0 .34.136-.476.2-.68.34-.68.408 0 .136.068.136.476.34a2.117 2.117 0 0 1 .408.272.353.353 0 0 0 .272.136c.136 0 .136-.068.136-.612 0-.476 0-.612.136-.612.068 0 .136.136.136.612 0 .544 0 .612.136.612s.136-.068.136-.612v-.68h.272l-.136.136a.262.262 0 0 0 0 .476.128.128 0 0 0 .2 0c.068-.068.068-.068 0-.136a.067.067 0 0 1-.068-.068c0-.136.272 0 .34.068.068.136 0 .2-.408.272-.2 0-.272.068-.272.136s0 .136.068.136a1.052 1.052 0 0 1 .408.2c.34.2.612.2.408 0-.068-.068-.2-.136-.272-.2-.2-.068-.136-.136.068-.2.34-.068.34-.544 0-.748-.136-.068-.068-.136.68-.136.884 0 .884 0 .884.136s-.068.136-.476.2a.409.409 0 0 1-.272-.068c-.34-.068-.68.476-.34.748.2.136.34.2.408.136.136-.136.068-.2-.068-.2a.175.175 0 0 1-.068-.34c.068 0 .136 0 .272.136l.136.136.136-.136c.2-.2.34-.068.34.272 0 .2 0 .272.136.272s.136-.068.136-.612c0-.34 0-.612.068-.612a.238.238 0 0 0 .068-.136c.003-.072-.133-.072-.881-.072zm-4.558.816c-.068 0-.34-.2-.34-.272s-.068-.136-.136-.2c-.136-.136-.068-.136.2-.136h.275v.272c.069.201.069.337 0 .337zm1.9.2l-.272-.136-.272-.136.272-.136c.136-.068.272-.136.272-.068.073.004.005.484.005.484z" class="cls-2" transform="translate(-11.749 -10.596)"/>
            <path id="Path_2682" d="M26.825 56.144a.381.381 0 0 1-.408.068c-.272 0-.272-.068-.34-.2 0-.136 0-.136.476-.136s.544 0 .544-.136-.068-.136-1.769-.136a7.947 7.947 0 0 0-1.837.068c-.068.136.068.2.34.2s.272 0 .272.34v.272h.612v.136c0 .068-.136.136-.476.136h-.408v-.34c0-.272-.068-.34-.136-.34s-.136.068-.136.408c0 .544.068.612.816.612.544 0 .612 0 .68-.136.136-.2.136-.816 0-.816a.25.25 0 0 0-.2.068c-.068.068-.136.136-.2.136-.136 0-.136-.068-.136-.136 0-.136 0-.2.408-.2h.408v.544c0 .544 0 .544.136.544s.2 0 .2-.544c0-.476 0-.612.068-.612s.136.136.136.612v.544h.544c.68 0 .748-.068.748-.612-.067-.344-.138-.48-.342-.344zm-.34.68c-.34 0-.408 0-.408-.136s.068-.136.272-.136c.136 0 .34 0 .34-.068.068 0 .068.068.068.136.068.205.068.205-.272.205z" class="cls-2" transform="translate(-3.908 -10.788)"/>
            <path id="Path_2683" d="M32.369 56.48v-.68h-.884c-.816 0-.884 0-.884.136s.068.136.544.136c.408 0 .544 0 .476.068 0 .068-.2.068-.476.068h-.476v.34c0 .2 0 .408.068.476.068.136.136.136.68.136h.544v-.612c0-.408 0-.544.068-.544s.068.2.136.612c0 .476 0 .544.136.544.068.001.068-.067.068-.68zm-1.088.408c-.408 0-.476-.136-.34-.34 0-.068.136-.068.34-.068.34 0 .34 0 .34.272v.2z" class="cls-2" transform="translate(-6.186 -10.852)"/>
            <path id="Path_2684" d="M41.549 56.48v-.68h-1.224c-1.225 0-1.225 0-1.225.136s.068.136.476.136c.272 0 .544 0 .544.068s-.408.136-.748.136H39.1v.34a.574.574 0 0 0 .136.476c.136.136.2.2.68.2h.476v-.68c0-.544 0-.612.136-.612s.136 0 .068.136c-.136.2-.068.272.136.34.136.068.2.136.2.272q0 .1-.2.2c-.272 0-.2.272.068.272.34 0 .408-.136.408-.544 0-.272-.068-.34-.2-.408-.2-.068-.136-.2.068-.2h.2v.544c0 .476 0 .544.136.544s.137.005.137-.676zm-1.837.476c-.34 0-.34 0-.34-.272v-.272h.68v.544z" class="cls-2" transform="translate(-8.904 -10.852)"/>
            <path id="Path_2685" d="M46 55.972c.2 0 .272 0 .272-.136s-.068-.136-.816-.136c-.816 0-.952 0-.952.2 0 .068.136.068.476.136.612 0 .612.136 0 .136h-.48v.408c0 .544.068.612.748.612h.544v-.408c0-.272 0-.408.136-.408a.184.184 0 0 1 .136.272c-.068 0-.068.068-.068.136 0 .136 0 .136.136.136s.136-.068.136-.408 0-.34-.2-.34a.3.3 0 0 1-.2-.068c-.075-.132-.007-.132.132-.132zm-.816.884c-.34 0-.34 0-.34-.2v-.2h.34c.34 0 .34 0 .34.2v.2z" class="cls-2" transform="translate(-10.63 -10.82)"/>
            <path id="Path_2686" d="M60.493 55.7c-1.157 0-1.293 0-1.293.136s.068.068.544.068c.408 0 .476 0 .34.068-.68.272-.748.34-.748.476s.068.136.272.2a1.34 1.34 0 0 1 .544.272 1 1 0 0 0 .34.2c.068 0 .068-.272.068-.612 0-.612 0-.612.136-.612s.136 0 .136.136c-.068.136 0 .272.068.476.136.272.136.34 0 .408s-.136.272 0 .272c.068 0 .136-.068.272-.136l.136-.136-.2-.408c-.136-.476-.068-.612.2-.612.136 0 .136.068.136.612 0 .476 0 .612.136.612s.136-.136.136-.612 0-.612.068-.612a.146.146 0 0 0 .136-.136c-.067-.06-.271-.06-1.427-.06zm-.476.884c-.272-.136-.2-.136 0-.272.272-.136.34-.136.34.2 0 .208 0 .208-.341.072z" class="cls-2" transform="translate(-15.33 -10.82)"/>
            <path id="Path_2687" d="M63.68 55.932a.382.382 0 0 0-.68.2.439.439 0 0 0 .408.408c.136 0 .408-.272.34-.408.068-.064 0-.132-.068-.2zm-.272.34c-.136 0-.2-.136-.136-.2a.143.143 0 1 1 .136.2z" class="cls-2" transform="translate(-16.544 -10.848)"/>
            <path id="Path_2688" d="M67.8 55.847c-.136-.136-.2-.136-.408-.068a.4.4 0 0 0 .068.748c.136 0 .2 0 .272-.136a.36.36 0 0 0 .068-.544zm-.34.34c-.068-.068-.068-.136 0-.136.068-.068.272-.068.272.068.003.068-.201.204-.269.068z" class="cls-2" transform="translate(-17.878 -10.831)"/>
            <path id="Path_2689" d="M34.284 56.208a.52.52 0 0 0-.136-.34c-.068 0-.272-.068-.408-.068h-.34v.272c0 .34.136.408.544.408.34 0 .34 0 .34-.272zm-.272-.068c0 .068-.068.068-.136.068s-.136 0-.136-.068a.238.238 0 0 1 .136-.068c.136 0 .204 0 .136.068z" class="cls-2" transform="translate(-7.081 -10.852)"/>
            <path id="Path_2690" d="M43.816 55.868c-.068-.068-.272-.068-.408-.068H43v.272c0 .34.136.408.544.408h.34v-.272a2.947 2.947 0 0 0-.068-.34zm-.34.34a.25.25 0 0 1-.2-.068.067.067 0 0 1 .068-.068.25.25 0 0 1 .2.068c.068.068 0 .068-.068.068z" class="cls-2" transform="translate(-10.15 -10.852)"/>
        </g>
    </g>
</svg>
