<svg xmlns="http://www.w3.org/2000/svg" width="217.481" height="41.253" viewBox="0 0 217.481 41.253">
  <g id="Group_293" data-name="Group 293" transform="translate(-14400.408 -1157.747)">
    <path id="Path_485" data-name="Path 485" d="M279.727,371.541a9.184,9.184,0,0,1-9.184,9.2L76.067,383.373a9.184,9.184,0,0,1-9.184-9.184L65.57,351.3a9.184,9.184,0,0,1,9.184-9.184l199.113,1.653a9.2,9.2,0,0,1,9.184,9.184Z" transform="translate(14334.838 815.627)" fill="#2a5da8"/>
    <path id="Path_486" data-name="Path 486" d="M198.274,377.485V388.14a.852.852,0,0,0,.286.626c.182.186.4.127.658.127h2.062c.25,0,.472.06.654-.131a.793.793,0,0,0,.266-.627v-.745s-.04-.591.761-.63h3.462s.9.075.908.73v3.141a1.662,1.662,0,0,1-.48,1.19,1.618,1.618,0,0,1-1.126.456H194.777a1.642,1.642,0,0,1-1.142-.456,1.535,1.535,0,0,1-.488-1.154V377.5a.761.761,0,0,1,.861-.9h3.39a.853.853,0,0,1,.876.9" transform="translate(14255.973 794.072)" fill="#fff"/>
    <path id="Path_487" data-name="Path 487" d="M142.471,376.55h15.5s1.19.067,1.336.868v1.705s-.119.742-1.19.793H147.892a.793.793,0,0,0-.765.65v1.416a.865.865,0,0,0,.876.71h9.977a1.586,1.586,0,0,1,1.336,1.586v6.5a1.586,1.586,0,0,1-1.408,1.431h-15.79s-.968-.1-1.11-.857v-1.634a1.047,1.047,0,0,1,1.154-.876l10.274-.036a.793.793,0,0,0,.773-.662v-1.281a.857.857,0,0,0-.793-.718h-9.87A1.713,1.713,0,0,1,141,384.659v-6.543a1.63,1.63,0,0,1,1.455-1.546" transform="translate(14289.318 794.097)" fill="#fff"/>
    <path id="Path_488" data-name="Path 488" d="M90.519,376.57h15.536s1.19.067,1.309.868v1.709s-.143.738-1.19.793H95.94a.817.817,0,0,0-.793.646v1.42a.868.868,0,0,0,.872.71h10a1.586,1.586,0,0,1,1.309,1.586l.024,6.5a1.586,1.586,0,0,1-1.388,1.435H90.2s-.975-.1-1.118-.861v-1.634a1.075,1.075,0,0,1,1.19-.88l10.262-.032a.813.813,0,0,0,.793-.662v-1.285a.876.876,0,0,0-.793-.718H90.67a1.7,1.7,0,0,1-1.523-1.5v-6.452a1.711,1.711,0,0,1,1.428-1.646" transform="translate(14320.65 794.084)" fill="#fff"/>
    <path id="Path_489" data-name="Path 489" d="M250.238,386.693H247.03c-1.114.032-.948.864-.948.864v.642a.726.726,0,0,1-.286.555.793.793,0,0,1-.607.23h-4.469a.872.872,0,0,1-.868-.825V381.1a.944.944,0,0,1,.282-.674.75.75,0,0,1,.587-.258h4.469c.579,0,.892.3.892.932v.619s-.186.861.892.793h3.22s1.047,0,1.039-.793v-3.4a1.488,1.488,0,0,0-1.527-1.578H236.224a1.515,1.515,0,0,0-1.063.436,1.586,1.586,0,0,0-.452,1.142V390.9a1.535,1.535,0,0,0,.452,1.079,1.408,1.408,0,0,0,1.063.44h13.482a1.463,1.463,0,0,0,1.094-.44,1.55,1.55,0,0,0,.432-1.079v-3.077c.155-1.1-1-1.134-1-1.134" transform="translate(14230.239 793.977)" fill="#fff"/>
    <path id="Path_490" data-name="Path 490" d="M565.379,380.174h6.8l-2.6,2.74,3.172,3,6.23-6.424a1.3,1.3,0,0,0,.309-.92,1.642,1.642,0,0,0-.508-1.241,1.733,1.733,0,0,0-1.316-.587H565.379c-.492,0-.734,0-1.063.357a1.939,1.939,0,0,0-.317,1.356,2.07,2.07,0,0,0,.4,1.4,1.051,1.051,0,0,0,.976.325" transform="translate(14026.184 794.125)" fill="#fff"/>
    <path id="Path_491" data-name="Path 491" d="M298.364,377.18a1.519,1.519,0,0,0-1.09-.44H283.792a1.507,1.507,0,0,0-1.515,1.586v12.586a1.531,1.531,0,0,0,.44,1.079,1.451,1.451,0,0,0,1.075.44h13.482a1.427,1.427,0,0,0,1.09-.44,1.475,1.475,0,0,0,.464-1.079V378.318a1.5,1.5,0,0,0-.464-1.138m-4.7,10.976a.686.686,0,0,1-.262.6.813.813,0,0,1-.6.23h-4.5a.825.825,0,0,1-.853-.829V381.1a1.079,1.079,0,0,1,.27-.69.856.856,0,0,1,.6-.254h4.477a.856.856,0,0,1,.6.254.884.884,0,0,1,.262.678Z" transform="translate(14200.824 793.977)" fill="#fff"/>
    <path id="Path_492" data-name="Path 492" d="M330.108,380.173c.607,0,.916.23.916.682v10.116a1.372,1.372,0,0,0,.452,1.051,1.4,1.4,0,0,0,1.031.4h2.161a1.5,1.5,0,0,0,1.079-.4,1.352,1.352,0,0,0,.444-1.051V381.1c0-.634.3-.928.872-.928h2.875c.619,0,.9.293.9.928v9.87a1.463,1.463,0,0,0,.424,1.051,1.586,1.586,0,0,0,1.071.4h2.137a1.535,1.535,0,0,0,1.079-.4,1.384,1.384,0,0,0,.452-1.051V380.855a.761.761,0,0,1,.86-.682h2.847c.595,0,.9.293.9.928v9.87a1.368,1.368,0,0,0,.432,1.051,1.586,1.586,0,0,0,1.118.4H354.3a1.459,1.459,0,0,0,1.031-.4,1.443,1.443,0,0,0,.4-1.051V378.318a1.475,1.475,0,0,0-.44-1.138,1.447,1.447,0,0,0-1.075-.44h-9.3a1.352,1.352,0,0,0-1,.42,1.4,1.4,0,0,0-.523.944,1.5,1.5,0,0,0-.464-.944,1.4,1.4,0,0,0-1.011-.42h-6.741A1.543,1.543,0,0,0,333.7,378.1a1.36,1.36,0,0,0-.492-.944,1.519,1.519,0,0,0-1.059-.42h-2.038a.769.769,0,0,0-.793.793v1.689a.94.94,0,0,0,.793.952" transform="translate(14171.536 793.978)" fill="#fff"/>
    <path id="Path_493" data-name="Path 493" d="M402.212,380.173c.615,0,.92.23.92.682V390.97a1.475,1.475,0,0,0,.436,1.051,1.534,1.534,0,0,0,1.063.4h2.145a1.526,1.526,0,0,0,1.079-.4,1.392,1.392,0,0,0,.444-1.051V381.1c0-.634.305-.928.876-.928h2.871c.579,0,.892.293.892.928v9.87a1.435,1.435,0,0,0,.428,1.051,1.586,1.586,0,0,0,1.067.4H416.6a1.618,1.618,0,0,0,1.075-.4,1.463,1.463,0,0,0,.424-1.051V380.855a.761.761,0,0,1,.872-.682H421.8a.793.793,0,0,1,.88.928v9.87a1.416,1.416,0,0,0,.468,1.051,1.515,1.515,0,0,0,1.087.4H426.4a1.439,1.439,0,0,0,1.023-.4,1.392,1.392,0,0,0,.428-1.051V378.317a1.475,1.475,0,0,0-.436-1.138,1.586,1.586,0,0,0-1.071-.44h-9.331a1.451,1.451,0,0,0-1.015.42,1.713,1.713,0,0,0-.5.944,1.471,1.471,0,0,0-.456-.944,1.431,1.431,0,0,0-1.035-.42h-6.721a1.34,1.34,0,0,0-1,.42,1.463,1.463,0,0,0-.464.944,1.376,1.376,0,0,0-.492-.944,1.55,1.55,0,0,0-1.051-.42h-2.058a.757.757,0,0,0-.793.793v1.689s.02.868.793.952" transform="translate(14126.895 793.979)" fill="#fff"/>
    <path id="Path_494" data-name="Path 494" d="M575.691,401.169h-7.931l1.229-1.225-3.129.159.044-3.172-4.818,5.008a1.487,1.487,0,0,0-.357.952,1.717,1.717,0,0,0,.5,1.19,1.626,1.626,0,0,0,1.229.527h13.121a1.577,1.577,0,0,0,1.221-.325,1.951,1.951,0,0,0,.357-1.384v-.587c-.052-1.348-1.483-1.142-1.483-1.142" transform="translate(14028.153 781.625)" fill="#fff"/>
    <path id="Path_495" data-name="Path 495" d="M489.994,387.082h-3.422a.638.638,0,0,0-.722.746v.623c-.087.3-.036.258-.23.4a1.082,1.082,0,0,1-.658.131H480.5a.88.88,0,0,1-.631-.23.682.682,0,0,1-.274-.6V385.46h9.822a1.686,1.686,0,0,0,1.13-.48,1.467,1.467,0,0,0,.468-1.087v-5.575a1.483,1.483,0,0,0-.468-1.13,1.725,1.725,0,0,0-1.13-.448H475.933a1.5,1.5,0,0,0-1.055.448,1.606,1.606,0,0,0-.468,1.13V390.9a1.519,1.519,0,0,0,.468,1.079,1.416,1.416,0,0,0,1.055.44h13.482a1.622,1.622,0,0,0,1.13-.44,1.4,1.4,0,0,0,.468-1.079v-3.077c-.036-.746-1.019-.746-1.019-.746m-10.4-5.98c0-.63.282-.928.9-.928h4.457c.587,0,.888.3.888.928v.531c0,.627-.3.948-.888.948H480.5c-.623,0-.9-.321-.9-.948Z" transform="translate(14082.003 793.977)" fill="#fff"/>
    <path id="Path_496" data-name="Path 496" d="M546.35,328.834l.055-6.634,6.563,6.245Z" transform="translate(14048.314 852.376)" fill="#fff"/>
    <path id="Path_497" data-name="Path 497" d="M602.932,363.88a2.978,2.978,0,0,1,1.332.349,2.257,2.257,0,0,1,.983.979,2.491,2.491,0,0,1,.369,1.344,2.353,2.353,0,0,1-.369,1.34,2.562,2.562,0,0,1-.96,1,2.839,2.839,0,0,1-2.669,0,2.72,2.72,0,0,1-.987-1,2.487,2.487,0,0,1-.373-1.34,2.64,2.64,0,0,1,.373-1.344,2.336,2.336,0,0,1,1-.979,2.879,2.879,0,0,1,1.3-.349m0,.448a2.455,2.455,0,0,0-1.094.282,2.379,2.379,0,0,0-1.118,1.943,1.982,1.982,0,0,0,.309,1.122,1.927,1.927,0,0,0,.793.813,1.955,1.955,0,0,0,1.094.286,1.927,1.927,0,0,0,1.122-.286,2.125,2.125,0,0,0,.841-.813,2.213,2.213,0,0,0,.266-1.122,2.038,2.038,0,0,0-.278-1.1,1.934,1.934,0,0,0-.841-.841,2.355,2.355,0,0,0-1.094-.285m-1.158,3.7v-2.851h.968c.365,0,.611.024.753.036a1.479,1.479,0,0,1,.369.317.658.658,0,0,1,.139.4.67.67,0,0,1-.266.551.7.7,0,0,1-.575.27,2.29,2.29,0,0,1,.282.147,4.261,4.261,0,0,1,.4.579l.361.543h-.571l-.23-.448a4.174,4.174,0,0,0-.5-.658.638.638,0,0,0-.373-.107h-.278v1.213Zm.464-1.618h.563a.932.932,0,0,0,.551-.107.353.353,0,0,0,.143-.329.475.475,0,0,0-.052-.23.4.4,0,0,0-.23-.143,1.836,1.836,0,0,0-.448-.055h-.527Z" transform="translate(14004.299 802.151)" fill="#fff"/>
    <path id="Path_498" data-name="Path 498" d="M521.244,380.184c.611,0,.932.23.932.682v10.116a1.455,1.455,0,0,0,1.455,1.479h2.185a1.5,1.5,0,0,0,1.1-.428,1.443,1.443,0,0,0,.436-1.051v-9.87c0-.634.3-.928.884-.928h1.332a.837.837,0,0,1,.595.258,1.039,1.039,0,0,1,.234.67v.345a.635.635,0,0,0,.686.793h3.779s.793.155.714-.793v-3.129a1.531,1.531,0,0,0-.456-1.13,1.435,1.435,0,0,0-1.09-.44h-7.693a1.34,1.34,0,0,0-.979.42,1.392,1.392,0,0,0-.515.952,1.19,1.19,0,0,0-.48-.952,1.424,1.424,0,0,0-.983-.42h-2.149a.761.761,0,0,0-.793.793v1.681s.04.892.793.952Z" transform="translate(14052.468 793.966)" fill="#fff"/>
  </g>
</svg>
