<svg xmlns="http://www.w3.org/2000/svg" width="36.5" height="29.55" viewBox="0 0 36.5 29.55">
  <g id="contract" transform="translate(0 2)">
    <path id="Path_1117" data-name="Path 1117" d="M368,59.467h6.692a1.217,1.217,0,0,0,1.217-1.217V41.217A1.217,1.217,0,0,0,374.692,40H368" transform="translate(-340.017 -36.958)" fill="#f79321"/>
    <path id="Path_1119" data-name="Path 1119" d="M137.217,5H150.6a1.217,1.217,0,0,1,1.217,1.217v25.9a1.217,1.217,0,0,1-1.217,1.217H137.217A1.217,1.217,0,0,1,136,32.117V6.217A1.217,1.217,0,0,1,137.217,5Zm0,0" transform="translate(-125.658 -6.392)" fill="#a655e5"/>
    <path id="Path_1121" data-name="Path 1121" d="M9.217,40A1.217,1.217,0,0,0,8,41.217V58.25a1.217,1.217,0,0,0,1.217,1.217h6.692V40Zm0,0" transform="translate(-7.392 -36.958)" fill="#f79321"/>
    <path id="Path_1143" data-name="Path 1143" d="M64,152h3.65v1.217H64Zm0,0" transform="translate(-59.133 -140.442)" fill="#4e2377"/>
    <path id="Path_1144" data-name="Path 1144" d="M80,184h2.433v1.217H80Zm0,0" transform="translate(-73.917 -170.008)" fill="#4e2377"/>
    <path id="Path_1149" data-name="Path 1149" d="M368,152h3.042v1.217H368Zm0,0" transform="translate(-340.017 -140.442)" fill="#4e2377"/>
    <path id="Path_1150" data-name="Path 1150" d="M368,184h1.825v1.217H368Zm0,0" transform="translate(-340.017 -170.008)" fill="#4e2377"/>
    <path id="Path_1152" data-name="Path 1152" d="M143.208-3H129.825A1.825,1.825,0,0,0,128-1.175v25.9a1.825,1.825,0,0,0,1.825,1.825h11.056V25.333H129.825a.608.608,0,0,1-.608-.608v-25.9a.608.608,0,0,1,.608-.608h13.383a.608.608,0,0,1,.608.608v25.9a.608.608,0,0,1-.608.608h-3.65V26.55h3.65a1.825,1.825,0,0,0,1.825-1.825v-25.9A1.825,1.825,0,0,0,143.208-3Zm0,0" transform="translate(-118.267 1)" fill="#4e2377"/>
    <path id="Path_1153" data-name="Path 1153" d="M1.825,52.683H8.517V51.467H1.825a.608.608,0,0,1-.608-.608V33.825a.608.608,0,0,1,.608-.608H8.517V32H1.825A1.825,1.825,0,0,0,0,33.825V50.858A1.825,1.825,0,0,0,1.825,52.683Zm0,0" transform="translate(0 -29.567)" fill="#4e2377"/>
    <path id="Path_1156" data-name="Path 1156" d="M168,80h1.217v2.433H168Zm0,0" transform="translate(-155.225 -76.917)" fill="#fff"/>
    <path id="Path_1157" data-name="Path 1157" d="M200,80h1.217v2.433H200Zm0,0" transform="translate(-184.792 -76.917)" fill="#fff"/>
    <path id="Path_1158" data-name="Path 1158" d="M232,80h1.217v2.433H232Zm0,0" transform="translate(-214.358 -76.917)" fill="#fff"/>
    <path id="Path_1159" data-name="Path 1159" d="M264,80h1.217v2.433H264Zm0,0" transform="translate(-243.925 -76.917)" fill="#fff"/>
    <path id="Path_1160" data-name="Path 1160" d="M296,80h1.217v2.433H296Zm0,0" transform="translate(-273.492 -76.917)" fill="#fff"/>
    <path id="Path_1162" data-name="Path 1162" d="M193.825,235.65h3.65a1.825,1.825,0,0,0,0-3.65h-3.65a1.825,1.825,0,1,0,0,3.65Zm0-2.433h3.65a.608.608,0,0,1,0,1.217h-3.65a.608.608,0,1,1,0-1.217Zm0,0" transform="translate(-177.4 -212.358)" fill="#fff"/>
    <path id="Path_1164" data-name="Path 1164" d="M32,104h1.217v1.825H32Zm0,0" transform="translate(-29.567 -98.092)" fill="#4e2377"/>
    <path id="Path_1165" data-name="Path 1165" d="M64,104h1.217v1.825H64Zm0,0" transform="translate(-59.133 -98.092)" fill="#4e2377"/>
    <path id="Path_1166" data-name="Path 1166" d="M96,104h1.217v1.825H96Zm0,0" transform="translate(-88.7 -98.092)" fill="#4e2377"/>
    <path id="Path_1168" data-name="Path 1168" d="M41.825,219.65h2.65v-1.217h-2.65a.608.608,0,0,1,0-1.217h2.65V216h-2.65a1.825,1.825,0,1,0,0,3.65Zm0,0" transform="translate(-35.958 -199.575)" fill="#4e2377"/>
    <path id="Path_1169" data-name="Path 1169" d="M374.692,32H368v1.217h6.692a.608.608,0,0,1,.608.608V50.858a.608.608,0,0,1-.608.608H368v1.217h6.692a1.825,1.825,0,0,0,1.825-1.825V33.825A1.825,1.825,0,0,0,374.692,32Zm0,0" transform="translate(-340.017 -29.567)" fill="#4e2377"/>
    <path id="Path_1171" data-name="Path 1171" d="M432,104h1.217v1.825H432Zm0,0" transform="translate(-399.15 -98.092)" fill="#4e2377"/>
    <path id="Path_1172" data-name="Path 1172" d="M400,104h1.217v1.825H400Zm0,0" transform="translate(-369.583 -98.092)" fill="#4e2377"/>
    <path id="Path_1173" data-name="Path 1173" d="M368,104h1.217v1.825H368Zm0,0" transform="translate(-340.017 -98.092)" fill="#4e2377"/>
    <path id="Path_1174" data-name="Path 1174" d="M368,216v1.217h3.65a.608.608,0,1,1,0,1.217H368v1.217h3.65a1.825,1.825,0,1,0,0-3.65Zm0,0" transform="translate(-340.017 -199.575)" fill="#4e2377"/>
    <path id="Path_1177" data-name="Path 1177" d="M192,168h7.3v1.217H192Zm0,0" transform="translate(-177.4 -156.225)" fill="#fff"/>
    <path id="Path_1178" data-name="Path 1178" d="M208,200h4.867v1.217H208Zm0,0" transform="translate(-192.183 -185.792)" fill="#fff"/>
  </g>
</svg>
