<svg xmlns="http://www.w3.org/2000/svg" width="54" height="54" viewBox="0 0 54 54">
    <defs>
        <style>
            .cls-5,.cls-6{fill:#fff}.cls-5{fill-rule:evenodd}
        </style>
    </defs>
    <g id="Group_2947" transform="translate(-.391 -.231)">
        <g id="Rectangle_48" fill="#fff" stroke="#fff" transform="translate(.391 .231)">
            <rect width="54" height="54" stroke="none" rx="10"/>
            <rect width="53" height="53" x=".5" y=".5" fill="none" rx="9.5"/>
        </g>
        <g id="Group_270" transform="translate(9.047 15.667)">
            <path id="Path_1218" fill="#d40021" d="M287.629 399.575h9.255a1.8 1.8 0 0 1 1.794 2.348l-4.309 18.5a3.138 3.138 0 0 1-2.888 2.347h-9.255a1.8 1.8 0 0 1-1.794-2.347l4.309-18.5a3.137 3.137 0 0 1 2.887-2.348z" transform="translate(-280.368 -399.575)"/>
            <path id="Path_1219" fill="#0c295b" d="M299 399.575h10.64c1.293 0 .709 1.052.406 2.348l-4.308 18.5c-.3 1.3-.208 2.347-1.5 2.347H293.6a1.8 1.8 0 0 1-1.794-2.347l4.308-18.5a3.141 3.141 0 0 1 2.89-2.348z" transform="translate(-283.257 -399.575)"/>
            <path id="Path_1220" fill="#0b6b70" d="M312.7 399.575h9.254a1.8 1.8 0 0 1 1.793 2.348l-4.308 18.5a3.138 3.138 0 0 1-2.889 2.347h-9.25a1.8 1.8 0 0 1-1.794-2.347l4.308-18.5a3.139 3.139 0 0 1 2.89-2.348z" transform="translate(-286.735 -399.575)"/>
            <path id="Path_1221" d="M312.573 421.363h.872l.254-.84h-.872l-.254.84zm.7-2.312l-.3.989a3.572 3.572 0 0 1 .509-.216 3.8 3.8 0 0 1 .451-.078l.211-.695zm.433-1.43l-.289.954a4.349 4.349 0 0 1 .5-.195 2.861 2.861 0 0 1 .448-.065l.209-.695zm1.929 0l-1.127 3.73h.3l-.234.775h-.3l-.072.235h-1.073l.072-.235h-2.181l.219-.715h.221l1.144-3.788.228-.767h1.1l-.113.389a1.989 1.989 0 0 1 .567-.283c.277-.072 1.865-.1 1.865-.1l-.236.76z" class="cls-5" transform="translate(-288.152 -403.963)"/>
            <path id="Path_1222" d="M317.854 416.865h1.168l.013.435c-.007.07.056.105.193.108h.237l-.217.719h-.631c-.547.039-.754-.2-.741-.46l-.022-.8z" class="cls-6" transform="translate(-289.887 -403.966)"/>
            <path id="Path_1223" d="M317.459 420.773h-1.114l.192-.641h1.272l.183-.586h-1.257l.217-.721h3.5l-.218.721h-1.174l-.183.586h1.176l-.194.641h-1.27l-.227.269h.516l.128.807a.394.394 0 0 0 .04.165.654.654 0 0 0 .271.042h.155l-.238.789h-.4c-.061 0-.151 0-.276-.013a.787.787 0 0 1-.286-.116.393.393 0 0 1-.209-.275l-.123-.8-.577.795a1 1 0 0 1-.852.438h-.811l.211-.7h.312a.507.507 0 0 0 .228-.066.381.381 0 0 0 .172-.142l.841-1.189z" class="cls-6" transform="translate(-289.339 -404.463)"/>
            <path id="Path_1224" d="M301.5 419.087h2.949l-.214.7h-1.183l-.181.6h1.2l-.219.727h-1.2l-.294.973c-.034.11.287.125.4.125l.6-.08-.241.8h-1.361a1.149 1.149 0 0 1-.309-.042.322.322 0 0 1-.216-.158.3.3 0 0 1-.073-.312l.389-1.291h-.67l.223-.741h.672l.18-.6h-.669l.213-.7z" class="cls-6" transform="translate(-285.576 -404.53)"/>
            <path id="Path_1225" d="M303.646 417.256h1.21l-.221.733h-1.653l-.18.159c-.075.073-.1.042-.2.095a1.191 1.191 0 0 1-.545.14h-.53l.214-.707h.158a.562.562 0 0 0 .275-.043.64.64 0 0 0 .177-.228l.3-.553h1.2l-.212.4z" class="cls-6" transform="translate(-285.741 -403.962)"/>
            <path id="Path_1226" d="M306.755 418.467a1.9 1.9 0 0 1 .9-.4c.128-.023.934-.016.934-.016l.122-.405H307l-.248.822zm1.6.307h-1.689l-.1.34h1.462a1.318 1.318 0 0 1 .223 0l.107-.337zm-2.189-1.914h1.034l-.152.52a2.758 2.758 0 0 1 .556-.348 4.854 4.854 0 0 1 .74-.163l1.666-.01-.566 1.893a2.251 2.251 0 0 1-.276.63.752.752 0 0 1-.283.26 1.12 1.12 0 0 1-.387.128c-.113.009-.281.012-.514.015h-1.606l-.452 1.5c-.045.148-.066.218-.037.257a.184.184 0 0 0 .154.077l.707-.068-.241.821h-.8c-.25 0-.436 0-.563-.015a.612.612 0 0 1-.334-.067c-.076-.064-.187-.148-.184-.236a2.722 2.722 0 0 1 .093-.4l1.442-4.791z" class="cls-5" transform="translate(-286.528 -403.964)"/>
            <path id="Path_1227" d="M309.9 420.956l-.093.457a.643.643 0 0 1-.184.341.742.742 0 0 1-.555.2l-.57.022-.007.513c-.005.149.032.134.055.157a.154.154 0 0 0 .076.043l.181-.007.545-.034-.225.754h-.623a2.06 2.06 0 0 1-.874-.095c-.1-.072-.119-.154-.116-.3l.04-2.005h1l-.013.41h.24a.342.342 0 0 0 .173-.03.2.2 0 0 0 .068-.107l.1-.32z" class="cls-6" transform="translate(-287.259 -405.004)"/>
            <path id="Path_1228" d="M290.143 407.491c-.035.166-.679 3.128-.68 3.129a2.186 2.186 0 0 1-.578 1.3 1.048 1.048 0 0 1-.683.237.635.635 0 0 1-.711-.608l-.008-.134.13-.807c.002-.007.676-2.7.8-3.06a.373.373 0 0 1 .01-.042 9.209 9.209 0 0 1-1.563-.019c-.007.028-.042.2-.042.2l-.688 3.045-.06.258-.112.842a1.224 1.224 0 0 0 .147.627c.313.55 1.209.633 1.714.633a3.378 3.378 0 0 0 1.676-.391 2.507 2.507 0 0 0 1.072-1.677l.078-.3s.695-2.807.814-3.172c0-.019.007-.029.01-.041a9.247 9.247 0 0 1-1.321-.019z" class="cls-6" transform="translate(-281.786 -401.585)"/>
            <path id="Path_1229" d="M295.671 413.825c-.468-.005-.629-.005-1.173.019l-.022-.037c.047-.21.1-.413.147-.623l.066-.281c.1-.443.2-.952.211-1.109.01-.095.04-.329-.226-.329a.912.912 0 0 0-.352.108c-.065.234-.2.893-.26 1.192-.134.634-.143.706-.2 1.017l-.04.042c-.479-.005-.646-.005-1.2.019l-.026-.043c.092-.377.184-.755.271-1.132a15.99 15.99 0 0 0 .351-1.922l.043-.036c.539-.072.668-.09 1.253-.209l.048.054-.088.329c.1-.06.194-.119.3-.174a1.87 1.87 0 0 1 .746-.173.635.635 0 0 1 .651.366c.113.263.038.586-.108 1.227l-.075.324c-.151.713-.175.844-.256 1.329l-.057.042z" class="cls-6" transform="translate(-283.473 -402.35)"/>
            <path id="Path_1230" d="M298.818 414.065h-.638c-.176 0-.345.008-.607.021l-.015-.022-.016-.021a3.534 3.534 0 0 1 .145-.46 3.3 3.3 0 0 0 .131-.464c.081-.354.131-.607.168-.822s.06-.393.085-.6l.022-.018.023-.019c.279-.039.457-.064.636-.094s.366-.062.657-.116l.009.025.01.025c-.055.221-.108.444-.161.665s-.1.444-.156.665c-.105.469-.146.646-.17.766s-.031.186-.072.428l-.025.022-.026.02z" class="cls-6" transform="translate(-284.729 -402.59)"/>
            <path id="Path_1231" d="M302.505 412.188a2.536 2.536 0 0 1-.277.765.442.442 0 0 1-.346.222c-.037 0-.267 0-.272-.342a2.263 2.263 0 0 1 .075-.531c.123-.539.268-.992.636-.992.291 0 .309.334.184.878zm1.216.054c.163-.717.039-1.051-.122-1.256a1.371 1.371 0 0 0-1.115-.411 2.04 2.04 0 0 0-1.4.49 2.288 2.288 0 0 0-.622 1.206c-.1.436-.216 1.232.507 1.518a2.144 2.144 0 0 0 .754.126 1.965 1.965 0 0 0 1.487-.586 2.569 2.569 0 0 0 .511-1.088z" class="cls-6" transform="translate(-285.452 -402.368)"/>
            <path id="Path_1232" d="M319.675 413.905c-.563-.007-.722-.007-1.244.017l-.032-.042c.141-.533.283-1.068.407-1.608a12.052 12.052 0 0 0 .254-1.407l.043-.035c.558-.077.711-.1 1.293-.207l.019.047c-.107.439-.214.877-.316 1.317-.214.926-.292 1.394-.374 1.875l-.051.043z" class="cls-6" transform="translate(-290.025 -402.381)"/>
            <path id="Path_1233" d="M318.222 412.264a2.51 2.51 0 0 1-.276.759.638.638 0 0 1-.453.22c-.037 0-.266 0-.272-.339a2.268 2.268 0 0 1 .075-.527c.123-.534.269-.985.636-.985.292 0 .415.332.29.872zm1.11.053c.164-.712-.494-.058-.6-.295-.161-.369-.06-1.112-.707-1.361a1.556 1.556 0 0 0-1.331.486 2.273 2.273 0 0 0-.622 1.2c-.1.433-.216 1.223.507 1.507a1.442 1.442 0 0 0 .645.113c.726-.037 1.278-1.134 1.688-1.568.316-.344.369.131.419-.082z" class="cls-6" transform="translate(-289.416 -402.383)"/>
            <path id="Path_1234" d="M308.072 413.825c-.467-.005-.627-.005-1.173.019l-.022-.037c.048-.21.1-.413.149-.623l.063-.281c.1-.443.2-.952.213-1.109.01-.095.039-.329-.228-.329a.913.913 0 0 0-.351.108c-.065.234-.2.893-.262 1.192-.132.634-.143.706-.2 1.017l-.039.042c-.478-.005-.645-.005-1.2.019L305 413.8c.093-.377.184-.755.271-1.132a16.312 16.312 0 0 0 .351-1.922l.043-.036c.538-.072.668-.09 1.252-.209l.047.054-.087.329c.1-.06.194-.119.294-.174a1.873 1.873 0 0 1 .746-.173.638.638 0 0 1 .653.366c.111.263.037.586-.11 1.227l-.073.324c-.151.713-.176.844-.257 1.329l-.057.042z" class="cls-6" transform="translate(-286.623 -402.35)"/>
            <path id="Path_1235" d="M313.411 407.481l-.387.008c-1.006.01-1.409.007-1.576-.013l-.042.2-.357 1.673s-.862 3.554-.9 3.72c.877-.012 1.238-.013 1.388 0l.241-1.16c.001-.002.174-.73.186-.752a.381.381 0 0 1 .11-.107h.078a3.727 3.727 0 0 0 2.284-.494 2.428 2.428 0 0 0 .907-1.441 2.266 2.266 0 0 0 .063-.507 1.078 1.078 0 0 0-.181-.645c-.343-.476-1.021-.482-1.81-.49zm.5 1.742a1.233 1.233 0 0 1-.631.834 2.011 2.011 0 0 1-.89.139h-.21l.019-.085.38-1.661.011-.084.008-.067.151.015s.789.07.81.075a.655.655 0 0 1 .351.836z" class="cls-6" transform="translate(-287.929 -401.581)"/>
            <path id="Path_1236" d="M324.982 410.6l-.046-.053c-.573.119-.677.137-1.2.207l-.043.036v.027-.007c-.4.909-.382.712-.7 1.424v-.087l-.093-1.547-.048-.053c-.6.119-.618.137-1.173.207l-.045.036-.008.063.006.005c.067.357.052.279.122.839.031.273.075.551.106.824.057.451.087.68.153 1.368-.375.623-.465.858-.822 1.4l.019.047c.545-.019.669-.019 1.071-.019l.088-.1c.305-.654 2.616-4.622 2.616-4.622z" class="cls-6" transform="translate(-290.733 -402.361)"/>
            <path id="Path_1237" d="M299.527 410.872c.307-.212.346-.509.085-.663a1.063 1.063 0 0 0-1.03.107c-.31.214-.347.511-.087.665a1.059 1.059 0 0 0 1.032-.108z" class="cls-6" transform="translate(-284.927 -402.252)"/>
            <path id="Path_1238" d="M322.03 416.883l-.453.776a.9.9 0 0 1-.83.465l-.721-.013.21-.7h.139a.449.449 0 0 0 .169-.024.2.2 0 0 0 .091-.084l.268-.424z" class="cls-6" transform="translate(-290.439 -403.97)"/>
        </g>
    </g>
</svg>
