<svg xmlns="http://www.w3.org/2000/svg" width="54" height="54" viewBox="0 0 54 54">
    <defs>
        <linearGradient id="gw21dv99la" x1=".091" x2=".933" y1=".969" y2=".009" gradientUnits="objectBoundingBox">
            <stop offset="0" stop-color="#141a4b"/>
            <stop offset="1" stop-color="#00408f"/>
        </linearGradient>
    </defs>
    <g>
        <g fill="#fff" stroke="#fff" transform="translate(-.112 -.231) translate(.112 .231)">
            <rect width="54" height="54" stroke="none" rx="10"/>
            <rect width="53" height="53" x=".5" y=".5" fill="none" rx="9.5"/>
        </g>
        <path fill="url(#gw21dv99la)" d="M61.776 406.838l-5.456 13.029h-3.559l-2.685-10.4a1.425 1.425 0 0 0-.8-1.145 14.046 14.046 0 0 0-3.322-1.108l.08-.378h5.73a1.57 1.57 0 0 1 1.554 1.327l1.418 7.541 3.5-8.868zm13.95 8.775c.014-3.438-4.751-3.628-4.718-5.165.011-.466.455-.964 1.429-1.09a6.325 6.325 0 0 1 3.32.583l.592-2.762a9.018 9.018 0 0 0-3.149-.579c-3.328 0-5.67 1.772-5.69 4.307-.023 1.876 1.672 2.923 2.948 3.546 1.312.639 1.753 1.048 1.747 1.619-.01.874-1.047 1.26-2.016 1.275a7.028 7.028 0 0 1-3.458-.823l-.61 2.855a10.162 10.162 0 0 0 3.745.693c3.537 0 5.851-1.749 5.863-4.458m8.789 4.254h3.116l-2.719-13.029h-2.879a1.535 1.535 0 0 0-1.433.955l-5.052 12.074h3.534l.7-1.946h4.319zm-3.758-4.617l1.773-4.892 1.021 4.892zm-14.169-8.412L63.8 419.867h-3.364l2.786-13.029z" transform="translate(-.112 -.231) translate(-39.238 -385.709)"/>
    </g>
</svg>
